<svg xmlns="http://www.w3.org/2000/svg" width="673" height="356" viewBox="0 0 673 356">
<style>
text { font-family: Arial, Helvetica, sans-serif; fill: #172033; }
.small { font-size: 11px; }
.label { font-size: 12px; }
.title { font-size: 18px; font-weight: 700; }
.grid { stroke: #e2e8f0; stroke-width: 1; }
</style>
<rect x="0" y="0" width="673" height="356" fill="#ffffff"/>
<text x="28" y="32" class="title">BRCA1 regional driver decomposition, 100 bp bins</text>
<text x="185" y="52" class="small">Darker cells indicate stronger regional signal in the precomputed Module 1 map.</text>
<text x="18" y="88" class="small">pathogenic fraction</text>
<rect x="185" y="70" width="8" height="25" fill="#c74f4f"/>
<rect x="193" y="70" width="8" height="25" fill="#bf3232"/>
<rect x="201" y="70" width="8" height="25" fill="#c13939"/>
<rect x="209" y="70" width="8" height="25" fill="#d17172"/>
<rect x="217" y="70" width="8" height="25" fill="#d68182"/>
<rect x="225" y="70" width="8" height="25" fill="#d78788"/>
<rect x="233" y="70" width="8" height="25" fill="#e6bbbc"/>
<rect x="241" y="70" width="8" height="25" fill="#d37677"/>
<rect x="249" y="70" width="8" height="25" fill="#cf6869"/>
<rect x="257" y="70" width="8" height="25" fill="#cf6869"/>
<rect x="265" y="70" width="8" height="25" fill="#cc5f60"/>
<rect x="273" y="70" width="8" height="25" fill="#d17172"/>
<rect x="281" y="70" width="8" height="25" fill="#cf6869"/>
<rect x="289" y="70" width="8" height="25" fill="#cd6364"/>
<rect x="297" y="70" width="8" height="25" fill="#d98c8e"/>
<rect x="305" y="70" width="8" height="25" fill="#cf6869"/>
<rect x="313" y="70" width="8" height="25" fill="#d68182"/>
<rect x="321" y="70" width="8" height="25" fill="#d37677"/>
<rect x="329" y="70" width="8" height="25" fill="#db9394"/>
<rect x="337" y="70" width="8" height="25" fill="#cf6869"/>
<rect x="345" y="70" width="8" height="25" fill="#d47c7c"/>
<rect x="353" y="70" width="8" height="25" fill="#cd6364"/>
<rect x="361" y="70" width="8" height="25" fill="#d37677"/>
<rect x="369" y="70" width="8" height="25" fill="#d06d6d"/>
<rect x="377" y="70" width="8" height="25" fill="#d06d6d"/>
<rect x="385" y="70" width="8" height="25" fill="#cf6869"/>
<rect x="393" y="70" width="8" height="25" fill="#d06d6d"/>
<rect x="401" y="70" width="8" height="25" fill="#d17172"/>
<rect x="409" y="70" width="8" height="25" fill="#d37677"/>
<rect x="417" y="70" width="8" height="25" fill="#cf6869"/>
<rect x="425" y="70" width="8" height="25" fill="#d17172"/>
<rect x="433" y="70" width="8" height="25" fill="#db9394"/>
<rect x="441" y="70" width="8" height="25" fill="#cd6364"/>
<rect x="449" y="70" width="8" height="25" fill="#cb5b5c"/>
<rect x="457" y="70" width="8" height="25" fill="#d68182"/>
<rect x="465" y="70" width="8" height="25" fill="#d98c8e"/>
<rect x="473" y="70" width="8" height="25" fill="#c54748"/>
<rect x="481" y="70" width="8" height="25" fill="#cf6869"/>
<rect x="489" y="70" width="8" height="25" fill="#d06d6d"/>
<rect x="497" y="70" width="8" height="25" fill="#d47c7c"/>
<rect x="505" y="70" width="8" height="25" fill="#c95353"/>
<rect x="513" y="70" width="8" height="25" fill="#d37677"/>
<rect x="521" y="70" width="8" height="25" fill="#d17172"/>
<rect x="529" y="70" width="8" height="25" fill="#cc5f60"/>
<rect x="537" y="70" width="8" height="25" fill="#d47c7c"/>
<rect x="545" y="70" width="8" height="25" fill="#cc5f60"/>
<rect x="553" y="70" width="8" height="25" fill="#cb5b5c"/>
<rect x="561" y="70" width="8" height="25" fill="#d98c8e"/>
<rect x="569" y="70" width="8" height="25" fill="#d68182"/>
<rect x="577" y="70" width="8" height="25" fill="#cc5f60"/>
<rect x="585" y="70" width="8" height="25" fill="#b91c1c"/>
<rect x="593" y="70" width="8" height="25" fill="#c34040"/>
<rect x="601" y="70" width="8" height="25" fill="#c95353"/>
<rect x="609" y="70" width="8" height="25" fill="#ca5757"/>
<rect x="617" y="70" width="8" height="25" fill="#d68182"/>
<rect x="625" y="70" width="8" height="25" fill="#cb5d5e"/>
<text x="18" y="116" class="small">PTC/PVS1/PM5 among path</text>
<rect x="185" y="98" width="8" height="25" fill="#c23d3d"/>
<rect x="193" y="98" width="8" height="25" fill="#c95353"/>
<rect x="201" y="98" width="8" height="25" fill="#cd6363"/>
<rect x="209" y="98" width="8" height="25" fill="#b91c1c"/>
<rect x="217" y="98" width="8" height="25" fill="#b91c1c"/>
<rect x="225" y="98" width="8" height="25" fill="#b91c1c"/>
<rect x="233" y="98" width="8" height="25" fill="#b91c1c"/>
<rect x="241" y="98" width="8" height="25" fill="#b91c1c"/>
<rect x="249" y="98" width="8" height="25" fill="#b91c1c"/>
<rect x="257" y="98" width="8" height="25" fill="#b91c1c"/>
<rect x="265" y="98" width="8" height="25" fill="#b91c1c"/>
<rect x="273" y="98" width="8" height="25" fill="#b91c1c"/>
<rect x="281" y="98" width="8" height="25" fill="#b91c1c"/>
<rect x="289" y="98" width="8" height="25" fill="#b91c1c"/>
<rect x="297" y="98" width="8" height="25" fill="#b91c1c"/>
<rect x="305" y="98" width="8" height="25" fill="#b91c1c"/>
<rect x="313" y="98" width="8" height="25" fill="#b91c1c"/>
<rect x="321" y="98" width="8" height="25" fill="#b91c1c"/>
<rect x="329" y="98" width="8" height="25" fill="#b91c1c"/>
<rect x="337" y="98" width="8" height="25" fill="#b91c1c"/>
<rect x="345" y="98" width="8" height="25" fill="#b91c1c"/>
<rect x="353" y="98" width="8" height="25" fill="#b91c1c"/>
<rect x="361" y="98" width="8" height="25" fill="#b91c1c"/>
<rect x="369" y="98" width="8" height="25" fill="#b91c1c"/>
<rect x="377" y="98" width="8" height="25" fill="#b91c1c"/>
<rect x="385" y="98" width="8" height="25" fill="#b91c1c"/>
<rect x="393" y="98" width="8" height="25" fill="#b91c1c"/>
<rect x="401" y="98" width="8" height="25" fill="#b91c1c"/>
<rect x="409" y="98" width="8" height="25" fill="#b91c1c"/>
<rect x="417" y="98" width="8" height="25" fill="#b91c1c"/>
<rect x="425" y="98" width="8" height="25" fill="#b91c1c"/>
<rect x="433" y="98" width="8" height="25" fill="#b91c1c"/>
<rect x="441" y="98" width="8" height="25" fill="#b91c1c"/>
<rect x="449" y="98" width="8" height="25" fill="#b91c1c"/>
<rect x="457" y="98" width="8" height="25" fill="#b91c1c"/>
<rect x="465" y="98" width="8" height="25" fill="#b91c1c"/>
<rect x="473" y="98" width="8" height="25" fill="#b91c1c"/>
<rect x="481" y="98" width="8" height="25" fill="#b91c1c"/>
<rect x="489" y="98" width="8" height="25" fill="#b91c1c"/>
<rect x="497" y="98" width="8" height="25" fill="#b91c1c"/>
<rect x="505" y="98" width="8" height="25" fill="#b91c1c"/>
<rect x="513" y="98" width="8" height="25" fill="#bb2525"/>
<rect x="521" y="98" width="8" height="25" fill="#b91c1c"/>
<rect x="529" y="98" width="8" height="25" fill="#b91c1c"/>
<rect x="537" y="98" width="8" height="25" fill="#bc2526"/>
<rect x="545" y="98" width="8" height="25" fill="#b91c1c"/>
<rect x="553" y="98" width="8" height="25" fill="#bb2222"/>
<rect x="561" y="98" width="8" height="25" fill="#b91c1c"/>
<rect x="569" y="98" width="8" height="25" fill="#bc2626"/>
<rect x="577" y="98" width="8" height="25" fill="#c03636"/>
<rect x="585" y="98" width="8" height="25" fill="#d78788"/>
<rect x="593" y="98" width="8" height="25" fill="#c23c3d"/>
<rect x="601" y="98" width="8" height="25" fill="#c54545"/>
<rect x="609" y="98" width="8" height="25" fill="#c03334"/>
<rect x="617" y="98" width="8" height="25" fill="#c64949"/>
<rect x="625" y="98" width="8" height="25" fill="#c13838"/>
<text x="18" y="144" class="small">PP3/SpAI among path</text>
<rect x="185" y="126" width="8" height="25" fill="#f9a870"/>
<rect x="193" y="126" width="8" height="25" fill="#f9934c"/>
<rect x="201" y="126" width="8" height="25" fill="#f97316"/>
<rect x="209" y="126" width="8" height="25" fill="#f8d3ba"/>
<rect x="217" y="126" width="8" height="25" fill="#f8bc92"/>
<rect x="225" y="126" width="8" height="25" fill="#f8ccad"/>
<rect x="233" y="126" width="8" height="25" fill="#f8fafc"/>
<rect x="241" y="126" width="8" height="25" fill="#f8fafc"/>
<rect x="249" y="126" width="8" height="25" fill="#f8d6be"/>
<rect x="257" y="126" width="8" height="25" fill="#f8fafc"/>
<rect x="265" y="126" width="8" height="25" fill="#f8fafc"/>
<rect x="273" y="126" width="8" height="25" fill="#f8fafc"/>
<rect x="281" y="126" width="8" height="25" fill="#f8fafc"/>
<rect x="289" y="126" width="8" height="25" fill="#f8fafc"/>
<rect x="297" y="126" width="8" height="25" fill="#f8fafc"/>
<rect x="305" y="126" width="8" height="25" fill="#f8fafc"/>
<rect x="313" y="126" width="8" height="25" fill="#f8fafc"/>
<rect x="321" y="126" width="8" height="25" fill="#f8fafc"/>
<rect x="329" y="126" width="8" height="25" fill="#f8fafc"/>
<rect x="337" y="126" width="8" height="25" fill="#f8fafc"/>
<rect x="345" y="126" width="8" height="25" fill="#f8fafc"/>
<rect x="353" y="126" width="8" height="25" fill="#f8fafc"/>
<rect x="361" y="126" width="8" height="25" fill="#f8fafc"/>
<rect x="369" y="126" width="8" height="25" fill="#f8fafc"/>
<rect x="377" y="126" width="8" height="25" fill="#f8fafc"/>
<rect x="385" y="126" width="8" height="25" fill="#f8fafc"/>
<rect x="393" y="126" width="8" height="25" fill="#f8fafc"/>
<rect x="401" y="126" width="8" height="25" fill="#f8fafc"/>
<rect x="409" y="126" width="8" height="25" fill="#f8fafc"/>
<rect x="417" y="126" width="8" height="25" fill="#f8fafc"/>
<rect x="425" y="126" width="8" height="25" fill="#f8fafc"/>
<rect x="433" y="126" width="8" height="25" fill="#f8fafc"/>
<rect x="441" y="126" width="8" height="25" fill="#f8fafc"/>
<rect x="449" y="126" width="8" height="25" fill="#f8d9c3"/>
<rect x="457" y="126" width="8" height="25" fill="#f8fafc"/>
<rect x="465" y="126" width="8" height="25" fill="#f8fafc"/>
<rect x="473" y="126" width="8" height="25" fill="#f8fafc"/>
<rect x="481" y="126" width="8" height="25" fill="#f8fafc"/>
<rect x="489" y="126" width="8" height="25" fill="#f8d4bc"/>
<rect x="497" y="126" width="8" height="25" fill="#f8fafc"/>
<rect x="505" y="126" width="8" height="25" fill="#f9a66d"/>
<rect x="513" y="126" width="8" height="25" fill="#f9b485"/>
<rect x="521" y="126" width="8" height="25" fill="#f8fafc"/>
<rect x="529" y="126" width="8" height="25" fill="#f9934c"/>
<rect x="537" y="126" width="8" height="25" fill="#f8be97"/>
<rect x="545" y="126" width="8" height="25" fill="#f8d8c1"/>
<rect x="553" y="126" width="8" height="25" fill="#f8c099"/>
<rect x="561" y="126" width="8" height="25" fill="#f8c9a9"/>
<rect x="569" y="126" width="8" height="25" fill="#f9a266"/>
<rect x="577" y="126" width="8" height="25" fill="#f9a66d"/>
<rect x="585" y="126" width="8" height="25" fill="#f97519"/>
<rect x="593" y="126" width="8" height="25" fill="#f8c19b"/>
<rect x="601" y="126" width="8" height="25" fill="#f8dac6"/>
<rect x="609" y="126" width="8" height="25" fill="#f8fafc"/>
<rect x="617" y="126" width="8" height="25" fill="#f98636"/>
<rect x="625" y="126" width="8" height="25" fill="#f8fafc"/>
<text x="18" y="172" class="small">PS3/PS1/PP4 among path</text>
<rect x="185" y="154" width="8" height="25" fill="#7c3aed"/>
<rect x="193" y="154" width="8" height="25" fill="#7c3aed"/>
<rect x="201" y="154" width="8" height="25" fill="#8141ee"/>
<rect x="209" y="154" width="8" height="25" fill="#f8fafc"/>
<rect x="217" y="154" width="8" height="25" fill="#f8fafc"/>
<rect x="225" y="154" width="8" height="25" fill="#f8fafc"/>
<rect x="233" y="154" width="8" height="25" fill="#f8fafc"/>
<rect x="241" y="154" width="8" height="25" fill="#f8fafc"/>
<rect x="249" y="154" width="8" height="25" fill="#f8fafc"/>
<rect x="257" y="154" width="8" height="25" fill="#f8fafc"/>
<rect x="265" y="154" width="8" height="25" fill="#f8fafc"/>
<rect x="273" y="154" width="8" height="25" fill="#f8fafc"/>
<rect x="281" y="154" width="8" height="25" fill="#f8fafc"/>
<rect x="289" y="154" width="8" height="25" fill="#f8fafc"/>
<rect x="297" y="154" width="8" height="25" fill="#f8fafc"/>
<rect x="305" y="154" width="8" height="25" fill="#f8fafc"/>
<rect x="313" y="154" width="8" height="25" fill="#f8fafc"/>
<rect x="321" y="154" width="8" height="25" fill="#f8fafc"/>
<rect x="329" y="154" width="8" height="25" fill="#f8fafc"/>
<rect x="337" y="154" width="8" height="25" fill="#f8fafc"/>
<rect x="345" y="154" width="8" height="25" fill="#f8fafc"/>
<rect x="353" y="154" width="8" height="25" fill="#f8fafc"/>
<rect x="361" y="154" width="8" height="25" fill="#f8fafc"/>
<rect x="369" y="154" width="8" height="25" fill="#f8fafc"/>
<rect x="377" y="154" width="8" height="25" fill="#f8fafc"/>
<rect x="385" y="154" width="8" height="25" fill="#f8fafc"/>
<rect x="393" y="154" width="8" height="25" fill="#f8fafc"/>
<rect x="401" y="154" width="8" height="25" fill="#f8fafc"/>
<rect x="409" y="154" width="8" height="25" fill="#f8fafc"/>
<rect x="417" y="154" width="8" height="25" fill="#f8fafc"/>
<rect x="425" y="154" width="8" height="25" fill="#f8fafc"/>
<rect x="433" y="154" width="8" height="25" fill="#f8fafc"/>
<rect x="441" y="154" width="8" height="25" fill="#f8fafc"/>
<rect x="449" y="154" width="8" height="25" fill="#f8fafc"/>
<rect x="457" y="154" width="8" height="25" fill="#f8fafc"/>
<rect x="465" y="154" width="8" height="25" fill="#f8fafc"/>
<rect x="473" y="154" width="8" height="25" fill="#f8fafc"/>
<rect x="481" y="154" width="8" height="25" fill="#f8fafc"/>
<rect x="489" y="154" width="8" height="25" fill="#f8fafc"/>
<rect x="497" y="154" width="8" height="25" fill="#f8fafc"/>
<rect x="505" y="154" width="8" height="25" fill="#f8fafc"/>
<rect x="513" y="154" width="8" height="25" fill="#d6c5f8"/>
<rect x="521" y="154" width="8" height="25" fill="#f8fafc"/>
<rect x="529" y="154" width="8" height="25" fill="#f8fafc"/>
<rect x="537" y="154" width="8" height="25" fill="#d4c3f8"/>
<rect x="545" y="154" width="8" height="25" fill="#f8fafc"/>
<rect x="553" y="154" width="8" height="25" fill="#dccef9"/>
<rect x="561" y="154" width="8" height="25" fill="#f8fafc"/>
<rect x="569" y="154" width="8" height="25" fill="#d3c0f7"/>
<rect x="577" y="154" width="8" height="25" fill="#7c3aed"/>
<rect x="585" y="154" width="8" height="25" fill="#7c3aed"/>
<rect x="593" y="154" width="8" height="25" fill="#7c3aed"/>
<rect x="601" y="154" width="8" height="25" fill="#7c3aed"/>
<rect x="609" y="154" width="8" height="25" fill="#7c3aed"/>
<rect x="617" y="154" width="8" height="25" fill="#8243ee"/>
<rect x="625" y="154" width="8" height="25" fill="#7c3aed"/>
<text x="18" y="200" class="small">BS3 count</text>
<rect x="185" y="182" width="8" height="25" fill="#23a854"/>
<rect x="193" y="182" width="8" height="25" fill="#2eac5d"/>
<rect x="201" y="182" width="8" height="25" fill="#28aa58"/>
<rect x="209" y="182" width="8" height="25" fill="#cfeadb"/>
<rect x="217" y="182" width="8" height="25" fill="#c7e7d6"/>
<rect x="225" y="182" width="8" height="25" fill="#cfeadb"/>
<rect x="233" y="182" width="8" height="25" fill="#e3f2ec"/>
<rect x="241" y="182" width="8" height="25" fill="#dbefe5"/>
<rect x="249" y="182" width="8" height="25" fill="#dbefe5"/>
<rect x="257" y="182" width="8" height="25" fill="#dbefe5"/>
<rect x="265" y="182" width="8" height="25" fill="#e9f4f0"/>
<rect x="273" y="182" width="8" height="25" fill="#e9f4f0"/>
<rect x="281" y="182" width="8" height="25" fill="#d4ece0"/>
<rect x="289" y="182" width="8" height="25" fill="#dbefe5"/>
<rect x="297" y="182" width="8" height="25" fill="#e3f2ec"/>
<rect x="305" y="182" width="8" height="25" fill="#d7ede2"/>
<rect x="313" y="182" width="8" height="25" fill="#e9f4f0"/>
<rect x="321" y="182" width="8" height="25" fill="#e9f4f0"/>
<rect x="329" y="182" width="8" height="25" fill="#dff0e8"/>
<rect x="337" y="182" width="8" height="25" fill="#dbefe5"/>
<rect x="345" y="182" width="8" height="25" fill="#dff0e8"/>
<rect x="353" y="182" width="8" height="25" fill="#dff0e8"/>
<rect x="361" y="182" width="8" height="25" fill="#dbefe5"/>
<rect x="369" y="182" width="8" height="25" fill="#dff0e8"/>
<rect x="377" y="182" width="8" height="25" fill="#dff0e8"/>
<rect x="385" y="182" width="8" height="25" fill="#d1ebdd"/>
<rect x="393" y="182" width="8" height="25" fill="#dbefe5"/>
<rect x="401" y="182" width="8" height="25" fill="#d7ede2"/>
<rect x="409" y="182" width="8" height="25" fill="#e9f4f0"/>
<rect x="417" y="182" width="8" height="25" fill="#dbefe5"/>
<rect x="425" y="182" width="8" height="25" fill="#d7ede2"/>
<rect x="433" y="182" width="8" height="25" fill="#dff0e8"/>
<rect x="441" y="182" width="8" height="25" fill="#e9f4f0"/>
<rect x="449" y="182" width="8" height="25" fill="#dff0e8"/>
<rect x="457" y="182" width="8" height="25" fill="#d7ede2"/>
<rect x="465" y="182" width="8" height="25" fill="#dff0e8"/>
<rect x="473" y="182" width="8" height="25" fill="#dff0e8"/>
<rect x="481" y="182" width="8" height="25" fill="#d7ede2"/>
<rect x="489" y="182" width="8" height="25" fill="#dff0e8"/>
<rect x="497" y="182" width="8" height="25" fill="#d1ebdd"/>
<rect x="505" y="182" width="8" height="25" fill="#dbefe5"/>
<rect x="513" y="182" width="8" height="25" fill="#c7e7d6"/>
<rect x="521" y="182" width="8" height="25" fill="#c7e7d6"/>
<rect x="529" y="182" width="8" height="25" fill="#d4ece0"/>
<rect x="537" y="182" width="8" height="25" fill="#cce9d9"/>
<rect x="545" y="182" width="8" height="25" fill="#cae8d8"/>
<rect x="553" y="182" width="8" height="25" fill="#c5e6d4"/>
<rect x="561" y="182" width="8" height="25" fill="#b6e1c8"/>
<rect x="569" y="182" width="8" height="25" fill="#a0d8b7"/>
<rect x="577" y="182" width="8" height="25" fill="#16a34a"/>
<rect x="585" y="182" width="8" height="25" fill="#34af62"/>
<rect x="593" y="182" width="8" height="25" fill="#2aab5a"/>
<rect x="601" y="182" width="8" height="25" fill="#31ad5f"/>
<rect x="609" y="182" width="8" height="25" fill="#1ca54f"/>
<rect x="617" y="182" width="8" height="25" fill="#19a44d"/>
<rect x="625" y="182" width="8" height="25" fill="#50b977"/>
<text x="18" y="228" class="small">mixed codons</text>
<rect x="185" y="210" width="8" height="25" fill="#2b68ec"/>
<rect x="193" y="210" width="8" height="25" fill="#2b68ec"/>
<rect x="201" y="210" width="8" height="25" fill="#2f6aec"/>
<rect x="209" y="210" width="8" height="25" fill="#6a94f1"/>
<rect x="217" y="210" width="8" height="25" fill="#749bf1"/>
<rect x="225" y="210" width="8" height="25" fill="#5484ef"/>
<rect x="233" y="210" width="8" height="25" fill="#3971ed"/>
<rect x="241" y="210" width="8" height="25" fill="#5c8aef"/>
<rect x="249" y="210" width="8" height="25" fill="#618ef0"/>
<rect x="257" y="210" width="8" height="25" fill="#6f98f1"/>
<rect x="265" y="210" width="8" height="25" fill="#6591f0"/>
<rect x="273" y="210" width="8" height="25" fill="#84a7f3"/>
<rect x="281" y="210" width="8" height="25" fill="#799ff2"/>
<rect x="289" y="210" width="8" height="25" fill="#6f98f1"/>
<rect x="297" y="210" width="8" height="25" fill="#8aabf3"/>
<rect x="305" y="210" width="8" height="25" fill="#6f98f1"/>
<rect x="313" y="210" width="8" height="25" fill="#799ff2"/>
<rect x="321" y="210" width="8" height="25" fill="#7ea3f2"/>
<rect x="329" y="210" width="8" height="25" fill="#97b4f4"/>
<rect x="337" y="210" width="8" height="25" fill="#6a94f1"/>
<rect x="345" y="210" width="8" height="25" fill="#749bf1"/>
<rect x="353" y="210" width="8" height="25" fill="#6a94f1"/>
<rect x="361" y="210" width="8" height="25" fill="#6f98f1"/>
<rect x="369" y="210" width="8" height="25" fill="#799ff2"/>
<rect x="377" y="210" width="8" height="25" fill="#6f98f1"/>
<rect x="385" y="210" width="8" height="25" fill="#6a94f1"/>
<rect x="393" y="210" width="8" height="25" fill="#749bf1"/>
<rect x="401" y="210" width="8" height="25" fill="#6591f0"/>
<rect x="409" y="210" width="8" height="25" fill="#6f98f1"/>
<rect x="417" y="210" width="8" height="25" fill="#749bf1"/>
<rect x="425" y="210" width="8" height="25" fill="#749bf1"/>
<rect x="433" y="210" width="8" height="25" fill="#97b4f4"/>
<rect x="441" y="210" width="8" height="25" fill="#6a94f1"/>
<rect x="449" y="210" width="8" height="25" fill="#5484ef"/>
<rect x="457" y="210" width="8" height="25" fill="#6a94f1"/>
<rect x="465" y="210" width="8" height="25" fill="#7ea3f2"/>
<rect x="473" y="210" width="8" height="25" fill="#4c7fee"/>
<rect x="481" y="210" width="8" height="25" fill="#799ff2"/>
<rect x="489" y="210" width="8" height="25" fill="#4c7fee"/>
<rect x="497" y="210" width="8" height="25" fill="#5c8aef"/>
<rect x="505" y="210" width="8" height="25" fill="#3971ed"/>
<rect x="513" y="210" width="8" height="25" fill="#6a94f1"/>
<rect x="521" y="210" width="8" height="25" fill="#5887ef"/>
<rect x="529" y="210" width="8" height="25" fill="#5484ef"/>
<rect x="537" y="210" width="8" height="25" fill="#487cee"/>
<rect x="545" y="210" width="8" height="25" fill="#6591f0"/>
<rect x="553" y="210" width="8" height="25" fill="#5484ef"/>
<rect x="561" y="210" width="8" height="25" fill="#8aabf3"/>
<rect x="569" y="210" width="8" height="25" fill="#6a94f1"/>
<rect x="577" y="210" width="8" height="25" fill="#4077ed"/>
<rect x="585" y="210" width="8" height="25" fill="#2563eb"/>
<rect x="593" y="210" width="8" height="25" fill="#2f6aec"/>
<rect x="601" y="210" width="8" height="25" fill="#2865eb"/>
<rect x="609" y="210" width="8" height="25" fill="#2b68ec"/>
<rect x="617" y="210" width="8" height="25" fill="#3971ed"/>
<rect x="625" y="210" width="8" height="25" fill="#4c7fee"/>
<text x="18" y="256" class="small">residual path fraction</text>
<rect x="185" y="238" width="8" height="25" fill="#f8fafc"/>
<rect x="193" y="238" width="8" height="25" fill="#f8fafc"/>
<rect x="201" y="238" width="8" height="25" fill="#f8fafc"/>
<rect x="209" y="238" width="8" height="25" fill="#f8fafc"/>
<rect x="217" y="238" width="8" height="25" fill="#f8fafc"/>
<rect x="225" y="238" width="8" height="25" fill="#f8fafc"/>
<rect x="233" y="238" width="8" height="25" fill="#f8fafc"/>
<rect x="241" y="238" width="8" height="25" fill="#f8fafc"/>
<rect x="249" y="238" width="8" height="25" fill="#f8fafc"/>
<rect x="257" y="238" width="8" height="25" fill="#f8fafc"/>
<rect x="265" y="238" width="8" height="25" fill="#f8fafc"/>
<rect x="273" y="238" width="8" height="25" fill="#f8fafc"/>
<rect x="281" y="238" width="8" height="25" fill="#f8fafc"/>
<rect x="289" y="238" width="8" height="25" fill="#f8fafc"/>
<rect x="297" y="238" width="8" height="25" fill="#f8fafc"/>
<rect x="305" y="238" width="8" height="25" fill="#f8fafc"/>
<rect x="313" y="238" width="8" height="25" fill="#f8fafc"/>
<rect x="321" y="238" width="8" height="25" fill="#f8fafc"/>
<rect x="329" y="238" width="8" height="25" fill="#f8fafc"/>
<rect x="337" y="238" width="8" height="25" fill="#f8fafc"/>
<rect x="345" y="238" width="8" height="25" fill="#f8fafc"/>
<rect x="353" y="238" width="8" height="25" fill="#f8fafc"/>
<rect x="361" y="238" width="8" height="25" fill="#f8fafc"/>
<rect x="369" y="238" width="8" height="25" fill="#f8fafc"/>
<rect x="377" y="238" width="8" height="25" fill="#f8fafc"/>
<rect x="385" y="238" width="8" height="25" fill="#f8fafc"/>
<rect x="393" y="238" width="8" height="25" fill="#f8fafc"/>
<rect x="401" y="238" width="8" height="25" fill="#f8fafc"/>
<rect x="409" y="238" width="8" height="25" fill="#f8fafc"/>
<rect x="417" y="238" width="8" height="25" fill="#f8fafc"/>
<rect x="425" y="238" width="8" height="25" fill="#f8fafc"/>
<rect x="433" y="238" width="8" height="25" fill="#f8fafc"/>
<rect x="441" y="238" width="8" height="25" fill="#f8fafc"/>
<rect x="449" y="238" width="8" height="25" fill="#f8fafc"/>
<rect x="457" y="238" width="8" height="25" fill="#f8fafc"/>
<rect x="465" y="238" width="8" height="25" fill="#f8fafc"/>
<rect x="473" y="238" width="8" height="25" fill="#f8fafc"/>
<rect x="481" y="238" width="8" height="25" fill="#f8fafc"/>
<rect x="489" y="238" width="8" height="25" fill="#f8fafc"/>
<rect x="497" y="238" width="8" height="25" fill="#f8fafc"/>
<rect x="505" y="238" width="8" height="25" fill="#f8fafc"/>
<rect x="513" y="238" width="8" height="25" fill="#f8fafc"/>
<rect x="521" y="238" width="8" height="25" fill="#f8fafc"/>
<rect x="529" y="238" width="8" height="25" fill="#f8fafc"/>
<rect x="537" y="238" width="8" height="25" fill="#f8fafc"/>
<rect x="545" y="238" width="8" height="25" fill="#f8fafc"/>
<rect x="553" y="238" width="8" height="25" fill="#f8fafc"/>
<rect x="561" y="238" width="8" height="25" fill="#f8fafc"/>
<rect x="569" y="238" width="8" height="25" fill="#f8fafc"/>
<rect x="577" y="238" width="8" height="25" fill="#f8fafc"/>
<rect x="585" y="238" width="8" height="25" fill="#f8fafc"/>
<rect x="593" y="238" width="8" height="25" fill="#f8fafc"/>
<rect x="601" y="238" width="8" height="25" fill="#f8fafc"/>
<rect x="609" y="238" width="8" height="25" fill="#f8fafc"/>
<rect x="617" y="238" width="8" height="25" fill="#f8fafc"/>
<rect x="625" y="238" width="8" height="25" fill="#f8fafc"/>
<rect x="185.2" y="282" width="24.0" height="10" fill="#ddd6fe" stroke="#7c3aed"/>
<text x="185.2" y="306" class="small">RING zinc-binding</text>
<rect x="518.6" y="282" width="8.2" height="10" fill="#ddd6fe" stroke="#7c3aed"/>
<text x="518.6" y="306" class="small">coiled-coil PALB2 interaction region</text>
<rect x="580.8" y="282" width="49.9" height="10" fill="#ddd6fe" stroke="#7c3aed"/>
<text x="580.8" y="306" class="small">BRCT phosphopeptide-binding region</text>
</svg>
