<svg xmlns="http://www.w3.org/2000/svg" width="580" height="369" viewBox="0 0 580 369">
<style>
text{font-family:Arial,sans-serif;font-size:12px;fill:#222}
.title{font-size:20px;font-weight:bold}
.small{font-size:10px;fill:#555}
.cell{stroke:#fff;stroke-width:1}
</style>
<text x="24" y="30" class="title">Class 4 Versus Class 5 Mechanism</text>
<text x="24" y="52" class="small">Counts of generated ARIANE class 4/5 variants, not independently validated biology.</text>
<text x="312.5" y="73" text-anchor="middle">4</text>
<text x="437.5" y="73" text-anchor="middle">5</text>
<text x="24" y="107">functional_multifactorial_pathogenic</text>
<rect x="250" y="85" width="125" height="34" class="cell" fill="#f7f7f7"/>
<rect x="375" y="85" width="125" height="34" class="cell" fill="#feece3"/>
<text x="437.5" y="107" text-anchor="middle">40</text>
<text x="24" y="141">functional_plus_splice_or_computational</text>
<rect x="250" y="119" width="125" height="34" class="cell" fill="#fdeae2"/>
<text x="312.5" y="141" text-anchor="middle">61</text>
<rect x="375" y="119" width="125" height="34" class="cell" fill="#f7f7f7"/>
<text x="24" y="175">functional_ps3_only_or_with_pm2</text>
<rect x="250" y="153" width="125" height="34" class="cell" fill="#ffeee6"/>
<text x="312.5" y="175" text-anchor="middle">2</text>
<rect x="375" y="153" width="125" height="34" class="cell" fill="#f7f7f7"/>
<text x="24" y="209">multifactorial_pp4</text>
<rect x="250" y="187" width="125" height="34" class="cell" fill="#ffeee6"/>
<text x="312.5" y="209" text-anchor="middle">9</text>
<rect x="375" y="187" width="125" height="34" class="cell" fill="#ffeee6"/>
<text x="437.5" y="209" text-anchor="middle">3</text>
<text x="24" y="243">truncating_pvs1_only</text>
<rect x="250" y="221" width="125" height="34" class="cell" fill="#fdeae1"/>
<text x="312.5" y="243" text-anchor="middle">68</text>
<rect x="375" y="221" width="125" height="34" class="cell" fill="#ffede5"/>
<text x="437.5" y="243" text-anchor="middle">17</text>
<text x="24" y="277">truncating_pvs1_pm5_ptc</text>
<rect x="250" y="255" width="125" height="34" class="cell" fill="#ffeee6"/>
<text x="312.5" y="277" text-anchor="middle">1</text>
<rect x="375" y="255" width="125" height="34" class="cell" fill="#b4533c"/>
<text x="437.5" y="277" text-anchor="middle">2240</text>
</svg>