<svg xmlns="http://www.w3.org/2000/svg" width="1180" height="714" viewBox="0 0 1180 714">
<style>
text { font-family: Arial, Helvetica, sans-serif; fill: #172033; }
.small { font-size: 12px; }
.title { font-size: 18px; font-weight: 700; }
</style>
<rect x="0" y="0" width="1180" height="714" fill="#ffffff"/>
<text x="28" y="34" class="title">Most common Module 1 VUS evidence combinations</text>
<text x="28" y="56" class="small">Shows applied automatable criteria among VUS; not an independent classification rule.</text>
<text x="24" y="104" class="small">PM2_Supporting</text>
<rect x="410" y="86" width="610.0" height="22" fill="#4f46e5"/>
<text x="1028.0" y="103" class="small">5046</text>
<text x="24" y="138" class="small">BP4+BP7+PM2_Supporting</text>
<rect x="410" y="120" width="154.3" height="22" fill="#4f46e5"/>
<text x="572.3" y="137" class="small">1276</text>
<text x="24" y="172" class="small">PM2_Supporting+PP3</text>
<rect x="410" y="154" width="95.6" height="22" fill="#4f46e5"/>
<text x="513.6" y="171" class="small">791</text>
<text x="24" y="206" class="small">PM2_Supporting+PS3</text>
<rect x="410" y="188" width="49.2" height="22" fill="#4f46e5"/>
<text x="467.2" y="205" class="small">407</text>
<text x="24" y="240" class="small">none</text>
<rect x="410" y="222" width="40.0" height="22" fill="#4f46e5"/>
<text x="458.0" y="239" class="small">331</text>
<text x="24" y="274" class="small">BS3</text>
<rect x="410" y="256" width="20.6" height="22" fill="#4f46e5"/>
<text x="438.6" y="273" class="small">170</text>
<text x="24" y="308" class="small">PP3</text>
<rect x="410" y="290" width="6.2" height="22" fill="#4f46e5"/>
<text x="424.2" y="307" class="small">51</text>
<text x="24" y="342" class="small">PS3</text>
<rect x="410" y="324" width="3.3" height="22" fill="#4f46e5"/>
<text x="421.3" y="341" class="small">27</text>
<text x="24" y="376" class="small">BP5</text>
<rect x="410" y="358" width="1.3" height="22" fill="#4f46e5"/>
<text x="419.3" y="375" class="small">11</text>
<text x="24" y="410" class="small">BP5+PM2_Supporting</text>
<rect x="410" y="392" width="1.2" height="22" fill="#4f46e5"/>
<text x="419.2" y="409" class="small">10</text>
<text x="24" y="444" class="small">BS1_Supporting</text>
<rect x="410" y="426" width="1.0" height="22" fill="#4f46e5"/>
<text x="419.0" y="443" class="small">8</text>
<text x="24" y="478" class="small">PM2_Supporting+PS1+PS3</text>
<rect x="410" y="460" width="0.5" height="22" fill="#4f46e5"/>
<text x="418.5" y="477" class="small">4</text>
<text x="24" y="512" class="small">PP3+PS3</text>
<rect x="410" y="494" width="0.5" height="22" fill="#4f46e5"/>
<text x="418.5" y="511" class="small">4</text>
<text x="24" y="546" class="small">PM2_Supporting+PP4+PS3</text>
<rect x="410" y="528" width="0.4" height="22" fill="#4f46e5"/>
<text x="418.4" y="545" class="small">3</text>
<text x="24" y="580" class="small">BS1_Supporting+PP3</text>
<rect x="410" y="562" width="0.4" height="22" fill="#4f46e5"/>
<text x="418.4" y="579" class="small">3</text>
<text x="24" y="614" class="small">BS1_Strong</text>
<rect x="410" y="596" width="0.2" height="22" fill="#4f46e5"/>
<text x="418.2" y="613" class="small">2</text>
<text x="24" y="648" class="small">BP5+PM2_Supporting+PP3</text>
<rect x="410" y="630" width="0.2" height="22" fill="#4f46e5"/>
<text x="418.2" y="647" class="small">2</text>
<text x="24" y="682" class="small">BP5+PM2_Supporting+PP3+PS3</text>
<rect x="410" y="664" width="0.2" height="22" fill="#4f46e5"/>
<text x="418.2" y="681" class="small">2</text>
</svg>
