<svg xmlns="http://www.w3.org/2000/svg" width="1180" height="442" viewBox="0 0 1180 442">
<style>
text { font-family: Arial, Helvetica, sans-serif; fill: #172033; }
.small { font-size: 12px; }
.title { font-size: 18px; font-weight: 700; }
</style>
<rect x="0" y="0" width="1180" height="442" fill="#ffffff"/>
<text x="28" y="34" class="title">Why Module 1 VUS remain unresolved</text>
<text x="28" y="56" class="small">Evidence-pattern groups only; not a validated manual-review priority criterion.</text>
<text x="24" y="104" class="small">PM2_only</text>
<rect x="410" y="86" width="610.0" height="22" fill="#4f46e5"/>
<text x="1028.0" y="103" class="small">5046</text>
<text x="24" y="138" class="small">mixed_splice_benign_and_pathogenic</text>
<rect x="410" y="120" width="154.3" height="22" fill="#4f46e5"/>
<text x="572.3" y="137" class="small">1276</text>
<text x="24" y="172" class="small">computational_pathogenic_evidence_not_enough</text>
<rect x="410" y="154" width="101.8" height="22" fill="#4f46e5"/>
<text x="519.8" y="171" class="small">842</text>
<text x="24" y="206" class="small">strong_pathogenic_combo_one_step_short</text>
<rect x="410" y="188" width="53.9" height="22" fill="#4f46e5"/>
<text x="471.9" y="205" class="small">446</text>
<text x="24" y="240" class="small">no_automated_evidence</text>
<rect x="410" y="222" width="40.0" height="22" fill="#4f46e5"/>
<text x="458.0" y="239" class="small">331</text>
<text x="24" y="274" class="small">benign_functional_evidence_not_enough</text>
<rect x="410" y="256" width="20.6" height="22" fill="#4f46e5"/>
<text x="438.6" y="273" class="small">170</text>
<text x="24" y="308" class="small">benign_evidence_not_enough</text>
<rect x="410" y="290" width="2.5" height="22" fill="#4f46e5"/>
<text x="420.5" y="307" class="small">21</text>
<text x="24" y="342" class="small">other_conflicting_evidence</text>
<rect x="410" y="324" width="2.3" height="22" fill="#4f46e5"/>
<text x="420.3" y="341" class="small">19</text>
<text x="24" y="376" class="small">PM2_plus_weak_context</text>
<rect x="410" y="358" width="0.2" height="22" fill="#4f46e5"/>
<text x="418.2" y="375" class="small">2</text>
<text x="24" y="410" class="small">conflicting_PVS1_BS3</text>
<rect x="410" y="392" width="0.1" height="22" fill="#4f46e5"/>
<text x="418.1" y="409" class="small">1</text>
</svg>
