<svg xmlns="http://www.w3.org/2000/svg" width="1090" height="440" viewBox="0 0 1090 440">
<style>
text { font-family: Arial, Helvetica, sans-serif; fill: #172033; }
.small { font-size: 11px; }
.label { font-size: 12px; }
.title { font-size: 18px; font-weight: 700; }
.grid { stroke: #e2e8f0; stroke-width: 1; }
.axis { stroke: #9aa4b2; stroke-width: 1; }
.panel { fill: #f3f4f6; }
.tile { stroke: #ffffff; stroke-width: 1; }
.legend-title { font-size: 11px; font-weight: 700; }
</style>
<rect x="0" y="0" width="1090" height="440" fill="#ffffff"/>
<text x="28" y="34" class="title">BRCA2 exon-level Module 1 signals</text>
<text x="28" y="56" class="small">Cells show percent within exon for selected generated signals and criteria.</text>
<text x="126" y="84" class="small">CDS exon</text>
<rect x="124" y="110" width="834" height="242" class="panel"/>
<text x="130" y="98" class="small">E1</text>
<text x="162" y="98" class="small">E2</text>
<text x="194" y="98" class="small">E3</text>
<text x="226" y="98" class="small">E4</text>
<text x="258" y="98" class="small">E5</text>
<text x="290" y="98" class="small">E6</text>
<text x="322" y="98" class="small">E7</text>
<text x="354" y="98" class="small">E8</text>
<text x="386" y="98" class="small">E9</text>
<text x="418" y="98" class="small">E10</text>
<text x="450" y="98" class="small">E11</text>
<text x="482" y="98" class="small">E12</text>
<text x="514" y="98" class="small">E13</text>
<text x="546" y="98" class="small">E14</text>
<text x="578" y="98" class="small">E15</text>
<text x="610" y="98" class="small">E16</text>
<text x="642" y="98" class="small">E17</text>
<text x="674" y="98" class="small">E18</text>
<text x="706" y="98" class="small">E19</text>
<text x="738" y="98" class="small">E20</text>
<text x="770" y="98" class="small">E21</text>
<text x="802" y="98" class="small">E22</text>
<text x="834" y="98" class="small">E23</text>
<text x="866" y="98" class="small">E24</text>
<text x="898" y="98" class="small">E25</text>
<text x="930" y="98" class="small">E26</text>
<text x="18" y="132" class="small">VUS</text>
<rect x="126" y="112" width="32" height="30" fill="#4e80ee" class="tile"/>
<text x="130" y="131" class="small">61</text>
<rect x="158" y="112" width="32" height="30" fill="#96b4f4" class="tile"/>
<text x="162" y="131" class="small">20</text>
<rect x="190" y="112" width="32" height="30" fill="#bed1f7" class="tile"/>
<rect x="222" y="112" width="32" height="30" fill="#b3c9f6" class="tile"/>
<rect x="254" y="112" width="32" height="30" fill="#b9cef7" class="tile"/>
<rect x="286" y="112" width="32" height="30" fill="#81a6f2" class="tile"/>
<text x="290" y="131" class="small">30</text>
<rect x="318" y="112" width="32" height="30" fill="#acc4f6" class="tile"/>
<rect x="350" y="112" width="32" height="30" fill="#c2d4f8" class="tile"/>
<rect x="382" y="112" width="32" height="30" fill="#e3ecfa" class="tile"/>
<rect x="414" y="112" width="32" height="30" fill="#ecf2fb" class="tile"/>
<rect x="446" y="112" width="32" height="30" fill="#aac2f6" class="tile"/>
<rect x="478" y="112" width="32" height="30" fill="#d6e2f9" class="tile"/>
<rect x="510" y="112" width="32" height="30" fill="#d8e4fa" class="tile"/>
<rect x="542" y="112" width="32" height="30" fill="#2c68ec" class="tile"/>
<text x="546" y="131" class="small">88</text>
<rect x="574" y="112" width="32" height="30" fill="#2966eb" class="tile"/>
<text x="578" y="131" class="small">91</text>
<rect x="606" y="112" width="32" height="30" fill="#2966eb" class="tile"/>
<text x="610" y="131" class="small">90</text>
<rect x="638" y="112" width="32" height="30" fill="#2a66eb" class="tile"/>
<text x="642" y="131" class="small">90</text>
<rect x="670" y="112" width="32" height="30" fill="#2966eb" class="tile"/>
<text x="674" y="131" class="small">91</text>
<rect x="702" y="112" width="32" height="30" fill="#2e69ec" class="tile"/>
<text x="706" y="131" class="small">87</text>
<rect x="734" y="112" width="32" height="30" fill="#2966eb" class="tile"/>
<text x="738" y="131" class="small">91</text>
<rect x="766" y="112" width="32" height="30" fill="#2b67eb" class="tile"/>
<text x="770" y="131" class="small">89</text>
<rect x="798" y="112" width="32" height="30" fill="#2b67eb" class="tile"/>
<text x="802" y="131" class="small">89</text>
<rect x="830" y="112" width="32" height="30" fill="#2966eb" class="tile"/>
<text x="834" y="131" class="small">91</text>
<rect x="862" y="112" width="32" height="30" fill="#2966eb" class="tile"/>
<text x="866" y="131" class="small">91</text>
<rect x="894" y="112" width="32" height="30" fill="#729af1" class="tile"/>
<text x="898" y="131" class="small">38</text>
<rect x="926" y="112" width="32" height="30" fill="#b1c8f6" class="tile"/>
<text x="18" y="162" class="small">pathogenic 4/5</text>
<rect x="126" y="142" width="32" height="30" fill="#ccdbf9" class="tile"/>
<rect x="158" y="142" width="32" height="30" fill="#c2d4f8" class="tile"/>
<rect x="190" y="142" width="32" height="30" fill="#d5e2f9" class="tile"/>
<rect x="222" y="142" width="32" height="30" fill="#c8d8f8" class="tile"/>
<rect x="254" y="142" width="32" height="30" fill="#d0def9" class="tile"/>
<rect x="286" y="142" width="32" height="30" fill="#d0def9" class="tile"/>
<rect x="318" y="142" width="32" height="30" fill="#d4e1f9" class="tile"/>
<rect x="350" y="142" width="32" height="30" fill="#ceddf9" class="tile"/>
<rect x="382" y="142" width="32" height="30" fill="#c5d6f8" class="tile"/>
<rect x="414" y="142" width="32" height="30" fill="#c6d7f8" class="tile"/>
<rect x="446" y="142" width="32" height="30" fill="#bed1f7" class="tile"/>
<rect x="478" y="142" width="32" height="30" fill="#cadaf8" class="tile"/>
<rect x="510" y="142" width="32" height="30" fill="#c8d8f8" class="tile"/>
<rect x="542" y="142" width="32" height="30" fill="#ccdbf8" class="tile"/>
<rect x="574" y="142" width="32" height="30" fill="#c1d3f8" class="tile"/>
<rect x="606" y="142" width="32" height="30" fill="#c1d3f8" class="tile"/>
<rect x="638" y="142" width="32" height="30" fill="#c8d8f8" class="tile"/>
<rect x="670" y="142" width="32" height="30" fill="#c8d8f8" class="tile"/>
<rect x="702" y="142" width="32" height="30" fill="#b8cdf7" class="tile"/>
<rect x="734" y="142" width="32" height="30" fill="#c5d6f8" class="tile"/>
<rect x="766" y="142" width="32" height="30" fill="#bdd0f7" class="tile"/>
<rect x="798" y="142" width="32" height="30" fill="#b9cef7" class="tile"/>
<rect x="830" y="142" width="32" height="30" fill="#c8d8f8" class="tile"/>
<rect x="862" y="142" width="32" height="30" fill="#c5d6f8" class="tile"/>
<rect x="894" y="142" width="32" height="30" fill="#cedcf9" class="tile"/>
<rect x="926" y="142" width="32" height="30" fill="#d5e2f9" class="tile"/>
<text x="18" y="192" class="small">SpAI &gt;=0.20</text>
<rect x="126" y="172" width="32" height="30" fill="#ccdbf9" class="tile"/>
<rect x="158" y="172" width="32" height="30" fill="#d6e3f9" class="tile"/>
<rect x="190" y="172" width="32" height="30" fill="#d1dff9" class="tile"/>
<rect x="222" y="172" width="32" height="30" fill="#b5cbf7" class="tile"/>
<rect x="254" y="172" width="32" height="30" fill="#b9cef7" class="tile"/>
<rect x="286" y="172" width="32" height="30" fill="#b3c9f7" class="tile"/>
<rect x="318" y="172" width="32" height="30" fill="#bcd0f7" class="tile"/>
<rect x="350" y="172" width="32" height="30" fill="#ceddf9" class="tile"/>
<rect x="382" y="172" width="32" height="30" fill="#e6eefb" class="tile"/>
<rect x="414" y="172" width="32" height="30" fill="#eff4fb" class="tile"/>
<rect x="446" y="172" width="32" height="30" fill="#bfd2f8" class="tile"/>
<rect x="478" y="172" width="32" height="30" fill="#d9e5fa" class="tile"/>
<rect x="510" y="172" width="32" height="30" fill="#dde7fa" class="tile"/>
<rect x="542" y="172" width="32" height="30" fill="#bacef7" class="tile"/>
<rect x="574" y="172" width="32" height="30" fill="#b5cbf7" class="tile"/>
<rect x="606" y="172" width="32" height="30" fill="#c5d6f8" class="tile"/>
<rect x="638" y="172" width="32" height="30" fill="#dee8fa" class="tile"/>
<rect x="670" y="172" width="32" height="30" fill="#c0d3f8" class="tile"/>
<rect x="702" y="172" width="32" height="30" fill="#dae5fa" class="tile"/>
<rect x="734" y="172" width="32" height="30" fill="#cbdbf8" class="tile"/>
<rect x="766" y="172" width="32" height="30" fill="#d5e1f9" class="tile"/>
<rect x="798" y="172" width="32" height="30" fill="#93b2f4" class="tile"/>
<text x="802" y="191" class="small">21</text>
<rect x="830" y="172" width="32" height="30" fill="#a5bff5" class="tile"/>
<rect x="862" y="172" width="32" height="30" fill="#e9f0fb" class="tile"/>
<rect x="894" y="172" width="32" height="30" fill="#dce6fa" class="tile"/>
<rect x="926" y="172" width="32" height="30" fill="#ccdbf9" class="tile"/>
<text x="18" y="222" class="small">PVS1</text>
<rect x="126" y="202" width="32" height="30" fill="#cfddf9" class="tile"/>
<rect x="158" y="202" width="32" height="30" fill="#c2d4f8" class="tile"/>
<rect x="190" y="202" width="32" height="30" fill="#d5e2f9" class="tile"/>
<rect x="222" y="202" width="32" height="30" fill="#c8d8f8" class="tile"/>
<rect x="254" y="202" width="32" height="30" fill="#d0def9" class="tile"/>
<rect x="286" y="202" width="32" height="30" fill="#d0def9" class="tile"/>
<rect x="318" y="202" width="32" height="30" fill="#d4e1f9" class="tile"/>
<rect x="350" y="202" width="32" height="30" fill="#ceddf9" class="tile"/>
<rect x="382" y="202" width="32" height="30" fill="#c5d6f8" class="tile"/>
<rect x="414" y="202" width="32" height="30" fill="#c6d7f8" class="tile"/>
<rect x="446" y="202" width="32" height="30" fill="#bed1f7" class="tile"/>
<rect x="478" y="202" width="32" height="30" fill="#cddcf9" class="tile"/>
<rect x="510" y="202" width="32" height="30" fill="#c8d8f8" class="tile"/>
<rect x="542" y="202" width="32" height="30" fill="#ccdbf8" class="tile"/>
<rect x="574" y="202" width="32" height="30" fill="#c1d3f8" class="tile"/>
<rect x="606" y="202" width="32" height="30" fill="#c5d6f8" class="tile"/>
<rect x="638" y="202" width="32" height="30" fill="#cbdaf8" class="tile"/>
<rect x="670" y="202" width="32" height="30" fill="#cadaf8" class="tile"/>
<rect x="702" y="202" width="32" height="30" fill="#b8cdf7" class="tile"/>
<rect x="734" y="202" width="32" height="30" fill="#c5d6f8" class="tile"/>
<rect x="766" y="202" width="32" height="30" fill="#bdd0f7" class="tile"/>
<rect x="798" y="202" width="32" height="30" fill="#bbcff7" class="tile"/>
<rect x="830" y="202" width="32" height="30" fill="#c8d8f8" class="tile"/>
<rect x="862" y="202" width="32" height="30" fill="#c7d8f8" class="tile"/>
<rect x="894" y="202" width="32" height="30" fill="#cedcf9" class="tile"/>
<rect x="926" y="202" width="32" height="30" fill="#d5e1f9" class="tile"/>
<text x="18" y="252" class="small">PP3</text>
<rect x="126" y="232" width="32" height="30" fill="#ccdbf9" class="tile"/>
<rect x="158" y="232" width="32" height="30" fill="#dde7fa" class="tile"/>
<rect x="190" y="232" width="32" height="30" fill="#d1dff9" class="tile"/>
<rect x="222" y="232" width="32" height="30" fill="#bacef7" class="tile"/>
<rect x="254" y="232" width="32" height="30" fill="#bdd0f7" class="tile"/>
<rect x="286" y="232" width="32" height="30" fill="#b8cdf7" class="tile"/>
<rect x="318" y="232" width="32" height="30" fill="#bfd2f7" class="tile"/>
<rect x="350" y="232" width="32" height="30" fill="#d0def9" class="tile"/>
<rect x="382" y="232" width="32" height="30" fill="#e7eefb" class="tile"/>
<rect x="414" y="232" width="32" height="30" fill="#f0f5fb" class="tile"/>
<rect x="446" y="232" width="32" height="30" fill="#c7d8f8" class="tile"/>
<rect x="478" y="232" width="32" height="30" fill="#d9e5fa" class="tile"/>
<rect x="510" y="232" width="32" height="30" fill="#dde7fa" class="tile"/>
<rect x="542" y="232" width="32" height="30" fill="#bcd0f7" class="tile"/>
<rect x="574" y="232" width="32" height="30" fill="#b9cef7" class="tile"/>
<rect x="606" y="232" width="32" height="30" fill="#c8d8f8" class="tile"/>
<rect x="638" y="232" width="32" height="30" fill="#dfe9fa" class="tile"/>
<rect x="670" y="232" width="32" height="30" fill="#c3d5f8" class="tile"/>
<rect x="702" y="232" width="32" height="30" fill="#dee8fa" class="tile"/>
<rect x="734" y="232" width="32" height="30" fill="#cbdbf8" class="tile"/>
<rect x="766" y="232" width="32" height="30" fill="#d8e4fa" class="tile"/>
<rect x="798" y="232" width="32" height="30" fill="#9bb8f5" class="tile"/>
<rect x="830" y="232" width="32" height="30" fill="#a9c2f6" class="tile"/>
<rect x="862" y="232" width="32" height="30" fill="#e9f0fb" class="tile"/>
<rect x="894" y="232" width="32" height="30" fill="#dee8fa" class="tile"/>
<rect x="926" y="232" width="32" height="30" fill="#cedcf9" class="tile"/>
<text x="18" y="282" class="small">PS3</text>
<rect x="126" y="262" width="32" height="30" fill="#e8effb" class="tile"/>
<rect x="158" y="262" width="32" height="30" fill="#e9f0fb" class="tile"/>
<rect x="190" y="262" width="32" height="30" fill="#f7fafc" class="tile"/>
<rect x="222" y="262" width="32" height="30" fill="#f7fafc" class="tile"/>
<rect x="254" y="262" width="32" height="30" fill="#f7fafc" class="tile"/>
<rect x="286" y="262" width="32" height="30" fill="#f7fafc" class="tile"/>
<rect x="318" y="262" width="32" height="30" fill="#f7fafc" class="tile"/>
<rect x="350" y="262" width="32" height="30" fill="#f7fafc" class="tile"/>
<rect x="382" y="262" width="32" height="30" fill="#f3f7fc" class="tile"/>
<rect x="414" y="262" width="32" height="30" fill="#f3f7fc" class="tile"/>
<rect x="446" y="262" width="32" height="30" fill="#f7fafc" class="tile"/>
<rect x="478" y="262" width="32" height="30" fill="#e8effb" class="tile"/>
<rect x="510" y="262" width="32" height="30" fill="#f7fafc" class="tile"/>
<rect x="542" y="262" width="32" height="30" fill="#e5edfb" class="tile"/>
<rect x="574" y="262" width="32" height="30" fill="#dfe9fa" class="tile"/>
<rect x="606" y="262" width="32" height="30" fill="#c0d3f8" class="tile"/>
<rect x="638" y="262" width="32" height="30" fill="#d3e0f9" class="tile"/>
<rect x="670" y="262" width="32" height="30" fill="#cedcf9" class="tile"/>
<rect x="702" y="262" width="32" height="30" fill="#edf3fb" class="tile"/>
<rect x="734" y="262" width="32" height="30" fill="#f7fafc" class="tile"/>
<rect x="766" y="262" width="32" height="30" fill="#eef4fb" class="tile"/>
<rect x="798" y="262" width="32" height="30" fill="#e4ecfa" class="tile"/>
<rect x="830" y="262" width="32" height="30" fill="#d7e3f9" class="tile"/>
<rect x="862" y="262" width="32" height="30" fill="#dbe6fa" class="tile"/>
<rect x="894" y="262" width="32" height="30" fill="#edf3fb" class="tile"/>
<rect x="926" y="262" width="32" height="30" fill="#f2f7fc" class="tile"/>
<text x="18" y="312" class="small">BS3</text>
<rect x="126" y="292" width="32" height="30" fill="#dde7fa" class="tile"/>
<rect x="158" y="292" width="32" height="30" fill="#e4ecfa" class="tile"/>
<rect x="190" y="292" width="32" height="30" fill="#ebf1fb" class="tile"/>
<rect x="222" y="292" width="32" height="30" fill="#f7fafc" class="tile"/>
<rect x="254" y="292" width="32" height="30" fill="#dbe6fa" class="tile"/>
<rect x="286" y="292" width="32" height="30" fill="#e3ecfa" class="tile"/>
<rect x="318" y="292" width="32" height="30" fill="#f7fafc" class="tile"/>
<rect x="350" y="292" width="32" height="30" fill="#ebf1fb" class="tile"/>
<rect x="382" y="292" width="32" height="30" fill="#e9f0fb" class="tile"/>
<rect x="414" y="292" width="32" height="30" fill="#ebf1fb" class="tile"/>
<rect x="446" y="292" width="32" height="30" fill="#dae6fa" class="tile"/>
<rect x="478" y="292" width="32" height="30" fill="#e2ebfa" class="tile"/>
<rect x="510" y="292" width="32" height="30" fill="#eaf0fb" class="tile"/>
<rect x="542" y="292" width="32" height="30" fill="#cad9f8" class="tile"/>
<rect x="574" y="292" width="32" height="30" fill="#d6e2f9" class="tile"/>
<rect x="606" y="292" width="32" height="30" fill="#d2dff9" class="tile"/>
<rect x="638" y="292" width="32" height="30" fill="#ceddf9" class="tile"/>
<rect x="670" y="292" width="32" height="30" fill="#cedcf9" class="tile"/>
<rect x="702" y="292" width="32" height="30" fill="#d6e2f9" class="tile"/>
<rect x="734" y="292" width="32" height="30" fill="#d5e2f9" class="tile"/>
<rect x="766" y="292" width="32" height="30" fill="#dee8fa" class="tile"/>
<rect x="798" y="292" width="32" height="30" fill="#d8e4fa" class="tile"/>
<rect x="830" y="292" width="32" height="30" fill="#d6e2f9" class="tile"/>
<rect x="862" y="292" width="32" height="30" fill="#d9e5fa" class="tile"/>
<rect x="894" y="292" width="32" height="30" fill="#e0e9fa" class="tile"/>
<rect x="926" y="292" width="32" height="30" fill="#e4ecfa" class="tile"/>
<text x="18" y="342" class="small">BP1</text>
<rect x="126" y="322" width="32" height="30" fill="#79a0f2" class="tile"/>
<text x="130" y="341" class="small">34</text>
<rect x="158" y="322" width="32" height="30" fill="#3e75ed" class="tile"/>
<text x="162" y="341" class="small">73</text>
<rect x="190" y="322" width="32" height="30" fill="#2966eb" class="tile"/>
<text x="194" y="341" class="small">91</text>
<rect x="222" y="322" width="32" height="30" fill="#2f6aec" class="tile"/>
<text x="226" y="341" class="small">85</text>
<rect x="254" y="322" width="32" height="30" fill="#2d68ec" class="tile"/>
<text x="258" y="341" class="small">88</text>
<rect x="286" y="322" width="32" height="30" fill="#467bee" class="tile"/>
<text x="290" y="341" class="small">67</text>
<rect x="318" y="322" width="32" height="30" fill="#2f6aec" class="tile"/>
<text x="322" y="341" class="small">85</text>
<rect x="350" y="322" width="32" height="30" fill="#2966eb" class="tile"/>
<text x="354" y="341" class="small">90</text>
<rect x="382" y="322" width="32" height="30" fill="#2664eb" class="tile"/>
<text x="386" y="341" class="small">94</text>
<rect x="414" y="322" width="32" height="30" fill="#2563eb" class="tile"/>
<text x="418" y="341" class="small">94</text>
<rect x="446" y="322" width="32" height="30" fill="#366fec" class="tile"/>
<text x="450" y="341" class="small">80</text>
<rect x="478" y="322" width="32" height="30" fill="#2664eb" class="tile"/>
<text x="482" y="341" class="small">93</text>
<rect x="510" y="322" width="32" height="30" fill="#2764eb" class="tile"/>
<text x="514" y="341" class="small">93</text>
<rect x="542" y="322" width="32" height="30" fill="#d8e4fa" class="tile"/>
<rect x="574" y="322" width="32" height="30" fill="#f7fafc" class="tile"/>
<rect x="606" y="322" width="32" height="30" fill="#f7fafc" class="tile"/>
<rect x="638" y="322" width="32" height="30" fill="#f7fafc" class="tile"/>
<rect x="670" y="322" width="32" height="30" fill="#f7fafc" class="tile"/>
<rect x="702" y="322" width="32" height="30" fill="#f7fafc" class="tile"/>
<rect x="734" y="322" width="32" height="30" fill="#f7fafc" class="tile"/>
<rect x="766" y="322" width="32" height="30" fill="#f7fafc" class="tile"/>
<rect x="798" y="322" width="32" height="30" fill="#f7fafc" class="tile"/>
<rect x="830" y="322" width="32" height="30" fill="#f7fafc" class="tile"/>
<rect x="862" y="322" width="32" height="30" fill="#f7fafc" class="tile"/>
<rect x="894" y="322" width="32" height="30" fill="#5485ef" class="tile"/>
<text x="898" y="341" class="small">57</text>
<rect x="926" y="322" width="32" height="30" fill="#2e69ec" class="tile"/>
<text x="930" y="341" class="small">87</text>
<text x="992" y="102" class="legend-title">percent</text>
<rect x="992" y="112" width="18" height="18" fill="#2563eb" class="tile"/>
<rect x="992" y="130" width="18" height="18" fill="#3b73ed" class="tile"/>
<rect x="992" y="148" width="18" height="18" fill="#5485ef" class="tile"/>
<rect x="992" y="166" width="18" height="18" fill="#729af1" class="tile"/>
<rect x="992" y="184" width="18" height="18" fill="#99b6f4" class="tile"/>
<rect x="992" y="202" width="18" height="18" fill="#f7fafc" class="tile"/>
<text x="1016" y="124" class="small">94.5</text>
<text x="1016" y="214" class="small">0</text>
</svg>
