<svg xmlns="http://www.w3.org/2000/svg" width="1084" height="298" viewBox="0 0 1084 298">
<style>
text { font-family: Arial, Helvetica, sans-serif; fill: #172033; }
.small { font-size: 11px; }
.label { font-size: 12px; }
.title { font-size: 18px; font-weight: 700; }
.grid { stroke: #e2e8f0; stroke-width: 1; }
.axis { stroke: #9aa4b2; stroke-width: 1; }
.panel { fill: #f3f4f6; }
.tile { stroke: #ffffff; stroke-width: 1; }
.legend-title { font-size: 11px; font-weight: 700; }
</style>
<rect x="0" y="0" width="1084" height="298" fill="#ffffff"/>
<text x="28" y="34" class="title">BRCA2 exon-level generated class mix</text>
<text x="28" y="56" class="small">Cells show percent within exon. This is a descriptive Module 1 map, not evidence for reclassification.</text>
<text x="122" y="82" class="small">CDS exon</text>
<rect x="120" y="102" width="834" height="104" class="panel"/>
<text x="126" y="90" class="small">E1</text>
<text x="158" y="90" class="small">E2</text>
<text x="190" y="90" class="small">E3</text>
<text x="222" y="90" class="small">E4</text>
<text x="254" y="90" class="small">E5</text>
<text x="286" y="90" class="small">E6</text>
<text x="318" y="90" class="small">E7</text>
<text x="350" y="90" class="small">E8</text>
<text x="382" y="90" class="small">E9</text>
<text x="414" y="90" class="small">E10</text>
<text x="446" y="90" class="small">E11</text>
<text x="478" y="90" class="small">E12</text>
<text x="510" y="90" class="small">E13</text>
<text x="542" y="90" class="small">E14</text>
<text x="574" y="90" class="small">E15</text>
<text x="606" y="90" class="small">E16</text>
<text x="638" y="90" class="small">E17</text>
<text x="670" y="90" class="small">E18</text>
<text x="702" y="90" class="small">E19</text>
<text x="734" y="90" class="small">E20</text>
<text x="766" y="90" class="small">E21</text>
<text x="798" y="90" class="small">E22</text>
<text x="830" y="90" class="small">E23</text>
<text x="862" y="90" class="small">E24</text>
<text x="894" y="90" class="small">E25</text>
<text x="926" y="90" class="small">E26</text>
<text x="20" y="126" class="label">benign 1/2</text>
<rect x="122" y="104" width="32" height="34" fill="#7fb9d7" class="tile"/>
<text x="126" y="126" class="small">35</text>
<rect x="154" y="104" width="32" height="34" fill="#489cc7" class="tile"/>
<text x="158" y="126" class="small">74</text>
<rect x="186" y="104" width="32" height="34" fill="#3591c1" class="tile"/>
<text x="190" y="126" class="small">91</text>
<rect x="218" y="104" width="32" height="34" fill="#3b94c3" class="tile"/>
<text x="222" y="126" class="small">85</text>
<rect x="250" y="104" width="32" height="34" fill="#3792c2" class="tile"/>
<text x="254" y="126" class="small">89</text>
<rect x="282" y="104" width="32" height="34" fill="#50a0c9" class="tile"/>
<text x="286" y="126" class="small">67</text>
<rect x="314" y="104" width="32" height="34" fill="#3b94c3" class="tile"/>
<text x="318" y="126" class="small">85</text>
<rect x="346" y="104" width="32" height="34" fill="#3591c1" class="tile"/>
<text x="350" y="126" class="small">90</text>
<rect x="378" y="104" width="32" height="34" fill="#318fc0" class="tile"/>
<text x="382" y="126" class="small">94</text>
<rect x="410" y="104" width="32" height="34" fill="#318fc0" class="tile"/>
<text x="414" y="126" class="small">95</text>
<rect x="442" y="104" width="32" height="34" fill="#4097c4" class="tile"/>
<text x="446" y="126" class="small">80</text>
<rect x="474" y="104" width="32" height="34" fill="#3290c0" class="tile"/>
<text x="478" y="126" class="small">93</text>
<rect x="506" y="104" width="32" height="34" fill="#3290c0" class="tile"/>
<text x="510" y="126" class="small">93</text>
<rect x="538" y="104" width="32" height="34" fill="#bedbeb" class="tile"/>
<rect x="570" y="104" width="32" height="34" fill="#d3e6f1" class="tile"/>
<rect x="602" y="104" width="32" height="34" fill="#d2e6f1" class="tile"/>
<rect x="634" y="104" width="32" height="34" fill="#c9e1ee" class="tile"/>
<rect x="666" y="104" width="32" height="34" fill="#cbe2ef" class="tile"/>
<rect x="698" y="104" width="32" height="34" fill="#cbe2ef" class="tile"/>
<rect x="730" y="104" width="32" height="34" fill="#d2e6f1" class="tile"/>
<rect x="762" y="104" width="32" height="34" fill="#d1e5f0" class="tile"/>
<rect x="794" y="104" width="32" height="34" fill="#d7e9f2" class="tile"/>
<rect x="826" y="104" width="32" height="34" fill="#cde3ef" class="tile"/>
<rect x="858" y="104" width="32" height="34" fill="#d1e5f0" class="tile"/>
<rect x="890" y="104" width="32" height="34" fill="#5ba6cd" class="tile"/>
<text x="894" y="126" class="small">58</text>
<rect x="922" y="104" width="32" height="34" fill="#3993c2" class="tile"/>
<text x="926" y="126" class="small">87</text>
<text x="20" y="160" class="label">VUS 3</text>
<rect x="122" y="138" width="32" height="34" fill="#a2a6b1" class="tile"/>
<text x="126" y="160" class="small">61</text>
<rect x="154" y="138" width="32" height="34" fill="#c6cad1" class="tile"/>
<text x="158" y="160" class="small">20</text>
<rect x="186" y="138" width="32" height="34" fill="#dadee3" class="tile"/>
<rect x="218" y="138" width="32" height="34" fill="#d5d8de" class="tile"/>
<rect x="250" y="138" width="32" height="34" fill="#d8dbe1" class="tile"/>
<rect x="282" y="138" width="32" height="34" fill="#bcc0c8" class="tile"/>
<text x="286" y="160" class="small">30</text>
<rect x="314" y="138" width="32" height="34" fill="#d1d5db" class="tile"/>
<rect x="346" y="138" width="32" height="34" fill="#dce0e5" class="tile"/>
<rect x="378" y="138" width="32" height="34" fill="#edf0f3" class="tile"/>
<rect x="410" y="138" width="32" height="34" fill="#f2f5f7" class="tile"/>
<rect x="442" y="138" width="32" height="34" fill="#d0d4da" class="tile"/>
<rect x="474" y="138" width="32" height="34" fill="#e6e9ed" class="tile"/>
<rect x="506" y="138" width="32" height="34" fill="#e8ebee" class="tile"/>
<rect x="538" y="138" width="32" height="34" fill="#9195a2" class="tile"/>
<text x="542" y="160" class="small">88</text>
<rect x="570" y="138" width="32" height="34" fill="#8f94a1" class="tile"/>
<text x="574" y="160" class="small">91</text>
<rect x="602" y="138" width="32" height="34" fill="#8f94a1" class="tile"/>
<text x="606" y="160" class="small">90</text>
<rect x="634" y="138" width="32" height="34" fill="#8f94a1" class="tile"/>
<text x="638" y="160" class="small">90</text>
<rect x="666" y="138" width="32" height="34" fill="#8f94a1" class="tile"/>
<text x="670" y="160" class="small">91</text>
<rect x="698" y="138" width="32" height="34" fill="#9196a3" class="tile"/>
<text x="702" y="160" class="small">87</text>
<rect x="730" y="138" width="32" height="34" fill="#8f94a0" class="tile"/>
<text x="734" y="160" class="small">91</text>
<rect x="762" y="138" width="32" height="34" fill="#9095a1" class="tile"/>
<text x="766" y="160" class="small">89</text>
<rect x="794" y="138" width="32" height="34" fill="#9095a1" class="tile"/>
<text x="798" y="160" class="small">89</text>
<rect x="826" y="138" width="32" height="34" fill="#8f94a0" class="tile"/>
<text x="830" y="160" class="small">91</text>
<rect x="858" y="138" width="32" height="34" fill="#8f94a0" class="tile"/>
<text x="862" y="160" class="small">91</text>
<rect x="890" y="138" width="32" height="34" fill="#b4b8c1" class="tile"/>
<text x="894" y="160" class="small">38</text>
<rect x="922" y="138" width="32" height="34" fill="#d4d7dd" class="tile"/>
<text x="20" y="194" class="label">pathogenic 4/5</text>
<rect x="122" y="172" width="32" height="34" fill="#f1d2d0" class="tile"/>
<rect x="154" y="172" width="32" height="34" fill="#efc8c6" class="tile"/>
<rect x="186" y="172" width="32" height="34" fill="#f2dad9" class="tile"/>
<rect x="218" y="172" width="32" height="34" fill="#f0cecc" class="tile"/>
<rect x="250" y="172" width="32" height="34" fill="#f1d6d4" class="tile"/>
<rect x="282" y="172" width="32" height="34" fill="#f1d6d5" class="tile"/>
<rect x="314" y="172" width="32" height="34" fill="#f2d9d8" class="tile"/>
<rect x="346" y="172" width="32" height="34" fill="#f1d4d2" class="tile"/>
<rect x="378" y="172" width="32" height="34" fill="#f0cbc9" class="tile"/>
<rect x="410" y="172" width="32" height="34" fill="#f0ccca" class="tile"/>
<rect x="442" y="172" width="32" height="34" fill="#efc5c2" class="tile"/>
<rect x="474" y="172" width="32" height="34" fill="#f0d0ce" class="tile"/>
<rect x="506" y="172" width="32" height="34" fill="#f0cecc" class="tile"/>
<rect x="538" y="172" width="32" height="34" fill="#f1d1d0" class="tile"/>
<rect x="570" y="172" width="32" height="34" fill="#efc8c5" class="tile"/>
<rect x="602" y="172" width="32" height="34" fill="#efc8c5" class="tile"/>
<rect x="634" y="172" width="32" height="34" fill="#f0cecc" class="tile"/>
<rect x="666" y="172" width="32" height="34" fill="#f0cecc" class="tile"/>
<rect x="698" y="172" width="32" height="34" fill="#eebfbc" class="tile"/>
<rect x="730" y="172" width="32" height="34" fill="#f0cbc8" class="tile"/>
<rect x="762" y="172" width="32" height="34" fill="#eec4c1" class="tile"/>
<rect x="794" y="172" width="32" height="34" fill="#eec0bd" class="tile"/>
<rect x="826" y="172" width="32" height="34" fill="#f0cecc" class="tile"/>
<rect x="858" y="172" width="32" height="34" fill="#f0cbc9" class="tile"/>
<rect x="890" y="172" width="32" height="34" fill="#f1d4d2" class="tile"/>
<rect x="922" y="172" width="32" height="34" fill="#f2dad9" class="tile"/>
<text x="988" y="94" class="legend-title">percent</text>
<rect x="988" y="104" width="18" height="18" fill="#2563eb" class="tile"/>
<rect x="988" y="122" width="18" height="18" fill="#3b73ed" class="tile"/>
<rect x="988" y="140" width="18" height="18" fill="#5485ef" class="tile"/>
<rect x="988" y="158" width="18" height="18" fill="#729af1" class="tile"/>
<rect x="988" y="176" width="18" height="18" fill="#99b6f4" class="tile"/>
<rect x="988" y="194" width="18" height="18" fill="#f7fafc" class="tile"/>
<text x="1012" y="116" class="small">100</text>
<text x="1012" y="206" class="small">0</text>
</svg>
