<svg xmlns="http://www.w3.org/2000/svg" width="956" height="298" viewBox="0 0 956 298">
<style>
text { font-family: Arial, Helvetica, sans-serif; fill: #172033; }
.small { font-size: 11px; }
.label { font-size: 12px; }
.title { font-size: 18px; font-weight: 700; }
.grid { stroke: #e2e8f0; stroke-width: 1; }
.axis { stroke: #9aa4b2; stroke-width: 1; }
.panel { fill: #f3f4f6; }
.tile { stroke: #ffffff; stroke-width: 1; }
.legend-title { font-size: 11px; font-weight: 700; }
</style>
<rect x="0" y="0" width="956" height="298" fill="#ffffff"/>
<text x="28" y="34" class="title">BRCA1 exon-level generated class mix</text>
<text x="28" y="56" class="small">Cells show percent within exon. This is a descriptive Module 1 map, not evidence for reclassification.</text>
<text x="122" y="82" class="small">CDS exon</text>
<rect x="120" y="102" width="706" height="104" class="panel"/>
<text x="126" y="90" class="small">E1</text>
<text x="158" y="90" class="small">E2</text>
<text x="190" y="90" class="small">E3</text>
<text x="222" y="90" class="small">E4</text>
<text x="254" y="90" class="small">E5</text>
<text x="286" y="90" class="small">E6</text>
<text x="318" y="90" class="small">E7</text>
<text x="350" y="90" class="small">E8</text>
<text x="382" y="90" class="small">E9</text>
<text x="414" y="90" class="small">E10</text>
<text x="446" y="90" class="small">E11</text>
<text x="478" y="90" class="small">E12</text>
<text x="510" y="90" class="small">E13</text>
<text x="542" y="90" class="small">E14</text>
<text x="574" y="90" class="small">E15</text>
<text x="606" y="90" class="small">E16</text>
<text x="638" y="90" class="small">E17</text>
<text x="670" y="90" class="small">E18</text>
<text x="702" y="90" class="small">E19</text>
<text x="734" y="90" class="small">E20</text>
<text x="766" y="90" class="small">E21</text>
<text x="798" y="90" class="small">E22</text>
<text x="20" y="126" class="label">benign 1/2</text>
<rect x="122" y="104" width="32" height="34" fill="#55a2cb" class="tile"/>
<text x="126" y="126" class="small">63</text>
<rect x="154" y="104" width="32" height="34" fill="#5ea8ce" class="tile"/>
<text x="158" y="126" class="small">56</text>
<rect x="186" y="104" width="32" height="34" fill="#4e9fc9" class="tile"/>
<text x="190" y="126" class="small">69</text>
<rect x="218" y="104" width="32" height="34" fill="#54a2ca" class="tile"/>
<text x="222" y="126" class="small">64</text>
<rect x="250" y="104" width="32" height="34" fill="#3390c0" class="tile"/>
<text x="254" y="126" class="small">92</text>
<rect x="282" y="104" width="32" height="34" fill="#3592c1" class="tile"/>
<text x="286" y="126" class="small">90</text>
<rect x="314" y="104" width="32" height="34" fill="#3b95c3" class="tile"/>
<text x="318" y="126" class="small">85</text>
<rect x="346" y="104" width="32" height="34" fill="#5ca7cd" class="tile"/>
<text x="350" y="126" class="small">58</text>
<rect x="378" y="104" width="32" height="34" fill="#3290c0" class="tile"/>
<text x="382" y="126" class="small">93</text>
<rect x="410" y="104" width="32" height="34" fill="#4198c5" class="tile"/>
<text x="414" y="126" class="small">79</text>
<rect x="442" y="104" width="32" height="34" fill="#66acd0" class="tile"/>
<text x="446" y="126" class="small">50</text>
<rect x="474" y="104" width="32" height="34" fill="#4e9fc9" class="tile"/>
<text x="478" y="126" class="small">68</text>
<rect x="506" y="104" width="32" height="34" fill="#3e96c4" class="tile"/>
<text x="510" y="126" class="small">82</text>
<rect x="538" y="104" width="32" height="34" fill="#3391c1" class="tile"/>
<text x="542" y="126" class="small">92</text>
<rect x="570" y="104" width="32" height="34" fill="#5da7cd" class="tile"/>
<text x="574" y="126" class="small">57</text>
<rect x="602" y="104" width="32" height="34" fill="#67add0" class="tile"/>
<text x="606" y="126" class="small">50</text>
<rect x="634" y="104" width="32" height="34" fill="#469ac6" class="tile"/>
<text x="638" y="126" class="small">76</text>
<rect x="666" y="104" width="32" height="34" fill="#58a4cc" class="tile"/>
<text x="670" y="126" class="small">61</text>
<rect x="698" y="104" width="32" height="34" fill="#5aa5cc" class="tile"/>
<text x="702" y="126" class="small">59</text>
<rect x="730" y="104" width="32" height="34" fill="#499cc7" class="tile"/>
<text x="734" y="126" class="small">73</text>
<rect x="762" y="104" width="32" height="34" fill="#4a9dc8" class="tile"/>
<text x="766" y="126" class="small">72</text>
<rect x="794" y="104" width="32" height="34" fill="#50a0c9" class="tile"/>
<text x="798" y="126" class="small">67</text>
<text x="20" y="160" class="label">VUS 3</text>
<rect x="122" y="138" width="32" height="34" fill="#bcc0c8" class="tile"/>
<text x="126" y="160" class="small">30</text>
<rect x="154" y="138" width="32" height="34" fill="#b6bac3" class="tile"/>
<text x="158" y="160" class="small">36</text>
<rect x="186" y="138" width="32" height="34" fill="#c8ccd3" class="tile"/>
<rect x="218" y="138" width="32" height="34" fill="#bdc1c9" class="tile"/>
<text x="222" y="160" class="small">28</text>
<rect x="250" y="138" width="32" height="34" fill="#e5e8ec" class="tile"/>
<rect x="282" y="138" width="32" height="34" fill="#dfe2e6" class="tile"/>
<rect x="314" y="138" width="32" height="34" fill="#ccd0d7" class="tile"/>
<rect x="346" y="138" width="32" height="34" fill="#b0b4bd" class="tile"/>
<text x="350" y="160" class="small">42</text>
<rect x="378" y="138" width="32" height="34" fill="#e7eaee" class="tile"/>
<rect x="410" y="138" width="32" height="34" fill="#ccd0d6" class="tile"/>
<rect x="442" y="138" width="32" height="34" fill="#aeb2bb" class="tile"/>
<text x="446" y="160" class="small">45</text>
<rect x="474" y="138" width="32" height="34" fill="#bfc3ca" class="tile"/>
<text x="478" y="160" class="small">27</text>
<rect x="506" y="138" width="32" height="34" fill="#d2d6db" class="tile"/>
<rect x="538" y="138" width="32" height="34" fill="#e1e4e8" class="tile"/>
<rect x="570" y="138" width="32" height="34" fill="#babec6" class="tile"/>
<text x="574" y="160" class="small">31</text>
<rect x="602" y="138" width="32" height="34" fill="#b4b8c1" class="tile"/>
<text x="606" y="160" class="small">38</text>
<rect x="634" y="138" width="32" height="34" fill="#c9cdd3" class="tile"/>
<rect x="666" y="138" width="32" height="34" fill="#babec6" class="tile"/>
<text x="670" y="160" class="small">32</text>
<rect x="698" y="138" width="32" height="34" fill="#b7bbc4" class="tile"/>
<text x="702" y="160" class="small">35</text>
<rect x="730" y="138" width="32" height="34" fill="#c5c9d0" class="tile"/>
<text x="734" y="160" class="small">21</text>
<rect x="762" y="138" width="32" height="34" fill="#c2c6cd" class="tile"/>
<text x="766" y="160" class="small">24</text>
<rect x="794" y="138" width="32" height="34" fill="#bdc1c9" class="tile"/>
<text x="798" y="160" class="small">28</text>
<text x="20" y="194" class="label">pathogenic 4/5</text>
<rect x="122" y="172" width="32" height="34" fill="#eec4c1" class="tile"/>
<rect x="154" y="172" width="32" height="34" fill="#eec1bd" class="tile"/>
<rect x="186" y="172" width="32" height="34" fill="#ecb2ad" class="tile"/>
<rect x="218" y="172" width="32" height="34" fill="#eec3c0" class="tile"/>
<rect x="250" y="172" width="32" height="34" fill="#f0cecc" class="tile"/>
<rect x="282" y="172" width="32" height="34" fill="#f0cecc" class="tile"/>
<rect x="314" y="172" width="32" height="34" fill="#f7fafc" class="tile"/>
<rect x="346" y="172" width="32" height="34" fill="#f7fafc" class="tile"/>
<rect x="378" y="172" width="32" height="34" fill="#f0cecb" class="tile"/>
<rect x="410" y="172" width="32" height="34" fill="#f0cdcb" class="tile"/>
<rect x="442" y="172" width="32" height="34" fill="#f0cfcd" class="tile"/>
<rect x="474" y="172" width="32" height="34" fill="#f0cdcb" class="tile"/>
<rect x="506" y="172" width="32" height="34" fill="#efc8c5" class="tile"/>
<rect x="538" y="172" width="32" height="34" fill="#f1d2d0" class="tile"/>
<rect x="570" y="172" width="32" height="34" fill="#ecb4af" class="tile"/>
<rect x="602" y="172" width="32" height="34" fill="#ecb3ae" class="tile"/>
<rect x="634" y="172" width="32" height="34" fill="#efc6c4" class="tile"/>
<rect x="666" y="172" width="32" height="34" fill="#eec4c1" class="tile"/>
<rect x="698" y="172" width="32" height="34" fill="#efc8c6" class="tile"/>
<rect x="730" y="172" width="32" height="34" fill="#efc9c7" class="tile"/>
<rect x="762" y="172" width="32" height="34" fill="#f0d0ce" class="tile"/>
<rect x="794" y="172" width="32" height="34" fill="#f0cbc9" class="tile"/>
<text x="860" y="94" class="legend-title">percent</text>
<rect x="860" y="104" width="18" height="18" fill="#2563eb" class="tile"/>
<rect x="860" y="122" width="18" height="18" fill="#3b73ed" class="tile"/>
<rect x="860" y="140" width="18" height="18" fill="#5485ef" class="tile"/>
<rect x="860" y="158" width="18" height="18" fill="#729af1" class="tile"/>
<rect x="860" y="176" width="18" height="18" fill="#99b6f4" class="tile"/>
<rect x="860" y="194" width="18" height="18" fill="#f7fafc" class="tile"/>
<text x="884" y="116" class="small">100</text>
<text x="884" y="206" class="small">0</text>
</svg>
