<svg xmlns="http://www.w3.org/2000/svg" width="1180" height="930" viewBox="0 0 1180 930">
<style>
text { font-family: Arial, Helvetica, sans-serif; fill: #172033; }
.small { font-size: 11px; }
.label { font-size: 12px; }
.title { font-size: 18px; font-weight: 700; }
</style>
<rect x="0" y="0" width="1180" height="930" fill="#ffffff"/>
<text x="28" y="30" class="title">Same codon with mixed generated classes</text>
<text x="330" y="30" class="small">green benign, gray VUS, red pathogenic</text>
<text x="28" y="67" class="small">BRCA1 codon 1692 (all_three_groups)</text>
<rect x="330" y="52" width="34" height="16" fill="#16a34a" opacity="0.82"/>
<text x="334" y="64" class="small" fill="#ffffff">1</text>
<rect x="368" y="52" width="68" height="16" fill="#64748b" opacity="0.82"/>
<text x="372" y="64" class="small" fill="#ffffff">2</text>
<rect x="440" y="52" width="204" height="16" fill="#b91c1c" opacity="0.82"/>
<text x="444" y="64" class="small" fill="#ffffff">6</text>
<text x="570" y="67" class="small">2+3+4+5; max SpliceAI 0.740</text>
<text x="28" y="91" class="small">BRCA1 codon 64 (all_three_groups)</text>
<rect x="330" y="76" width="34" height="16" fill="#16a34a" opacity="0.82"/>
<text x="334" y="88" class="small" fill="#ffffff">1</text>
<rect x="368" y="76" width="102" height="16" fill="#64748b" opacity="0.82"/>
<text x="372" y="88" class="small" fill="#ffffff">3</text>
<rect x="474" y="76" width="170" height="16" fill="#b91c1c" opacity="0.82"/>
<text x="478" y="88" class="small" fill="#ffffff">5</text>
<text x="570" y="91" class="small">2+3+4+5; max SpliceAI 0.870</text>
<text x="28" y="115" class="small">BRCA1 codon 1683 (all_three_groups)</text>
<rect x="330" y="100" width="136" height="16" fill="#16a34a" opacity="0.82"/>
<text x="334" y="112" class="small" fill="#ffffff">4</text>
<rect x="470" y="100" width="34" height="16" fill="#64748b" opacity="0.82"/>
<text x="474" y="112" class="small" fill="#ffffff">1</text>
<rect x="508" y="100" width="136" height="16" fill="#b91c1c" opacity="0.82"/>
<text x="512" y="112" class="small" fill="#ffffff">4</text>
<text x="570" y="115" class="small">2+3+4+5; max SpliceAI 0.710</text>
<text x="28" y="139" class="small">BRCA1 codon 1685 (all_three_groups)</text>
<rect x="330" y="124" width="136" height="16" fill="#16a34a" opacity="0.82"/>
<text x="334" y="136" class="small" fill="#ffffff">4</text>
<rect x="470" y="124" width="34" height="16" fill="#64748b" opacity="0.82"/>
<text x="474" y="136" class="small" fill="#ffffff">1</text>
<rect x="508" y="124" width="136" height="16" fill="#b91c1c" opacity="0.82"/>
<text x="512" y="136" class="small" fill="#ffffff">4</text>
<text x="570" y="139" class="small">2+3+4+5; max SpliceAI 0.520</text>
<text x="28" y="163" class="small">BRCA1 codon 1691 (all_three_groups)</text>
<rect x="330" y="148" width="68" height="16" fill="#16a34a" opacity="0.82"/>
<text x="334" y="160" class="small" fill="#ffffff">2</text>
<rect x="402" y="148" width="102" height="16" fill="#64748b" opacity="0.82"/>
<text x="406" y="160" class="small" fill="#ffffff">3</text>
<rect x="508" y="148" width="136" height="16" fill="#b91c1c" opacity="0.82"/>
<text x="512" y="160" class="small" fill="#ffffff">4</text>
<text x="570" y="163" class="small">2+3+4; max SpliceAI 0.720</text>
<text x="28" y="187" class="small">BRCA2 codon 2659 (all_three_groups)</text>
<rect x="330" y="172" width="34" height="16" fill="#16a34a" opacity="0.82"/>
<text x="334" y="184" class="small" fill="#ffffff">1</text>
<rect x="368" y="172" width="136" height="16" fill="#64748b" opacity="0.82"/>
<text x="372" y="184" class="small" fill="#ffffff">4</text>
<rect x="508" y="172" width="136" height="16" fill="#b91c1c" opacity="0.82"/>
<text x="512" y="184" class="small" fill="#ffffff">4</text>
<text x="570" y="187" class="small">2+3+5; max SpliceAI 0.890</text>
<text x="28" y="211" class="small">BRCA1 codon 1823 (all_three_groups)</text>
<rect x="330" y="196" width="136" height="16" fill="#16a34a" opacity="0.82"/>
<text x="334" y="208" class="small" fill="#ffffff">4</text>
<rect x="470" y="196" width="68" height="16" fill="#64748b" opacity="0.82"/>
<text x="474" y="208" class="small" fill="#ffffff">2</text>
<rect x="542" y="196" width="102" height="16" fill="#b91c1c" opacity="0.82"/>
<text x="546" y="208" class="small" fill="#ffffff">3</text>
<text x="570" y="211" class="small">2+3+4; max SpliceAI 0.800</text>
<text x="28" y="235" class="small">BRCA1 codon 1738 (all_three_groups)</text>
<rect x="330" y="220" width="102" height="16" fill="#16a34a" opacity="0.82"/>
<text x="334" y="232" class="small" fill="#ffffff">3</text>
<rect x="436" y="220" width="102" height="16" fill="#64748b" opacity="0.82"/>
<text x="440" y="232" class="small" fill="#ffffff">3</text>
<rect x="542" y="220" width="102" height="16" fill="#b91c1c" opacity="0.82"/>
<text x="546" y="232" class="small" fill="#ffffff">3</text>
<text x="570" y="235" class="small">2+3+5; max SpliceAI 0.000</text>
<text x="28" y="259" class="small">BRCA1 codon 1663 (all_three_groups)</text>
<rect x="330" y="244" width="68" height="16" fill="#16a34a" opacity="0.82"/>
<text x="334" y="256" class="small" fill="#ffffff">2</text>
<rect x="402" y="244" width="136" height="16" fill="#64748b" opacity="0.82"/>
<text x="406" y="256" class="small" fill="#ffffff">4</text>
<rect x="542" y="244" width="102" height="16" fill="#b91c1c" opacity="0.82"/>
<text x="546" y="256" class="small" fill="#ffffff">3</text>
<text x="570" y="259" class="small">2+3+4; max SpliceAI 0.460</text>
<text x="28" y="283" class="small">BRCA1 codon 1853 (all_three_groups)</text>
<rect x="330" y="268" width="68" height="16" fill="#16a34a" opacity="0.82"/>
<text x="334" y="280" class="small" fill="#ffffff">2</text>
<rect x="402" y="268" width="136" height="16" fill="#64748b" opacity="0.82"/>
<text x="406" y="280" class="small" fill="#ffffff">4</text>
<rect x="542" y="268" width="102" height="16" fill="#b91c1c" opacity="0.82"/>
<text x="546" y="280" class="small" fill="#ffffff">3</text>
<text x="570" y="283" class="small">2+3+5; max SpliceAI 0.010</text>
<text x="28" y="307" class="small">BRCA1 codon 3 (all_three_groups)</text>
<rect x="330" y="292" width="204" height="16" fill="#16a34a" opacity="0.82"/>
<text x="334" y="304" class="small" fill="#ffffff">6</text>
<rect x="538" y="292" width="34" height="16" fill="#64748b" opacity="0.82"/>
<text x="542" y="304" class="small" fill="#ffffff">1</text>
<rect x="576" y="292" width="68" height="16" fill="#b91c1c" opacity="0.82"/>
<text x="580" y="304" class="small" fill="#ffffff">2</text>
<text x="570" y="307" class="small">2+3+5; max SpliceAI 0.090</text>
<text x="28" y="331" class="small">BRCA1 codon 22 (all_three_groups)</text>
<rect x="330" y="316" width="204" height="16" fill="#16a34a" opacity="0.82"/>
<text x="334" y="328" class="small" fill="#ffffff">6</text>
<rect x="538" y="316" width="34" height="16" fill="#64748b" opacity="0.82"/>
<text x="542" y="328" class="small" fill="#ffffff">1</text>
<rect x="576" y="316" width="68" height="16" fill="#b91c1c" opacity="0.82"/>
<text x="580" y="328" class="small" fill="#ffffff">2</text>
<text x="570" y="331" class="small">2+3+5; max SpliceAI 0.070</text>
<text x="28" y="355" class="small">BRCA1 codon 94 (all_three_groups)</text>
<rect x="330" y="340" width="204" height="16" fill="#16a34a" opacity="0.82"/>
<text x="334" y="352" class="small" fill="#ffffff">6</text>
<rect x="538" y="340" width="34" height="16" fill="#64748b" opacity="0.82"/>
<text x="542" y="352" class="small" fill="#ffffff">1</text>
<rect x="576" y="340" width="68" height="16" fill="#b91c1c" opacity="0.82"/>
<text x="580" y="352" class="small" fill="#ffffff">2</text>
<text x="570" y="355" class="small">2+3+4+5; max SpliceAI 0.490</text>
<text x="28" y="379" class="small">BRCA1 codon 261 (all_three_groups)</text>
<rect x="330" y="364" width="204" height="16" fill="#16a34a" opacity="0.82"/>
<text x="334" y="376" class="small" fill="#ffffff">6</text>
<rect x="538" y="364" width="34" height="16" fill="#64748b" opacity="0.82"/>
<text x="542" y="376" class="small" fill="#ffffff">1</text>
<rect x="576" y="364" width="68" height="16" fill="#b91c1c" opacity="0.82"/>
<text x="580" y="376" class="small" fill="#ffffff">2</text>
<text x="570" y="379" class="small">2+3+5; max SpliceAI 0.130</text>
<text x="28" y="403" class="small">BRCA1 codon 702 (all_three_groups)</text>
<rect x="330" y="388" width="204" height="16" fill="#16a34a" opacity="0.82"/>
<text x="334" y="400" class="small" fill="#ffffff">6</text>
<rect x="538" y="388" width="34" height="16" fill="#64748b" opacity="0.82"/>
<text x="542" y="400" class="small" fill="#ffffff">1</text>
<rect x="576" y="388" width="68" height="16" fill="#b91c1c" opacity="0.82"/>
<text x="580" y="400" class="small" fill="#ffffff">2</text>
<text x="570" y="403" class="small">2+3+5; max SpliceAI 0.210</text>
<text x="28" y="427" class="small">BRCA1 codon 752 (all_three_groups)</text>
<rect x="330" y="412" width="204" height="16" fill="#16a34a" opacity="0.82"/>
<text x="334" y="424" class="small" fill="#ffffff">6</text>
<rect x="538" y="412" width="34" height="16" fill="#64748b" opacity="0.82"/>
<text x="542" y="424" class="small" fill="#ffffff">1</text>
<rect x="576" y="412" width="68" height="16" fill="#b91c1c" opacity="0.82"/>
<text x="580" y="424" class="small" fill="#ffffff">2</text>
<text x="570" y="427" class="small">2+3+5; max SpliceAI 0.630</text>
<text x="28" y="451" class="small">BRCA1 codon 1127 (all_three_groups)</text>
<rect x="330" y="436" width="204" height="16" fill="#16a34a" opacity="0.82"/>
<text x="334" y="448" class="small" fill="#ffffff">6</text>
<rect x="538" y="436" width="34" height="16" fill="#64748b" opacity="0.82"/>
<text x="542" y="448" class="small" fill="#ffffff">1</text>
<rect x="576" y="436" width="68" height="16" fill="#b91c1c" opacity="0.82"/>
<text x="580" y="448" class="small" fill="#ffffff">2</text>
<text x="570" y="451" class="small">2+3+5; max SpliceAI 0.230</text>
<text x="28" y="475" class="small">BRCA1 codon 1363 (all_three_groups)</text>
<rect x="330" y="460" width="204" height="16" fill="#16a34a" opacity="0.82"/>
<text x="334" y="472" class="small" fill="#ffffff">6</text>
<rect x="538" y="460" width="34" height="16" fill="#64748b" opacity="0.82"/>
<text x="542" y="472" class="small" fill="#ffffff">1</text>
<rect x="576" y="460" width="68" height="16" fill="#b91c1c" opacity="0.82"/>
<text x="580" y="472" class="small" fill="#ffffff">2</text>
<text x="570" y="475" class="small">2+3+5; max SpliceAI 0.190</text>
<text x="28" y="499" class="small">BRCA1 codon 1463 (all_three_groups)</text>
<rect x="330" y="484" width="204" height="16" fill="#16a34a" opacity="0.82"/>
<text x="334" y="496" class="small" fill="#ffffff">6</text>
<rect x="538" y="484" width="34" height="16" fill="#64748b" opacity="0.82"/>
<text x="542" y="496" class="small" fill="#ffffff">1</text>
<rect x="576" y="484" width="68" height="16" fill="#b91c1c" opacity="0.82"/>
<text x="580" y="496" class="small" fill="#ffffff">2</text>
<text x="570" y="499" class="small">2+3+5; max SpliceAI 0.200</text>
<text x="28" y="523" class="small">BRCA1 codon 1666 (all_three_groups)</text>
<rect x="330" y="508" width="204" height="16" fill="#16a34a" opacity="0.82"/>
<text x="334" y="520" class="small" fill="#ffffff">6</text>
<rect x="538" y="508" width="34" height="16" fill="#64748b" opacity="0.82"/>
<text x="542" y="520" class="small" fill="#ffffff">1</text>
<rect x="576" y="508" width="68" height="16" fill="#b91c1c" opacity="0.82"/>
<text x="580" y="520" class="small" fill="#ffffff">2</text>
<text x="570" y="523" class="small">2+3+5; max SpliceAI 0.320</text>
<text x="28" y="547" class="small">BRCA1 codon 1676 (all_three_groups)</text>
<rect x="330" y="532" width="204" height="16" fill="#16a34a" opacity="0.82"/>
<text x="334" y="544" class="small" fill="#ffffff">6</text>
<rect x="538" y="532" width="34" height="16" fill="#64748b" opacity="0.82"/>
<text x="542" y="544" class="small" fill="#ffffff">1</text>
<rect x="576" y="532" width="68" height="16" fill="#b91c1c" opacity="0.82"/>
<text x="580" y="544" class="small" fill="#ffffff">2</text>
<text x="570" y="547" class="small">2+3+5; max SpliceAI 0.230</text>
<text x="28" y="571" class="small">BRCA1 codon 1710 (all_three_groups)</text>
<rect x="330" y="556" width="204" height="16" fill="#16a34a" opacity="0.82"/>
<text x="334" y="568" class="small" fill="#ffffff">6</text>
<rect x="538" y="556" width="34" height="16" fill="#64748b" opacity="0.82"/>
<text x="542" y="568" class="small" fill="#ffffff">1</text>
<rect x="576" y="556" width="68" height="16" fill="#b91c1c" opacity="0.82"/>
<text x="580" y="568" class="small" fill="#ffffff">2</text>
<text x="570" y="571" class="small">2+3+4+5; max SpliceAI 0.290</text>
<text x="28" y="595" class="small">BRCA1 codon 1712 (all_three_groups)</text>
<rect x="330" y="580" width="204" height="16" fill="#16a34a" opacity="0.82"/>
<text x="334" y="592" class="small" fill="#ffffff">6</text>
<rect x="538" y="580" width="34" height="16" fill="#64748b" opacity="0.82"/>
<text x="542" y="592" class="small" fill="#ffffff">1</text>
<rect x="576" y="580" width="68" height="16" fill="#b91c1c" opacity="0.82"/>
<text x="580" y="592" class="small" fill="#ffffff">2</text>
<text x="570" y="595" class="small">2+3+5; max SpliceAI 0.160</text>
<text x="28" y="619" class="small">BRCA1 codon 1845 (all_three_groups)</text>
<rect x="330" y="604" width="204" height="16" fill="#16a34a" opacity="0.82"/>
<text x="334" y="616" class="small" fill="#ffffff">6</text>
<rect x="538" y="604" width="34" height="16" fill="#64748b" opacity="0.82"/>
<text x="542" y="616" class="small" fill="#ffffff">1</text>
<rect x="576" y="604" width="68" height="16" fill="#b91c1c" opacity="0.82"/>
<text x="580" y="616" class="small" fill="#ffffff">2</text>
<text x="570" y="619" class="small">2+3+5; max SpliceAI 0.000</text>
<text x="28" y="643" class="small">BRCA2 codon 194 (all_three_groups)</text>
<rect x="330" y="628" width="204" height="16" fill="#16a34a" opacity="0.82"/>
<text x="334" y="640" class="small" fill="#ffffff">6</text>
<rect x="538" y="628" width="34" height="16" fill="#64748b" opacity="0.82"/>
<text x="542" y="640" class="small" fill="#ffffff">1</text>
<rect x="576" y="628" width="68" height="16" fill="#b91c1c" opacity="0.82"/>
<text x="580" y="640" class="small" fill="#ffffff">2</text>
<text x="570" y="643" class="small">2+3+5; max SpliceAI 0.410</text>
<text x="28" y="667" class="small">BRCA2 codon 700 (all_three_groups)</text>
<rect x="330" y="652" width="204" height="16" fill="#16a34a" opacity="0.82"/>
<text x="334" y="664" class="small" fill="#ffffff">6</text>
<rect x="538" y="652" width="34" height="16" fill="#64748b" opacity="0.82"/>
<text x="542" y="664" class="small" fill="#ffffff">1</text>
<rect x="576" y="652" width="68" height="16" fill="#b91c1c" opacity="0.82"/>
<text x="580" y="664" class="small" fill="#ffffff">2</text>
<text x="570" y="667" class="small">2+3+5; max SpliceAI 0.130</text>
<text x="28" y="691" class="small">BRCA2 codon 2279 (all_three_groups)</text>
<rect x="330" y="676" width="204" height="16" fill="#16a34a" opacity="0.82"/>
<text x="334" y="688" class="small" fill="#ffffff">6</text>
<rect x="538" y="676" width="34" height="16" fill="#64748b" opacity="0.82"/>
<text x="542" y="688" class="small" fill="#ffffff">1</text>
<rect x="576" y="676" width="68" height="16" fill="#b91c1c" opacity="0.82"/>
<text x="580" y="688" class="small" fill="#ffffff">2</text>
<text x="570" y="691" class="small">2+3+5; max SpliceAI 0.450</text>
<text x="28" y="715" class="small">BRCA2 codon 3226 (all_three_groups)</text>
<rect x="330" y="700" width="204" height="16" fill="#16a34a" opacity="0.82"/>
<text x="334" y="712" class="small" fill="#ffffff">6</text>
<rect x="538" y="700" width="34" height="16" fill="#64748b" opacity="0.82"/>
<text x="542" y="712" class="small" fill="#ffffff">1</text>
<rect x="576" y="700" width="68" height="16" fill="#b91c1c" opacity="0.82"/>
<text x="580" y="712" class="small" fill="#ffffff">2</text>
<text x="570" y="715" class="small">2+3+4; max SpliceAI 0.720</text>
<text x="28" y="739" class="small">BRCA1 codon 85 (all_three_groups)</text>
<rect x="330" y="724" width="170" height="16" fill="#16a34a" opacity="0.82"/>
<text x="334" y="736" class="small" fill="#ffffff">5</text>
<rect x="504" y="724" width="68" height="16" fill="#64748b" opacity="0.82"/>
<text x="508" y="736" class="small" fill="#ffffff">2</text>
<rect x="576" y="724" width="68" height="16" fill="#b91c1c" opacity="0.82"/>
<text x="580" y="736" class="small" fill="#ffffff">2</text>
<text x="570" y="739" class="small">2+3+4+5; max SpliceAI 0.720</text>
<text x="28" y="763" class="small">BRCA1 codon 267 (all_three_groups)</text>
<rect x="330" y="748" width="170" height="16" fill="#16a34a" opacity="0.82"/>
<text x="334" y="760" class="small" fill="#ffffff">5</text>
<rect x="504" y="748" width="68" height="16" fill="#64748b" opacity="0.82"/>
<text x="508" y="760" class="small" fill="#ffffff">2</text>
<rect x="576" y="748" width="68" height="16" fill="#b91c1c" opacity="0.82"/>
<text x="580" y="760" class="small" fill="#ffffff">2</text>
<text x="570" y="763" class="small">2+3+5; max SpliceAI 0.120</text>
<text x="28" y="787" class="small">BRCA1 codon 1559 (all_three_groups)</text>
<rect x="330" y="772" width="170" height="16" fill="#16a34a" opacity="0.82"/>
<text x="334" y="784" class="small" fill="#ffffff">5</text>
<rect x="504" y="772" width="68" height="16" fill="#64748b" opacity="0.82"/>
<text x="508" y="784" class="small" fill="#ffffff">2</text>
<rect x="576" y="772" width="68" height="16" fill="#b91c1c" opacity="0.82"/>
<text x="580" y="784" class="small" fill="#ffffff">2</text>
<text x="570" y="787" class="small">2+3+5; max SpliceAI 0.930</text>
<text x="28" y="811" class="small">BRCA1 codon 1709 (all_three_groups)</text>
<rect x="330" y="796" width="170" height="16" fill="#16a34a" opacity="0.82"/>
<text x="334" y="808" class="small" fill="#ffffff">5</text>
<rect x="504" y="796" width="68" height="16" fill="#64748b" opacity="0.82"/>
<text x="508" y="808" class="small" fill="#ffffff">2</text>
<rect x="576" y="796" width="68" height="16" fill="#b91c1c" opacity="0.82"/>
<text x="580" y="808" class="small" fill="#ffffff">2</text>
<text x="570" y="811" class="small">2+3+4+5; max SpliceAI 0.290</text>
<text x="28" y="835" class="small">BRCA1 codon 1796 (all_three_groups)</text>
<rect x="330" y="820" width="170" height="16" fill="#16a34a" opacity="0.82"/>
<text x="334" y="832" class="small" fill="#ffffff">5</text>
<rect x="504" y="820" width="68" height="16" fill="#64748b" opacity="0.82"/>
<text x="508" y="832" class="small" fill="#ffffff">2</text>
<rect x="576" y="820" width="68" height="16" fill="#b91c1c" opacity="0.82"/>
<text x="580" y="832" class="small" fill="#ffffff">2</text>
<text x="570" y="835" class="small">2+3+5; max SpliceAI 0.020</text>
<text x="28" y="859" class="small">BRCA2 codon 579 (all_three_groups)</text>
<rect x="330" y="844" width="170" height="16" fill="#16a34a" opacity="0.82"/>
<text x="334" y="856" class="small" fill="#ffffff">5</text>
<rect x="504" y="844" width="68" height="16" fill="#64748b" opacity="0.82"/>
<text x="508" y="856" class="small" fill="#ffffff">2</text>
<rect x="576" y="844" width="68" height="16" fill="#b91c1c" opacity="0.82"/>
<text x="580" y="856" class="small" fill="#ffffff">2</text>
<text x="570" y="859" class="small">2+3+5; max SpliceAI 0.620</text>
<text x="28" y="883" class="small">BRCA2 codon 2215 (all_three_groups)</text>
<rect x="330" y="868" width="170" height="16" fill="#16a34a" opacity="0.82"/>
<text x="334" y="880" class="small" fill="#ffffff">5</text>
<rect x="504" y="868" width="68" height="16" fill="#64748b" opacity="0.82"/>
<text x="508" y="880" class="small" fill="#ffffff">2</text>
<rect x="576" y="868" width="68" height="16" fill="#b91c1c" opacity="0.82"/>
<text x="580" y="880" class="small" fill="#ffffff">2</text>
<text x="570" y="883" class="small">2+3+5; max SpliceAI 0.250</text>
</svg>
