<svg xmlns="http://www.w3.org/2000/svg" width="1180" height="930" viewBox="0 0 1180 930">
<style>
text { font-family: Arial, Helvetica, sans-serif; fill: #172033; }
.small { font-size: 11px; }
.label { font-size: 12px; }
.title { font-size: 18px; font-weight: 700; }
</style>
<rect x="0" y="0" width="1180" height="930" fill="#ffffff"/>
<text x="28" y="30" class="title">Same CDS position with mixed generated classes</text>
<text x="330" y="30" class="small">green benign, gray VUS, red pathogenic</text>
<text x="28" y="67" class="small">BRCA1 cds_pos 28 (all_three_groups)</text>
<rect x="330" y="52" width="34" height="16" fill="#16a34a" opacity="0.82"/>
<text x="334" y="64" class="small" fill="#ffffff">1</text>
<rect x="368" y="52" width="34" height="16" fill="#64748b" opacity="0.82"/>
<text x="372" y="64" class="small" fill="#ffffff">1</text>
<rect x="406" y="52" width="34" height="16" fill="#b91c1c" opacity="0.82"/>
<text x="410" y="64" class="small" fill="#ffffff">1</text>
<text x="570" y="67" class="small">2+3+5; max SpliceAI 0.460</text>
<text x="28" y="91" class="small">BRCA1 cds_pos 58 (all_three_groups)</text>
<rect x="330" y="76" width="34" height="16" fill="#16a34a" opacity="0.82"/>
<text x="334" y="88" class="small" fill="#ffffff">1</text>
<rect x="368" y="76" width="34" height="16" fill="#64748b" opacity="0.82"/>
<text x="372" y="88" class="small" fill="#ffffff">1</text>
<rect x="406" y="76" width="34" height="16" fill="#b91c1c" opacity="0.82"/>
<text x="410" y="88" class="small" fill="#ffffff">1</text>
<text x="570" y="91" class="small">2+3+5; max SpliceAI 0.200</text>
<text x="28" y="115" class="small">BRCA1 cds_pos 67 (all_three_groups)</text>
<rect x="330" y="100" width="34" height="16" fill="#16a34a" opacity="0.82"/>
<text x="334" y="112" class="small" fill="#ffffff">1</text>
<rect x="368" y="100" width="34" height="16" fill="#64748b" opacity="0.82"/>
<text x="372" y="112" class="small" fill="#ffffff">1</text>
<rect x="406" y="100" width="34" height="16" fill="#b91c1c" opacity="0.82"/>
<text x="410" y="112" class="small" fill="#ffffff">1</text>
<text x="570" y="115" class="small">2+3+5; max SpliceAI 0.090</text>
<text x="28" y="139" class="small">BRCA1 cds_pos 72 (all_three_groups)</text>
<rect x="330" y="124" width="34" height="16" fill="#16a34a" opacity="0.82"/>
<text x="334" y="136" class="small" fill="#ffffff">1</text>
<rect x="368" y="124" width="34" height="16" fill="#64748b" opacity="0.82"/>
<text x="372" y="136" class="small" fill="#ffffff">1</text>
<rect x="406" y="124" width="34" height="16" fill="#b91c1c" opacity="0.82"/>
<text x="410" y="136" class="small" fill="#ffffff">1</text>
<text x="570" y="139" class="small">2+3+5; max SpliceAI 0.020</text>
<text x="28" y="163" class="small">BRCA1 cds_pos 117 (all_three_groups)</text>
<rect x="330" y="148" width="34" height="16" fill="#16a34a" opacity="0.82"/>
<text x="334" y="160" class="small" fill="#ffffff">1</text>
<rect x="368" y="148" width="34" height="16" fill="#64748b" opacity="0.82"/>
<text x="372" y="160" class="small" fill="#ffffff">1</text>
<rect x="406" y="148" width="34" height="16" fill="#b91c1c" opacity="0.82"/>
<text x="410" y="160" class="small" fill="#ffffff">1</text>
<text x="570" y="163" class="small">2+3+5; max SpliceAI 0.020</text>
<text x="28" y="187" class="small">BRCA1 cds_pos 148 (all_three_groups)</text>
<rect x="330" y="172" width="34" height="16" fill="#16a34a" opacity="0.82"/>
<text x="334" y="184" class="small" fill="#ffffff">1</text>
<rect x="368" y="172" width="34" height="16" fill="#64748b" opacity="0.82"/>
<text x="372" y="184" class="small" fill="#ffffff">1</text>
<rect x="406" y="172" width="34" height="16" fill="#b91c1c" opacity="0.82"/>
<text x="410" y="184" class="small" fill="#ffffff">1</text>
<text x="570" y="187" class="small">2+3+5; max SpliceAI 0.140</text>
<text x="28" y="211" class="small">BRCA1 cds_pos 220 (all_three_groups)</text>
<rect x="330" y="196" width="34" height="16" fill="#16a34a" opacity="0.82"/>
<text x="334" y="208" class="small" fill="#ffffff">1</text>
<rect x="368" y="196" width="34" height="16" fill="#64748b" opacity="0.82"/>
<text x="372" y="208" class="small" fill="#ffffff">1</text>
<rect x="406" y="196" width="34" height="16" fill="#b91c1c" opacity="0.82"/>
<text x="410" y="208" class="small" fill="#ffffff">1</text>
<text x="570" y="211" class="small">2+3+5; max SpliceAI 0.350</text>
<text x="28" y="235" class="small">BRCA1 cds_pos 223 (all_three_groups)</text>
<rect x="330" y="220" width="34" height="16" fill="#16a34a" opacity="0.82"/>
<text x="334" y="232" class="small" fill="#ffffff">1</text>
<rect x="368" y="220" width="34" height="16" fill="#64748b" opacity="0.82"/>
<text x="372" y="232" class="small" fill="#ffffff">1</text>
<rect x="406" y="220" width="34" height="16" fill="#b91c1c" opacity="0.82"/>
<text x="410" y="232" class="small" fill="#ffffff">1</text>
<text x="570" y="235" class="small">2+3+5; max SpliceAI 0.350</text>
<text x="28" y="259" class="small">BRCA1 cds_pos 241 (all_three_groups)</text>
<rect x="330" y="244" width="34" height="16" fill="#16a34a" opacity="0.82"/>
<text x="334" y="256" class="small" fill="#ffffff">1</text>
<rect x="368" y="244" width="34" height="16" fill="#64748b" opacity="0.82"/>
<text x="372" y="256" class="small" fill="#ffffff">1</text>
<rect x="406" y="244" width="34" height="16" fill="#b91c1c" opacity="0.82"/>
<text x="410" y="256" class="small" fill="#ffffff">1</text>
<text x="570" y="259" class="small">2+3+5; max SpliceAI 0.510</text>
<text x="28" y="283" class="small">BRCA1 cds_pos 257 (all_three_groups)</text>
<rect x="330" y="268" width="34" height="16" fill="#16a34a" opacity="0.82"/>
<text x="334" y="280" class="small" fill="#ffffff">1</text>
<rect x="368" y="268" width="34" height="16" fill="#64748b" opacity="0.82"/>
<text x="372" y="280" class="small" fill="#ffffff">1</text>
<rect x="406" y="268" width="34" height="16" fill="#b91c1c" opacity="0.82"/>
<text x="410" y="280" class="small" fill="#ffffff">1</text>
<text x="570" y="283" class="small">2+3+4; max SpliceAI 0.220</text>
<text x="28" y="307" class="small">BRCA1 cds_pos 273 (all_three_groups)</text>
<rect x="330" y="292" width="34" height="16" fill="#16a34a" opacity="0.82"/>
<text x="334" y="304" class="small" fill="#ffffff">1</text>
<rect x="368" y="292" width="34" height="16" fill="#64748b" opacity="0.82"/>
<text x="372" y="304" class="small" fill="#ffffff">1</text>
<rect x="406" y="292" width="34" height="16" fill="#b91c1c" opacity="0.82"/>
<text x="410" y="304" class="small" fill="#ffffff">1</text>
<text x="570" y="307" class="small">2+3+5; max SpliceAI 0.230</text>
<text x="28" y="331" class="small">BRCA1 cds_pos 278 (all_three_groups)</text>
<rect x="330" y="316" width="34" height="16" fill="#16a34a" opacity="0.82"/>
<text x="334" y="328" class="small" fill="#ffffff">1</text>
<rect x="368" y="316" width="34" height="16" fill="#64748b" opacity="0.82"/>
<text x="372" y="328" class="small" fill="#ffffff">1</text>
<rect x="406" y="316" width="34" height="16" fill="#b91c1c" opacity="0.82"/>
<text x="410" y="328" class="small" fill="#ffffff">1</text>
<text x="570" y="331" class="small">2+3+4; max SpliceAI 0.240</text>
<text x="28" y="355" class="small">BRCA1 cds_pos 281 (all_three_groups)</text>
<rect x="330" y="340" width="34" height="16" fill="#16a34a" opacity="0.82"/>
<text x="334" y="352" class="small" fill="#ffffff">1</text>
<rect x="368" y="340" width="34" height="16" fill="#64748b" opacity="0.82"/>
<text x="372" y="352" class="small" fill="#ffffff">1</text>
<rect x="406" y="340" width="34" height="16" fill="#b91c1c" opacity="0.82"/>
<text x="410" y="352" class="small" fill="#ffffff">1</text>
<text x="570" y="355" class="small">2+3+4; max SpliceAI 0.260</text>
<text x="28" y="379" class="small">BRCA1 cds_pos 445 (all_three_groups)</text>
<rect x="330" y="364" width="34" height="16" fill="#16a34a" opacity="0.82"/>
<text x="334" y="376" class="small" fill="#ffffff">1</text>
<rect x="368" y="364" width="34" height="16" fill="#64748b" opacity="0.82"/>
<text x="372" y="376" class="small" fill="#ffffff">1</text>
<rect x="406" y="364" width="34" height="16" fill="#b91c1c" opacity="0.82"/>
<text x="410" y="376" class="small" fill="#ffffff">1</text>
<text x="570" y="379" class="small">2+3+5; max SpliceAI 0.470</text>
<text x="28" y="403" class="small">BRCA1 cds_pos 478 (all_three_groups)</text>
<rect x="330" y="388" width="34" height="16" fill="#16a34a" opacity="0.82"/>
<text x="334" y="400" class="small" fill="#ffffff">1</text>
<rect x="368" y="388" width="34" height="16" fill="#64748b" opacity="0.82"/>
<text x="372" y="400" class="small" fill="#ffffff">1</text>
<rect x="406" y="388" width="34" height="16" fill="#b91c1c" opacity="0.82"/>
<text x="410" y="400" class="small" fill="#ffffff">1</text>
<text x="570" y="403" class="small">1+3+5; max SpliceAI 0.220</text>
<text x="28" y="427" class="small">BRCA1 cds_pos 775 (all_three_groups)</text>
<rect x="330" y="412" width="34" height="16" fill="#16a34a" opacity="0.82"/>
<text x="334" y="424" class="small" fill="#ffffff">1</text>
<rect x="368" y="412" width="34" height="16" fill="#64748b" opacity="0.82"/>
<text x="372" y="424" class="small" fill="#ffffff">1</text>
<rect x="406" y="412" width="34" height="16" fill="#b91c1c" opacity="0.82"/>
<text x="410" y="424" class="small" fill="#ffffff">1</text>
<text x="570" y="427" class="small">2+3+5; max SpliceAI 0.170</text>
<text x="28" y="451" class="small">BRCA1 cds_pos 784 (all_three_groups)</text>
<rect x="330" y="436" width="34" height="16" fill="#16a34a" opacity="0.82"/>
<text x="334" y="448" class="small" fill="#ffffff">1</text>
<rect x="368" y="436" width="34" height="16" fill="#64748b" opacity="0.82"/>
<text x="372" y="448" class="small" fill="#ffffff">1</text>
<rect x="406" y="436" width="34" height="16" fill="#b91c1c" opacity="0.82"/>
<text x="410" y="448" class="small" fill="#ffffff">1</text>
<text x="570" y="451" class="small">2+3+5; max SpliceAI 0.180</text>
<text x="28" y="475" class="small">BRCA1 cds_pos 814 (all_three_groups)</text>
<rect x="330" y="460" width="34" height="16" fill="#16a34a" opacity="0.82"/>
<text x="334" y="472" class="small" fill="#ffffff">1</text>
<rect x="368" y="460" width="34" height="16" fill="#64748b" opacity="0.82"/>
<text x="372" y="472" class="small" fill="#ffffff">1</text>
<rect x="406" y="460" width="34" height="16" fill="#b91c1c" opacity="0.82"/>
<text x="410" y="472" class="small" fill="#ffffff">1</text>
<text x="570" y="475" class="small">2+3+5; max SpliceAI 0.210</text>
<text x="28" y="499" class="small">BRCA1 cds_pos 3400 (all_three_groups)</text>
<rect x="330" y="484" width="34" height="16" fill="#16a34a" opacity="0.82"/>
<text x="334" y="496" class="small" fill="#ffffff">1</text>
<rect x="368" y="484" width="34" height="16" fill="#64748b" opacity="0.82"/>
<text x="372" y="496" class="small" fill="#ffffff">1</text>
<rect x="406" y="484" width="34" height="16" fill="#b91c1c" opacity="0.82"/>
<text x="410" y="496" class="small" fill="#ffffff">1</text>
<text x="570" y="499" class="small">2+3+5; max SpliceAI 0.160</text>
<text x="28" y="523" class="small">BRCA1 cds_pos 3403 (all_three_groups)</text>
<rect x="330" y="508" width="34" height="16" fill="#16a34a" opacity="0.82"/>
<text x="334" y="520" class="small" fill="#ffffff">1</text>
<rect x="368" y="508" width="34" height="16" fill="#64748b" opacity="0.82"/>
<text x="372" y="520" class="small" fill="#ffffff">1</text>
<rect x="406" y="508" width="34" height="16" fill="#b91c1c" opacity="0.82"/>
<text x="410" y="520" class="small" fill="#ffffff">1</text>
<text x="570" y="523" class="small">2+3+5; max SpliceAI 0.180</text>
<text x="28" y="547" class="small">BRCA1 cds_pos 3900 (all_three_groups)</text>
<rect x="330" y="532" width="34" height="16" fill="#16a34a" opacity="0.82"/>
<text x="334" y="544" class="small" fill="#ffffff">1</text>
<rect x="368" y="532" width="34" height="16" fill="#64748b" opacity="0.82"/>
<text x="372" y="544" class="small" fill="#ffffff">1</text>
<rect x="406" y="532" width="34" height="16" fill="#b91c1c" opacity="0.82"/>
<text x="410" y="544" class="small" fill="#ffffff">1</text>
<text x="570" y="547" class="small">2+3+5; max SpliceAI 0.110</text>
<text x="28" y="571" class="small">BRCA1 cds_pos 3910 (all_three_groups)</text>
<rect x="330" y="556" width="34" height="16" fill="#16a34a" opacity="0.82"/>
<text x="334" y="568" class="small" fill="#ffffff">1</text>
<rect x="368" y="556" width="34" height="16" fill="#64748b" opacity="0.82"/>
<text x="372" y="568" class="small" fill="#ffffff">1</text>
<rect x="406" y="556" width="34" height="16" fill="#b91c1c" opacity="0.82"/>
<text x="410" y="568" class="small" fill="#ffffff">1</text>
<text x="570" y="571" class="small">2+3+5; max SpliceAI 0.150</text>
<text x="28" y="595" class="small">BRCA1 cds_pos 3937 (all_three_groups)</text>
<rect x="330" y="580" width="34" height="16" fill="#16a34a" opacity="0.82"/>
<text x="334" y="592" class="small" fill="#ffffff">1</text>
<rect x="368" y="580" width="34" height="16" fill="#64748b" opacity="0.82"/>
<text x="372" y="592" class="small" fill="#ffffff">1</text>
<rect x="406" y="580" width="34" height="16" fill="#b91c1c" opacity="0.82"/>
<text x="410" y="592" class="small" fill="#ffffff">1</text>
<text x="570" y="595" class="small">2+3+5; max SpliceAI 0.150</text>
<text x="28" y="619" class="small">BRCA1 cds_pos 4052 (all_three_groups)</text>
<rect x="330" y="604" width="34" height="16" fill="#16a34a" opacity="0.82"/>
<text x="334" y="616" class="small" fill="#ffffff">1</text>
<rect x="368" y="604" width="34" height="16" fill="#64748b" opacity="0.82"/>
<text x="372" y="616" class="small" fill="#ffffff">1</text>
<rect x="406" y="604" width="34" height="16" fill="#b91c1c" opacity="0.82"/>
<text x="410" y="616" class="small" fill="#ffffff">1</text>
<text x="570" y="619" class="small">2+3+5; max SpliceAI 0.270</text>
<text x="28" y="643" class="small">BRCA1 cds_pos 4054 (all_three_groups)</text>
<rect x="330" y="628" width="34" height="16" fill="#16a34a" opacity="0.82"/>
<text x="334" y="640" class="small" fill="#ffffff">1</text>
<rect x="368" y="628" width="34" height="16" fill="#64748b" opacity="0.82"/>
<text x="372" y="640" class="small" fill="#ffffff">1</text>
<rect x="406" y="628" width="34" height="16" fill="#b91c1c" opacity="0.82"/>
<text x="410" y="640" class="small" fill="#ffffff">1</text>
<text x="570" y="643" class="small">2+3+5; max SpliceAI 0.290</text>
<text x="28" y="667" class="small">BRCA1 cds_pos 4072 (all_three_groups)</text>
<rect x="330" y="652" width="34" height="16" fill="#16a34a" opacity="0.82"/>
<text x="334" y="664" class="small" fill="#ffffff">1</text>
<rect x="368" y="652" width="34" height="16" fill="#64748b" opacity="0.82"/>
<text x="372" y="664" class="small" fill="#ffffff">1</text>
<rect x="406" y="652" width="34" height="16" fill="#b91c1c" opacity="0.82"/>
<text x="410" y="664" class="small" fill="#ffffff">1</text>
<text x="570" y="667" class="small">2+3+5; max SpliceAI 0.330</text>
<text x="28" y="691" class="small">BRCA1 cds_pos 4228 (all_three_groups)</text>
<rect x="330" y="676" width="34" height="16" fill="#16a34a" opacity="0.82"/>
<text x="334" y="688" class="small" fill="#ffffff">1</text>
<rect x="368" y="676" width="34" height="16" fill="#64748b" opacity="0.82"/>
<text x="372" y="688" class="small" fill="#ffffff">1</text>
<rect x="406" y="676" width="34" height="16" fill="#b91c1c" opacity="0.82"/>
<text x="410" y="688" class="small" fill="#ffffff">1</text>
<text x="570" y="691" class="small">2+3+5; max SpliceAI 0.010</text>
<text x="28" y="715" class="small">BRCA1 cds_pos 4255 (all_three_groups)</text>
<rect x="330" y="700" width="34" height="16" fill="#16a34a" opacity="0.82"/>
<text x="334" y="712" class="small" fill="#ffffff">1</text>
<rect x="368" y="700" width="34" height="16" fill="#64748b" opacity="0.82"/>
<text x="372" y="712" class="small" fill="#ffffff">1</text>
<rect x="406" y="700" width="34" height="16" fill="#b91c1c" opacity="0.82"/>
<text x="410" y="712" class="small" fill="#ffffff">1</text>
<text x="570" y="715" class="small">1+3+5; max SpliceAI 0.000</text>
<text x="28" y="739" class="small">BRCA1 cds_pos 4384 (all_three_groups)</text>
<rect x="330" y="724" width="34" height="16" fill="#16a34a" opacity="0.82"/>
<text x="334" y="736" class="small" fill="#ffffff">1</text>
<rect x="368" y="724" width="34" height="16" fill="#64748b" opacity="0.82"/>
<text x="372" y="736" class="small" fill="#ffffff">1</text>
<rect x="406" y="724" width="34" height="16" fill="#b91c1c" opacity="0.82"/>
<text x="410" y="736" class="small" fill="#ffffff">1</text>
<text x="570" y="739" class="small">2+3+5; max SpliceAI 0.380</text>
<text x="28" y="763" class="small">BRCA1 cds_pos 4399 (all_three_groups)</text>
<rect x="330" y="748" width="34" height="16" fill="#16a34a" opacity="0.82"/>
<text x="334" y="760" class="small" fill="#ffffff">1</text>
<rect x="368" y="748" width="34" height="16" fill="#64748b" opacity="0.82"/>
<text x="372" y="760" class="small" fill="#ffffff">1</text>
<rect x="406" y="748" width="34" height="16" fill="#b91c1c" opacity="0.82"/>
<text x="410" y="760" class="small" fill="#ffffff">1</text>
<text x="570" y="763" class="small">2+3+5; max SpliceAI 0.350</text>
<text x="28" y="787" class="small">BRCA1 cds_pos 4503 (all_three_groups)</text>
<rect x="330" y="772" width="34" height="16" fill="#16a34a" opacity="0.82"/>
<text x="334" y="784" class="small" fill="#ffffff">1</text>
<rect x="368" y="772" width="34" height="16" fill="#64748b" opacity="0.82"/>
<text x="372" y="784" class="small" fill="#ffffff">1</text>
<rect x="406" y="772" width="34" height="16" fill="#b91c1c" opacity="0.82"/>
<text x="410" y="784" class="small" fill="#ffffff">1</text>
<text x="570" y="787" class="small">2+3+5; max SpliceAI 0.130</text>
<text x="28" y="811" class="small">BRCA1 cds_pos 4576 (all_three_groups)</text>
<rect x="330" y="796" width="34" height="16" fill="#16a34a" opacity="0.82"/>
<text x="334" y="808" class="small" fill="#ffffff">1</text>
<rect x="368" y="796" width="34" height="16" fill="#64748b" opacity="0.82"/>
<text x="372" y="808" class="small" fill="#ffffff">1</text>
<rect x="406" y="796" width="34" height="16" fill="#b91c1c" opacity="0.82"/>
<text x="410" y="808" class="small" fill="#ffffff">1</text>
<text x="570" y="811" class="small">2+3+5; max SpliceAI 0.600</text>
<text x="28" y="835" class="small">BRCA1 cds_pos 4603 (all_three_groups)</text>
<rect x="330" y="820" width="34" height="16" fill="#16a34a" opacity="0.82"/>
<text x="334" y="832" class="small" fill="#ffffff">1</text>
<rect x="368" y="820" width="34" height="16" fill="#64748b" opacity="0.82"/>
<text x="372" y="832" class="small" fill="#ffffff">1</text>
<rect x="406" y="820" width="34" height="16" fill="#b91c1c" opacity="0.82"/>
<text x="410" y="832" class="small" fill="#ffffff">1</text>
<text x="570" y="835" class="small">2+3+5; max SpliceAI 0.210</text>
<text x="28" y="859" class="small">BRCA1 cds_pos 4658 (all_three_groups)</text>
<rect x="330" y="844" width="34" height="16" fill="#16a34a" opacity="0.82"/>
<text x="334" y="856" class="small" fill="#ffffff">1</text>
<rect x="368" y="844" width="34" height="16" fill="#64748b" opacity="0.82"/>
<text x="372" y="856" class="small" fill="#ffffff">1</text>
<rect x="406" y="844" width="34" height="16" fill="#b91c1c" opacity="0.82"/>
<text x="410" y="856" class="small" fill="#ffffff">1</text>
<text x="570" y="859" class="small">2+3+5; max SpliceAI 0.120</text>
<text x="28" y="883" class="small">BRCA1 cds_pos 4666 (all_three_groups)</text>
<rect x="330" y="868" width="34" height="16" fill="#16a34a" opacity="0.82"/>
<text x="334" y="880" class="small" fill="#ffffff">1</text>
<rect x="368" y="868" width="34" height="16" fill="#64748b" opacity="0.82"/>
<text x="372" y="880" class="small" fill="#ffffff">1</text>
<rect x="406" y="868" width="34" height="16" fill="#b91c1c" opacity="0.82"/>
<text x="410" y="880" class="small" fill="#ffffff">1</text>
<text x="570" y="883" class="small">2+3+5; max SpliceAI 0.870</text>
</svg>
