<svg xmlns="http://www.w3.org/2000/svg" width="980" height="370" viewBox="0 0 980 370">
<style>
text{font-family:Arial,sans-serif;font-size:13px;fill:#222}
.title{font-size:20px;font-weight:bold}
.small{font-size:11px;fill:#555}
.bar{fill:#3f7f5f}
</style>
<text x="24" y="30" class="title">Frequency Criteria By Group</text>
<text x="24" y="73">PM2_Supporting / benign_group</text>
<rect x="330" y="60" width="560" height="18" class="bar"/>
<text x="898" y="74" class="small">33306</text>
<text x="24" y="103">PM2_Supporting / vus</text>
<rect x="330" y="90" width="126" height="18" class="bar"/>
<text x="464" y="104" class="small">7545</text>
<text x="24" y="133">PM2_Supporting / pathogenic_group</text>
<rect x="330" y="120" width="38" height="18" class="bar"/>
<text x="376" y="134" class="small">2315</text>
<text x="24" y="163">BS1_Supporting / benign_group</text>
<rect x="330" y="150" width="2" height="18" class="bar"/>
<text x="340" y="164" class="small">129</text>
<text x="24" y="193">BS1_Strong / benign_group</text>
<rect x="330" y="180" width="1" height="18" class="bar"/>
<text x="339" y="194" class="small">99</text>
<text x="24" y="223">BA1 / benign_group</text>
<rect x="330" y="210" width="0" height="18" class="bar"/>
<text x="338" y="224" class="small">48</text>
<text x="24" y="253">BS1_Supporting / vus</text>
<rect x="330" y="240" width="0" height="18" class="bar"/>
<text x="338" y="254" class="small">11</text>
<text x="24" y="283">BS1_Strong / vus</text>
<rect x="330" y="270" width="0" height="18" class="bar"/>
<text x="338" y="284" class="small">2</text>
<text x="24" y="313">BS1_Supporting / pathogenic_group</text>
<rect x="330" y="300" width="0" height="18" class="bar"/>
<text x="338" y="314" class="small">1</text>
</svg>