<svg xmlns="http://www.w3.org/2000/svg" width="544" height="324" viewBox="0 0 544 324">
<style>
text { font-family: Arial, Helvetica, sans-serif; fill: #172033; }
.small { font-size: 11px; }
.label { font-size: 12px; }
.title { font-size: 18px; font-weight: 700; }
.axis { stroke: #9aa4b2; stroke-width: 1; }
.grid { stroke: #e2e8f0; stroke-width: 1; }
.panel { fill: #f3f4f6; }
.tile { stroke: #ffffff; stroke-width: 1; }
.legend-title { font-size: 11px; font-weight: 700; }
</style>
<rect x="0" y="0" width="544" height="324" fill="#ffffff"/>
<text x="30" y="28" class="title">Variant types by gene</text>
<text x="30" y="52" class="small">Cells show percent of generated coding SNVs within each gene.</text>
<text x="190" y="74" class="small">Gene</text>
<rect x="188" y="108" width="226" height="138" class="panel"/>
<text x="196" y="94" class="small">BRCA1</text>
<text x="308" y="94" class="small">BRCA2</text>
<text x="20" y="132" class="small">initiation_codon</text>
<rect x="190" y="110" width="112" height="34" fill="#f1f6fc" class="tile"/>
<text x="196" y="131" class="small">0.05%</text>
<rect x="302" y="110" width="112" height="34" fill="#f3f7fc" class="tile"/>
<text x="308" y="131" class="small">0.03%</text>
<text x="20" y="166" class="small">missense</text>
<rect x="190" y="144" width="112" height="34" fill="#2563eb" class="tile"/>
<text x="196" y="165" class="small">74.34%</text>
<rect x="302" y="144" width="112" height="34" fill="#2563eb" class="tile"/>
<text x="308" y="165" class="small">74.00%</text>
<text x="20" y="200" class="small">nonsense</text>
<rect x="190" y="178" width="112" height="34" fill="#c2d4f8" class="tile"/>
<text x="196" y="199" class="small">4.79%</text>
<rect x="302" y="178" width="112" height="34" fill="#c0d2f8" class="tile"/>
<text x="308" y="199" class="small">5.18%</text>
<text x="20" y="234" class="small">synonymous</text>
<rect x="190" y="212" width="112" height="34" fill="#88aaf3" class="tile"/>
<text x="196" y="233" class="small">20.82%</text>
<rect x="302" y="212" width="112" height="34" fill="#88aaf3" class="tile"/>
<text x="308" y="233" class="small">20.79%</text>
<text x="448" y="104" class="legend-title">percent</text>
<rect x="448" y="114" width="18" height="18" fill="#2563eb" class="tile"/>
<rect x="448" y="132" width="18" height="18" fill="#3b73ed" class="tile"/>
<rect x="448" y="150" width="18" height="18" fill="#5485ef" class="tile"/>
<rect x="448" y="168" width="18" height="18" fill="#729af1" class="tile"/>
<rect x="448" y="186" width="18" height="18" fill="#99b6f4" class="tile"/>
<rect x="448" y="204" width="18" height="18" fill="#f7fafc" class="tile"/>
<text x="474" y="126" class="small">74.3%</text>
<text x="474" y="216" class="small">0</text>
</svg>
