<svg xmlns="http://www.w3.org/2000/svg" width="554" height="376" viewBox="0 0 554 376">
<style>
text { font-family: Arial, Helvetica, sans-serif; fill: #172033; }
.small { font-size: 11px; }
.label { font-size: 12px; }
.title { font-size: 18px; font-weight: 700; }
.axis { stroke: #9aa4b2; stroke-width: 1; }
.grid { stroke: #e2e8f0; stroke-width: 1; }
.panel { fill: #f3f4f6; }
.tile { stroke: #ffffff; stroke-width: 1; }
.legend-title { font-size: 11px; font-weight: 700; }
</style>
<rect x="0" y="0" width="554" height="376" fill="#ffffff"/>
<text x="30" y="32" class="title">SpliceAI score bins by grouped class</text>
<text x="150" y="58" class="small">Grouped class</text>
<rect x="148" y="94" width="278" height="212" class="panel"/>
<text x="154" y="80" class="small">benign</text>
<text x="246" y="80" class="small">vus</text>
<text x="338" y="80" class="small">pathogenic</text>
<text x="20" y="116" class="small">0</text>
<rect x="150" y="96" width="92" height="30" fill="#2563eb" class="tile"/>
<text x="156" y="115" class="small">28993</text>
<rect x="242" y="96" width="92" height="30" fill="#b3c9f6" class="tile"/>
<text x="248" y="115" class="small">3075</text>
<rect x="334" y="96" width="92" height="30" fill="#c8d8f8" class="tile"/>
<text x="340" y="115" class="small">1479</text>
<text x="20" y="146" class="small">0-0.099</text>
<rect x="150" y="126" width="92" height="30" fill="#8cadf3" class="tile"/>
<text x="156" y="145" class="small">7517</text>
<rect x="242" y="126" width="92" height="30" fill="#b1c8f6" class="tile"/>
<text x="248" y="145" class="small">3196</text>
<rect x="334" y="126" width="92" height="30" fill="#d8e4fa" class="tile"/>
<text x="340" y="145" class="small">621</text>
<text x="20" y="176" class="small">0.10-0.199</text>
<rect x="150" y="156" width="92" height="30" fill="#e1eafa" class="tile"/>
<text x="156" y="175" class="small">314</text>
<rect x="242" y="156" width="92" height="30" fill="#d0def9" class="tile"/>
<text x="248" y="175" class="small">1017</text>
<rect x="334" y="156" width="92" height="30" fill="#e9f0fb" class="tile"/>
<text x="340" y="175" class="small">130</text>
<text x="20" y="206" class="small">0.20-0.499</text>
<rect x="150" y="186" width="92" height="30" fill="#eaf1fb" class="tile"/>
<text x="156" y="205" class="small">104</text>
<rect x="242" y="186" width="92" height="30" fill="#d8e4fa" class="tile"/>
<text x="248" y="205" class="small">616</text>
<rect x="334" y="186" width="92" height="30" fill="#e9f0fb" class="tile"/>
<text x="340" y="205" class="small">137</text>
<text x="20" y="236" class="small">0.50-0.799</text>
<rect x="150" y="216" width="92" height="30" fill="#f2f7fc" class="tile"/>
<text x="156" y="235" class="small">14</text>
<rect x="242" y="216" width="92" height="30" fill="#e8effb" class="tile"/>
<text x="248" y="235" class="small">149</text>
<rect x="334" y="216" width="92" height="30" fill="#eef4fb" class="tile"/>
<text x="340" y="235" class="small">52</text>
<text x="20" y="266" class="small">0.80-1.00</text>
<rect x="150" y="246" width="92" height="30" fill="#f3f7fc" class="tile"/>
<text x="156" y="265" class="small">10</text>
<rect x="242" y="246" width="92" height="30" fill="#ebf1fb" class="tile"/>
<text x="248" y="265" class="small">101</text>
<rect x="334" y="246" width="92" height="30" fill="#f1f6fc" class="tile"/>
<text x="340" y="265" class="small">22</text>
<text x="20" y="296" class="small">missing</text>
<rect x="150" y="276" width="92" height="30" fill="#f7fafc" class="tile"/>
<rect x="242" y="276" width="92" height="30" fill="#f7fafc" class="tile"/>
<rect x="334" y="276" width="92" height="30" fill="#f7fafc" class="tile"/>
<text x="458" y="90" class="legend-title">count</text>
<rect x="458" y="100" width="18" height="18" fill="#2563eb" class="tile"/>
<rect x="458" y="118" width="18" height="18" fill="#3b73ed" class="tile"/>
<rect x="458" y="136" width="18" height="18" fill="#5485ef" class="tile"/>
<rect x="458" y="154" width="18" height="18" fill="#729af1" class="tile"/>
<rect x="458" y="172" width="18" height="18" fill="#99b6f4" class="tile"/>
<rect x="458" y="190" width="18" height="18" fill="#f7fafc" class="tile"/>
<text x="484" y="112" class="small">28993</text>
<text x="484" y="202" class="small">0</text>
</svg>
