<svg xmlns="http://www.w3.org/2000/svg" width="967" height="238" viewBox="0 0 967 238">
<style>
text { font-family: Arial, Helvetica, sans-serif; fill: #172033; }
.small { font-size: 11px; }
.label { font-size: 12px; }
.title { font-size: 18px; font-weight: 700; }
.grid { stroke: #e2e8f0; stroke-width: 1; }
.axis { stroke: #9aa4b2; stroke-width: 1; }
</style>
<rect x="0" y="0" width="967" height="238" fill="#ffffff"/>
<text x="28" y="34" class="title">PVS1 hotspot enrichment</text>
<text x="72" y="58" class="small">Each gene is split into 120 CDS bins; darker means stronger enrichment, capped at 16x</text>
<text x="24" y="99" class="label">BRCA1</text>
<rect x="72" y="78" width="7" height="29" fill="#ef986b"/>
<rect x="79" y="78" width="7" height="29" fill="#ec6f2f"/>
<rect x="86" y="78" width="7" height="29" fill="#ef9769"/>
<rect x="93" y="78" width="7" height="29" fill="#ec7739"/>
<rect x="100" y="78" width="7" height="29" fill="#ed7d42"/>
<rect x="107" y="78" width="7" height="29" fill="#ee8650"/>
<rect x="114" y="78" width="7" height="29" fill="#ee8650"/>
<rect x="121" y="78" width="7" height="29" fill="#ef9769"/>
<rect x="128" y="78" width="7" height="29" fill="#ee8650"/>
<rect x="135" y="78" width="7" height="29" fill="#ee8d5b"/>
<rect x="142" y="78" width="7" height="29" fill="#f0a27a"/>
<rect x="149" y="78" width="7" height="29" fill="#ed7e44"/>
<rect x="156" y="78" width="7" height="29" fill="#f8fafc"/>
<rect x="163" y="78" width="7" height="29" fill="#f8fafc"/>
<rect x="170" y="78" width="7" height="29" fill="#f1ad8a"/>
<rect x="177" y="78" width="7" height="29" fill="#f1ae8c"/>
<rect x="184" y="78" width="7" height="29" fill="#ed7e44"/>
<rect x="191" y="78" width="7" height="29" fill="#ef9769"/>
<rect x="198" y="78" width="7" height="29" fill="#eb621b"/>
<rect x="205" y="78" width="7" height="29" fill="#ee854e"/>
<rect x="212" y="78" width="7" height="29" fill="#ec7739"/>
<rect x="219" y="78" width="7" height="29" fill="#f0a27a"/>
<rect x="226" y="78" width="7" height="29" fill="#ec6e2c"/>
<rect x="233" y="78" width="7" height="29" fill="#ed7e44"/>
<rect x="240" y="78" width="7" height="29" fill="#ee8d5b"/>
<rect x="247" y="78" width="7" height="29" fill="#ee8650"/>
<rect x="254" y="78" width="7" height="29" fill="#ef986b"/>
<rect x="261" y="78" width="7" height="29" fill="#ec7537"/>
<rect x="268" y="78" width="7" height="29" fill="#ec6f2f"/>
<rect x="275" y="78" width="7" height="29" fill="#ee8d5b"/>
<rect x="282" y="78" width="7" height="29" fill="#ef986b"/>
<rect x="289" y="78" width="7" height="29" fill="#ef986b"/>
<rect x="296" y="78" width="7" height="29" fill="#ed7d42"/>
<rect x="303" y="78" width="7" height="29" fill="#ee8f5d"/>
<rect x="310" y="78" width="7" height="29" fill="#ee854e"/>
<rect x="317" y="78" width="7" height="29" fill="#f1ae8c"/>
<rect x="324" y="78" width="7" height="29" fill="#ee8650"/>
<rect x="331" y="78" width="7" height="29" fill="#ef9769"/>
<rect x="338" y="78" width="7" height="29" fill="#ee8650"/>
<rect x="345" y="78" width="7" height="29" fill="#f1ad8a"/>
<rect x="352" y="78" width="7" height="29" fill="#f1ae8c"/>
<rect x="359" y="78" width="7" height="29" fill="#ec7739"/>
<rect x="366" y="78" width="7" height="29" fill="#ee8d5b"/>
<rect x="373" y="78" width="7" height="29" fill="#ee8650"/>
<rect x="380" y="78" width="7" height="29" fill="#ef9769"/>
<rect x="387" y="78" width="7" height="29" fill="#ee8650"/>
<rect x="394" y="78" width="7" height="29" fill="#ee8650"/>
<rect x="401" y="78" width="7" height="29" fill="#ee8d5b"/>
<rect x="408" y="78" width="7" height="29" fill="#ec7739"/>
<rect x="415" y="78" width="7" height="29" fill="#f0a179"/>
<rect x="422" y="78" width="7" height="29" fill="#ec7739"/>
<rect x="429" y="78" width="7" height="29" fill="#ee8f5d"/>
<rect x="436" y="78" width="7" height="29" fill="#ee8d5b"/>
<rect x="443" y="78" width="7" height="29" fill="#ee8650"/>
<rect x="450" y="78" width="7" height="29" fill="#ee8d5b"/>
<rect x="457" y="78" width="7" height="29" fill="#eb6925"/>
<rect x="464" y="78" width="7" height="29" fill="#ee8650"/>
<rect x="471" y="78" width="7" height="29" fill="#ee8d5b"/>
<rect x="478" y="78" width="7" height="29" fill="#eb6925"/>
<rect x="485" y="78" width="7" height="29" fill="#f2bb9f"/>
<rect x="492" y="78" width="7" height="29" fill="#ee8650"/>
<rect x="499" y="78" width="7" height="29" fill="#ee8650"/>
<rect x="506" y="78" width="7" height="29" fill="#ee854e"/>
<rect x="513" y="78" width="7" height="29" fill="#ee8650"/>
<rect x="520" y="78" width="7" height="29" fill="#ec7537"/>
<rect x="527" y="78" width="7" height="29" fill="#ef986b"/>
<rect x="534" y="78" width="7" height="29" fill="#ee8f5d"/>
<rect x="541" y="78" width="7" height="29" fill="#f2bb9f"/>
<rect x="548" y="78" width="7" height="29" fill="#f0a27a"/>
<rect x="555" y="78" width="7" height="29" fill="#ee854e"/>
<rect x="562" y="78" width="7" height="29" fill="#ec7739"/>
<rect x="569" y="78" width="7" height="29" fill="#eb6925"/>
<rect x="576" y="78" width="7" height="29" fill="#ee854e"/>
<rect x="583" y="78" width="7" height="29" fill="#ef986b"/>
<rect x="590" y="78" width="7" height="29" fill="#ef9769"/>
<rect x="597" y="78" width="7" height="29" fill="#f0a27a"/>
<rect x="604" y="78" width="7" height="29" fill="#f0a27a"/>
<rect x="611" y="78" width="7" height="29" fill="#ea5a0f"/>
<rect x="618" y="78" width="7" height="29" fill="#ec7739"/>
<rect x="625" y="78" width="7" height="29" fill="#ef9769"/>
<rect x="632" y="78" width="7" height="29" fill="#ef986b"/>
<rect x="639" y="78" width="7" height="29" fill="#eb621b"/>
<rect x="646" y="78" width="7" height="29" fill="#ee854e"/>
<rect x="653" y="78" width="7" height="29" fill="#ec7739"/>
<rect x="660" y="78" width="7" height="29" fill="#f1ad8a"/>
<rect x="667" y="78" width="7" height="29" fill="#ee8f5d"/>
<rect x="674" y="78" width="7" height="29" fill="#eb6925"/>
<rect x="681" y="78" width="7" height="29" fill="#ec6e2c"/>
<rect x="688" y="78" width="7" height="29" fill="#ee8650"/>
<rect x="695" y="78" width="7" height="29" fill="#ef9769"/>
<rect x="702" y="78" width="7" height="29" fill="#ee8f5d"/>
<rect x="709" y="78" width="7" height="29" fill="#ed7e44"/>
<rect x="716" y="78" width="7" height="29" fill="#f2bb9f"/>
<rect x="723" y="78" width="7" height="29" fill="#eb621b"/>
<rect x="730" y="78" width="7" height="29" fill="#ee8d5b"/>
<rect x="737" y="78" width="7" height="29" fill="#ef986b"/>
<rect x="744" y="78" width="7" height="29" fill="#ec7739"/>
<rect x="751" y="78" width="7" height="29" fill="#ec7537"/>
<rect x="758" y="78" width="7" height="29" fill="#ed7e44"/>
<rect x="765" y="78" width="7" height="29" fill="#ee854e"/>
<rect x="772" y="78" width="7" height="29" fill="#ee8650"/>
<rect x="779" y="78" width="7" height="29" fill="#f1ae8c"/>
<rect x="786" y="78" width="7" height="29" fill="#ee8d5b"/>
<rect x="793" y="78" width="7" height="29" fill="#ee8f5d"/>
<rect x="800" y="78" width="7" height="29" fill="#f0a179"/>
<rect x="807" y="78" width="7" height="29" fill="#ee8650"/>
<rect x="814" y="78" width="7" height="29" fill="#f0a27a"/>
<rect x="821" y="78" width="7" height="29" fill="#ee854e"/>
<rect x="828" y="78" width="7" height="29" fill="#f0a27a"/>
<rect x="835" y="78" width="7" height="29" fill="#ee854e"/>
<rect x="842" y="78" width="7" height="29" fill="#eb6925"/>
<rect x="849" y="78" width="7" height="29" fill="#ee8f5d"/>
<rect x="856" y="78" width="7" height="29" fill="#ed7d42"/>
<rect x="863" y="78" width="7" height="29" fill="#ee8650"/>
<rect x="870" y="78" width="7" height="29" fill="#ef9769"/>
<rect x="877" y="78" width="7" height="29" fill="#ee8650"/>
<rect x="884" y="78" width="7" height="29" fill="#f0a27a"/>
<rect x="891" y="78" width="7" height="29" fill="#f1ad8a"/>
<rect x="898" y="78" width="7" height="29" fill="#eb6925"/>
<rect x="905" y="78" width="7" height="29" fill="#f2bb9f"/>
<text x="24" y="133" class="label">BRCA2</text>
<rect x="72" y="112" width="7" height="29" fill="#ef9464"/>
<rect x="79" y="112" width="7" height="29" fill="#ed783b"/>
<rect x="86" y="112" width="7" height="29" fill="#ee8a56"/>
<rect x="93" y="112" width="7" height="29" fill="#ed7c41"/>
<rect x="100" y="112" width="7" height="29" fill="#f0a47d"/>
<rect x="107" y="112" width="7" height="29" fill="#ef9363"/>
<rect x="114" y="112" width="7" height="29" fill="#ee8a56"/>
<rect x="121" y="112" width="7" height="29" fill="#f2b99b"/>
<rect x="128" y="112" width="7" height="29" fill="#f09e74"/>
<rect x="135" y="112" width="7" height="29" fill="#ed7c41"/>
<rect x="142" y="112" width="7" height="29" fill="#ed7d42"/>
<rect x="149" y="112" width="7" height="29" fill="#ee844e"/>
<rect x="156" y="112" width="7" height="29" fill="#ed783c"/>
<rect x="163" y="112" width="7" height="29" fill="#ee844e"/>
<rect x="170" y="112" width="7" height="29" fill="#ed7d42"/>
<rect x="177" y="112" width="7" height="29" fill="#ed7c41"/>
<rect x="184" y="112" width="7" height="29" fill="#ee854f"/>
<rect x="191" y="112" width="7" height="29" fill="#ee844e"/>
<rect x="198" y="112" width="7" height="29" fill="#ef9464"/>
<rect x="205" y="112" width="7" height="29" fill="#ed7c41"/>
<rect x="212" y="112" width="7" height="29" fill="#ee8955"/>
<rect x="219" y="112" width="7" height="29" fill="#ec7130"/>
<rect x="226" y="112" width="7" height="29" fill="#ee844e"/>
<rect x="233" y="112" width="7" height="29" fill="#ef996c"/>
<rect x="240" y="112" width="7" height="29" fill="#ec7435"/>
<rect x="247" y="112" width="7" height="29" fill="#ed7d42"/>
<rect x="254" y="112" width="7" height="29" fill="#ed7c41"/>
<rect x="261" y="112" width="7" height="29" fill="#ed783c"/>
<rect x="268" y="112" width="7" height="29" fill="#ed7c41"/>
<rect x="275" y="112" width="7" height="29" fill="#ec7130"/>
<rect x="282" y="112" width="7" height="29" fill="#ee844e"/>
<rect x="289" y="112" width="7" height="29" fill="#ee8f5d"/>
<rect x="296" y="112" width="7" height="29" fill="#ee8955"/>
<rect x="303" y="112" width="7" height="29" fill="#ed8148"/>
<rect x="310" y="112" width="7" height="29" fill="#ed783b"/>
<rect x="317" y="112" width="7" height="29" fill="#ee8a56"/>
<rect x="324" y="112" width="7" height="29" fill="#ed8047"/>
<rect x="331" y="112" width="7" height="29" fill="#ee8a56"/>
<rect x="338" y="112" width="7" height="29" fill="#ee8955"/>
<rect x="345" y="112" width="7" height="29" fill="#ec702f"/>
<rect x="352" y="112" width="7" height="29" fill="#ef9464"/>
<rect x="359" y="112" width="7" height="29" fill="#ef9363"/>
<rect x="366" y="112" width="7" height="29" fill="#ee8f5d"/>
<rect x="373" y="112" width="7" height="29" fill="#f09e73"/>
<rect x="380" y="112" width="7" height="29" fill="#ee8f5d"/>
<rect x="387" y="112" width="7" height="29" fill="#ee8955"/>
<rect x="394" y="112" width="7" height="29" fill="#ee854f"/>
<rect x="401" y="112" width="7" height="29" fill="#ee8955"/>
<rect x="408" y="112" width="7" height="29" fill="#ec7436"/>
<rect x="415" y="112" width="7" height="29" fill="#ee844e"/>
<rect x="422" y="112" width="7" height="29" fill="#ef996c"/>
<rect x="429" y="112" width="7" height="29" fill="#ed7c41"/>
<rect x="436" y="112" width="7" height="29" fill="#ef9464"/>
<rect x="443" y="112" width="7" height="29" fill="#ee8e5c"/>
<rect x="450" y="112" width="7" height="29" fill="#ee8a56"/>
<rect x="457" y="112" width="7" height="29" fill="#ec7435"/>
<rect x="464" y="112" width="7" height="29" fill="#ee8f5d"/>
<rect x="471" y="112" width="7" height="29" fill="#ee8955"/>
<rect x="478" y="112" width="7" height="29" fill="#ec7130"/>
<rect x="485" y="112" width="7" height="29" fill="#ed783b"/>
<rect x="492" y="112" width="7" height="29" fill="#ed783b"/>
<rect x="499" y="112" width="7" height="29" fill="#eb6925"/>
<rect x="506" y="112" width="7" height="29" fill="#f09e73"/>
<rect x="513" y="112" width="7" height="29" fill="#ee8a56"/>
<rect x="520" y="112" width="7" height="29" fill="#f2b99b"/>
<rect x="527" y="112" width="7" height="29" fill="#ee8a56"/>
<rect x="534" y="112" width="7" height="29" fill="#ed8047"/>
<rect x="541" y="112" width="7" height="29" fill="#ee854f"/>
<rect x="548" y="112" width="7" height="29" fill="#ed7c41"/>
<rect x="555" y="112" width="7" height="29" fill="#ed783c"/>
<rect x="562" y="112" width="7" height="29" fill="#ee8955"/>
<rect x="569" y="112" width="7" height="29" fill="#ed7d42"/>
<rect x="576" y="112" width="7" height="29" fill="#ed8047"/>
<rect x="583" y="112" width="7" height="29" fill="#ed7d42"/>
<rect x="590" y="112" width="7" height="29" fill="#ec6c2a"/>
<rect x="597" y="112" width="7" height="29" fill="#ed8148"/>
<rect x="604" y="112" width="7" height="29" fill="#ec7435"/>
<rect x="611" y="112" width="7" height="29" fill="#ee854f"/>
<rect x="618" y="112" width="7" height="29" fill="#f0a47c"/>
<rect x="625" y="112" width="7" height="29" fill="#ec702f"/>
<rect x="632" y="112" width="7" height="29" fill="#eb6620"/>
<rect x="639" y="112" width="7" height="29" fill="#f09e73"/>
<rect x="646" y="112" width="7" height="29" fill="#ee8a56"/>
<rect x="653" y="112" width="7" height="29" fill="#ec7435"/>
<rect x="660" y="112" width="7" height="29" fill="#ee8f5d"/>
<rect x="667" y="112" width="7" height="29" fill="#ef9363"/>
<rect x="674" y="112" width="7" height="29" fill="#ee8f5d"/>
<rect x="681" y="112" width="7" height="29" fill="#ee8955"/>
<rect x="688" y="112" width="7" height="29" fill="#f09e74"/>
<rect x="695" y="112" width="7" height="29" fill="#ee844e"/>
<rect x="702" y="112" width="7" height="29" fill="#ec7436"/>
<rect x="709" y="112" width="7" height="29" fill="#ed8047"/>
<rect x="716" y="112" width="7" height="29" fill="#ed7d42"/>
<rect x="723" y="112" width="7" height="29" fill="#ed7c41"/>
<rect x="730" y="112" width="7" height="29" fill="#f0a47d"/>
<rect x="737" y="112" width="7" height="29" fill="#ee8e5c"/>
<rect x="744" y="112" width="7" height="29" fill="#ef9464"/>
<rect x="751" y="112" width="7" height="29" fill="#ee8955"/>
<rect x="758" y="112" width="7" height="29" fill="#ef996c"/>
<rect x="765" y="112" width="7" height="29" fill="#ea5e14"/>
<rect x="772" y="112" width="7" height="29" fill="#ec6c2a"/>
<rect x="779" y="112" width="7" height="29" fill="#ed783c"/>
<rect x="786" y="112" width="7" height="29" fill="#ed8047"/>
<rect x="793" y="112" width="7" height="29" fill="#ec6d2b"/>
<rect x="800" y="112" width="7" height="29" fill="#ed783b"/>
<rect x="807" y="112" width="7" height="29" fill="#ea580c"/>
<rect x="814" y="112" width="7" height="29" fill="#ec7435"/>
<rect x="821" y="112" width="7" height="29" fill="#ee8f5d"/>
<rect x="828" y="112" width="7" height="29" fill="#ed783b"/>
<rect x="835" y="112" width="7" height="29" fill="#ee854f"/>
<rect x="842" y="112" width="7" height="29" fill="#ef986b"/>
<rect x="849" y="112" width="7" height="29" fill="#f09e74"/>
<rect x="856" y="112" width="7" height="29" fill="#ef986b"/>
<rect x="863" y="112" width="7" height="29" fill="#ec7436"/>
<rect x="870" y="112" width="7" height="29" fill="#ec702f"/>
<rect x="877" y="112" width="7" height="29" fill="#f0a47d"/>
<rect x="884" y="112" width="7" height="29" fill="#f2b99b"/>
<rect x="891" y="112" width="7" height="29" fill="#f8fafc"/>
<rect x="898" y="112" width="7" height="29" fill="#f8fafc"/>
<rect x="905" y="112" width="7" height="29" fill="#f8fafc"/>
<line x1="72" y1="150" x2="72" y2="156" class="axis"/>
<text x="62" y="173" class="small">0%</text>
<line x1="282.0" y1="150" x2="282.0" y2="156" class="axis"/>
<text x="272.0" y="173" class="small">25%</text>
<line x1="492.0" y1="150" x2="492.0" y2="156" class="axis"/>
<text x="482.0" y="173" class="small">50%</text>
<line x1="702.0" y1="150" x2="702.0" y2="156" class="axis"/>
<text x="692.0" y="173" class="small">75%</text>
<line x1="912.0" y1="150" x2="912.0" y2="156" class="axis"/>
<text x="902.0" y="173" class="small">100%</text>
</svg>
