<svg xmlns="http://www.w3.org/2000/svg" width="980" height="534" viewBox="0 0 980 534">
<style>
text { font-family: Arial, Helvetica, sans-serif; fill: #172033; }
.small { font-size: 11px; }
.label { font-size: 12px; }
.title { font-size: 18px; font-weight: 700; }
.grid { stroke: #e2e8f0; stroke-width: 1; }
.axis { stroke: #9aa4b2; stroke-width: 1; }
</style>
<rect x="0" y="0" width="980" height="534" fill="#ffffff"/>
<text x="28" y="34" class="title">Top VUS hotspots</text>
<text x="26" y="83" class="small">BRCA2 bin 95 c.8035-8120</text>
<rect x="220" y="66" width="650" height="24" fill="#8a8f9c"/>
<text x="878" y="83" class="small">5.45x, n=241, 93.4%</text>
<text x="26" y="117" class="small">BRCA2 bin 111 c.9403-9487</text>
<rect x="220" y="100" width="649" height="24" fill="#8a8f9c"/>
<text x="877" y="117" class="small">5.44x, n=238, 93.3%</text>
<text x="26" y="151" class="small">BRCA2 bin 107 c.9061-9145</text>
<rect x="220" y="134" width="641" height="24" fill="#8b909d"/>
<text x="869" y="151" class="small">5.37x, n=235, 92.2%</text>
<text x="26" y="185" class="small">BRCA2 bin 91 c.7693-7778</text>
<rect x="220" y="168" width="639" height="24" fill="#8b909d"/>
<text x="867" y="185" class="small">5.36x, n=237, 91.9%</text>
<text x="26" y="219" class="small">BRCA2 bin 103 c.8719-8803</text>
<rect x="220" y="202" width="639" height="24" fill="#8b909d"/>
<text x="867" y="219" class="small">5.35x, n=234, 91.8%</text>
<text x="26" y="253" class="small">BRCA2 bin 92 c.7779-7863</text>
<rect x="220" y="236" width="636" height="24" fill="#8b909d"/>
<text x="864" y="253" class="small">5.33x, n=233, 91.4%</text>
<text x="26" y="287" class="small">BRCA2 bin 97 c.8206-8291</text>
<rect x="220" y="270" width="634" height="24" fill="#8b909d"/>
<text x="862" y="287" class="small">5.31x, n=235, 91.1%</text>
<text x="26" y="321" class="small">BRCA2 bin 96 c.8121-8205</text>
<rect x="220" y="304" width="633" height="24" fill="#8b909d"/>
<text x="861" y="321" class="small">5.31x, n=232, 91.0%</text>
<text x="26" y="355" class="small">BRCA2 bin 89 c.7522-7607</text>
<rect x="220" y="338" width="631" height="24" fill="#8c919d"/>
<text x="859" y="355" class="small">5.29x, n=234, 90.7%</text>
<text x="26" y="389" class="small">BRCA2 bin 99 c.8377-8462</text>
<rect x="220" y="372" width="631" height="24" fill="#8c919d"/>
<text x="859" y="389" class="small">5.29x, n=234, 90.7%</text>
<text x="26" y="423" class="small">BRCA2 bin 90 c.7608-7692</text>
<rect x="220" y="406" width="630" height="24" fill="#8c919d"/>
<text x="858" y="423" class="small">5.28x, n=231, 90.6%</text>
<text x="26" y="457" class="small">BRCA2 bin 93 c.7864-7949</text>
<rect x="220" y="440" width="628" height="24" fill="#8c919e"/>
<text x="856" y="457" class="small">5.27x, n=233, 90.3%</text>
</svg>
