<svg xmlns="http://www.w3.org/2000/svg" width="1180" height="390" viewBox="0 0 1180 390">
<style>
text { font-family: Arial, Helvetica, sans-serif; fill: #172033; }
.small { font-size: 11px; }
.label { font-size: 12px; }
.title { font-size: 18px; font-weight: 700; }
</style>
<rect x="0" y="0" width="1180" height="390" fill="#ffffff"/>
<text x="28" y="30" class="title">BRCA1 BRCT1 mixed cluster: generated classes by CDS position</text>
<text x="28" y="50" class="small">Region c.5044-c.5143 / p.1682-p.1715. Stacked bars show all possible generated SNVs at each CDS position.</text>
<rect x="78" y="64" width="980" height="220" fill="#f8fafc" stroke="#cbd5e1"/>
<line x1="78.0" y1="64" x2="78.0" y2="284" stroke="#cbd5e1"/>
<text x="60.0" y="304" class="small">c.5044</text>
<line x1="375.0" y1="64" x2="375.0" y2="284" stroke="#cbd5e1"/>
<text x="357.0" y="304" class="small">c.5074</text>
<line x1="1058.0" y1="64" x2="1058.0" y2="284" stroke="#cbd5e1"/>
<text x="1040.0" y="304" class="small">c.5143</text>
<line x1="375.0" y1="56" x2="375.0" y2="284" stroke="#7c3aed" stroke-width="2" stroke-dasharray="5 4"/>
<text x="383.0" y="50" class="small" fill="#4c1d95">nearest donor-like boundary c.5074</text>
<rect x="78.0" y="137.3" width="8.8" height="146.7" fill="#64748b" opacity="0.82"/>
<rect x="78.0" y="64.0" width="8.8" height="73.3" fill="#b91c1c" opacity="0.82"/>
<rect x="87.8" y="137.3" width="8.8" height="146.7" fill="#16a34a" opacity="0.82"/>
<rect x="87.8" y="64.0" width="8.8" height="73.3" fill="#b91c1c" opacity="0.82"/>
<rect x="97.6" y="137.3" width="8.8" height="146.7" fill="#16a34a" opacity="0.82"/>
<rect x="97.6" y="64.0" width="8.8" height="73.3" fill="#64748b" opacity="0.82"/>
<rect x="107.4" y="64.0" width="8.8" height="220.0" fill="#b91c1c" opacity="0.82"/>
<rect x="117.2" y="210.7" width="8.8" height="73.3" fill="#16a34a" opacity="0.82"/>
<rect x="117.2" y="137.3" width="8.8" height="73.3" fill="#64748b" opacity="0.82"/>
<rect x="117.2" y="64.0" width="8.8" height="73.3" fill="#b91c1c" opacity="0.82"/>
<rect x="127.0" y="64.0" width="8.8" height="220.0" fill="#16a34a" opacity="0.82"/>
<rect x="136.8" y="137.3" width="8.8" height="146.7" fill="#16a34a" opacity="0.82"/>
<rect x="136.8" y="64.0" width="8.8" height="73.3" fill="#64748b" opacity="0.82"/>
<rect x="146.6" y="137.3" width="8.8" height="146.7" fill="#64748b" opacity="0.82"/>
<rect x="146.6" y="64.0" width="8.8" height="73.3" fill="#b91c1c" opacity="0.82"/>
<rect x="156.4" y="210.7" width="8.8" height="73.3" fill="#16a34a" opacity="0.82"/>
<rect x="156.4" y="64.0" width="8.8" height="146.7" fill="#64748b" opacity="0.82"/>
<rect x="166.2" y="210.7" width="8.8" height="73.3" fill="#16a34a" opacity="0.82"/>
<rect x="166.2" y="137.3" width="8.8" height="73.3" fill="#64748b" opacity="0.82"/>
<rect x="166.2" y="64.0" width="8.8" height="73.3" fill="#b91c1c" opacity="0.82"/>
<rect x="176.0" y="64.0" width="8.8" height="220.0" fill="#b91c1c" opacity="0.82"/>
<rect x="185.8" y="64.0" width="8.8" height="220.0" fill="#16a34a" opacity="0.82"/>
<rect x="195.6" y="137.3" width="8.8" height="146.7" fill="#64748b" opacity="0.82"/>
<rect x="195.6" y="64.0" width="8.8" height="73.3" fill="#b91c1c" opacity="0.82"/>
<rect x="205.4" y="64.0" width="8.8" height="220.0" fill="#64748b" opacity="0.82"/>
<rect x="215.2" y="64.0" width="8.8" height="220.0" fill="#64748b" opacity="0.82"/>
<rect x="225.0" y="137.3" width="8.8" height="146.7" fill="#16a34a" opacity="0.82"/>
<rect x="225.0" y="64.0" width="8.8" height="73.3" fill="#64748b" opacity="0.82"/>
<rect x="234.8" y="210.7" width="8.8" height="73.3" fill="#16a34a" opacity="0.82"/>
<rect x="234.8" y="64.0" width="8.8" height="146.7" fill="#64748b" opacity="0.82"/>
<rect x="244.6" y="64.0" width="8.8" height="220.0" fill="#16a34a" opacity="0.82"/>
<rect x="254.4" y="210.7" width="8.8" height="73.3" fill="#16a34a" opacity="0.82"/>
<rect x="254.4" y="64.0" width="8.8" height="146.7" fill="#64748b" opacity="0.82"/>
<rect x="264.2" y="210.7" width="8.8" height="73.3" fill="#16a34a" opacity="0.82"/>
<rect x="264.2" y="137.3" width="8.8" height="73.3" fill="#64748b" opacity="0.82"/>
<rect x="264.2" y="64.0" width="8.8" height="73.3" fill="#b91c1c" opacity="0.82"/>
<rect x="274.0" y="64.0" width="8.8" height="220.0" fill="#16a34a" opacity="0.82"/>
<rect x="283.8" y="64.0" width="8.8" height="220.0" fill="#16a34a" opacity="0.82"/>
<rect x="293.6" y="137.3" width="8.8" height="146.7" fill="#64748b" opacity="0.82"/>
<rect x="293.6" y="64.0" width="8.8" height="73.3" fill="#b91c1c" opacity="0.82"/>
<rect x="303.4" y="64.0" width="8.8" height="220.0" fill="#16a34a" opacity="0.82"/>
<rect x="313.2" y="210.7" width="8.8" height="73.3" fill="#16a34a" opacity="0.82"/>
<rect x="313.2" y="137.3" width="8.8" height="73.3" fill="#64748b" opacity="0.82"/>
<rect x="313.2" y="64.0" width="8.8" height="73.3" fill="#b91c1c" opacity="0.82"/>
<rect x="323.0" y="210.7" width="8.8" height="73.3" fill="#16a34a" opacity="0.82"/>
<rect x="323.0" y="64.0" width="8.8" height="146.7" fill="#64748b" opacity="0.82"/>
<rect x="332.8" y="64.0" width="8.8" height="220.0" fill="#16a34a" opacity="0.82"/>
<rect x="342.6" y="210.7" width="8.8" height="73.3" fill="#16a34a" opacity="0.82"/>
<rect x="342.6" y="64.0" width="8.8" height="146.7" fill="#64748b" opacity="0.82"/>
<rect x="352.4" y="210.7" width="8.8" height="73.3" fill="#64748b" opacity="0.82"/>
<rect x="352.4" y="64.0" width="8.8" height="146.7" fill="#b91c1c" opacity="0.82"/>
<rect x="362.2" y="210.7" width="8.8" height="73.3" fill="#16a34a" opacity="0.82"/>
<rect x="362.2" y="64.0" width="8.8" height="146.7" fill="#b91c1c" opacity="0.82"/>
<rect x="372.0" y="210.7" width="8.8" height="73.3" fill="#64748b" opacity="0.82"/>
<rect x="372.0" y="64.0" width="8.8" height="146.7" fill="#b91c1c" opacity="0.82"/>
<rect x="381.8" y="210.7" width="8.8" height="73.3" fill="#64748b" opacity="0.82"/>
<rect x="381.8" y="64.0" width="8.8" height="146.7" fill="#b91c1c" opacity="0.82"/>
<rect x="391.6" y="210.7" width="8.8" height="73.3" fill="#16a34a" opacity="0.82"/>
<rect x="391.6" y="64.0" width="8.8" height="146.7" fill="#b91c1c" opacity="0.82"/>
<rect x="401.4" y="137.3" width="8.8" height="146.7" fill="#16a34a" opacity="0.82"/>
<rect x="401.4" y="64.0" width="8.8" height="73.3" fill="#64748b" opacity="0.82"/>
<rect x="411.2" y="137.3" width="8.8" height="146.7" fill="#64748b" opacity="0.82"/>
<rect x="411.2" y="64.0" width="8.8" height="73.3" fill="#b91c1c" opacity="0.82"/>
<rect x="421.0" y="137.3" width="8.8" height="146.7" fill="#16a34a" opacity="0.82"/>
<rect x="421.0" y="64.0" width="8.8" height="73.3" fill="#64748b" opacity="0.82"/>
<rect x="430.8" y="210.7" width="8.8" height="73.3" fill="#16a34a" opacity="0.82"/>
<rect x="430.8" y="64.0" width="8.8" height="146.7" fill="#b91c1c" opacity="0.82"/>
<rect x="440.6" y="64.0" width="8.8" height="220.0" fill="#16a34a" opacity="0.82"/>
<rect x="450.4" y="64.0" width="8.8" height="220.0" fill="#16a34a" opacity="0.82"/>
<rect x="460.2" y="210.7" width="8.8" height="73.3" fill="#16a34a" opacity="0.82"/>
<rect x="460.2" y="64.0" width="8.8" height="146.7" fill="#64748b" opacity="0.82"/>
<rect x="470.0" y="64.0" width="8.8" height="220.0" fill="#16a34a" opacity="0.82"/>
<rect x="479.8" y="137.3" width="8.8" height="146.7" fill="#16a34a" opacity="0.82"/>
<rect x="479.8" y="64.0" width="8.8" height="73.3" fill="#64748b" opacity="0.82"/>
<rect x="489.6" y="137.3" width="8.8" height="146.7" fill="#16a34a" opacity="0.82"/>
<rect x="489.6" y="64.0" width="8.8" height="73.3" fill="#64748b" opacity="0.82"/>
<rect x="499.4" y="210.7" width="8.8" height="73.3" fill="#16a34a" opacity="0.82"/>
<rect x="499.4" y="64.0" width="8.8" height="146.7" fill="#64748b" opacity="0.82"/>
<rect x="509.2" y="64.0" width="8.8" height="220.0" fill="#16a34a" opacity="0.82"/>
<rect x="519.0" y="137.3" width="8.8" height="146.7" fill="#16a34a" opacity="0.82"/>
<rect x="519.0" y="64.0" width="8.8" height="73.3" fill="#b91c1c" opacity="0.82"/>
<rect x="528.8" y="64.0" width="8.8" height="220.0" fill="#64748b" opacity="0.82"/>
<rect x="538.6" y="210.7" width="8.8" height="73.3" fill="#16a34a" opacity="0.82"/>
<rect x="538.6" y="137.3" width="8.8" height="73.3" fill="#64748b" opacity="0.82"/>
<rect x="538.6" y="64.0" width="8.8" height="73.3" fill="#b91c1c" opacity="0.82"/>
<rect x="548.4" y="137.3" width="8.8" height="146.7" fill="#16a34a" opacity="0.82"/>
<rect x="548.4" y="64.0" width="8.8" height="73.3" fill="#b91c1c" opacity="0.82"/>
<rect x="558.2" y="64.0" width="8.8" height="220.0" fill="#16a34a" opacity="0.82"/>
<rect x="568.0" y="137.3" width="8.8" height="146.7" fill="#16a34a" opacity="0.82"/>
<rect x="568.0" y="64.0" width="8.8" height="73.3" fill="#64748b" opacity="0.82"/>
<rect x="577.8" y="137.3" width="8.8" height="146.7" fill="#64748b" opacity="0.82"/>
<rect x="577.8" y="64.0" width="8.8" height="73.3" fill="#b91c1c" opacity="0.82"/>
<rect x="587.6" y="64.0" width="8.8" height="220.0" fill="#64748b" opacity="0.82"/>
<rect x="597.4" y="64.0" width="8.8" height="220.0" fill="#64748b" opacity="0.82"/>
<rect x="607.2" y="64.0" width="8.8" height="220.0" fill="#64748b" opacity="0.82"/>
<rect x="617.0" y="64.0" width="8.8" height="220.0" fill="#64748b" opacity="0.82"/>
<rect x="626.8" y="137.3" width="8.8" height="146.7" fill="#16a34a" opacity="0.82"/>
<rect x="626.8" y="64.0" width="8.8" height="73.3" fill="#64748b" opacity="0.82"/>
<rect x="636.6" y="64.0" width="8.8" height="220.0" fill="#16a34a" opacity="0.82"/>
<rect x="646.4" y="137.3" width="8.8" height="146.7" fill="#16a34a" opacity="0.82"/>
<rect x="646.4" y="64.0" width="8.8" height="73.3" fill="#64748b" opacity="0.82"/>
<rect x="656.2" y="64.0" width="8.8" height="220.0" fill="#16a34a" opacity="0.82"/>
<rect x="666.0" y="137.3" width="8.8" height="146.7" fill="#64748b" opacity="0.82"/>
<rect x="666.0" y="64.0" width="8.8" height="73.3" fill="#b91c1c" opacity="0.82"/>
<rect x="675.8" y="64.0" width="8.8" height="220.0" fill="#64748b" opacity="0.82"/>
<rect x="685.6" y="210.7" width="8.8" height="73.3" fill="#16a34a" opacity="0.82"/>
<rect x="685.6" y="64.0" width="8.8" height="146.7" fill="#64748b" opacity="0.82"/>
<rect x="695.4" y="64.0" width="8.8" height="220.0" fill="#64748b" opacity="0.82"/>
<rect x="705.2" y="210.7" width="8.8" height="73.3" fill="#16a34a" opacity="0.82"/>
<rect x="705.2" y="64.0" width="8.8" height="146.7" fill="#64748b" opacity="0.82"/>
<rect x="715.0" y="210.7" width="8.8" height="73.3" fill="#16a34a" opacity="0.82"/>
<rect x="715.0" y="64.0" width="8.8" height="146.7" fill="#b91c1c" opacity="0.82"/>
<rect x="724.8" y="64.0" width="8.8" height="220.0" fill="#64748b" opacity="0.82"/>
<rect x="734.6" y="64.0" width="8.8" height="220.0" fill="#64748b" opacity="0.82"/>
<rect x="744.4" y="210.7" width="8.8" height="73.3" fill="#16a34a" opacity="0.82"/>
<rect x="744.4" y="64.0" width="8.8" height="146.7" fill="#64748b" opacity="0.82"/>
<rect x="754.2" y="64.0" width="8.8" height="220.0" fill="#16a34a" opacity="0.82"/>
<rect x="764.0" y="210.7" width="8.8" height="73.3" fill="#16a34a" opacity="0.82"/>
<rect x="764.0" y="64.0" width="8.8" height="146.7" fill="#64748b" opacity="0.82"/>
<rect x="773.8" y="210.7" width="8.8" height="73.3" fill="#16a34a" opacity="0.82"/>
<rect x="773.8" y="64.0" width="8.8" height="146.7" fill="#64748b" opacity="0.82"/>
<rect x="783.6" y="137.3" width="8.8" height="146.7" fill="#64748b" opacity="0.82"/>
<rect x="783.6" y="64.0" width="8.8" height="73.3" fill="#b91c1c" opacity="0.82"/>
<rect x="793.4" y="210.7" width="8.8" height="73.3" fill="#16a34a" opacity="0.82"/>
<rect x="793.4" y="137.3" width="8.8" height="73.3" fill="#64748b" opacity="0.82"/>
<rect x="793.4" y="64.0" width="8.8" height="73.3" fill="#b91c1c" opacity="0.82"/>
<rect x="803.2" y="64.0" width="8.8" height="220.0" fill="#16a34a" opacity="0.82"/>
<rect x="813.0" y="137.3" width="8.8" height="146.7" fill="#16a34a" opacity="0.82"/>
<rect x="813.0" y="64.0" width="8.8" height="73.3" fill="#64748b" opacity="0.82"/>
<rect x="822.8" y="137.3" width="8.8" height="146.7" fill="#16a34a" opacity="0.82"/>
<rect x="822.8" y="64.0" width="8.8" height="73.3" fill="#64748b" opacity="0.82"/>
<rect x="832.6" y="64.0" width="8.8" height="220.0" fill="#16a34a" opacity="0.82"/>
<rect x="842.4" y="210.7" width="8.8" height="73.3" fill="#16a34a" opacity="0.82"/>
<rect x="842.4" y="64.0" width="8.8" height="146.7" fill="#64748b" opacity="0.82"/>
<rect x="852.2" y="64.0" width="8.8" height="220.0" fill="#64748b" opacity="0.82"/>
<rect x="862.0" y="137.3" width="8.8" height="146.7" fill="#16a34a" opacity="0.82"/>
<rect x="862.0" y="64.0" width="8.8" height="73.3" fill="#64748b" opacity="0.82"/>
<rect x="871.8" y="210.7" width="8.8" height="73.3" fill="#16a34a" opacity="0.82"/>
<rect x="871.8" y="137.3" width="8.8" height="73.3" fill="#64748b" opacity="0.82"/>
<rect x="871.8" y="64.0" width="8.8" height="73.3" fill="#b91c1c" opacity="0.82"/>
<rect x="881.6" y="137.3" width="8.8" height="146.7" fill="#16a34a" opacity="0.82"/>
<rect x="881.6" y="64.0" width="8.8" height="73.3" fill="#64748b" opacity="0.82"/>
<rect x="891.4" y="137.3" width="8.8" height="146.7" fill="#16a34a" opacity="0.82"/>
<rect x="891.4" y="64.0" width="8.8" height="73.3" fill="#b91c1c" opacity="0.82"/>
<rect x="901.2" y="210.7" width="8.8" height="73.3" fill="#16a34a" opacity="0.82"/>
<rect x="901.2" y="137.3" width="8.8" height="73.3" fill="#64748b" opacity="0.82"/>
<rect x="901.2" y="64.0" width="8.8" height="73.3" fill="#b91c1c" opacity="0.82"/>
<rect x="911.0" y="64.0" width="8.8" height="220.0" fill="#16a34a" opacity="0.82"/>
<rect x="920.8" y="137.3" width="8.8" height="146.7" fill="#16a34a" opacity="0.82"/>
<rect x="920.8" y="64.0" width="8.8" height="73.3" fill="#b91c1c" opacity="0.82"/>
<rect x="930.6" y="210.7" width="8.8" height="73.3" fill="#16a34a" opacity="0.82"/>
<rect x="930.6" y="137.3" width="8.8" height="73.3" fill="#64748b" opacity="0.82"/>
<rect x="930.6" y="64.0" width="8.8" height="73.3" fill="#b91c1c" opacity="0.82"/>
<rect x="940.4" y="64.0" width="8.8" height="220.0" fill="#16a34a" opacity="0.82"/>
<rect x="950.2" y="64.0" width="8.8" height="220.0" fill="#16a34a" opacity="0.82"/>
<rect x="960.0" y="137.3" width="8.8" height="146.7" fill="#16a34a" opacity="0.82"/>
<rect x="960.0" y="64.0" width="8.8" height="73.3" fill="#64748b" opacity="0.82"/>
<rect x="969.8" y="137.3" width="8.8" height="146.7" fill="#16a34a" opacity="0.82"/>
<rect x="969.8" y="64.0" width="8.8" height="73.3" fill="#b91c1c" opacity="0.82"/>
<rect x="979.6" y="137.3" width="8.8" height="146.7" fill="#16a34a" opacity="0.82"/>
<rect x="979.6" y="64.0" width="8.8" height="73.3" fill="#b91c1c" opacity="0.82"/>
<rect x="989.4" y="137.3" width="8.8" height="146.7" fill="#16a34a" opacity="0.82"/>
<rect x="989.4" y="64.0" width="8.8" height="73.3" fill="#b91c1c" opacity="0.82"/>
<rect x="999.2" y="64.0" width="8.8" height="220.0" fill="#64748b" opacity="0.82"/>
<rect x="1009.0" y="64.0" width="8.8" height="220.0" fill="#16a34a" opacity="0.82"/>
<rect x="1018.8" y="137.3" width="8.8" height="146.7" fill="#16a34a" opacity="0.82"/>
<rect x="1018.8" y="64.0" width="8.8" height="73.3" fill="#64748b" opacity="0.82"/>
<rect x="1028.6" y="137.3" width="8.8" height="146.7" fill="#64748b" opacity="0.82"/>
<rect x="1028.6" y="64.0" width="8.8" height="73.3" fill="#b91c1c" opacity="0.82"/>
<rect x="1038.4" y="137.3" width="8.8" height="146.7" fill="#16a34a" opacity="0.82"/>
<rect x="1038.4" y="64.0" width="8.8" height="73.3" fill="#64748b" opacity="0.82"/>
<rect x="1048.2" y="137.3" width="8.8" height="146.7" fill="#64748b" opacity="0.82"/>
<rect x="1048.2" y="64.0" width="8.8" height="73.3" fill="#b91c1c" opacity="0.82"/>
<rect x="1080" y="73" width="13" height="13" fill="#16a34a"/>
<text x="1100" y="84" class="small">benign</text>
<rect x="1080" y="97" width="13" height="13" fill="#64748b"/>
<text x="1100" y="108" class="small">vus</text>
<rect x="1080" y="121" width="13" height="13" fill="#b91c1c"/>
<text x="1100" y="132" class="small">pathogenic</text>
<text x="78" y="332" class="label">CDS position</text>
<text x="24" y="84" class="label">SNV count</text>
</svg>
