<svg xmlns="http://www.w3.org/2000/svg" width="980" height="550" viewBox="0 0 980 550">
<style>
text{font-family:Arial,sans-serif;font-size:13px;fill:#222}
.title{font-size:20px;font-weight:bold}
.small{font-size:11px;fill:#555}
.bar{fill:#4f6bed}
.grid{stroke:#ddd;stroke-width:1}
</style>
<text x="24" y="30" class="title">Class Changes After Removing One Criterion</text>
<text x="24" y="73">BP1</text>
<rect x="300" y="60" width="600" height="18" class="bar"/>
<text x="908" y="74" class="small">34738</text>
<text x="24" y="103">PM2_Supporting</text>
<rect x="300" y="90" width="54" height="18" class="bar"/>
<text x="362" y="104" class="small">3171</text>
<text x="24" y="133">PVS1</text>
<rect x="300" y="120" width="40" height="18" class="bar"/>
<text x="348" y="134" class="small">2327</text>
<text x="24" y="163">BS3</text>
<rect x="300" y="150" width="39" height="18" class="bar"/>
<text x="347" y="164" class="small">2267</text>
<text x="24" y="193">PM5_PTC</text>
<rect x="300" y="180" width="36" height="18" class="bar"/>
<text x="344" y="194" class="small">2111</text>
<text x="24" y="223">BP5</text>
<rect x="300" y="210" width="4" height="18" class="bar"/>
<text x="312" y="224" class="small">246</text>
<text x="24" y="253">BP4</text>
<rect x="300" y="240" width="2" height="18" class="bar"/>
<text x="310" y="254" class="small">119</text>
<text x="24" y="283">BP7</text>
<rect x="300" y="270" width="2" height="18" class="bar"/>
<text x="310" y="284" class="small">119</text>
<text x="24" y="313">PS3</text>
<rect x="300" y="300" width="2" height="18" class="bar"/>
<text x="310" y="314" class="small">117</text>
<text x="24" y="343">PP3</text>
<rect x="300" y="330" width="1" height="18" class="bar"/>
<text x="309" y="344" class="small">74</text>
<text x="24" y="373">BS1_Strong</text>
<rect x="300" y="360" width="1" height="18" class="bar"/>
<text x="309" y="374" class="small">58</text>
<text x="24" y="403">PP4</text>
<rect x="300" y="390" width="0" height="18" class="bar"/>
<text x="308" y="404" class="small">52</text>
<text x="24" y="433">BA1</text>
<rect x="300" y="420" width="0" height="18" class="bar"/>
<text x="308" y="434" class="small">48</text>
<text x="24" y="463">BS1_Supporting</text>
<rect x="300" y="450" width="0" height="18" class="bar"/>
<text x="308" y="464" class="small">11</text>
<text x="24" y="493">PS1</text>
<rect x="300" y="480" width="0" height="18" class="bar"/>
<text x="308" y="494" class="small">3</text>
</svg>