<svg xmlns="http://www.w3.org/2000/svg" width="1040" height="378" viewBox="0 0 1040 378">
<rect width="100%" height="100%" fill="white"/>
<style>text{font-family:Arial,sans-serif;fill:#172033}.small{font-size:12px;fill:#43506a}.label{font-size:13px}</style>
<text x="30" y="30" font-size="20" font-weight="700">Grouped generated classes by gene</text>
<text x="30" y="50" class="small">Rate per 1000 generated coding SNVs in each gene.</text>
<text x="220" y="94" text-anchor="end" class="label">Benign/Likely Benign BRCA1</text>
<rect x="230" y="70" width="700.0" height="30" rx="4" fill="#5578c2"/>
<text x="938.0" y="91" class="label">850.86</text>
<text x="220" y="142" text-anchor="end" class="label">Benign/Likely Benign BRCA2</text>
<rect x="230" y="118" width="606.3" height="30" rx="4" fill="#c26a55"/>
<text x="844.3" y="139" class="label">736.99</text>
<text x="220" y="190" text-anchor="end" class="label">VUS BRCA1</text>
<rect x="230" y="166" width="79.7" height="30" rx="4" fill="#5578c2"/>
<text x="317.7" y="187" class="label">96.86</text>
<text x="220" y="238" text-anchor="end" class="label">VUS BRCA2</text>
<rect x="230" y="214" width="174.6" height="30" rx="4" fill="#c26a55"/>
<text x="412.6" y="235" class="label">212.18</text>
<text x="220" y="286" text-anchor="end" class="label">Likely Pathogenic/Pathogenic BRCA1</text>
<rect x="230" y="262" width="43.0" height="30" rx="4" fill="#5578c2"/>
<text x="281.0" y="283" class="label">52.28</text>
<text x="220" y="334" text-anchor="end" class="label">Likely Pathogenic/Pathogenic BRCA2</text>
<rect x="230" y="310" width="41.8" height="30" rx="4" fill="#c26a55"/>
<text x="279.8" y="331" class="label">50.83</text>
</svg>