<svg xmlns="http://www.w3.org/2000/svg" width="820" height="420" viewBox="0 0 820 420">
<style>
text { font-family: Arial, Helvetica, sans-serif; fill: #172033; }
.title { font-size: 18px; font-weight: 700; }
.label { font-size: 12px; }
.small { font-size: 11px; }
.grid { stroke: #e2e8f0; stroke-width: 1; }
</style>
<rect x="0" y="0" width="820" height="420" fill="#ffffff"/>
<text x="26" y="34" class="title">Priority tier change after removing neighborhood points</text>
<text x="26" y="56" class="small">Rows: original tier. Columns: recalculated tier without local-neighborhood points.</text>
<text x="24" y="128" class="small">tier1_urgent</text>
<text x="24" y="190" class="small">tier2_high</text>
<text x="24" y="252" class="small">tier3_medium</text>
<text x="24" y="314" class="small">tier4_low</text>
<text x="176" y="74" class="small" transform="rotate(-35 176 74)">tier1_urgent</text>
<text x="238" y="74" class="small" transform="rotate(-35 238 74)">tier2_high</text>
<text x="300" y="74" class="small" transform="rotate(-35 300 74)">tier3_medium</text>
<text x="362" y="74" class="small" transform="rotate(-35 362 74)">tier4_low</text>
<rect x="170" y="90" width="58" height="58" fill="rgb(245,245,245)" stroke="#cbd5e1"/>
<rect x="232" y="90" width="58" height="58" fill="rgb(220,242,242)" stroke="#cbd5e1"/>
<text x="244" y="125" class="label">99</text>
<rect x="294" y="90" width="58" height="58" fill="rgb(220,245,245)" stroke="#cbd5e1"/>
<rect x="356" y="90" width="58" height="58" fill="rgb(220,245,245)" stroke="#cbd5e1"/>
<rect x="170" y="152" width="58" height="58" fill="rgb(220,245,245)" stroke="#cbd5e1"/>
<rect x="232" y="152" width="58" height="58" fill="rgb(240,240,245)" stroke="#cbd5e1"/>
<text x="244" y="187" class="label">187</text>
<rect x="294" y="152" width="58" height="58" fill="rgb(220,229,229)" stroke="#cbd5e1"/>
<text x="306" y="187" class="label">573</text>
<rect x="356" y="152" width="58" height="58" fill="rgb(220,245,245)" stroke="#cbd5e1"/>
<rect x="170" y="214" width="58" height="58" fill="rgb(220,245,245)" stroke="#cbd5e1"/>
<rect x="232" y="214" width="58" height="58" fill="rgb(220,245,245)" stroke="#cbd5e1"/>
<rect x="294" y="214" width="58" height="58" fill="rgb(230,230,245)" stroke="#cbd5e1"/>
<text x="306" y="249" class="label">529</text>
<rect x="356" y="214" width="58" height="58" fill="rgb(220,239,239)" stroke="#cbd5e1"/>
<text x="368" y="249" class="label">204</text>
<rect x="170" y="276" width="58" height="58" fill="rgb(220,245,245)" stroke="#cbd5e1"/>
<rect x="232" y="276" width="58" height="58" fill="rgb(220,245,245)" stroke="#cbd5e1"/>
<rect x="294" y="276" width="58" height="58" fill="rgb(220,245,245)" stroke="#cbd5e1"/>
<rect x="356" y="276" width="58" height="58" fill="rgb(70,70,245)" stroke="#cbd5e1"/>
<text x="368" y="311" class="label">6562</text>
</svg>
