<svg xmlns="http://www.w3.org/2000/svg" width="955" height="205" viewBox="0 0 955 205">
<style>
text { font-family: Arial, Helvetica, sans-serif; fill: #172033; }
.small { font-size: 11px; }
.label { font-size: 12px; }
.title { font-size: 18px; font-weight: 700; }
.axis { stroke: #9aa4b2; stroke-width: 1; }
.grid { stroke: #e2e8f0; stroke-width: 1; }
.panel { fill: #f3f4f6; }
.tile { stroke: #ffffff; stroke-width: 1; }
.legend-title { font-size: 11px; font-weight: 700; }
</style>
<rect x="0" y="0" width="955" height="205" fill="#ffffff"/>
<text x="28" y="34" class="title">BRCA1 k-means clusters along CDS without class and SpliceAI-derived features</text>
<text x="75" y="58" class="small">Compare with and without SpliceAI features; vertical ticks mark CDS exon boundaries</text>
<rect x="75" y="80" width="7" height="42" fill="#2563eb"/>
<rect x="82" y="80" width="7" height="42" fill="#2563eb"/>
<rect x="89" y="80" width="7" height="42" fill="#2563eb"/>
<rect x="96" y="80" width="7" height="42" fill="#2563eb"/>
<rect x="103" y="80" width="7" height="42" fill="#2563eb"/>
<rect x="110" y="80" width="7" height="42" fill="#2563eb"/>
<rect x="117" y="80" width="7" height="42" fill="#dc2626"/>
<rect x="124" y="80" width="7" height="42" fill="#0891b2"/>
<rect x="131" y="80" width="7" height="42" fill="#0891b2"/>
<rect x="138" y="80" width="7" height="42" fill="#dc2626"/>
<rect x="145" y="80" width="7" height="42" fill="#0891b2"/>
<rect x="152" y="80" width="7" height="42" fill="#dc2626"/>
<rect x="159" y="80" width="7" height="42" fill="#dc2626"/>
<rect x="166" y="80" width="7" height="42" fill="#65a30d"/>
<rect x="173" y="80" width="7" height="42" fill="#dc2626"/>
<rect x="180" y="80" width="7" height="42" fill="#0891b2"/>
<rect x="187" y="80" width="7" height="42" fill="#65a30d"/>
<rect x="194" y="80" width="7" height="42" fill="#65a30d"/>
<rect x="201" y="80" width="7" height="42" fill="#0891b2"/>
<rect x="208" y="80" width="7" height="42" fill="#0891b2"/>
<rect x="215" y="80" width="7" height="42" fill="#0891b2"/>
<rect x="222" y="80" width="7" height="42" fill="#0891b2"/>
<rect x="229" y="80" width="7" height="42" fill="#0891b2"/>
<rect x="236" y="80" width="7" height="42" fill="#0891b2"/>
<rect x="243" y="80" width="7" height="42" fill="#0891b2"/>
<rect x="250" y="80" width="7" height="42" fill="#0891b2"/>
<rect x="257" y="80" width="7" height="42" fill="#0891b2"/>
<rect x="264" y="80" width="7" height="42" fill="#0891b2"/>
<rect x="271" y="80" width="7" height="42" fill="#0891b2"/>
<rect x="278" y="80" width="7" height="42" fill="#0891b2"/>
<rect x="285" y="80" width="7" height="42" fill="#0891b2"/>
<rect x="292" y="80" width="7" height="42" fill="#0891b2"/>
<rect x="299" y="80" width="7" height="42" fill="#0891b2"/>
<rect x="306" y="80" width="7" height="42" fill="#0891b2"/>
<rect x="313" y="80" width="7" height="42" fill="#0891b2"/>
<rect x="320" y="80" width="7" height="42" fill="#0891b2"/>
<rect x="327" y="80" width="7" height="42" fill="#0891b2"/>
<rect x="334" y="80" width="7" height="42" fill="#0891b2"/>
<rect x="341" y="80" width="7" height="42" fill="#0891b2"/>
<rect x="348" y="80" width="7" height="42" fill="#0891b2"/>
<rect x="355" y="80" width="7" height="42" fill="#0891b2"/>
<rect x="362" y="80" width="7" height="42" fill="#0891b2"/>
<rect x="369" y="80" width="7" height="42" fill="#0891b2"/>
<rect x="376" y="80" width="7" height="42" fill="#0891b2"/>
<rect x="383" y="80" width="7" height="42" fill="#0891b2"/>
<rect x="390" y="80" width="7" height="42" fill="#0891b2"/>
<rect x="397" y="80" width="7" height="42" fill="#0891b2"/>
<rect x="404" y="80" width="7" height="42" fill="#0891b2"/>
<rect x="411" y="80" width="7" height="42" fill="#0891b2"/>
<rect x="418" y="80" width="7" height="42" fill="#0891b2"/>
<rect x="425" y="80" width="7" height="42" fill="#0891b2"/>
<rect x="432" y="80" width="7" height="42" fill="#0891b2"/>
<rect x="439" y="80" width="7" height="42" fill="#0891b2"/>
<rect x="446" y="80" width="7" height="42" fill="#0891b2"/>
<rect x="453" y="80" width="7" height="42" fill="#0891b2"/>
<rect x="460" y="80" width="7" height="42" fill="#0891b2"/>
<rect x="467" y="80" width="7" height="42" fill="#0891b2"/>
<rect x="474" y="80" width="7" height="42" fill="#0891b2"/>
<rect x="481" y="80" width="7" height="42" fill="#0891b2"/>
<rect x="488" y="80" width="7" height="42" fill="#0891b2"/>
<rect x="495" y="80" width="7" height="42" fill="#0891b2"/>
<rect x="502" y="80" width="7" height="42" fill="#0891b2"/>
<rect x="509" y="80" width="7" height="42" fill="#0891b2"/>
<rect x="516" y="80" width="7" height="42" fill="#0891b2"/>
<rect x="523" y="80" width="7" height="42" fill="#0891b2"/>
<rect x="530" y="80" width="7" height="42" fill="#0891b2"/>
<rect x="537" y="80" width="7" height="42" fill="#0891b2"/>
<rect x="544" y="80" width="7" height="42" fill="#0891b2"/>
<rect x="551" y="80" width="7" height="42" fill="#0891b2"/>
<rect x="558" y="80" width="7" height="42" fill="#0891b2"/>
<rect x="565" y="80" width="7" height="42" fill="#0891b2"/>
<rect x="572" y="80" width="7" height="42" fill="#0891b2"/>
<rect x="579" y="80" width="7" height="42" fill="#65a30d"/>
<rect x="586" y="80" width="7" height="42" fill="#0891b2"/>
<rect x="593" y="80" width="7" height="42" fill="#0891b2"/>
<rect x="600" y="80" width="7" height="42" fill="#0891b2"/>
<rect x="607" y="80" width="7" height="42" fill="#0891b2"/>
<rect x="614" y="80" width="7" height="42" fill="#0891b2"/>
<rect x="621" y="80" width="7" height="42" fill="#0891b2"/>
<rect x="628" y="80" width="7" height="42" fill="#0891b2"/>
<rect x="635" y="80" width="7" height="42" fill="#0891b2"/>
<rect x="642" y="80" width="7" height="42" fill="#0891b2"/>
<rect x="649" y="80" width="7" height="42" fill="#0891b2"/>
<rect x="656" y="80" width="7" height="42" fill="#65a30d"/>
<rect x="663" y="80" width="7" height="42" fill="#0891b2"/>
<rect x="670" y="80" width="7" height="42" fill="#0891b2"/>
<rect x="677" y="80" width="7" height="42" fill="#65a30d"/>
<rect x="684" y="80" width="7" height="42" fill="#dc2626"/>
<rect x="691" y="80" width="7" height="42" fill="#0891b2"/>
<rect x="698" y="80" width="7" height="42" fill="#dc2626"/>
<rect x="705" y="80" width="7" height="42" fill="#f59e0b"/>
<rect x="712" y="80" width="7" height="42" fill="#f59e0b"/>
<rect x="719" y="80" width="7" height="42" fill="#0891b2"/>
<rect x="726" y="80" width="7" height="42" fill="#dc2626"/>
<rect x="733" y="80" width="7" height="42" fill="#65a30d"/>
<rect x="740" y="80" width="7" height="42" fill="#0891b2"/>
<rect x="747" y="80" width="7" height="42" fill="#dc2626"/>
<rect x="754" y="80" width="7" height="42" fill="#0891b2"/>
<rect x="761" y="80" width="7" height="42" fill="#0891b2"/>
<rect x="768" y="80" width="7" height="42" fill="#0891b2"/>
<rect x="775" y="80" width="7" height="42" fill="#dc2626"/>
<rect x="782" y="80" width="7" height="42" fill="#0891b2"/>
<rect x="789" y="80" width="7" height="42" fill="#0891b2"/>
<rect x="796" y="80" width="7" height="42" fill="#0891b2"/>
<rect x="803" y="80" width="7" height="42" fill="#0891b2"/>
<rect x="810" y="80" width="7" height="42" fill="#0891b2"/>
<rect x="817" y="80" width="7" height="42" fill="#2563eb"/>
<rect x="824" y="80" width="7" height="42" fill="#2563eb"/>
<rect x="831" y="80" width="7" height="42" fill="#2563eb"/>
<rect x="838" y="80" width="7" height="42" fill="#2563eb"/>
<rect x="845" y="80" width="7" height="42" fill="#2563eb"/>
<rect x="852" y="80" width="7" height="42" fill="#2563eb"/>
<rect x="859" y="80" width="7" height="42" fill="#2563eb"/>
<rect x="866" y="80" width="7" height="42" fill="#2563eb"/>
<rect x="873" y="80" width="7" height="42" fill="#2563eb"/>
<rect x="880" y="80" width="7" height="42" fill="#2563eb"/>
<rect x="887" y="80" width="7" height="42" fill="#2563eb"/>
<rect x="894" y="80" width="7" height="42" fill="#2563eb"/>
<rect x="901" y="80" width="7" height="42" fill="#2563eb"/>
<rect x="908" y="80" width="7" height="42" fill="#dc2626"/>
<line x1="75" y1="72" x2="75" y2="130" stroke="#1f2937" stroke-width="0.5" opacity="0.35"/>
<line x1="86" y1="72" x2="86" y2="130" stroke="#1f2937" stroke-width="0.5" opacity="0.35"/>
<line x1="87" y1="72" x2="87" y2="130" stroke="#1f2937" stroke-width="0.5" opacity="0.35"/>
<line x1="94" y1="72" x2="94" y2="130" stroke="#1f2937" stroke-width="0.5" opacity="0.35"/>
<line x1="95" y1="72" x2="95" y2="130" stroke="#1f2937" stroke-width="0.5" opacity="0.35"/>
<line x1="106" y1="72" x2="106" y2="130" stroke="#1f2937" stroke-width="0.5" opacity="0.35"/>
<line x1="106" y1="72" x2="106" y2="130" stroke="#1f2937" stroke-width="0.5" opacity="0.35"/>
<line x1="120" y1="72" x2="120" y2="130" stroke="#1f2937" stroke-width="0.5" opacity="0.35"/>
<line x1="120" y1="72" x2="120" y2="130" stroke="#1f2937" stroke-width="0.5" opacity="0.35"/>
<line x1="141" y1="72" x2="141" y2="130" stroke="#1f2937" stroke-width="0.5" opacity="0.35"/>
<line x1="141" y1="72" x2="141" y2="130" stroke="#1f2937" stroke-width="0.5" opacity="0.35"/>
<line x1="157" y1="72" x2="157" y2="130" stroke="#1f2937" stroke-width="0.5" opacity="0.35"/>
<line x1="157" y1="72" x2="157" y2="130" stroke="#1f2937" stroke-width="0.5" opacity="0.35"/>
<line x1="163" y1="72" x2="163" y2="130" stroke="#1f2937" stroke-width="0.5" opacity="0.35"/>
<line x1="164" y1="72" x2="164" y2="130" stroke="#1f2937" stroke-width="0.5" opacity="0.35"/>
<line x1="175" y1="72" x2="175" y2="130" stroke="#1f2937" stroke-width="0.5" opacity="0.35"/>
<line x1="175" y1="72" x2="175" y2="130" stroke="#1f2937" stroke-width="0.5" opacity="0.35"/>
<line x1="690" y1="72" x2="690" y2="130" stroke="#1f2937" stroke-width="0.5" opacity="0.35"/>
<line x1="690" y1="72" x2="690" y2="130" stroke="#1f2937" stroke-width="0.5" opacity="0.35"/>
<line x1="703" y1="72" x2="703" y2="130" stroke="#1f2937" stroke-width="0.5" opacity="0.35"/>
<line x1="703" y1="72" x2="703" y2="130" stroke="#1f2937" stroke-width="0.5" opacity="0.35"/>
<line x1="729" y1="72" x2="729" y2="130" stroke="#1f2937" stroke-width="0.5" opacity="0.35"/>
<line x1="729" y1="72" x2="729" y2="130" stroke="#1f2937" stroke-width="0.5" opacity="0.35"/>
<line x1="748" y1="72" x2="748" y2="130" stroke="#1f2937" stroke-width="0.5" opacity="0.35"/>
<line x1="748" y1="72" x2="748" y2="130" stroke="#1f2937" stroke-width="0.5" opacity="0.35"/>
<line x1="777" y1="72" x2="777" y2="130" stroke="#1f2937" stroke-width="0.5" opacity="0.35"/>
<line x1="777" y1="72" x2="777" y2="130" stroke="#1f2937" stroke-width="0.5" opacity="0.35"/>
<line x1="823" y1="72" x2="823" y2="130" stroke="#1f2937" stroke-width="0.5" opacity="0.35"/>
<line x1="823" y1="72" x2="823" y2="130" stroke="#1f2937" stroke-width="0.5" opacity="0.35"/>
<line x1="837" y1="72" x2="837" y2="130" stroke="#1f2937" stroke-width="0.5" opacity="0.35"/>
<line x1="837" y1="72" x2="837" y2="130" stroke="#1f2937" stroke-width="0.5" opacity="0.35"/>
<line x1="848" y1="72" x2="848" y2="130" stroke="#1f2937" stroke-width="0.5" opacity="0.35"/>
<line x1="848" y1="72" x2="848" y2="130" stroke="#1f2937" stroke-width="0.5" opacity="0.35"/>
<line x1="854" y1="72" x2="854" y2="130" stroke="#1f2937" stroke-width="0.5" opacity="0.35"/>
<line x1="855" y1="72" x2="855" y2="130" stroke="#1f2937" stroke-width="0.5" opacity="0.35"/>
<line x1="867" y1="72" x2="867" y2="130" stroke="#1f2937" stroke-width="0.5" opacity="0.35"/>
<line x1="867" y1="72" x2="867" y2="130" stroke="#1f2937" stroke-width="0.5" opacity="0.35"/>
<line x1="875" y1="72" x2="875" y2="130" stroke="#1f2937" stroke-width="0.5" opacity="0.35"/>
<line x1="875" y1="72" x2="875" y2="130" stroke="#1f2937" stroke-width="0.5" opacity="0.35"/>
<line x1="886" y1="72" x2="886" y2="130" stroke="#1f2937" stroke-width="0.5" opacity="0.35"/>
<line x1="887" y1="72" x2="887" y2="130" stroke="#1f2937" stroke-width="0.5" opacity="0.35"/>
<line x1="896" y1="72" x2="896" y2="130" stroke="#1f2937" stroke-width="0.5" opacity="0.35"/>
<line x1="896" y1="72" x2="896" y2="130" stroke="#1f2937" stroke-width="0.5" opacity="0.35"/>
<line x1="914" y1="72" x2="914" y2="130" stroke="#1f2937" stroke-width="0.5" opacity="0.35"/>
<line x1="75" y1="128" x2="75" y2="134" class="axis"/>
<text x="59" y="150" class="small">1</text>
<line x1="285.0" y1="128" x2="285.0" y2="134" class="axis"/>
<text x="269.0" y="150" class="small">1399</text>
<line x1="495.0" y1="128" x2="495.0" y2="134" class="axis"/>
<text x="479.0" y="150" class="small">2796</text>
<line x1="705.0" y1="128" x2="705.0" y2="134" class="axis"/>
<text x="689.0" y="150" class="small">4194</text>
<line x1="915.0" y1="128" x2="915.0" y2="134" class="axis"/>
<text x="899.0" y="150" class="small">5592</text>
<rect x="75" y="180" width="14" height="14" fill="#2563eb"/>
<text x="95" y="192" class="small">cluster 1</text>
<rect x="185" y="180" width="14" height="14" fill="#0891b2"/>
<text x="205" y="192" class="small">cluster 2</text>
<rect x="295" y="180" width="14" height="14" fill="#65a30d"/>
<text x="315" y="192" class="small">cluster 3</text>
<rect x="405" y="180" width="14" height="14" fill="#f59e0b"/>
<text x="425" y="192" class="small">cluster 4</text>
<rect x="515" y="180" width="14" height="14" fill="#dc2626"/>
<text x="535" y="192" class="small">cluster 5</text>
</svg>
