<svg xmlns="http://www.w3.org/2000/svg" width="760" height="461" viewBox="0 0 760 461">
<style>
text { font-family: Arial, Helvetica, sans-serif; fill: #172033; }
.small { font-size: 11px; }
.label { font-size: 12px; }
.title { font-size: 18px; font-weight: 700; }
.axis { stroke: #9aa4b2; stroke-width: 1; }
.grid { stroke: #e2e8f0; stroke-width: 1; }
.panel { fill: #f3f4f6; }
.tile { stroke: #ffffff; stroke-width: 1; }
.legend-title { font-size: 11px; font-weight: 700; }
</style>
<rect x="0" y="0" width="760" height="461" fill="#ffffff"/>
<text x="30" y="32" class="title">BRCA2 cluster profile without SpliceAI features</text>
<text x="150" y="58" class="small">Colored strip maps cluster IDs to the position cluster plot</text>
<rect x="148" y="114" width="482" height="272" class="panel"/>
<text x="156" y="78" class="small">C1</text>
<rect x="150" y="86" width="96" height="16" fill="#2563eb" class="tile"/>
<text x="252" y="78" class="small">C2</text>
<rect x="246" y="86" width="96" height="16" fill="#0891b2" class="tile"/>
<text x="348" y="78" class="small">C3</text>
<rect x="342" y="86" width="96" height="16" fill="#65a30d" class="tile"/>
<text x="444" y="78" class="small">C4</text>
<rect x="438" y="86" width="96" height="16" fill="#f59e0b" class="tile"/>
<text x="540" y="78" class="small">C5</text>
<rect x="534" y="86" width="96" height="16" fill="#dc2626" class="tile"/>
<text x="20" y="136" class="small">benign</text>
<rect x="150" y="116" width="96" height="30" fill="#8eaef3" class="tile"/>
<text x="156" y="135" class="small">0.24</text>
<rect x="246" y="116" width="96" height="30" fill="#2563eb" class="tile"/>
<text x="252" y="135" class="small">0.94</text>
<rect x="342" y="116" width="96" height="30" fill="#2b67eb" class="tile"/>
<text x="348" y="135" class="small">0.89</text>
<rect x="438" y="116" width="96" height="30" fill="#cbdaf8" class="tile"/>
<text x="444" y="135" class="small">0.04</text>
<rect x="534" y="116" width="96" height="30" fill="#5082ef" class="tile"/>
<text x="540" y="135" class="small">0.59</text>
<text x="20" y="166" class="small">vus</text>
<rect x="150" y="146" width="96" height="30" fill="#3f75ed" class="tile"/>
<text x="156" y="165" class="small">0.73</text>
<rect x="246" y="146" width="96" height="30" fill="#e3ecfa" class="tile"/>
<text x="252" y="165" class="small">0.01</text>
<rect x="342" y="146" width="96" height="30" fill="#bfd2f7" class="tile"/>
<text x="348" y="165" class="small">0.07</text>
<rect x="438" y="146" width="96" height="30" fill="#2a66eb" class="tile"/>
<text x="444" y="165" class="small">0.90</text>
<rect x="534" y="146" width="96" height="30" fill="#779ef2" class="tile"/>
<text x="540" y="165" class="small">0.35</text>
<text x="20" y="196" class="small">pathogenic</text>
<rect x="150" y="176" width="96" height="30" fill="#cddcf9" class="tile"/>
<text x="156" y="195" class="small">0.04</text>
<rect x="246" y="176" width="96" height="30" fill="#c7d7f8" class="tile"/>
<text x="252" y="195" class="small">0.05</text>
<rect x="342" y="176" width="96" height="30" fill="#c9d9f8" class="tile"/>
<text x="348" y="195" class="small">0.04</text>
<rect x="438" y="176" width="96" height="30" fill="#c3d4f8" class="tile"/>
<text x="444" y="195" class="small">0.06</text>
<rect x="534" y="176" width="96" height="30" fill="#c3d4f8" class="tile"/>
<text x="540" y="195" class="small">0.06</text>
<text x="20" y="226" class="small">SpAI &gt;=0.20</text>
<rect x="150" y="206" width="96" height="30" fill="#d1dff9" class="tile"/>
<text x="156" y="225" class="small">0.03</text>
<rect x="246" y="206" width="96" height="30" fill="#eaf1fb" class="tile"/>
<text x="252" y="225" class="small">0.00</text>
<rect x="342" y="206" width="96" height="30" fill="#ccdbf9" class="tile"/>
<text x="348" y="225" class="small">0.04</text>
<rect x="438" y="206" width="96" height="30" fill="#c2d4f8" class="tile"/>
<text x="444" y="225" class="small">0.06</text>
<rect x="534" y="206" width="96" height="30" fill="#afc6f6" class="tile"/>
<text x="540" y="225" class="small">0.11</text>
<text x="20" y="256" class="small">near boundary</text>
<rect x="150" y="236" width="96" height="30" fill="#7da2f2" class="tile"/>
<text x="156" y="255" class="small">0.32</text>
<rect x="246" y="236" width="96" height="30" fill="#e7effb" class="tile"/>
<text x="252" y="255" class="small">0.01</text>
<rect x="342" y="236" width="96" height="30" fill="#85a8f3" class="tile"/>
<text x="348" y="255" class="small">0.28</text>
<rect x="438" y="236" width="96" height="30" fill="#afc6f6" class="tile"/>
<text x="444" y="255" class="small">0.11</text>
<rect x="534" y="236" width="96" height="30" fill="#c5d6f8" class="tile"/>
<text x="540" y="255" class="small">0.05</text>
<text x="20" y="286" class="small">PVS1</text>
<rect x="150" y="266" width="96" height="30" fill="#cfddf9" class="tile"/>
<text x="156" y="285" class="small">0.03</text>
<rect x="246" y="266" width="96" height="30" fill="#c7d7f8" class="tile"/>
<text x="252" y="285" class="small">0.05</text>
<rect x="342" y="266" width="96" height="30" fill="#cad9f8" class="tile"/>
<text x="348" y="285" class="small">0.04</text>
<rect x="438" y="266" width="96" height="30" fill="#c4d5f8" class="tile"/>
<text x="444" y="285" class="small">0.06</text>
<rect x="534" y="266" width="96" height="30" fill="#c3d4f8" class="tile"/>
<text x="540" y="285" class="small">0.06</text>
<text x="20" y="316" class="small">PP3</text>
<rect x="150" y="296" width="96" height="30" fill="#d2dff9" class="tile"/>
<text x="156" y="315" class="small">0.03</text>
<rect x="246" y="296" width="96" height="30" fill="#eaf1fb" class="tile"/>
<text x="252" y="315" class="small">0.00</text>
<rect x="342" y="296" width="96" height="30" fill="#ceddf9" class="tile"/>
<text x="348" y="315" class="small">0.04</text>
<rect x="438" y="296" width="96" height="30" fill="#c5d6f8" class="tile"/>
<text x="444" y="315" class="small">0.05</text>
<rect x="534" y="296" width="96" height="30" fill="#b5cbf7" class="tile"/>
<text x="540" y="315" class="small">0.09</text>
<text x="20" y="346" class="small">BS3</text>
<rect x="150" y="326" width="96" height="30" fill="#dae5fa" class="tile"/>
<text x="156" y="345" class="small">0.02</text>
<rect x="246" y="326" width="96" height="30" fill="#eaf1fb" class="tile"/>
<text x="252" y="345" class="small">0.00</text>
<rect x="342" y="326" width="96" height="30" fill="#e7eefb" class="tile"/>
<text x="348" y="345" class="small">0.01</text>
<rect x="438" y="326" width="96" height="30" fill="#d3e0f9" class="tile"/>
<text x="444" y="345" class="small">0.03</text>
<rect x="534" y="326" width="96" height="30" fill="#e4ecfa" class="tile"/>
<text x="540" y="345" class="small">0.01</text>
<text x="20" y="376" class="small">BP1</text>
<rect x="150" y="356" width="96" height="30" fill="#92b1f4" class="tile"/>
<text x="156" y="375" class="small">0.22</text>
<rect x="246" y="356" width="96" height="30" fill="#2563eb" class="tile"/>
<text x="252" y="375" class="small">0.94</text>
<rect x="342" y="356" width="96" height="30" fill="#2b68ec" class="tile"/>
<text x="348" y="375" class="small">0.89</text>
<rect x="438" y="356" width="96" height="30" fill="#f0f5fb" class="tile"/>
<text x="444" y="375" class="small">0.00</text>
<rect x="534" y="356" width="96" height="30" fill="#5183ef" class="tile"/>
<text x="540" y="375" class="small">0.59</text>
<text x="664" y="110" class="legend-title">mean</text>
<rect x="664" y="120" width="18" height="18" fill="#2563eb" class="tile"/>
<rect x="664" y="138" width="18" height="18" fill="#3b73ed" class="tile"/>
<rect x="664" y="156" width="18" height="18" fill="#5485ef" class="tile"/>
<rect x="664" y="174" width="18" height="18" fill="#729af1" class="tile"/>
<rect x="664" y="192" width="18" height="18" fill="#99b6f4" class="tile"/>
<rect x="664" y="210" width="18" height="18" fill="#f7fafc" class="tile"/>
<text x="690" y="132" class="small">0.94</text>
<text x="690" y="222" class="small">0</text>
</svg>
