<svg xmlns="http://www.w3.org/2000/svg" width="1050" height="310" viewBox="0 0 1050 310">
<style>
text{font-family:Arial,sans-serif;font-size:13px;fill:#222}
.title{font-size:20px;font-weight:bold}
.small{font-size:11px;fill:#555}
.bar{fill:#b24a3a}
</style>
<text x="24" y="30" class="title">Class 4/5 ENIGMA Domain Context</text>
<text x="24" y="73">BRCA2 / outside_enigma_functional_domain</text>
<rect x="390" y="60" width="560" height="18" class="bar"/>
<text x="958" y="74" class="small">1188</text>
<text x="24" y="103">BRCA1 / outside_enigma_functional_domain</text>
<rect x="390" y="90" width="301" height="18" class="bar"/>
<text x="699" y="104" class="small">640</text>
<text x="24" y="133">BRCA2 / DBD</text>
<rect x="390" y="120" width="170" height="18" class="bar"/>
<text x="568" y="134" class="small">362</text>
<text x="24" y="163">BRCA1 / BRCT</text>
<rect x="390" y="150" width="65" height="18" class="bar"/>
<text x="463" y="164" class="small">140</text>
<text x="24" y="193">BRCA1 / RING</text>
<rect x="390" y="180" width="37" height="18" class="bar"/>
<text x="435" y="194" class="small">80</text>
<text x="24" y="223">BRCA1 / coiled_coil</text>
<rect x="390" y="210" width="8" height="18" class="bar"/>
<text x="406" y="224" class="small">17</text>
<text x="24" y="253">BRCA2 / PALB2_binding</text>
<rect x="390" y="240" width="6" height="18" class="bar"/>
<text x="404" y="254" class="small">14</text>
</svg>