<svg xmlns="http://www.w3.org/2000/svg" width="580" height="369" viewBox="0 0 580 369">
<style>
text{font-family:Arial,sans-serif;font-size:12px;fill:#222}
.title{font-size:20px;font-weight:bold}
.small{font-size:10px;fill:#555}
.cell{stroke:#fff;stroke-width:1}
</style>
<text x="24" y="30" class="title">Class 4/5 Domain Context By Gene</text>
<text x="24" y="52" class="small">Counts of generated ARIANE class 4/5 variants, not independently validated biology.</text>
<text x="312.5" y="73" text-anchor="middle">BRCA1</text>
<text x="437.5" y="73" text-anchor="middle">BRCA2</text>
<text x="24" y="107">BRCT</text>
<rect x="250" y="85" width="125" height="34" class="cell" fill="#f7dcd2"/>
<text x="312.5" y="107" text-anchor="middle">140</text>
<rect x="375" y="85" width="125" height="34" class="cell" fill="#f7f7f7"/>
<text x="24" y="141">DBD</text>
<rect x="250" y="119" width="125" height="34" class="cell" fill="#f7f7f7"/>
<rect x="375" y="119" width="125" height="34" class="cell" fill="#e9bfb3"/>
<text x="437.5" y="141" text-anchor="middle">362</text>
<text x="24" y="175">PALB2_binding</text>
<rect x="250" y="153" width="125" height="34" class="cell" fill="#f7f7f7"/>
<rect x="375" y="153" width="125" height="34" class="cell" fill="#ffede4"/>
<text x="437.5" y="175" text-anchor="middle">14</text>
<text x="24" y="209">RING</text>
<rect x="250" y="187" width="125" height="34" class="cell" fill="#fae4db"/>
<text x="312.5" y="209" text-anchor="middle">80</text>
<rect x="375" y="187" width="125" height="34" class="cell" fill="#f7f7f7"/>
<text x="24" y="243">coiled_coil</text>
<rect x="250" y="221" width="125" height="34" class="cell" fill="#feece4"/>
<text x="312.5" y="243" text-anchor="middle">17</text>
<rect x="375" y="221" width="125" height="34" class="cell" fill="#f7f7f7"/>
<text x="24" y="277">outside_enigma_functional_domain</text>
<rect x="250" y="255" width="125" height="34" class="cell" fill="#d79b8b"/>
<text x="312.5" y="277" text-anchor="middle">640</text>
<rect x="375" y="255" width="125" height="34" class="cell" fill="#b4533c"/>
<text x="437.5" y="277" text-anchor="middle">1188</text>
</svg>