<svg xmlns="http://www.w3.org/2000/svg" width="580" height="301" viewBox="0 0 580 301">
<style>
text{font-family:Arial,sans-serif;font-size:12px;fill:#222}
.title{font-size:20px;font-weight:bold}
.small{font-size:10px;fill:#555}
.cell{stroke:#fff;stroke-width:1}
</style>
<text x="24" y="30" class="title">Missense Class 4/5 Domain Context</text>
<text x="24" y="52" class="small">Counts of generated ARIANE class 4/5 variants, not independently validated biology.</text>
<text x="312.5" y="73" text-anchor="middle">BRCA1</text>
<text x="437.5" y="73" text-anchor="middle">BRCA2</text>
<text x="24" y="107">BRCT</text>
<rect x="250" y="85" width="125" height="34" class="cell" fill="#b4533c"/>
<text x="312.5" y="107" text-anchor="middle">52</text>
<rect x="375" y="85" width="125" height="34" class="cell" fill="#f7f7f7"/>
<text x="24" y="141">DBD</text>
<rect x="250" y="119" width="125" height="34" class="cell" fill="#f7f7f7"/>
<rect x="375" y="119" width="125" height="34" class="cell" fill="#e7bcaf"/>
<text x="437.5" y="141" text-anchor="middle">17</text>
<text x="24" y="175">RING</text>
<rect x="250" y="153" width="125" height="34" class="cell" fill="#d49584"/>
<text x="312.5" y="175" text-anchor="middle">30</text>
<rect x="375" y="153" width="125" height="34" class="cell" fill="#f7f7f7"/>
<text x="24" y="209">outside_enigma_functional_domain</text>
<rect x="250" y="187" width="125" height="34" class="cell" fill="#fbe6dd"/>
<text x="312.5" y="209" text-anchor="middle">3</text>
<rect x="375" y="187" width="125" height="34" class="cell" fill="#feece3"/>
<text x="437.5" y="209" text-anchor="middle">1</text>
</svg>