<svg xmlns="http://www.w3.org/2000/svg" width="1049" height="356" viewBox="0 0 1049 356">
<style>
text { font-family: Arial, Helvetica, sans-serif; fill: #172033; }
.small { font-size: 11px; }
.label { font-size: 12px; }
.title { font-size: 18px; font-weight: 700; }
.grid { stroke: #e2e8f0; stroke-width: 1; }
</style>
<rect x="0" y="0" width="1049" height="356" fill="#ffffff"/>
<text x="28" y="32" class="title">BRCA2 regional driver decomposition, 100 bp bins</text>
<text x="185" y="52" class="small">Darker cells indicate stronger regional signal in the precomputed Module 1 map.</text>
<text x="18" y="88" class="small">pathogenic fraction</text>
<rect x="185" y="70" width="8" height="25" fill="#c85152"/>
<rect x="193" y="70" width="8" height="25" fill="#c85152"/>
<rect x="201" y="70" width="8" height="25" fill="#c54647"/>
<rect x="209" y="70" width="8" height="25" fill="#cd6364"/>
<rect x="217" y="70" width="8" height="25" fill="#cf6a6a"/>
<rect x="225" y="70" width="8" height="25" fill="#cb5d5e"/>
<rect x="233" y="70" width="8" height="25" fill="#d78788"/>
<rect x="241" y="70" width="8" height="25" fill="#d17071"/>
<rect x="249" y="70" width="8" height="25" fill="#c54647"/>
<rect x="257" y="70" width="8" height="25" fill="#c54647"/>
<rect x="265" y="70" width="8" height="25" fill="#c44142"/>
<rect x="273" y="70" width="8" height="25" fill="#c85152"/>
<rect x="281" y="70" width="8" height="25" fill="#c23c3d"/>
<rect x="289" y="70" width="8" height="25" fill="#c54647"/>
<rect x="297" y="70" width="8" height="25" fill="#cd6364"/>
<rect x="305" y="70" width="8" height="25" fill="#c85152"/>
<rect x="313" y="70" width="8" height="25" fill="#c54647"/>
<rect x="321" y="70" width="8" height="25" fill="#c85152"/>
<rect x="329" y="70" width="8" height="25" fill="#c74c4c"/>
<rect x="337" y="70" width="8" height="25" fill="#c74c4c"/>
<rect x="345" y="70" width="8" height="25" fill="#c44142"/>
<rect x="353" y="70" width="8" height="25" fill="#c44142"/>
<rect x="361" y="70" width="8" height="25" fill="#c54647"/>
<rect x="369" y="70" width="8" height="25" fill="#c54647"/>
<rect x="377" y="70" width="8" height="25" fill="#c44142"/>
<rect x="385" y="70" width="8" height="25" fill="#c13738"/>
<rect x="393" y="70" width="8" height="25" fill="#cd6364"/>
<rect x="401" y="70" width="8" height="25" fill="#c85152"/>
<rect x="409" y="70" width="8" height="25" fill="#c74c4c"/>
<rect x="417" y="70" width="8" height="25" fill="#c54647"/>
<rect x="425" y="70" width="8" height="25" fill="#ca5758"/>
<rect x="433" y="70" width="8" height="25" fill="#c23c3d"/>
<rect x="441" y="70" width="8" height="25" fill="#cd6364"/>
<rect x="449" y="70" width="8" height="25" fill="#c44142"/>
<rect x="457" y="70" width="8" height="25" fill="#c85152"/>
<rect x="465" y="70" width="8" height="25" fill="#cf6a6a"/>
<rect x="473" y="70" width="8" height="25" fill="#cf6a6a"/>
<rect x="481" y="70" width="8" height="25" fill="#cb5d5e"/>
<rect x="489" y="70" width="8" height="25" fill="#ca5758"/>
<rect x="497" y="70" width="8" height="25" fill="#cb5d5e"/>
<rect x="505" y="70" width="8" height="25" fill="#cb5d5e"/>
<rect x="513" y="70" width="8" height="25" fill="#c13738"/>
<rect x="521" y="70" width="8" height="25" fill="#ca5758"/>
<rect x="529" y="70" width="8" height="25" fill="#c85152"/>
<rect x="537" y="70" width="8" height="25" fill="#cd6364"/>
<rect x="545" y="70" width="8" height="25" fill="#cb5d5e"/>
<rect x="553" y="70" width="8" height="25" fill="#ca5758"/>
<rect x="561" y="70" width="8" height="25" fill="#c44142"/>
<rect x="569" y="70" width="8" height="25" fill="#c85152"/>
<rect x="577" y="70" width="8" height="25" fill="#c23c3d"/>
<rect x="585" y="70" width="8" height="25" fill="#c13738"/>
<rect x="593" y="70" width="8" height="25" fill="#c54647"/>
<rect x="601" y="70" width="8" height="25" fill="#be2e2e"/>
<rect x="609" y="70" width="8" height="25" fill="#d17071"/>
<rect x="617" y="70" width="8" height="25" fill="#cd6364"/>
<rect x="625" y="70" width="8" height="25" fill="#d37778"/>
<rect x="633" y="70" width="8" height="25" fill="#c44142"/>
<rect x="641" y="70" width="8" height="25" fill="#cb5d5e"/>
<rect x="649" y="70" width="8" height="25" fill="#c54647"/>
<rect x="657" y="70" width="8" height="25" fill="#c54647"/>
<rect x="665" y="70" width="8" height="25" fill="#ca5758"/>
<rect x="673" y="70" width="8" height="25" fill="#c85152"/>
<rect x="681" y="70" width="8" height="25" fill="#be2e2e"/>
<rect x="689" y="70" width="8" height="25" fill="#c13738"/>
<rect x="697" y="70" width="8" height="25" fill="#c44142"/>
<rect x="705" y="70" width="8" height="25" fill="#c54647"/>
<rect x="713" y="70" width="8" height="25" fill="#c85152"/>
<rect x="721" y="70" width="8" height="25" fill="#cd6364"/>
<rect x="729" y="70" width="8" height="25" fill="#be2e2e"/>
<rect x="737" y="70" width="8" height="25" fill="#c74c4c"/>
<rect x="745" y="70" width="8" height="25" fill="#cb5d5e"/>
<rect x="753" y="70" width="8" height="25" fill="#c44142"/>
<rect x="761" y="70" width="8" height="25" fill="#c74c4c"/>
<rect x="769" y="70" width="8" height="25" fill="#d57f80"/>
<rect x="777" y="70" width="8" height="25" fill="#c54647"/>
<rect x="785" y="70" width="8" height="25" fill="#d37778"/>
<rect x="793" y="70" width="8" height="25" fill="#ca5758"/>
<rect x="801" y="70" width="8" height="25" fill="#be2e2e"/>
<rect x="809" y="70" width="8" height="25" fill="#c44142"/>
<rect x="817" y="70" width="8" height="25" fill="#bf3333"/>
<rect x="825" y="70" width="8" height="25" fill="#ca5758"/>
<rect x="833" y="70" width="8" height="25" fill="#c85152"/>
<rect x="841" y="70" width="8" height="25" fill="#cf6a6a"/>
<rect x="849" y="70" width="8" height="25" fill="#cd6364"/>
<rect x="857" y="70" width="8" height="25" fill="#c23c3d"/>
<rect x="865" y="70" width="8" height="25" fill="#ba2020"/>
<rect x="873" y="70" width="8" height="25" fill="#c13738"/>
<rect x="881" y="70" width="8" height="25" fill="#c44142"/>
<rect x="889" y="70" width="8" height="25" fill="#c23c3d"/>
<rect x="897" y="70" width="8" height="25" fill="#b91c1c"/>
<rect x="905" y="70" width="8" height="25" fill="#bd2929"/>
<rect x="913" y="70" width="8" height="25" fill="#c23c3d"/>
<rect x="921" y="70" width="8" height="25" fill="#c23c3d"/>
<rect x="929" y="70" width="8" height="25" fill="#c74c4c"/>
<rect x="937" y="70" width="8" height="25" fill="#d17071"/>
<rect x="945" y="70" width="8" height="25" fill="#cf6a6a"/>
<rect x="953" y="70" width="8" height="25" fill="#c54647"/>
<rect x="961" y="70" width="8" height="25" fill="#c44142"/>
<rect x="969" y="70" width="8" height="25" fill="#cf6a6a"/>
<rect x="977" y="70" width="8" height="25" fill="#dfa3a4"/>
<rect x="985" y="70" width="8" height="25" fill="#f8fafc"/>
<rect x="993" y="70" width="8" height="25" fill="#f8fafc"/>
<rect x="1001" y="70" width="8" height="25" fill="#f8fafc"/>
<text x="18" y="116" class="small">PTC/PVS1/PM5 among path</text>
<rect x="185" y="98" width="8" height="25" fill="#bb2424"/>
<rect x="193" y="98" width="8" height="25" fill="#b91c1c"/>
<rect x="201" y="98" width="8" height="25" fill="#b91c1c"/>
<rect x="209" y="98" width="8" height="25" fill="#b91c1c"/>
<rect x="217" y="98" width="8" height="25" fill="#b91c1c"/>
<rect x="225" y="98" width="8" height="25" fill="#b91c1c"/>
<rect x="233" y="98" width="8" height="25" fill="#b91c1c"/>
<rect x="241" y="98" width="8" height="25" fill="#b91c1c"/>
<rect x="249" y="98" width="8" height="25" fill="#b91c1c"/>
<rect x="257" y="98" width="8" height="25" fill="#b91c1c"/>
<rect x="265" y="98" width="8" height="25" fill="#b91c1c"/>
<rect x="273" y="98" width="8" height="25" fill="#b91c1c"/>
<rect x="281" y="98" width="8" height="25" fill="#b91c1c"/>
<rect x="289" y="98" width="8" height="25" fill="#b91c1c"/>
<rect x="297" y="98" width="8" height="25" fill="#b91c1c"/>
<rect x="305" y="98" width="8" height="25" fill="#b91c1c"/>
<rect x="313" y="98" width="8" height="25" fill="#b91c1c"/>
<rect x="321" y="98" width="8" height="25" fill="#b91c1c"/>
<rect x="329" y="98" width="8" height="25" fill="#b91c1c"/>
<rect x="337" y="98" width="8" height="25" fill="#b91c1c"/>
<rect x="345" y="98" width="8" height="25" fill="#b91c1c"/>
<rect x="353" y="98" width="8" height="25" fill="#b91c1c"/>
<rect x="361" y="98" width="8" height="25" fill="#b91c1c"/>
<rect x="369" y="98" width="8" height="25" fill="#b91c1c"/>
<rect x="377" y="98" width="8" height="25" fill="#b91c1c"/>
<rect x="385" y="98" width="8" height="25" fill="#b91c1c"/>
<rect x="393" y="98" width="8" height="25" fill="#b91c1c"/>
<rect x="401" y="98" width="8" height="25" fill="#b91c1c"/>
<rect x="409" y="98" width="8" height="25" fill="#b91c1c"/>
<rect x="417" y="98" width="8" height="25" fill="#b91c1c"/>
<rect x="425" y="98" width="8" height="25" fill="#b91c1c"/>
<rect x="433" y="98" width="8" height="25" fill="#b91c1c"/>
<rect x="441" y="98" width="8" height="25" fill="#b91c1c"/>
<rect x="449" y="98" width="8" height="25" fill="#b91c1c"/>
<rect x="457" y="98" width="8" height="25" fill="#b91c1c"/>
<rect x="465" y="98" width="8" height="25" fill="#b91c1c"/>
<rect x="473" y="98" width="8" height="25" fill="#b91c1c"/>
<rect x="481" y="98" width="8" height="25" fill="#b91c1c"/>
<rect x="489" y="98" width="8" height="25" fill="#b91c1c"/>
<rect x="497" y="98" width="8" height="25" fill="#b91c1c"/>
<rect x="505" y="98" width="8" height="25" fill="#b91c1c"/>
<rect x="513" y="98" width="8" height="25" fill="#b91c1c"/>
<rect x="521" y="98" width="8" height="25" fill="#b91c1c"/>
<rect x="529" y="98" width="8" height="25" fill="#b91c1c"/>
<rect x="537" y="98" width="8" height="25" fill="#b91c1c"/>
<rect x="545" y="98" width="8" height="25" fill="#b91c1c"/>
<rect x="553" y="98" width="8" height="25" fill="#b91c1c"/>
<rect x="561" y="98" width="8" height="25" fill="#b91c1c"/>
<rect x="569" y="98" width="8" height="25" fill="#b91c1c"/>
<rect x="577" y="98" width="8" height="25" fill="#b91c1c"/>
<rect x="585" y="98" width="8" height="25" fill="#b91c1c"/>
<rect x="593" y="98" width="8" height="25" fill="#b91c1c"/>
<rect x="601" y="98" width="8" height="25" fill="#b91c1c"/>
<rect x="609" y="98" width="8" height="25" fill="#b91c1c"/>
<rect x="617" y="98" width="8" height="25" fill="#b91c1c"/>
<rect x="625" y="98" width="8" height="25" fill="#b91c1c"/>
<rect x="633" y="98" width="8" height="25" fill="#b91c1c"/>
<rect x="641" y="98" width="8" height="25" fill="#b91c1c"/>
<rect x="649" y="98" width="8" height="25" fill="#b91c1c"/>
<rect x="657" y="98" width="8" height="25" fill="#b91c1c"/>
<rect x="665" y="98" width="8" height="25" fill="#b91c1c"/>
<rect x="673" y="98" width="8" height="25" fill="#b91c1c"/>
<rect x="681" y="98" width="8" height="25" fill="#b91c1c"/>
<rect x="689" y="98" width="8" height="25" fill="#b91c1c"/>
<rect x="697" y="98" width="8" height="25" fill="#b91c1c"/>
<rect x="705" y="98" width="8" height="25" fill="#b91c1c"/>
<rect x="713" y="98" width="8" height="25" fill="#b91c1c"/>
<rect x="721" y="98" width="8" height="25" fill="#b91c1c"/>
<rect x="729" y="98" width="8" height="25" fill="#b91c1c"/>
<rect x="737" y="98" width="8" height="25" fill="#b91c1c"/>
<rect x="745" y="98" width="8" height="25" fill="#bb2525"/>
<rect x="753" y="98" width="8" height="25" fill="#b91c1c"/>
<rect x="761" y="98" width="8" height="25" fill="#b91c1c"/>
<rect x="769" y="98" width="8" height="25" fill="#b91c1c"/>
<rect x="777" y="98" width="8" height="25" fill="#b91c1c"/>
<rect x="785" y="98" width="8" height="25" fill="#b91c1c"/>
<rect x="793" y="98" width="8" height="25" fill="#b91c1c"/>
<rect x="801" y="98" width="8" height="25" fill="#b91c1c"/>
<rect x="809" y="98" width="8" height="25" fill="#bb2222"/>
<rect x="817" y="98" width="8" height="25" fill="#c13838"/>
<rect x="825" y="98" width="8" height="25" fill="#c03535"/>
<rect x="833" y="98" width="8" height="25" fill="#bd2b2b"/>
<rect x="841" y="98" width="8" height="25" fill="#b91c1c"/>
<rect x="849" y="98" width="8" height="25" fill="#b91c1c"/>
<rect x="857" y="98" width="8" height="25" fill="#bc2828"/>
<rect x="865" y="98" width="8" height="25" fill="#b91c1c"/>
<rect x="873" y="98" width="8" height="25" fill="#b91c1c"/>
<rect x="881" y="98" width="8" height="25" fill="#b91c1c"/>
<rect x="889" y="98" width="8" height="25" fill="#b91c1c"/>
<rect x="897" y="98" width="8" height="25" fill="#b91c1c"/>
<rect x="905" y="98" width="8" height="25" fill="#ba2121"/>
<rect x="913" y="98" width="8" height="25" fill="#bb2222"/>
<rect x="921" y="98" width="8" height="25" fill="#bc2828"/>
<rect x="929" y="98" width="8" height="25" fill="#bb2323"/>
<rect x="937" y="98" width="8" height="25" fill="#b91c1c"/>
<rect x="945" y="98" width="8" height="25" fill="#b91c1c"/>
<rect x="953" y="98" width="8" height="25" fill="#b91c1c"/>
<rect x="961" y="98" width="8" height="25" fill="#b91c1c"/>
<rect x="969" y="98" width="8" height="25" fill="#b91c1c"/>
<rect x="977" y="98" width="8" height="25" fill="#b91c1c"/>
<rect x="985" y="98" width="8" height="25" fill="#f8fafc"/>
<rect x="993" y="98" width="8" height="25" fill="#f8fafc"/>
<rect x="1001" y="98" width="8" height="25" fill="#f8fafc"/>
<text x="18" y="144" class="small">PP3/SpAI among path</text>
<rect x="185" y="126" width="8" height="25" fill="#f9a165"/>
<rect x="193" y="126" width="8" height="25" fill="#f8fafc"/>
<rect x="201" y="126" width="8" height="25" fill="#f9b688"/>
<rect x="209" y="126" width="8" height="25" fill="#f8c19a"/>
<rect x="217" y="126" width="8" height="25" fill="#f9a56c"/>
<rect x="225" y="126" width="8" height="25" fill="#f97316"/>
<rect x="233" y="126" width="8" height="25" fill="#f9af7c"/>
<rect x="241" y="126" width="8" height="25" fill="#f8bb91"/>
<rect x="249" y="126" width="8" height="25" fill="#f8fafc"/>
<rect x="257" y="126" width="8" height="25" fill="#f8fafc"/>
<rect x="265" y="126" width="8" height="25" fill="#f8fafc"/>
<rect x="273" y="126" width="8" height="25" fill="#f8c7a5"/>
<rect x="281" y="126" width="8" height="25" fill="#f8fafc"/>
<rect x="289" y="126" width="8" height="25" fill="#f8fafc"/>
<rect x="297" y="126" width="8" height="25" fill="#f8fafc"/>
<rect x="305" y="126" width="8" height="25" fill="#f8fafc"/>
<rect x="313" y="126" width="8" height="25" fill="#f8fafc"/>
<rect x="321" y="126" width="8" height="25" fill="#f8fafc"/>
<rect x="329" y="126" width="8" height="25" fill="#f8fafc"/>
<rect x="337" y="126" width="8" height="25" fill="#f8fafc"/>
<rect x="345" y="126" width="8" height="25" fill="#f8cbac"/>
<rect x="353" y="126" width="8" height="25" fill="#f8fafc"/>
<rect x="361" y="126" width="8" height="25" fill="#f8fafc"/>
<rect x="369" y="126" width="8" height="25" fill="#f8fafc"/>
<rect x="377" y="126" width="8" height="25" fill="#f8fafc"/>
<rect x="385" y="126" width="8" height="25" fill="#f8fafc"/>
<rect x="393" y="126" width="8" height="25" fill="#f8fafc"/>
<rect x="401" y="126" width="8" height="25" fill="#f8fafc"/>
<rect x="409" y="126" width="8" height="25" fill="#f8fafc"/>
<rect x="417" y="126" width="8" height="25" fill="#f8fafc"/>
<rect x="425" y="126" width="8" height="25" fill="#f8fafc"/>
<rect x="433" y="126" width="8" height="25" fill="#f8fafc"/>
<rect x="441" y="126" width="8" height="25" fill="#f8fafc"/>
<rect x="449" y="126" width="8" height="25" fill="#f8fafc"/>
<rect x="457" y="126" width="8" height="25" fill="#f8fafc"/>
<rect x="465" y="126" width="8" height="25" fill="#f8fafc"/>
<rect x="473" y="126" width="8" height="25" fill="#f8fafc"/>
<rect x="481" y="126" width="8" height="25" fill="#f8fafc"/>
<rect x="489" y="126" width="8" height="25" fill="#f8fafc"/>
<rect x="497" y="126" width="8" height="25" fill="#f8fafc"/>
<rect x="505" y="126" width="8" height="25" fill="#f8fafc"/>
<rect x="513" y="126" width="8" height="25" fill="#f8fafc"/>
<rect x="521" y="126" width="8" height="25" fill="#f8fafc"/>
<rect x="529" y="126" width="8" height="25" fill="#f8fafc"/>
<rect x="537" y="126" width="8" height="25" fill="#f8fafc"/>
<rect x="545" y="126" width="8" height="25" fill="#f8fafc"/>
<rect x="553" y="126" width="8" height="25" fill="#f8fafc"/>
<rect x="561" y="126" width="8" height="25" fill="#f8fafc"/>
<rect x="569" y="126" width="8" height="25" fill="#f8fafc"/>
<rect x="577" y="126" width="8" height="25" fill="#f8fafc"/>
<rect x="585" y="126" width="8" height="25" fill="#f8fafc"/>
<rect x="593" y="126" width="8" height="25" fill="#f8fafc"/>
<rect x="601" y="126" width="8" height="25" fill="#f8fafc"/>
<rect x="609" y="126" width="8" height="25" fill="#f8fafc"/>
<rect x="617" y="126" width="8" height="25" fill="#f8fafc"/>
<rect x="625" y="126" width="8" height="25" fill="#f8fafc"/>
<rect x="633" y="126" width="8" height="25" fill="#f8fafc"/>
<rect x="641" y="126" width="8" height="25" fill="#f8fafc"/>
<rect x="649" y="126" width="8" height="25" fill="#f8fafc"/>
<rect x="657" y="126" width="8" height="25" fill="#f8fafc"/>
<rect x="665" y="126" width="8" height="25" fill="#f8fafc"/>
<rect x="673" y="126" width="8" height="25" fill="#f8fafc"/>
<rect x="681" y="126" width="8" height="25" fill="#f8fafc"/>
<rect x="689" y="126" width="8" height="25" fill="#f8fafc"/>
<rect x="697" y="126" width="8" height="25" fill="#f8fafc"/>
<rect x="705" y="126" width="8" height="25" fill="#f8fafc"/>
<rect x="713" y="126" width="8" height="25" fill="#f8c7a5"/>
<rect x="721" y="126" width="8" height="25" fill="#f8fafc"/>
<rect x="729" y="126" width="8" height="25" fill="#f9b17f"/>
<rect x="737" y="126" width="8" height="25" fill="#f9b484"/>
<rect x="745" y="126" width="8" height="25" fill="#f8c39e"/>
<rect x="753" y="126" width="8" height="25" fill="#f8fafc"/>
<rect x="761" y="126" width="8" height="25" fill="#f8fafc"/>
<rect x="769" y="126" width="8" height="25" fill="#f8fafc"/>
<rect x="777" y="126" width="8" height="25" fill="#f9b688"/>
<rect x="785" y="126" width="8" height="25" fill="#f8b88b"/>
<rect x="793" y="126" width="8" height="25" fill="#f99047"/>
<rect x="801" y="126" width="8" height="25" fill="#f8be96"/>
<rect x="809" y="126" width="8" height="25" fill="#f8cbac"/>
<rect x="817" y="126" width="8" height="25" fill="#f99047"/>
<rect x="825" y="126" width="8" height="25" fill="#f9af7c"/>
<rect x="833" y="126" width="8" height="25" fill="#f8c7a5"/>
<rect x="841" y="126" width="8" height="25" fill="#f8fafc"/>
<rect x="849" y="126" width="8" height="25" fill="#f9a972"/>
<rect x="857" y="126" width="8" height="25" fill="#f99f61"/>
<rect x="865" y="126" width="8" height="25" fill="#f8fafc"/>
<rect x="873" y="126" width="8" height="25" fill="#f8ceb0"/>
<rect x="881" y="126" width="8" height="25" fill="#f9a972"/>
<rect x="889" y="126" width="8" height="25" fill="#f8fafc"/>
<rect x="897" y="126" width="8" height="25" fill="#f9934c"/>
<rect x="905" y="126" width="8" height="25" fill="#f98c41"/>
<rect x="913" y="126" width="8" height="25" fill="#f9812f"/>
<rect x="921" y="126" width="8" height="25" fill="#f8ccae"/>
<rect x="929" y="126" width="8" height="25" fill="#f8fafc"/>
<rect x="937" y="126" width="8" height="25" fill="#f8fafc"/>
<rect x="945" y="126" width="8" height="25" fill="#f8be96"/>
<rect x="953" y="126" width="8" height="25" fill="#f9a76e"/>
<rect x="961" y="126" width="8" height="25" fill="#f8cbac"/>
<rect x="969" y="126" width="8" height="25" fill="#f8fafc"/>
<rect x="977" y="126" width="8" height="25" fill="#f8fafc"/>
<rect x="985" y="126" width="8" height="25" fill="#f8fafc"/>
<rect x="993" y="126" width="8" height="25" fill="#f8fafc"/>
<rect x="1001" y="126" width="8" height="25" fill="#f8fafc"/>
<text x="18" y="172" class="small">PS3/PS1/PP4 among path</text>
<rect x="185" y="154" width="8" height="25" fill="#b897f4"/>
<rect x="193" y="154" width="8" height="25" fill="#f8fafc"/>
<rect x="201" y="154" width="8" height="25" fill="#f8fafc"/>
<rect x="209" y="154" width="8" height="25" fill="#f8fafc"/>
<rect x="217" y="154" width="8" height="25" fill="#f8fafc"/>
<rect x="225" y="154" width="8" height="25" fill="#f8fafc"/>
<rect x="233" y="154" width="8" height="25" fill="#f8fafc"/>
<rect x="241" y="154" width="8" height="25" fill="#f8fafc"/>
<rect x="249" y="154" width="8" height="25" fill="#f8fafc"/>
<rect x="257" y="154" width="8" height="25" fill="#f8fafc"/>
<rect x="265" y="154" width="8" height="25" fill="#f8fafc"/>
<rect x="273" y="154" width="8" height="25" fill="#f8fafc"/>
<rect x="281" y="154" width="8" height="25" fill="#f8fafc"/>
<rect x="289" y="154" width="8" height="25" fill="#f8fafc"/>
<rect x="297" y="154" width="8" height="25" fill="#b08bf3"/>
<rect x="305" y="154" width="8" height="25" fill="#f8fafc"/>
<rect x="313" y="154" width="8" height="25" fill="#f8fafc"/>
<rect x="321" y="154" width="8" height="25" fill="#f8fafc"/>
<rect x="329" y="154" width="8" height="25" fill="#f8fafc"/>
<rect x="337" y="154" width="8" height="25" fill="#f8fafc"/>
<rect x="345" y="154" width="8" height="25" fill="#f8fafc"/>
<rect x="353" y="154" width="8" height="25" fill="#f8fafc"/>
<rect x="361" y="154" width="8" height="25" fill="#bc9df5"/>
<rect x="369" y="154" width="8" height="25" fill="#f8fafc"/>
<rect x="377" y="154" width="8" height="25" fill="#f8fafc"/>
<rect x="385" y="154" width="8" height="25" fill="#f8fafc"/>
<rect x="393" y="154" width="8" height="25" fill="#f8fafc"/>
<rect x="401" y="154" width="8" height="25" fill="#f8fafc"/>
<rect x="409" y="154" width="8" height="25" fill="#f8fafc"/>
<rect x="417" y="154" width="8" height="25" fill="#bc9df5"/>
<rect x="425" y="154" width="8" height="25" fill="#f8fafc"/>
<rect x="433" y="154" width="8" height="25" fill="#f8fafc"/>
<rect x="441" y="154" width="8" height="25" fill="#f8fafc"/>
<rect x="449" y="154" width="8" height="25" fill="#f8fafc"/>
<rect x="457" y="154" width="8" height="25" fill="#f8fafc"/>
<rect x="465" y="154" width="8" height="25" fill="#f8fafc"/>
<rect x="473" y="154" width="8" height="25" fill="#f8fafc"/>
<rect x="481" y="154" width="8" height="25" fill="#f8fafc"/>
<rect x="489" y="154" width="8" height="25" fill="#f8fafc"/>
<rect x="497" y="154" width="8" height="25" fill="#b390f4"/>
<rect x="505" y="154" width="8" height="25" fill="#f8fafc"/>
<rect x="513" y="154" width="8" height="25" fill="#f8fafc"/>
<rect x="521" y="154" width="8" height="25" fill="#f8fafc"/>
<rect x="529" y="154" width="8" height="25" fill="#f8fafc"/>
<rect x="537" y="154" width="8" height="25" fill="#f8fafc"/>
<rect x="545" y="154" width="8" height="25" fill="#b390f4"/>
<rect x="553" y="154" width="8" height="25" fill="#f8fafc"/>
<rect x="561" y="154" width="8" height="25" fill="#f8fafc"/>
<rect x="569" y="154" width="8" height="25" fill="#f8fafc"/>
<rect x="577" y="154" width="8" height="25" fill="#f8fafc"/>
<rect x="585" y="154" width="8" height="25" fill="#f8fafc"/>
<rect x="593" y="154" width="8" height="25" fill="#f8fafc"/>
<rect x="601" y="154" width="8" height="25" fill="#f8fafc"/>
<rect x="609" y="154" width="8" height="25" fill="#f8fafc"/>
<rect x="617" y="154" width="8" height="25" fill="#f8fafc"/>
<rect x="625" y="154" width="8" height="25" fill="#f8fafc"/>
<rect x="633" y="154" width="8" height="25" fill="#be9ff5"/>
<rect x="641" y="154" width="8" height="25" fill="#f8fafc"/>
<rect x="649" y="154" width="8" height="25" fill="#f8fafc"/>
<rect x="657" y="154" width="8" height="25" fill="#bc9df5"/>
<rect x="665" y="154" width="8" height="25" fill="#f8fafc"/>
<rect x="673" y="154" width="8" height="25" fill="#f8fafc"/>
<rect x="681" y="154" width="8" height="25" fill="#f8fafc"/>
<rect x="689" y="154" width="8" height="25" fill="#f8fafc"/>
<rect x="697" y="154" width="8" height="25" fill="#f8fafc"/>
<rect x="705" y="154" width="8" height="25" fill="#f8fafc"/>
<rect x="713" y="154" width="8" height="25" fill="#f8fafc"/>
<rect x="721" y="154" width="8" height="25" fill="#f8fafc"/>
<rect x="729" y="154" width="8" height="25" fill="#f8fafc"/>
<rect x="737" y="154" width="8" height="25" fill="#f8fafc"/>
<rect x="745" y="154" width="8" height="25" fill="#b390f4"/>
<rect x="753" y="154" width="8" height="25" fill="#f8fafc"/>
<rect x="761" y="154" width="8" height="25" fill="#f8fafc"/>
<rect x="769" y="154" width="8" height="25" fill="#f8fafc"/>
<rect x="777" y="154" width="8" height="25" fill="#f8fafc"/>
<rect x="785" y="154" width="8" height="25" fill="#f8fafc"/>
<rect x="793" y="154" width="8" height="25" fill="#f8fafc"/>
<rect x="801" y="154" width="8" height="25" fill="#f8fafc"/>
<rect x="809" y="154" width="8" height="25" fill="#be9ff5"/>
<rect x="817" y="154" width="8" height="25" fill="#7f3fed"/>
<rect x="825" y="154" width="8" height="25" fill="#8548ee"/>
<rect x="833" y="154" width="8" height="25" fill="#9d6ef1"/>
<rect x="841" y="154" width="8" height="25" fill="#ad86f3"/>
<rect x="849" y="154" width="8" height="25" fill="#f8fafc"/>
<rect x="857" y="154" width="8" height="25" fill="#9561f0"/>
<rect x="865" y="154" width="8" height="25" fill="#f8fafc"/>
<rect x="873" y="154" width="8" height="25" fill="#f8fafc"/>
<rect x="881" y="154" width="8" height="25" fill="#f8fafc"/>
<rect x="889" y="154" width="8" height="25" fill="#f8fafc"/>
<rect x="897" y="154" width="8" height="25" fill="#f8fafc"/>
<rect x="905" y="154" width="8" height="25" fill="#c4aaf6"/>
<rect x="913" y="154" width="8" height="25" fill="#bfa2f5"/>
<rect x="921" y="154" width="8" height="25" fill="#9561f0"/>
<rect x="929" y="154" width="8" height="25" fill="#ba9af4"/>
<rect x="937" y="154" width="8" height="25" fill="#f8fafc"/>
<rect x="945" y="154" width="8" height="25" fill="#f8fafc"/>
<rect x="953" y="154" width="8" height="25" fill="#f8fafc"/>
<rect x="961" y="154" width="8" height="25" fill="#f8fafc"/>
<rect x="969" y="154" width="8" height="25" fill="#f8fafc"/>
<rect x="977" y="154" width="8" height="25" fill="#7c3aed"/>
<rect x="985" y="154" width="8" height="25" fill="#f8fafc"/>
<rect x="993" y="154" width="8" height="25" fill="#f8fafc"/>
<rect x="1001" y="154" width="8" height="25" fill="#f8fafc"/>
<text x="18" y="200" class="small">BS3 count</text>
<rect x="185" y="182" width="8" height="25" fill="#76c895"/>
<rect x="193" y="182" width="8" height="25" fill="#93d3ac"/>
<rect x="201" y="182" width="8" height="25" fill="#bee4ce"/>
<rect x="209" y="182" width="8" height="25" fill="#bee4ce"/>
<rect x="217" y="182" width="8" height="25" fill="#f8fafc"/>
<rect x="225" y="182" width="8" height="25" fill="#83cda0"/>
<rect x="233" y="182" width="8" height="25" fill="#a5dabb"/>
<rect x="241" y="182" width="8" height="25" fill="#bee4ce"/>
<rect x="249" y="182" width="8" height="25" fill="#bee4ce"/>
<rect x="257" y="182" width="8" height="25" fill="#a5dabb"/>
<rect x="265" y="182" width="8" height="25" fill="#f8fafc"/>
<rect x="273" y="182" width="8" height="25" fill="#f8fafc"/>
<rect x="281" y="182" width="8" height="25" fill="#f8fafc"/>
<rect x="289" y="182" width="8" height="25" fill="#93d3ac"/>
<rect x="297" y="182" width="8" height="25" fill="#f8fafc"/>
<rect x="305" y="182" width="8" height="25" fill="#f8fafc"/>
<rect x="313" y="182" width="8" height="25" fill="#f8fafc"/>
<rect x="321" y="182" width="8" height="25" fill="#69c38b"/>
<rect x="329" y="182" width="8" height="25" fill="#a5dabb"/>
<rect x="337" y="182" width="8" height="25" fill="#bee4ce"/>
<rect x="345" y="182" width="8" height="25" fill="#f8fafc"/>
<rect x="353" y="182" width="8" height="25" fill="#f8fafc"/>
<rect x="361" y="182" width="8" height="25" fill="#bee4ce"/>
<rect x="369" y="182" width="8" height="25" fill="#f8fafc"/>
<rect x="377" y="182" width="8" height="25" fill="#f8fafc"/>
<rect x="385" y="182" width="8" height="25" fill="#bee4ce"/>
<rect x="393" y="182" width="8" height="25" fill="#bee4ce"/>
<rect x="401" y="182" width="8" height="25" fill="#bee4ce"/>
<rect x="409" y="182" width="8" height="25" fill="#f8fafc"/>
<rect x="417" y="182" width="8" height="25" fill="#a5dabb"/>
<rect x="425" y="182" width="8" height="25" fill="#bee4ce"/>
<rect x="433" y="182" width="8" height="25" fill="#f8fafc"/>
<rect x="441" y="182" width="8" height="25" fill="#bee4ce"/>
<rect x="449" y="182" width="8" height="25" fill="#bee4ce"/>
<rect x="457" y="182" width="8" height="25" fill="#bee4ce"/>
<rect x="465" y="182" width="8" height="25" fill="#bee4ce"/>
<rect x="473" y="182" width="8" height="25" fill="#bee4ce"/>
<rect x="481" y="182" width="8" height="25" fill="#f8fafc"/>
<rect x="489" y="182" width="8" height="25" fill="#f8fafc"/>
<rect x="497" y="182" width="8" height="25" fill="#bee4ce"/>
<rect x="505" y="182" width="8" height="25" fill="#f8fafc"/>
<rect x="513" y="182" width="8" height="25" fill="#f8fafc"/>
<rect x="521" y="182" width="8" height="25" fill="#f8fafc"/>
<rect x="529" y="182" width="8" height="25" fill="#bee4ce"/>
<rect x="537" y="182" width="8" height="25" fill="#bee4ce"/>
<rect x="545" y="182" width="8" height="25" fill="#93d3ac"/>
<rect x="553" y="182" width="8" height="25" fill="#f8fafc"/>
<rect x="561" y="182" width="8" height="25" fill="#f8fafc"/>
<rect x="569" y="182" width="8" height="25" fill="#f8fafc"/>
<rect x="577" y="182" width="8" height="25" fill="#bee4ce"/>
<rect x="585" y="182" width="8" height="25" fill="#a5dabb"/>
<rect x="593" y="182" width="8" height="25" fill="#bee4ce"/>
<rect x="601" y="182" width="8" height="25" fill="#bee4ce"/>
<rect x="609" y="182" width="8" height="25" fill="#a5dabb"/>
<rect x="617" y="182" width="8" height="25" fill="#f8fafc"/>
<rect x="625" y="182" width="8" height="25" fill="#f8fafc"/>
<rect x="633" y="182" width="8" height="25" fill="#93d3ac"/>
<rect x="641" y="182" width="8" height="25" fill="#bee4ce"/>
<rect x="649" y="182" width="8" height="25" fill="#bee4ce"/>
<rect x="657" y="182" width="8" height="25" fill="#a5dabb"/>
<rect x="665" y="182" width="8" height="25" fill="#bee4ce"/>
<rect x="673" y="182" width="8" height="25" fill="#93d3ac"/>
<rect x="681" y="182" width="8" height="25" fill="#a5dabb"/>
<rect x="689" y="182" width="8" height="25" fill="#a5dabb"/>
<rect x="697" y="182" width="8" height="25" fill="#a5dabb"/>
<rect x="705" y="182" width="8" height="25" fill="#bee4ce"/>
<rect x="713" y="182" width="8" height="25" fill="#f8fafc"/>
<rect x="721" y="182" width="8" height="25" fill="#f8fafc"/>
<rect x="729" y="182" width="8" height="25" fill="#93d3ac"/>
<rect x="737" y="182" width="8" height="25" fill="#93d3ac"/>
<rect x="745" y="182" width="8" height="25" fill="#a5dabb"/>
<rect x="753" y="182" width="8" height="25" fill="#f8fafc"/>
<rect x="761" y="182" width="8" height="25" fill="#93d3ac"/>
<rect x="769" y="182" width="8" height="25" fill="#f8fafc"/>
<rect x="777" y="182" width="8" height="25" fill="#26a956"/>
<rect x="785" y="182" width="8" height="25" fill="#2eac5d"/>
<rect x="793" y="182" width="8" height="25" fill="#a5dabb"/>
<rect x="801" y="182" width="8" height="25" fill="#3fb36b"/>
<rect x="809" y="182" width="8" height="25" fill="#3fb36b"/>
<rect x="817" y="182" width="8" height="25" fill="#49b772"/>
<rect x="825" y="182" width="8" height="25" fill="#2eac5d"/>
<rect x="833" y="182" width="8" height="25" fill="#5ebf82"/>
<rect x="841" y="182" width="8" height="25" fill="#49b772"/>
<rect x="849" y="182" width="8" height="25" fill="#16a34a"/>
<rect x="857" y="182" width="8" height="25" fill="#49b772"/>
<rect x="865" y="182" width="8" height="25" fill="#49b772"/>
<rect x="873" y="182" width="8" height="25" fill="#76c895"/>
<rect x="881" y="182" width="8" height="25" fill="#5ebf82"/>
<rect x="889" y="182" width="8" height="25" fill="#a5dabb"/>
<rect x="897" y="182" width="8" height="25" fill="#5ebf82"/>
<rect x="905" y="182" width="8" height="25" fill="#83cda0"/>
<rect x="913" y="182" width="8" height="25" fill="#49b772"/>
<rect x="921" y="182" width="8" height="25" fill="#49b772"/>
<rect x="929" y="182" width="8" height="25" fill="#53ba7a"/>
<rect x="937" y="182" width="8" height="25" fill="#bee4ce"/>
<rect x="945" y="182" width="8" height="25" fill="#76c895"/>
<rect x="953" y="182" width="8" height="25" fill="#f8fafc"/>
<rect x="961" y="182" width="8" height="25" fill="#f8fafc"/>
<rect x="969" y="182" width="8" height="25" fill="#53ba7a"/>
<rect x="977" y="182" width="8" height="25" fill="#93d3ac"/>
<rect x="985" y="182" width="8" height="25" fill="#bee4ce"/>
<rect x="993" y="182" width="8" height="25" fill="#a5dabb"/>
<rect x="1001" y="182" width="8" height="25" fill="#f8fafc"/>
<text x="18" y="228" class="small">mixed codons</text>
<rect x="185" y="210" width="8" height="25" fill="#457aee"/>
<rect x="193" y="210" width="8" height="25" fill="#5585ef"/>
<rect x="201" y="210" width="8" height="25" fill="#5585ef"/>
<rect x="209" y="210" width="8" height="25" fill="#5a89ef"/>
<rect x="217" y="210" width="8" height="25" fill="#4a7dee"/>
<rect x="225" y="210" width="8" height="25" fill="#2563eb"/>
<rect x="233" y="210" width="8" height="25" fill="#4a7dee"/>
<rect x="241" y="210" width="8" height="25" fill="#4076ed"/>
<rect x="249" y="210" width="8" height="25" fill="#4a7dee"/>
<rect x="257" y="210" width="8" height="25" fill="#4f81ee"/>
<rect x="265" y="210" width="8" height="25" fill="#5585ef"/>
<rect x="273" y="210" width="8" height="25" fill="#608df0"/>
<rect x="281" y="210" width="8" height="25" fill="#4f81ee"/>
<rect x="289" y="210" width="8" height="25" fill="#4f81ee"/>
<rect x="297" y="210" width="8" height="25" fill="#608df0"/>
<rect x="305" y="210" width="8" height="25" fill="#4f81ee"/>
<rect x="313" y="210" width="8" height="25" fill="#5a89ef"/>
<rect x="321" y="210" width="8" height="25" fill="#5a89ef"/>
<rect x="329" y="210" width="8" height="25" fill="#5585ef"/>
<rect x="337" y="210" width="8" height="25" fill="#5a89ef"/>
<rect x="345" y="210" width="8" height="25" fill="#4f81ee"/>
<rect x="353" y="210" width="8" height="25" fill="#4a7dee"/>
<rect x="361" y="210" width="8" height="25" fill="#608df0"/>
<rect x="369" y="210" width="8" height="25" fill="#6691f0"/>
<rect x="377" y="210" width="8" height="25" fill="#5585ef"/>
<rect x="385" y="210" width="8" height="25" fill="#4a7dee"/>
<rect x="393" y="210" width="8" height="25" fill="#799ff2"/>
<rect x="401" y="210" width="8" height="25" fill="#6691f0"/>
<rect x="409" y="210" width="8" height="25" fill="#5a89ef"/>
<rect x="417" y="210" width="8" height="25" fill="#608df0"/>
<rect x="425" y="210" width="8" height="25" fill="#6691f0"/>
<rect x="433" y="210" width="8" height="25" fill="#5585ef"/>
<rect x="441" y="210" width="8" height="25" fill="#799ff2"/>
<rect x="449" y="210" width="8" height="25" fill="#5585ef"/>
<rect x="457" y="210" width="8" height="25" fill="#608df0"/>
<rect x="465" y="210" width="8" height="25" fill="#6c96f1"/>
<rect x="473" y="210" width="8" height="25" fill="#81a5f2"/>
<rect x="481" y="210" width="8" height="25" fill="#6c96f1"/>
<rect x="489" y="210" width="8" height="25" fill="#6691f0"/>
<rect x="497" y="210" width="8" height="25" fill="#6691f0"/>
<rect x="505" y="210" width="8" height="25" fill="#6c96f1"/>
<rect x="513" y="210" width="8" height="25" fill="#457aee"/>
<rect x="521" y="210" width="8" height="25" fill="#6691f0"/>
<rect x="529" y="210" width="8" height="25" fill="#608df0"/>
<rect x="537" y="210" width="8" height="25" fill="#6c96f1"/>
<rect x="545" y="210" width="8" height="25" fill="#608df0"/>
<rect x="553" y="210" width="8" height="25" fill="#608df0"/>
<rect x="561" y="210" width="8" height="25" fill="#4f81ee"/>
<rect x="569" y="210" width="8" height="25" fill="#6691f0"/>
<rect x="577" y="210" width="8" height="25" fill="#5585ef"/>
<rect x="585" y="210" width="8" height="25" fill="#4f81ee"/>
<rect x="593" y="210" width="8" height="25" fill="#608df0"/>
<rect x="601" y="210" width="8" height="25" fill="#5585ef"/>
<rect x="609" y="210" width="8" height="25" fill="#739af1"/>
<rect x="617" y="210" width="8" height="25" fill="#6c96f1"/>
<rect x="625" y="210" width="8" height="25" fill="#81a5f2"/>
<rect x="633" y="210" width="8" height="25" fill="#5585ef"/>
<rect x="641" y="210" width="8" height="25" fill="#6c96f1"/>
<rect x="649" y="210" width="8" height="25" fill="#4f81ee"/>
<rect x="657" y="210" width="8" height="25" fill="#608df0"/>
<rect x="665" y="210" width="8" height="25" fill="#608df0"/>
<rect x="673" y="210" width="8" height="25" fill="#6c96f1"/>
<rect x="681" y="210" width="8" height="25" fill="#4f81ee"/>
<rect x="689" y="210" width="8" height="25" fill="#4f81ee"/>
<rect x="697" y="210" width="8" height="25" fill="#5a89ef"/>
<rect x="705" y="210" width="8" height="25" fill="#4f81ee"/>
<rect x="713" y="210" width="8" height="25" fill="#3b73ed"/>
<rect x="721" y="210" width="8" height="25" fill="#6691f0"/>
<rect x="729" y="210" width="8" height="25" fill="#2e69ec"/>
<rect x="737" y="210" width="8" height="25" fill="#4a7dee"/>
<rect x="745" y="210" width="8" height="25" fill="#5a89ef"/>
<rect x="753" y="210" width="8" height="25" fill="#4a7dee"/>
<rect x="761" y="210" width="8" height="25" fill="#4a7dee"/>
<rect x="769" y="210" width="8" height="25" fill="#6c96f1"/>
<rect x="777" y="210" width="8" height="25" fill="#326cec"/>
<rect x="785" y="210" width="8" height="25" fill="#4076ed"/>
<rect x="793" y="210" width="8" height="25" fill="#3770ec"/>
<rect x="801" y="210" width="8" height="25" fill="#3770ec"/>
<rect x="809" y="210" width="8" height="25" fill="#457aee"/>
<rect x="817" y="210" width="8" height="25" fill="#2e69ec"/>
<rect x="825" y="210" width="8" height="25" fill="#457aee"/>
<rect x="833" y="210" width="8" height="25" fill="#3770ec"/>
<rect x="841" y="210" width="8" height="25" fill="#457aee"/>
<rect x="849" y="210" width="8" height="25" fill="#3b73ed"/>
<rect x="857" y="210" width="8" height="25" fill="#3770ec"/>
<rect x="865" y="210" width="8" height="25" fill="#2563eb"/>
<rect x="873" y="210" width="8" height="25" fill="#326cec"/>
<rect x="881" y="210" width="8" height="25" fill="#457aee"/>
<rect x="889" y="210" width="8" height="25" fill="#326cec"/>
<rect x="897" y="210" width="8" height="25" fill="#2e69ec"/>
<rect x="905" y="210" width="8" height="25" fill="#2e69ec"/>
<rect x="913" y="210" width="8" height="25" fill="#326cec"/>
<rect x="921" y="210" width="8" height="25" fill="#326cec"/>
<rect x="929" y="210" width="8" height="25" fill="#3b73ed"/>
<rect x="937" y="210" width="8" height="25" fill="#5585ef"/>
<rect x="945" y="210" width="8" height="25" fill="#608df0"/>
<rect x="953" y="210" width="8" height="25" fill="#326cec"/>
<rect x="961" y="210" width="8" height="25" fill="#2563eb"/>
<rect x="969" y="210" width="8" height="25" fill="#5585ef"/>
<rect x="977" y="210" width="8" height="25" fill="#6691f0"/>
<rect x="985" y="210" width="8" height="25" fill="#2966eb"/>
<rect x="993" y="210" width="8" height="25" fill="#5585ef"/>
<rect x="1001" y="210" width="8" height="25" fill="#739af1"/>
<text x="18" y="256" class="small">residual path fraction</text>
<rect x="185" y="238" width="8" height="25" fill="#f8fafc"/>
<rect x="193" y="238" width="8" height="25" fill="#f8fafc"/>
<rect x="201" y="238" width="8" height="25" fill="#f8fafc"/>
<rect x="209" y="238" width="8" height="25" fill="#f8fafc"/>
<rect x="217" y="238" width="8" height="25" fill="#f8fafc"/>
<rect x="225" y="238" width="8" height="25" fill="#f8fafc"/>
<rect x="233" y="238" width="8" height="25" fill="#f8fafc"/>
<rect x="241" y="238" width="8" height="25" fill="#f8fafc"/>
<rect x="249" y="238" width="8" height="25" fill="#f8fafc"/>
<rect x="257" y="238" width="8" height="25" fill="#f8fafc"/>
<rect x="265" y="238" width="8" height="25" fill="#f8fafc"/>
<rect x="273" y="238" width="8" height="25" fill="#f8fafc"/>
<rect x="281" y="238" width="8" height="25" fill="#f8fafc"/>
<rect x="289" y="238" width="8" height="25" fill="#f8fafc"/>
<rect x="297" y="238" width="8" height="25" fill="#f8fafc"/>
<rect x="305" y="238" width="8" height="25" fill="#f8fafc"/>
<rect x="313" y="238" width="8" height="25" fill="#f8fafc"/>
<rect x="321" y="238" width="8" height="25" fill="#f8fafc"/>
<rect x="329" y="238" width="8" height="25" fill="#f8fafc"/>
<rect x="337" y="238" width="8" height="25" fill="#f8fafc"/>
<rect x="345" y="238" width="8" height="25" fill="#f8fafc"/>
<rect x="353" y="238" width="8" height="25" fill="#f8fafc"/>
<rect x="361" y="238" width="8" height="25" fill="#f8fafc"/>
<rect x="369" y="238" width="8" height="25" fill="#f8fafc"/>
<rect x="377" y="238" width="8" height="25" fill="#f8fafc"/>
<rect x="385" y="238" width="8" height="25" fill="#f8fafc"/>
<rect x="393" y="238" width="8" height="25" fill="#f8fafc"/>
<rect x="401" y="238" width="8" height="25" fill="#f8fafc"/>
<rect x="409" y="238" width="8" height="25" fill="#f8fafc"/>
<rect x="417" y="238" width="8" height="25" fill="#f8fafc"/>
<rect x="425" y="238" width="8" height="25" fill="#f8fafc"/>
<rect x="433" y="238" width="8" height="25" fill="#f8fafc"/>
<rect x="441" y="238" width="8" height="25" fill="#f8fafc"/>
<rect x="449" y="238" width="8" height="25" fill="#f8fafc"/>
<rect x="457" y="238" width="8" height="25" fill="#f8fafc"/>
<rect x="465" y="238" width="8" height="25" fill="#f8fafc"/>
<rect x="473" y="238" width="8" height="25" fill="#f8fafc"/>
<rect x="481" y="238" width="8" height="25" fill="#f8fafc"/>
<rect x="489" y="238" width="8" height="25" fill="#f8fafc"/>
<rect x="497" y="238" width="8" height="25" fill="#f8fafc"/>
<rect x="505" y="238" width="8" height="25" fill="#f8fafc"/>
<rect x="513" y="238" width="8" height="25" fill="#f8fafc"/>
<rect x="521" y="238" width="8" height="25" fill="#f8fafc"/>
<rect x="529" y="238" width="8" height="25" fill="#f8fafc"/>
<rect x="537" y="238" width="8" height="25" fill="#f8fafc"/>
<rect x="545" y="238" width="8" height="25" fill="#f8fafc"/>
<rect x="553" y="238" width="8" height="25" fill="#f8fafc"/>
<rect x="561" y="238" width="8" height="25" fill="#f8fafc"/>
<rect x="569" y="238" width="8" height="25" fill="#f8fafc"/>
<rect x="577" y="238" width="8" height="25" fill="#f8fafc"/>
<rect x="585" y="238" width="8" height="25" fill="#f8fafc"/>
<rect x="593" y="238" width="8" height="25" fill="#f8fafc"/>
<rect x="601" y="238" width="8" height="25" fill="#f8fafc"/>
<rect x="609" y="238" width="8" height="25" fill="#f8fafc"/>
<rect x="617" y="238" width="8" height="25" fill="#f8fafc"/>
<rect x="625" y="238" width="8" height="25" fill="#f8fafc"/>
<rect x="633" y="238" width="8" height="25" fill="#f8fafc"/>
<rect x="641" y="238" width="8" height="25" fill="#f8fafc"/>
<rect x="649" y="238" width="8" height="25" fill="#f8fafc"/>
<rect x="657" y="238" width="8" height="25" fill="#f8fafc"/>
<rect x="665" y="238" width="8" height="25" fill="#f8fafc"/>
<rect x="673" y="238" width="8" height="25" fill="#f8fafc"/>
<rect x="681" y="238" width="8" height="25" fill="#f8fafc"/>
<rect x="689" y="238" width="8" height="25" fill="#f8fafc"/>
<rect x="697" y="238" width="8" height="25" fill="#f8fafc"/>
<rect x="705" y="238" width="8" height="25" fill="#f8fafc"/>
<rect x="713" y="238" width="8" height="25" fill="#f8fafc"/>
<rect x="721" y="238" width="8" height="25" fill="#f8fafc"/>
<rect x="729" y="238" width="8" height="25" fill="#f8fafc"/>
<rect x="737" y="238" width="8" height="25" fill="#f8fafc"/>
<rect x="745" y="238" width="8" height="25" fill="#f8fafc"/>
<rect x="753" y="238" width="8" height="25" fill="#f8fafc"/>
<rect x="761" y="238" width="8" height="25" fill="#f8fafc"/>
<rect x="769" y="238" width="8" height="25" fill="#f8fafc"/>
<rect x="777" y="238" width="8" height="25" fill="#f8fafc"/>
<rect x="785" y="238" width="8" height="25" fill="#f8fafc"/>
<rect x="793" y="238" width="8" height="25" fill="#f8fafc"/>
<rect x="801" y="238" width="8" height="25" fill="#f8fafc"/>
<rect x="809" y="238" width="8" height="25" fill="#f8fafc"/>
<rect x="817" y="238" width="8" height="25" fill="#f8fafc"/>
<rect x="825" y="238" width="8" height="25" fill="#f8fafc"/>
<rect x="833" y="238" width="8" height="25" fill="#f8fafc"/>
<rect x="841" y="238" width="8" height="25" fill="#f8fafc"/>
<rect x="849" y="238" width="8" height="25" fill="#f8fafc"/>
<rect x="857" y="238" width="8" height="25" fill="#f8fafc"/>
<rect x="865" y="238" width="8" height="25" fill="#f8fafc"/>
<rect x="873" y="238" width="8" height="25" fill="#f8fafc"/>
<rect x="881" y="238" width="8" height="25" fill="#f8fafc"/>
<rect x="889" y="238" width="8" height="25" fill="#f8fafc"/>
<rect x="897" y="238" width="8" height="25" fill="#f8fafc"/>
<rect x="905" y="238" width="8" height="25" fill="#f8fafc"/>
<rect x="913" y="238" width="8" height="25" fill="#f8fafc"/>
<rect x="921" y="238" width="8" height="25" fill="#f8fafc"/>
<rect x="929" y="238" width="8" height="25" fill="#f8fafc"/>
<rect x="937" y="238" width="8" height="25" fill="#f8fafc"/>
<rect x="945" y="238" width="8" height="25" fill="#f8fafc"/>
<rect x="953" y="238" width="8" height="25" fill="#f8fafc"/>
<rect x="961" y="238" width="8" height="25" fill="#f8fafc"/>
<rect x="969" y="238" width="8" height="25" fill="#f8fafc"/>
<rect x="977" y="238" width="8" height="25" fill="#f8fafc"/>
<rect x="985" y="238" width="8" height="25" fill="#f8fafc"/>
<rect x="993" y="238" width="8" height="25" fill="#f8fafc"/>
<rect x="1001" y="238" width="8" height="25" fill="#f8fafc"/>
<rect x="187.2" y="282" width="7.4" height="10" fill="#ddd6fe" stroke="#7c3aed"/>
<text x="187.2" y="306" class="small">PALB2 binding N-terminal region</text>
<rect x="424.8" y="282" width="259.4" height="10" fill="#ddd6fe" stroke="#7c3aed"/>
<text x="424.8" y="306" class="small">BRC repeats </text>
<rect x="780.2" y="282" width="169.4" height="10" fill="#ddd6fe" stroke="#7c3aed"/>
<text x="780.2" y="306" class="small">DNA-binding domain </text>
<rect x="949.6" y="282" width="55.7" height="10" fill="#ddd6fe" stroke="#7c3aed"/>
<text x="949.6" y="306" class="small">C-terminal RAD51-binding</text>
</svg>
