<svg xmlns="http://www.w3.org/2000/svg" width="980" height="440" viewBox="0 0 980 440">
<rect width="100%" height="100%" fill="white"/>
<style>text{font-family:Arial,sans-serif;fill:#172033} .small{font-size:12px;fill:#43506a} .axis{stroke:#d7deea} .bar{fill:#5578c2}</style>
<text x="210" y="28" font-size="22" font-weight="700">VUS review queues are overlapping</text>
<text x="210" y="48" class="small">A single VUS may belong to several manual-review queues.</text>
<line x1="210.0" y1="50" x2="210.0" y2="360" class="axis"/>
<text x="210.0" y="384" text-anchor="middle" class="small">0</text>
<line x1="356.0" y1="50" x2="356.0" y2="360" class="axis"/>
<text x="356.0" y="384" text-anchor="middle" class="small">1330</text>
<line x1="502.0" y1="50" x2="502.0" y2="360" class="axis"/>
<text x="502.0" y="384" text-anchor="middle" class="small">2660</text>
<line x1="648.1" y1="50" x2="648.1" y2="360" class="axis"/>
<text x="648.1" y="384" text-anchor="middle" class="small">3990</text>
<line x1="794.1" y1="50" x2="794.1" y2="360" class="axis"/>
<text x="794.1" y="384" text-anchor="middle" class="small">5320</text>
<text x="198" y="77.1" text-anchor="end" font-size="14">neighborhood context</text>
<rect x="210" y="58.4" width="730.0" height="27.5" rx="4" class="bar"/>
<text x="948.0" y="77.1" font-size="13">6649</text>
<text x="198" y="121.4" text-anchor="end" font-size="14">low information</text>
<rect x="210" y="102.7" width="590.6" height="27.5" rx="4" class="bar"/>
<text x="808.6" y="121.4" font-size="13">5379</text>
<text x="198" y="165.7" text-anchor="end" font-size="14">splice/RNA</text>
<rect x="210" y="147.0" width="361.3" height="27.5" rx="4" class="bar"/>
<text x="579.3" y="165.7" font-size="13">3291</text>
<text x="198" y="209.9" text-anchor="end" font-size="14">functional</text>
<rect x="210" y="191.3" width="91.8" height="27.5" rx="4" class="bar"/>
<text x="309.8" y="209.9" font-size="13">836</text>
<text x="198" y="254.2" text-anchor="end" font-size="14">near threshold</text>
<rect x="210" y="235.6" width="69.9" height="27.5" rx="4" class="bar"/>
<text x="287.9" y="254.2" font-size="13">637</text>
<text x="198" y="298.5" text-anchor="end" font-size="14">public assertion</text>
<rect x="210" y="279.8" width="7.9" height="27.5" rx="4" class="bar"/>
<text x="225.9" y="298.5" font-size="13">72</text>
<text x="198" y="342.8" text-anchor="end" font-size="14">evidence conflict</text>
<rect x="210" y="324.1" width="3.3" height="27.5" rx="4" class="bar"/>
<text x="221.3" y="342.8" font-size="13">30</text>
<text x="575.0" y="420" text-anchor="middle" class="small">number of VUS in queue</text>
</svg>