<svg xmlns="http://www.w3.org/2000/svg" width="900" height="780" viewBox="0 0 900 780">
<rect width="100%" height="100%" fill="white"/>
<style>text{font-family:Arial,sans-serif;fill:#172033}.small{font-size:12px;fill:#43506a}.grid{stroke:#d7deea;stroke-width:1}</style>
<text x="230" y="36" font-size="22" font-weight="700">Priority queue overlap</text>
<text x="230" y="58" class="small">Diagonal shows queue size; off-diagonal cells show VUS shared by two queues.</text>
<text x="266.0" y="112" text-anchor="middle" class="small" transform="rotate(-45 266.0 112)">near threshold</text>
<text x="220" y="165.0" text-anchor="end" class="small">near threshold</text>
<text x="338.0" y="112" text-anchor="middle" class="small" transform="rotate(-45 338.0 112)">splice/RNA</text>
<text x="220" y="237.0" text-anchor="end" class="small">splice/RNA</text>
<text x="410.0" y="112" text-anchor="middle" class="small" transform="rotate(-45 410.0 112)">functional</text>
<text x="220" y="309.0" text-anchor="end" class="small">functional</text>
<text x="482.0" y="112" text-anchor="middle" class="small" transform="rotate(-45 482.0 112)">evidence conflict</text>
<text x="220" y="381.0" text-anchor="end" class="small">evidence conflict</text>
<text x="554.0" y="112" text-anchor="middle" class="small" transform="rotate(-45 554.0 112)">public assertion</text>
<text x="220" y="453.0" text-anchor="end" class="small">public assertion</text>
<text x="626.0" y="112" text-anchor="middle" class="small" transform="rotate(-45 626.0 112)">neighborhood context</text>
<text x="220" y="525.0" text-anchor="end" class="small">neighborhood context</text>
<text x="698.0" y="112" text-anchor="middle" class="small" transform="rotate(-45 698.0 112)">low information</text>
<text x="220" y="597.0" text-anchor="end" class="small">low information</text>
<rect x="230" y="125" width="72" height="72" fill="rgb(229, 236, 253)" class="grid"/>
<text x="266.0" y="166.0" text-anchor="middle" font-size="13">637</text>
<rect x="302" y="125" width="72" height="72" fill="rgb(241, 245, 254)" class="grid"/>
<text x="338.0" y="166.0" text-anchor="middle" font-size="13">126</text>
<rect x="374" y="125" width="72" height="72" fill="rgb(230, 236, 253)" class="grid"/>
<text x="410.0" y="166.0" text-anchor="middle" font-size="13">618</text>
<rect x="446" y="125" width="72" height="72" fill="rgb(244, 247, 254)" class="grid"/>
<text x="482.0" y="166.0" text-anchor="middle" font-size="13">1</text>
<rect x="518" y="125" width="72" height="72" fill="rgb(244, 247, 254)" class="grid"/>
<text x="554.0" y="166.0" text-anchor="middle" font-size="13">3</text>
<rect x="590" y="125" width="72" height="72" fill="rgb(230, 237, 253)" class="grid"/>
<text x="626.0" y="166.0" text-anchor="middle" font-size="13">595</text>
<rect x="662" y="125" width="72" height="72" fill="rgb(245, 248, 255)" class="grid"/>
<rect x="230" y="197" width="72" height="72" fill="rgb(241, 245, 254)" class="grid"/>
<text x="266.0" y="238.0" text-anchor="middle" font-size="13">126</text>
<rect x="302" y="197" width="72" height="72" fill="rgb(165, 188, 245)" class="grid"/>
<text x="338.0" y="238.0" text-anchor="middle" font-size="13">3291</text>
<rect x="374" y="197" width="72" height="72" fill="rgb(240, 244, 254)" class="grid"/>
<text x="410.0" y="238.0" text-anchor="middle" font-size="13">197</text>
<rect x="446" y="197" width="72" height="72" fill="rgb(244, 247, 254)" class="grid"/>
<text x="482.0" y="238.0" text-anchor="middle" font-size="13">20</text>
<rect x="518" y="197" width="72" height="72" fill="rgb(243, 246, 254)" class="grid"/>
<text x="554.0" y="238.0" text-anchor="middle" font-size="13">72</text>
<rect x="590" y="197" width="72" height="72" fill="rgb(176, 196, 246)" class="grid"/>
<text x="626.0" y="238.0" text-anchor="middle" font-size="13">2838</text>
<rect x="662" y="197" width="72" height="72" fill="rgb(220, 229, 251)" class="grid"/>
<text x="698.0" y="238.0" text-anchor="middle" font-size="13">1037</text>
<rect x="230" y="269" width="72" height="72" fill="rgb(230, 236, 253)" class="grid"/>
<text x="266.0" y="310.0" text-anchor="middle" font-size="13">618</text>
<rect x="302" y="269" width="72" height="72" fill="rgb(240, 244, 254)" class="grid"/>
<text x="338.0" y="310.0" text-anchor="middle" font-size="13">197</text>
<rect x="374" y="269" width="72" height="72" fill="rgb(224, 232, 252)" class="grid"/>
<text x="410.0" y="310.0" text-anchor="middle" font-size="13">836</text>
<rect x="446" y="269" width="72" height="72" fill="rgb(244, 247, 254)" class="grid"/>
<text x="482.0" y="310.0" text-anchor="middle" font-size="13">5</text>
<rect x="518" y="269" width="72" height="72" fill="rgb(244, 247, 254)" class="grid"/>
<text x="554.0" y="310.0" text-anchor="middle" font-size="13">7</text>
<rect x="590" y="269" width="72" height="72" fill="rgb(225, 233, 252)" class="grid"/>
<text x="626.0" y="310.0" text-anchor="middle" font-size="13">798</text>
<rect x="662" y="269" width="72" height="72" fill="rgb(240, 244, 254)" class="grid"/>
<text x="698.0" y="310.0" text-anchor="middle" font-size="13">190</text>
<rect x="230" y="341" width="72" height="72" fill="rgb(244, 247, 254)" class="grid"/>
<text x="266.0" y="382.0" text-anchor="middle" font-size="13">1</text>
<rect x="302" y="341" width="72" height="72" fill="rgb(244, 247, 254)" class="grid"/>
<text x="338.0" y="382.0" text-anchor="middle" font-size="13">20</text>
<rect x="374" y="341" width="72" height="72" fill="rgb(244, 247, 254)" class="grid"/>
<text x="410.0" y="382.0" text-anchor="middle" font-size="13">5</text>
<rect x="446" y="341" width="72" height="72" fill="rgb(244, 247, 254)" class="grid"/>
<text x="482.0" y="382.0" text-anchor="middle" font-size="13">30</text>
<rect x="518" y="341" width="72" height="72" fill="rgb(244, 247, 254)" class="grid"/>
<text x="554.0" y="382.0" text-anchor="middle" font-size="13">13</text>
<rect x="590" y="341" width="72" height="72" fill="rgb(244, 247, 254)" class="grid"/>
<text x="626.0" y="382.0" text-anchor="middle" font-size="13">25</text>
<rect x="662" y="341" width="72" height="72" fill="rgb(245, 248, 255)" class="grid"/>
<rect x="230" y="413" width="72" height="72" fill="rgb(244, 247, 254)" class="grid"/>
<text x="266.0" y="454.0" text-anchor="middle" font-size="13">3</text>
<rect x="302" y="413" width="72" height="72" fill="rgb(243, 246, 254)" class="grid"/>
<text x="338.0" y="454.0" text-anchor="middle" font-size="13">72</text>
<rect x="374" y="413" width="72" height="72" fill="rgb(244, 247, 254)" class="grid"/>
<text x="410.0" y="454.0" text-anchor="middle" font-size="13">7</text>
<rect x="446" y="413" width="72" height="72" fill="rgb(244, 247, 254)" class="grid"/>
<text x="482.0" y="454.0" text-anchor="middle" font-size="13">13</text>
<rect x="518" y="413" width="72" height="72" fill="rgb(243, 246, 254)" class="grid"/>
<text x="554.0" y="454.0" text-anchor="middle" font-size="13">72</text>
<rect x="590" y="413" width="72" height="72" fill="rgb(243, 246, 254)" class="grid"/>
<text x="626.0" y="454.0" text-anchor="middle" font-size="13">72</text>
<rect x="662" y="413" width="72" height="72" fill="rgb(245, 248, 255)" class="grid"/>
<rect x="230" y="485" width="72" height="72" fill="rgb(230, 237, 253)" class="grid"/>
<text x="266.0" y="526.0" text-anchor="middle" font-size="13">595</text>
<rect x="302" y="485" width="72" height="72" fill="rgb(176, 196, 246)" class="grid"/>
<text x="338.0" y="526.0" text-anchor="middle" font-size="13">2838</text>
<rect x="374" y="485" width="72" height="72" fill="rgb(225, 233, 252)" class="grid"/>
<text x="410.0" y="526.0" text-anchor="middle" font-size="13">798</text>
<rect x="446" y="485" width="72" height="72" fill="rgb(244, 247, 254)" class="grid"/>
<text x="482.0" y="526.0" text-anchor="middle" font-size="13">25</text>
<rect x="518" y="485" width="72" height="72" fill="rgb(243, 246, 254)" class="grid"/>
<text x="554.0" y="526.0" text-anchor="middle" font-size="13">72</text>
<rect x="590" y="485" width="72" height="72" fill="rgb(85, 128, 235)" class="grid"/>
<text x="626.0" y="526.0" text-anchor="middle" font-size="13">6649</text>
<rect x="662" y="485" width="72" height="72" fill="rgb(141, 170, 242)" class="grid"/>
<text x="698.0" y="526.0" text-anchor="middle" font-size="13">4288</text>
<rect x="230" y="557" width="72" height="72" fill="rgb(245, 248, 255)" class="grid"/>
<rect x="302" y="557" width="72" height="72" fill="rgb(220, 229, 251)" class="grid"/>
<text x="338.0" y="598.0" text-anchor="middle" font-size="13">1037</text>
<rect x="374" y="557" width="72" height="72" fill="rgb(240, 244, 254)" class="grid"/>
<text x="410.0" y="598.0" text-anchor="middle" font-size="13">190</text>
<rect x="446" y="557" width="72" height="72" fill="rgb(245, 248, 255)" class="grid"/>
<rect x="518" y="557" width="72" height="72" fill="rgb(245, 248, 255)" class="grid"/>
<rect x="590" y="557" width="72" height="72" fill="rgb(141, 170, 242)" class="grid"/>
<text x="626.0" y="598.0" text-anchor="middle" font-size="13">4288</text>
<rect x="662" y="557" width="72" height="72" fill="rgb(115, 150, 238)" class="grid"/>
<text x="698.0" y="598.0" text-anchor="middle" font-size="13">5379</text>
</svg>