<svg xmlns="http://www.w3.org/2000/svg" width="820" height="360" viewBox="0 0 820 360">
<style>
text { font-family: Arial, Helvetica, sans-serif; fill: #172033; }
.small { font-size: 11px; }
.label { font-size: 12px; }
.title { font-size: 18px; font-weight: 700; }
.grid { stroke: #e2e8f0; stroke-width: 1; }
.axis { stroke: #9aa4b2; stroke-width: 1; }
.panel { fill: #f3f4f6; }
.tile { stroke: #ffffff; stroke-width: 1; }
.legend-title { font-size: 11px; font-weight: 700; }
</style>
<rect x="0" y="0" width="820" height="360" fill="#ffffff"/>
<text x="28" y="34" class="title">BRCA1 vs BRCA2 grouped class composition</text>
<text x="28" y="92" class="label">BRCA1</text>
<rect x="120" y="68" width="476.504" height="38" fill="#2b8cbe"/>
<text x="124" y="92" class="small">85.1%</text>
<rect x="596.504" y="68" width="54.263999999999996" height="38" fill="#8a8f9c"/>
<text x="600.504" y="92" class="small">9.7%</text>
<rect x="650.768" y="68" width="29.288" height="38" fill="#d7301f"/>
<text x="28" y="158" class="label">BRCA2</text>
<rect x="120" y="134" width="412.72" height="38" fill="#2b8cbe"/>
<text x="124" y="158" class="small">73.7%</text>
<rect x="532.72" y="134" width="118.832" height="38" fill="#8a8f9c"/>
<text x="536.72" y="158" class="small">21.2%</text>
<rect x="651.552" y="134" width="28.448" height="38" fill="#d7301f"/>
<rect x="120" y="222" width="14" height="14" fill="#2b8cbe"/>
<text x="140" y="234" class="small">Benign/Likely Benign</text>
<rect x="300" y="222" width="14" height="14" fill="#8a8f9c"/>
<text x="320" y="234" class="small">VUS</text>
<rect x="480" y="222" width="14" height="14" fill="#d7301f"/>
<text x="500" y="234" class="small">Likely Pathogenic/Pathogenic</text>
</svg>
