<svg xmlns="http://www.w3.org/2000/svg" width="1030" height="330" viewBox="0 0 1030 330">
<style>
text { font-family: Arial, Helvetica, sans-serif; fill: #172033; }
.small { font-size: 11px; }
.label { font-size: 12px; }
.title { font-size: 18px; font-weight: 700; }
.grid { stroke: #e2e8f0; stroke-width: 1; }
.axis { stroke: #9aa4b2; stroke-width: 1; }
.panel { fill: #f3f4f6; }
.tile { stroke: #ffffff; stroke-width: 1; }
.legend-title { font-size: 11px; font-weight: 700; }
</style>
<rect x="0" y="0" width="1030" height="330" fill="#ffffff"/>
<text x="28" y="34" class="title">BRCA1 minus BRCA2 normalized bin differences</text>
<text x="135" y="55" class="small">Blue means higher in BRCA1, red means higher in BRCA2</text>
<text x="22" y="90" class="small">VUS</text>
<rect x="135" y="70" width="7" height="30" fill="#e46162"/>
<rect x="142" y="70" width="7" height="30" fill="#efbdbe"/>
<rect x="149" y="70" width="7" height="30" fill="#638ff0"/>
<rect x="156" y="70" width="7" height="30" fill="#98b6f4"/>
<rect x="163" y="70" width="7" height="30" fill="#b7ccf7"/>
<rect x="170" y="70" width="7" height="30" fill="#94b3f4"/>
<rect x="177" y="70" width="7" height="30" fill="#eeb6b7"/>
<rect x="184" y="70" width="7" height="30" fill="#eb999b"/>
<rect x="191" y="70" width="7" height="30" fill="#f0c6c7"/>
<rect x="198" y="70" width="7" height="30" fill="#b7ccf7"/>
<rect x="205" y="70" width="7" height="30" fill="#ebf1fb"/>
<rect x="212" y="70" width="7" height="30" fill="#c3d5f8"/>
<rect x="219" y="70" width="7" height="30" fill="#7ca1f2"/>
<rect x="226" y="70" width="7" height="30" fill="#6692f0"/>
<rect x="233" y="70" width="7" height="30" fill="#94b3f4"/>
<rect x="240" y="70" width="7" height="30" fill="#f7fafc"/>
<rect x="247" y="70" width="7" height="30" fill="#7ca2f2"/>
<rect x="254" y="70" width="7" height="30" fill="#9ebaf5"/>
<rect x="261" y="70" width="7" height="30" fill="#f4e0e2"/>
<rect x="268" y="70" width="7" height="30" fill="#f7fafc"/>
<rect x="275" y="70" width="7" height="30" fill="#f3dcde"/>
<rect x="282" y="70" width="7" height="30" fill="#f5ebed"/>
<rect x="289" y="70" width="7" height="30" fill="#f2d0d2"/>
<rect x="296" y="70" width="7" height="30" fill="#f7fafc"/>
<rect x="303" y="70" width="7" height="30" fill="#f4e5e7"/>
<rect x="310" y="70" width="7" height="30" fill="#f7fafc"/>
<rect x="317" y="70" width="7" height="30" fill="#f7fafc"/>
<rect x="324" y="70" width="7" height="30" fill="#f7fafc"/>
<rect x="331" y="70" width="7" height="30" fill="#f7fafc"/>
<rect x="338" y="70" width="7" height="30" fill="#f7fafc"/>
<rect x="345" y="70" width="7" height="30" fill="#f7fafc"/>
<rect x="352" y="70" width="7" height="30" fill="#f7fafc"/>
<rect x="359" y="70" width="7" height="30" fill="#f7fafc"/>
<rect x="366" y="70" width="7" height="30" fill="#f7fafc"/>
<rect x="373" y="70" width="7" height="30" fill="#f7fafc"/>
<rect x="380" y="70" width="7" height="30" fill="#f7fafc"/>
<rect x="387" y="70" width="7" height="30" fill="#f7fafc"/>
<rect x="394" y="70" width="7" height="30" fill="#f7fafc"/>
<rect x="401" y="70" width="7" height="30" fill="#f7fafc"/>
<rect x="408" y="70" width="7" height="30" fill="#f7fafc"/>
<rect x="415" y="70" width="7" height="30" fill="#f7fafc"/>
<rect x="422" y="70" width="7" height="30" fill="#f7fafc"/>
<rect x="429" y="70" width="7" height="30" fill="#f7fafc"/>
<rect x="436" y="70" width="7" height="30" fill="#f7fafc"/>
<rect x="443" y="70" width="7" height="30" fill="#f7fafc"/>
<rect x="450" y="70" width="7" height="30" fill="#e3ecfa"/>
<rect x="457" y="70" width="7" height="30" fill="#f7fafc"/>
<rect x="464" y="70" width="7" height="30" fill="#e3ecfa"/>
<rect x="471" y="70" width="7" height="30" fill="#e3ecfa"/>
<rect x="478" y="70" width="7" height="30" fill="#f7fafc"/>
<rect x="485" y="70" width="7" height="30" fill="#e3ecfa"/>
<rect x="492" y="70" width="7" height="30" fill="#f7fafc"/>
<rect x="499" y="70" width="7" height="30" fill="#f7fafc"/>
<rect x="506" y="70" width="7" height="30" fill="#f7fafc"/>
<rect x="513" y="70" width="7" height="30" fill="#f7fafc"/>
<rect x="520" y="70" width="7" height="30" fill="#f7fafc"/>
<rect x="527" y="70" width="7" height="30" fill="#e3ecfa"/>
<rect x="534" y="70" width="7" height="30" fill="#f7fafc"/>
<rect x="541" y="70" width="7" height="30" fill="#dbe6fa"/>
<rect x="548" y="70" width="7" height="30" fill="#e3ecfa"/>
<rect x="555" y="70" width="7" height="30" fill="#e3ecfa"/>
<rect x="562" y="70" width="7" height="30" fill="#f7fafc"/>
<rect x="569" y="70" width="7" height="30" fill="#f7fafc"/>
<rect x="576" y="70" width="7" height="30" fill="#e3ecfa"/>
<rect x="583" y="70" width="7" height="30" fill="#f7fafc"/>
<rect x="590" y="70" width="7" height="30" fill="#e3ecfa"/>
<rect x="597" y="70" width="7" height="30" fill="#f7fafc"/>
<rect x="604" y="70" width="7" height="30" fill="#e3ecfa"/>
<rect x="611" y="70" width="7" height="30" fill="#f7fafc"/>
<rect x="618" y="70" width="7" height="30" fill="#f7fafc"/>
<rect x="625" y="70" width="7" height="30" fill="#f7fafc"/>
<rect x="632" y="70" width="7" height="30" fill="#f7fafc"/>
<rect x="639" y="70" width="7" height="30" fill="#a7c1f6"/>
<rect x="646" y="70" width="7" height="30" fill="#b8cdf7"/>
<rect x="653" y="70" width="7" height="30" fill="#e3ecfa"/>
<rect x="660" y="70" width="7" height="30" fill="#f5e9eb"/>
<rect x="667" y="70" width="7" height="30" fill="#dbe6fa"/>
<rect x="674" y="70" width="7" height="30" fill="#eeb6b8"/>
<rect x="681" y="70" width="7" height="30" fill="#cfdef9"/>
<rect x="688" y="70" width="7" height="30" fill="#e0eafa"/>
<rect x="695" y="70" width="7" height="30" fill="#eca3a4"/>
<rect x="702" y="70" width="7" height="30" fill="#f1cdcf"/>
<rect x="709" y="70" width="7" height="30" fill="#e5edfb"/>
<rect x="716" y="70" width="7" height="30" fill="#799ff2"/>
<rect x="723" y="70" width="7" height="30" fill="#c7d7f8"/>
<rect x="730" y="70" width="7" height="30" fill="#dce6fa"/>
<rect x="737" y="70" width="7" height="30" fill="#bed1f7"/>
<rect x="744" y="70" width="7" height="30" fill="#e04646"/>
<rect x="751" y="70" width="7" height="30" fill="#dc2626"/>
<rect x="758" y="70" width="7" height="30" fill="#e35c5d"/>
<rect x="765" y="70" width="7" height="30" fill="#f1cbcd"/>
<rect x="772" y="70" width="7" height="30" fill="#e56d6e"/>
<rect x="779" y="70" width="7" height="30" fill="#dc2626"/>
<rect x="786" y="70" width="7" height="30" fill="#e46364"/>
<rect x="793" y="70" width="7" height="30" fill="#dd3030"/>
<rect x="800" y="70" width="7" height="30" fill="#dc2626"/>
<rect x="807" y="70" width="7" height="30" fill="#de3636"/>
<rect x="814" y="70" width="7" height="30" fill="#dc2626"/>
<rect x="821" y="70" width="7" height="30" fill="#dc2626"/>
<rect x="828" y="70" width="7" height="30" fill="#dc2626"/>
<rect x="835" y="70" width="7" height="30" fill="#df3d3d"/>
<rect x="842" y="70" width="7" height="30" fill="#dc2626"/>
<rect x="849" y="70" width="7" height="30" fill="#dc2626"/>
<rect x="856" y="70" width="7" height="30" fill="#dc2626"/>
<rect x="863" y="70" width="7" height="30" fill="#dc2626"/>
<rect x="870" y="70" width="7" height="30" fill="#dc2626"/>
<rect x="877" y="70" width="7" height="30" fill="#de3334"/>
<rect x="884" y="70" width="7" height="30" fill="#e04545"/>
<rect x="891" y="70" width="7" height="30" fill="#e04444"/>
<rect x="898" y="70" width="7" height="30" fill="#e35d5d"/>
<rect x="905" y="70" width="7" height="30" fill="#de3939"/>
<rect x="912" y="70" width="7" height="30" fill="#e14c4c"/>
<rect x="919" y="70" width="7" height="30" fill="#759df1"/>
<rect x="926" y="70" width="7" height="30" fill="#f1cecf"/>
<rect x="933" y="70" width="7" height="30" fill="#82a6f3"/>
<rect x="940" y="70" width="7" height="30" fill="#97b5f4"/>
<rect x="947" y="70" width="7" height="30" fill="#7da2f2"/>
<rect x="954" y="70" width="7" height="30" fill="#cfddf9"/>
<rect x="961" y="70" width="7" height="30" fill="#7ca2f2"/>
<rect x="968" y="70" width="7" height="30" fill="#9bb8f5"/>
<text x="22" y="124" class="small">Pathogenic</text>
<rect x="135" y="104" width="7" height="30" fill="#e3ecfa"/>
<rect x="142" y="104" width="7" height="30" fill="#cadaf8"/>
<rect x="149" y="104" width="7" height="30" fill="#d1dff9"/>
<rect x="156" y="104" width="7" height="30" fill="#d1dff9"/>
<rect x="163" y="104" width="7" height="30" fill="#a4bef5"/>
<rect x="170" y="104" width="7" height="30" fill="#c5d6f8"/>
<rect x="177" y="104" width="7" height="30" fill="#d8e4fa"/>
<rect x="184" y="104" width="7" height="30" fill="#d5e2f9"/>
<rect x="191" y="104" width="7" height="30" fill="#d7e3f9"/>
<rect x="198" y="104" width="7" height="30" fill="#f3ddde"/>
<rect x="205" y="104" width="7" height="30" fill="#f2d1d3"/>
<rect x="212" y="104" width="7" height="30" fill="#e5edfb"/>
<rect x="219" y="104" width="7" height="30" fill="#efbfc0"/>
<rect x="226" y="104" width="7" height="30" fill="#f0c4c6"/>
<rect x="233" y="104" width="7" height="30" fill="#f1cdce"/>
<rect x="240" y="104" width="7" height="30" fill="#f1ccce"/>
<rect x="247" y="104" width="7" height="30" fill="#e4edfa"/>
<rect x="254" y="104" width="7" height="30" fill="#f3dddf"/>
<rect x="261" y="104" width="7" height="30" fill="#c4d6f8"/>
<rect x="268" y="104" width="7" height="30" fill="#f4e5e6"/>
<rect x="275" y="104" width="7" height="30" fill="#d9e4fa"/>
<rect x="282" y="104" width="7" height="30" fill="#f1cacb"/>
<rect x="289" y="104" width="7" height="30" fill="#d5e1f9"/>
<rect x="296" y="104" width="7" height="30" fill="#d4e1f9"/>
<rect x="303" y="104" width="7" height="30" fill="#f2d6d8"/>
<rect x="310" y="104" width="7" height="30" fill="#f4e4e6"/>
<rect x="317" y="104" width="7" height="30" fill="#f2d6d7"/>
<rect x="324" y="104" width="7" height="30" fill="#eaf0fb"/>
<rect x="331" y="104" width="7" height="30" fill="#dde7fa"/>
<rect x="338" y="104" width="7" height="30" fill="#f2d4d5"/>
<rect x="345" y="104" width="7" height="30" fill="#f3dcde"/>
<rect x="352" y="104" width="7" height="30" fill="#f4e6e8"/>
<rect x="359" y="104" width="7" height="30" fill="#dee8fa"/>
<rect x="366" y="104" width="7" height="30" fill="#f4e0e2"/>
<rect x="373" y="104" width="7" height="30" fill="#f4e0e2"/>
<rect x="380" y="104" width="7" height="30" fill="#f2d4d6"/>
<rect x="387" y="104" width="7" height="30" fill="#f5e9eb"/>
<rect x="394" y="104" width="7" height="30" fill="#f4e2e4"/>
<rect x="401" y="104" width="7" height="30" fill="#ebf2fb"/>
<rect x="408" y="104" width="7" height="30" fill="#f0c6c7"/>
<rect x="415" y="104" width="7" height="30" fill="#f3dbdc"/>
<rect x="422" y="104" width="7" height="30" fill="#d2e0f9"/>
<rect x="429" y="104" width="7" height="30" fill="#f0f5fb"/>
<rect x="436" y="104" width="7" height="30" fill="#d7e3f9"/>
<rect x="443" y="104" width="7" height="30" fill="#f5e7e9"/>
<rect x="450" y="104" width="7" height="30" fill="#ebf2fb"/>
<rect x="457" y="104" width="7" height="30" fill="#f6f3f5"/>
<rect x="464" y="104" width="7" height="30" fill="#f5ecee"/>
<rect x="471" y="104" width="7" height="30" fill="#f6eff1"/>
<rect x="478" y="104" width="7" height="30" fill="#f3d7d9"/>
<rect x="485" y="104" width="7" height="30" fill="#cfddf9"/>
<rect x="492" y="104" width="7" height="30" fill="#f3dcde"/>
<rect x="499" y="104" width="7" height="30" fill="#e7eefb"/>
<rect x="506" y="104" width="7" height="30" fill="#e4ecfa"/>
<rect x="513" y="104" width="7" height="30" fill="#f5edef"/>
<rect x="520" y="104" width="7" height="30" fill="#dee8fa"/>
<rect x="527" y="104" width="7" height="30" fill="#e3ecfa"/>
<rect x="534" y="104" width="7" height="30" fill="#f5ecee"/>
<rect x="541" y="104" width="7" height="30" fill="#e2ebfa"/>
<rect x="548" y="104" width="7" height="30" fill="#f0c6c7"/>
<rect x="555" y="104" width="7" height="30" fill="#f4dfe1"/>
<rect x="562" y="104" width="7" height="30" fill="#f2d2d4"/>
<rect x="569" y="104" width="7" height="30" fill="#d6e3f9"/>
<rect x="576" y="104" width="7" height="30" fill="#eaf1fb"/>
<rect x="583" y="104" width="7" height="30" fill="#c3d4f8"/>
<rect x="590" y="104" width="7" height="30" fill="#f4e1e3"/>
<rect x="597" y="104" width="7" height="30" fill="#f4e0e1"/>
<rect x="604" y="104" width="7" height="30" fill="#f1cdcf"/>
<rect x="611" y="104" width="7" height="30" fill="#f2d1d2"/>
<rect x="618" y="104" width="7" height="30" fill="#f4e1e3"/>
<rect x="625" y="104" width="7" height="30" fill="#d9e4fa"/>
<rect x="632" y="104" width="7" height="30" fill="#d6e2f9"/>
<rect x="639" y="104" width="7" height="30" fill="#f5ebec"/>
<rect x="646" y="104" width="7" height="30" fill="#f2d6d8"/>
<rect x="653" y="104" width="7" height="30" fill="#f1cccd"/>
<rect x="660" y="104" width="7" height="30" fill="#f2d4d5"/>
<rect x="667" y="104" width="7" height="30" fill="#f1cccd"/>
<rect x="674" y="104" width="7" height="30" fill="#c6d7f8"/>
<rect x="681" y="104" width="7" height="30" fill="#cadaf8"/>
<rect x="688" y="104" width="7" height="30" fill="#f1ced0"/>
<rect x="695" y="104" width="7" height="30" fill="#f1c7c9"/>
<rect x="702" y="104" width="7" height="30" fill="#c3d4f8"/>
<rect x="709" y="104" width="7" height="30" fill="#e8effb"/>
<rect x="716" y="104" width="7" height="30" fill="#f5edef"/>
<rect x="723" y="104" width="7" height="30" fill="#f3d8d9"/>
<rect x="730" y="104" width="7" height="30" fill="#e9f0fb"/>
<rect x="737" y="104" width="7" height="30" fill="#cbdaf8"/>
<rect x="744" y="104" width="7" height="30" fill="#d2dff9"/>
<rect x="751" y="104" width="7" height="30" fill="#d7e3f9"/>
<rect x="758" y="104" width="7" height="30" fill="#f4e5e7"/>
<rect x="765" y="104" width="7" height="30" fill="#f2d6d7"/>
<rect x="772" y="104" width="7" height="30" fill="#edf3fb"/>
<rect x="779" y="104" width="7" height="30" fill="#f0c6c8"/>
<rect x="786" y="104" width="7" height="30" fill="#f5e9eb"/>
<rect x="793" y="104" width="7" height="30" fill="#d9e4fa"/>
<rect x="800" y="104" width="7" height="30" fill="#f3dcde"/>
<rect x="807" y="104" width="7" height="30" fill="#cddcf9"/>
<rect x="814" y="104" width="7" height="30" fill="#d7e3f9"/>
<rect x="821" y="104" width="7" height="30" fill="#d4e1f9"/>
<rect x="828" y="104" width="7" height="30" fill="#f0c6c8"/>
<rect x="835" y="104" width="7" height="30" fill="#f3dadc"/>
<rect x="842" y="104" width="7" height="30" fill="#f1cacc"/>
<rect x="849" y="104" width="7" height="30" fill="#f4e1e2"/>
<rect x="856" y="104" width="7" height="30" fill="#f2d0d2"/>
<rect x="863" y="104" width="7" height="30" fill="#f2d3d5"/>
<rect x="870" y="104" width="7" height="30" fill="#f1c8ca"/>
<rect x="877" y="104" width="7" height="30" fill="#f1cecf"/>
<rect x="884" y="104" width="7" height="30" fill="#ceddf9"/>
<rect x="891" y="104" width="7" height="30" fill="#a3bef5"/>
<rect x="898" y="104" width="7" height="30" fill="#d7e3f9"/>
<rect x="905" y="104" width="7" height="30" fill="#b2c9f6"/>
<rect x="912" y="104" width="7" height="30" fill="#c8d8f8"/>
<rect x="919" y="104" width="7" height="30" fill="#ceddf9"/>
<rect x="926" y="104" width="7" height="30" fill="#e6eefb"/>
<rect x="933" y="104" width="7" height="30" fill="#f4dfe1"/>
<rect x="940" y="104" width="7" height="30" fill="#d4e1f9"/>
<rect x="947" y="104" width="7" height="30" fill="#d3e0f9"/>
<rect x="954" y="104" width="7" height="30" fill="#c6d7f8"/>
<rect x="961" y="104" width="7" height="30" fill="#adc5f6"/>
<rect x="968" y="104" width="7" height="30" fill="#d4e1f9"/>
<text x="22" y="158" class="small">SpliceAI &gt;=0.20</text>
<rect x="135" y="138" width="7" height="30" fill="#f1f6fc"/>
<rect x="142" y="138" width="7" height="30" fill="#d5e1f9"/>
<rect x="149" y="138" width="7" height="30" fill="#d8e3f9"/>
<rect x="156" y="138" width="7" height="30" fill="#a0bbf5"/>
<rect x="163" y="138" width="7" height="30" fill="#769df2"/>
<rect x="170" y="138" width="7" height="30" fill="#8cadf3"/>
<rect x="177" y="138" width="7" height="30" fill="#a8c1f6"/>
<rect x="184" y="138" width="7" height="30" fill="#eeb6b7"/>
<rect x="191" y="138" width="7" height="30" fill="#f2d0d1"/>
<rect x="198" y="138" width="7" height="30" fill="#b5cbf7"/>
<rect x="205" y="138" width="7" height="30" fill="#e4ecfa"/>
<rect x="212" y="138" width="7" height="30" fill="#c3d5f8"/>
<rect x="219" y="138" width="7" height="30" fill="#a0bbf5"/>
<rect x="226" y="138" width="7" height="30" fill="#99b7f4"/>
<rect x="233" y="138" width="7" height="30" fill="#a1bcf5"/>
<rect x="240" y="138" width="7" height="30" fill="#f7fafc"/>
<rect x="247" y="138" width="7" height="30" fill="#9fbaf5"/>
<rect x="254" y="138" width="7" height="30" fill="#e4ecfa"/>
<rect x="261" y="138" width="7" height="30" fill="#f7fafc"/>
<rect x="268" y="138" width="7" height="30" fill="#f7fafc"/>
<rect x="275" y="138" width="7" height="30" fill="#f4e0e2"/>
<rect x="282" y="138" width="7" height="30" fill="#f5ebed"/>
<rect x="289" y="138" width="7" height="30" fill="#f3d9db"/>
<rect x="296" y="138" width="7" height="30" fill="#f5ebed"/>
<rect x="303" y="138" width="7" height="30" fill="#f7fafc"/>
<rect x="310" y="138" width="7" height="30" fill="#f7fafc"/>
<rect x="317" y="138" width="7" height="30" fill="#f7fafc"/>
<rect x="324" y="138" width="7" height="30" fill="#f7fafc"/>
<rect x="331" y="138" width="7" height="30" fill="#f7fafc"/>
<rect x="338" y="138" width="7" height="30" fill="#f7fafc"/>
<rect x="345" y="138" width="7" height="30" fill="#f7fafc"/>
<rect x="352" y="138" width="7" height="30" fill="#f7fafc"/>
<rect x="359" y="138" width="7" height="30" fill="#f7fafc"/>
<rect x="366" y="138" width="7" height="30" fill="#f7fafc"/>
<rect x="373" y="138" width="7" height="30" fill="#f7fafc"/>
<rect x="380" y="138" width="7" height="30" fill="#f7fafc"/>
<rect x="387" y="138" width="7" height="30" fill="#f7fafc"/>
<rect x="394" y="138" width="7" height="30" fill="#f7fafc"/>
<rect x="401" y="138" width="7" height="30" fill="#f7fafc"/>
<rect x="408" y="138" width="7" height="30" fill="#f7fafc"/>
<rect x="415" y="138" width="7" height="30" fill="#f7fafc"/>
<rect x="422" y="138" width="7" height="30" fill="#f7fafc"/>
<rect x="429" y="138" width="7" height="30" fill="#f7fafc"/>
<rect x="436" y="138" width="7" height="30" fill="#f7fafc"/>
<rect x="443" y="138" width="7" height="30" fill="#f7fafc"/>
<rect x="450" y="138" width="7" height="30" fill="#e3ecfa"/>
<rect x="457" y="138" width="7" height="30" fill="#f7fafc"/>
<rect x="464" y="138" width="7" height="30" fill="#e3ecfa"/>
<rect x="471" y="138" width="7" height="30" fill="#e3ecfa"/>
<rect x="478" y="138" width="7" height="30" fill="#f7fafc"/>
<rect x="485" y="138" width="7" height="30" fill="#e3ecfa"/>
<rect x="492" y="138" width="7" height="30" fill="#f7fafc"/>
<rect x="499" y="138" width="7" height="30" fill="#f7fafc"/>
<rect x="506" y="138" width="7" height="30" fill="#f7fafc"/>
<rect x="513" y="138" width="7" height="30" fill="#f7fafc"/>
<rect x="520" y="138" width="7" height="30" fill="#f7fafc"/>
<rect x="527" y="138" width="7" height="30" fill="#f7fafc"/>
<rect x="534" y="138" width="7" height="30" fill="#f7fafc"/>
<rect x="541" y="138" width="7" height="30" fill="#e3ecfa"/>
<rect x="548" y="138" width="7" height="30" fill="#e3ecfa"/>
<rect x="555" y="138" width="7" height="30" fill="#e3ecfa"/>
<rect x="562" y="138" width="7" height="30" fill="#f7fafc"/>
<rect x="569" y="138" width="7" height="30" fill="#f7fafc"/>
<rect x="576" y="138" width="7" height="30" fill="#e3ecfa"/>
<rect x="583" y="138" width="7" height="30" fill="#f7fafc"/>
<rect x="590" y="138" width="7" height="30" fill="#f7fafc"/>
<rect x="597" y="138" width="7" height="30" fill="#f7fafc"/>
<rect x="604" y="138" width="7" height="30" fill="#f7fafc"/>
<rect x="611" y="138" width="7" height="30" fill="#f7fafc"/>
<rect x="618" y="138" width="7" height="30" fill="#f7fafc"/>
<rect x="625" y="138" width="7" height="30" fill="#f7fafc"/>
<rect x="632" y="138" width="7" height="30" fill="#f7fafc"/>
<rect x="639" y="138" width="7" height="30" fill="#c2d4f8"/>
<rect x="646" y="138" width="7" height="30" fill="#d5e1f9"/>
<rect x="653" y="138" width="7" height="30" fill="#f7fafc"/>
<rect x="660" y="138" width="7" height="30" fill="#ebf1fb"/>
<rect x="667" y="138" width="7" height="30" fill="#e3ecfa"/>
<rect x="674" y="138" width="7" height="30" fill="#f1cbcd"/>
<rect x="681" y="138" width="7" height="30" fill="#e3ecfa"/>
<rect x="688" y="138" width="7" height="30" fill="#f4e4e6"/>
<rect x="695" y="138" width="7" height="30" fill="#efbfc0"/>
<rect x="702" y="138" width="7" height="30" fill="#f1cdcf"/>
<rect x="709" y="138" width="7" height="30" fill="#f3dcde"/>
<rect x="716" y="138" width="7" height="30" fill="#b2c8f6"/>
<rect x="723" y="138" width="7" height="30" fill="#f5eaec"/>
<rect x="730" y="138" width="7" height="30" fill="#dbe6fa"/>
<rect x="737" y="138" width="7" height="30" fill="#e2ebfa"/>
<rect x="744" y="138" width="7" height="30" fill="#cfddf9"/>
<rect x="751" y="138" width="7" height="30" fill="#ebf1fb"/>
<rect x="758" y="138" width="7" height="30" fill="#c5d6f8"/>
<rect x="765" y="138" width="7" height="30" fill="#eda9aa"/>
<rect x="772" y="138" width="7" height="30" fill="#efbbbc"/>
<rect x="779" y="138" width="7" height="30" fill="#f3d9da"/>
<rect x="786" y="138" width="7" height="30" fill="#6e97f1"/>
<rect x="793" y="138" width="7" height="30" fill="#c4d5f8"/>
<rect x="800" y="138" width="7" height="30" fill="#eaf0fb"/>
<rect x="807" y="138" width="7" height="30" fill="#a2bdf5"/>
<rect x="814" y="138" width="7" height="30" fill="#f1cbcd"/>
<rect x="821" y="138" width="7" height="30" fill="#f0c2c3"/>
<rect x="828" y="138" width="7" height="30" fill="#f2d5d7"/>
<rect x="835" y="138" width="7" height="30" fill="#c4d5f8"/>
<rect x="842" y="138" width="7" height="30" fill="#f2d3d5"/>
<rect x="849" y="138" width="7" height="30" fill="#efbdbe"/>
<rect x="856" y="138" width="7" height="30" fill="#d8e4f9"/>
<rect x="863" y="138" width="7" height="30" fill="#f5edef"/>
<rect x="870" y="138" width="7" height="30" fill="#e77a7b"/>
<rect x="877" y="138" width="7" height="30" fill="#e88182"/>
<rect x="884" y="138" width="7" height="30" fill="#abc3f6"/>
<rect x="891" y="138" width="7" height="30" fill="#7ca1f2"/>
<rect x="898" y="138" width="7" height="30" fill="#cfddf9"/>
<rect x="905" y="138" width="7" height="30" fill="#cddcf9"/>
<rect x="912" y="138" width="7" height="30" fill="#f4dfe1"/>
<rect x="919" y="138" width="7" height="30" fill="#f3dcde"/>
<rect x="926" y="138" width="7" height="30" fill="#eb9d9e"/>
<rect x="933" y="138" width="7" height="30" fill="#cfddf9"/>
<rect x="940" y="138" width="7" height="30" fill="#f3d9db"/>
<rect x="947" y="138" width="7" height="30" fill="#b8cdf7"/>
<rect x="954" y="138" width="7" height="30" fill="#f2d4d5"/>
<rect x="961" y="138" width="7" height="30" fill="#f4e5e7"/>
<rect x="968" y="138" width="7" height="30" fill="#f7fafc"/>
<text x="22" y="192" class="small">Missense</text>
<rect x="135" y="172" width="7" height="30" fill="#f1ccce"/>
<rect x="142" y="172" width="7" height="30" fill="#f5ecee"/>
<rect x="149" y="172" width="7" height="30" fill="#bdd0f7"/>
<rect x="156" y="172" width="7" height="30" fill="#ebf1fb"/>
<rect x="163" y="172" width="7" height="30" fill="#f5eef0"/>
<rect x="170" y="172" width="7" height="30" fill="#ccdbf8"/>
<rect x="177" y="172" width="7" height="30" fill="#d1dff9"/>
<rect x="184" y="172" width="7" height="30" fill="#c4d6f8"/>
<rect x="191" y="172" width="7" height="30" fill="#f1c9cb"/>
<rect x="198" y="172" width="7" height="30" fill="#dde7fa"/>
<rect x="205" y="172" width="7" height="30" fill="#f0c2c4"/>
<rect x="212" y="172" width="7" height="30" fill="#f1ccce"/>
<rect x="219" y="172" width="7" height="30" fill="#f4e4e6"/>
<rect x="226" y="172" width="7" height="30" fill="#f5edef"/>
<rect x="233" y="172" width="7" height="30" fill="#d4e1f9"/>
<rect x="240" y="172" width="7" height="30" fill="#afc6f6"/>
<rect x="247" y="172" width="7" height="30" fill="#f3dedf"/>
<rect x="254" y="172" width="7" height="30" fill="#ceddf9"/>
<rect x="261" y="172" width="7" height="30" fill="#f0c4c6"/>
<rect x="268" y="172" width="7" height="30" fill="#b1c8f6"/>
<rect x="275" y="172" width="7" height="30" fill="#f5ecee"/>
<rect x="282" y="172" width="7" height="30" fill="#e1eafa"/>
<rect x="289" y="172" width="7" height="30" fill="#cbdaf8"/>
<rect x="296" y="172" width="7" height="30" fill="#f6f1f3"/>
<rect x="303" y="172" width="7" height="30" fill="#c3d4f8"/>
<rect x="310" y="172" width="7" height="30" fill="#f5e7e9"/>
<rect x="317" y="172" width="7" height="30" fill="#f1ced0"/>
<rect x="324" y="172" width="7" height="30" fill="#e1eafa"/>
<rect x="331" y="172" width="7" height="30" fill="#f2d5d7"/>
<rect x="338" y="172" width="7" height="30" fill="#d2dff9"/>
<rect x="345" y="172" width="7" height="30" fill="#d1dff9"/>
<rect x="352" y="172" width="7" height="30" fill="#f1cdce"/>
<rect x="359" y="172" width="7" height="30" fill="#f0c3c5"/>
<rect x="366" y="172" width="7" height="30" fill="#dbe6fa"/>
<rect x="373" y="172" width="7" height="30" fill="#e9f0fb"/>
<rect x="380" y="172" width="7" height="30" fill="#c5d6f8"/>
<rect x="387" y="172" width="7" height="30" fill="#f4dfe1"/>
<rect x="394" y="172" width="7" height="30" fill="#cedcf9"/>
<rect x="401" y="172" width="7" height="30" fill="#f4e2e3"/>
<rect x="408" y="172" width="7" height="30" fill="#cedcf9"/>
<rect x="415" y="172" width="7" height="30" fill="#f0c6c8"/>
<rect x="422" y="172" width="7" height="30" fill="#bfd2f7"/>
<rect x="429" y="172" width="7" height="30" fill="#d9e5fa"/>
<rect x="436" y="172" width="7" height="30" fill="#d5e2f9"/>
<rect x="443" y="172" width="7" height="30" fill="#dae5fa"/>
<rect x="450" y="172" width="7" height="30" fill="#f0c6c7"/>
<rect x="457" y="172" width="7" height="30" fill="#f1ced0"/>
<rect x="464" y="172" width="7" height="30" fill="#f3dddf"/>
<rect x="471" y="172" width="7" height="30" fill="#f4e3e4"/>
<rect x="478" y="172" width="7" height="30" fill="#f5e7e9"/>
<rect x="485" y="172" width="7" height="30" fill="#edaeb0"/>
<rect x="492" y="172" width="7" height="30" fill="#f4e3e4"/>
<rect x="499" y="172" width="7" height="30" fill="#cfddf9"/>
<rect x="506" y="172" width="7" height="30" fill="#d8e4f9"/>
<rect x="513" y="172" width="7" height="30" fill="#e3ebfa"/>
<rect x="520" y="172" width="7" height="30" fill="#f2cfd1"/>
<rect x="527" y="172" width="7" height="30" fill="#e2ebfa"/>
<rect x="534" y="172" width="7" height="30" fill="#f1cbcc"/>
<rect x="541" y="172" width="7" height="30" fill="#b4caf7"/>
<rect x="548" y="172" width="7" height="30" fill="#f2d6d8"/>
<rect x="555" y="172" width="7" height="30" fill="#d0def9"/>
<rect x="562" y="172" width="7" height="30" fill="#f0c5c7"/>
<rect x="569" y="172" width="7" height="30" fill="#f2cfd1"/>
<rect x="576" y="172" width="7" height="30" fill="#f1cbcd"/>
<rect x="583" y="172" width="7" height="30" fill="#e2ebfa"/>
<rect x="590" y="172" width="7" height="30" fill="#f2d2d4"/>
<rect x="597" y="172" width="7" height="30" fill="#d5e2f9"/>
<rect x="604" y="172" width="7" height="30" fill="#f2d3d5"/>
<rect x="611" y="172" width="7" height="30" fill="#c6d7f8"/>
<rect x="618" y="172" width="7" height="30" fill="#d0def9"/>
<rect x="625" y="172" width="7" height="30" fill="#f1ced0"/>
<rect x="632" y="172" width="7" height="30" fill="#c7d8f8"/>
<rect x="639" y="172" width="7" height="30" fill="#e8effb"/>
<rect x="646" y="172" width="7" height="30" fill="#cad9f8"/>
<rect x="653" y="172" width="7" height="30" fill="#dee8fa"/>
<rect x="660" y="172" width="7" height="30" fill="#bfd2f7"/>
<rect x="667" y="172" width="7" height="30" fill="#c5d6f8"/>
<rect x="674" y="172" width="7" height="30" fill="#f0c2c4"/>
<rect x="681" y="172" width="7" height="30" fill="#ecf2fb"/>
<rect x="688" y="172" width="7" height="30" fill="#cfddf9"/>
<rect x="695" y="172" width="7" height="30" fill="#d3e0f9"/>
<rect x="702" y="172" width="7" height="30" fill="#f6f5f7"/>
<rect x="709" y="172" width="7" height="30" fill="#e0eafa"/>
<rect x="716" y="172" width="7" height="30" fill="#c5d6f8"/>
<rect x="723" y="172" width="7" height="30" fill="#e0e9fa"/>
<rect x="730" y="172" width="7" height="30" fill="#f1c8ca"/>
<rect x="737" y="172" width="7" height="30" fill="#f0c4c6"/>
<rect x="744" y="172" width="7" height="30" fill="#d1dff9"/>
<rect x="751" y="172" width="7" height="30" fill="#b5cbf7"/>
<rect x="758" y="172" width="7" height="30" fill="#f0c6c8"/>
<rect x="765" y="172" width="7" height="30" fill="#bed1f7"/>
<rect x="772" y="172" width="7" height="30" fill="#dde7fa"/>
<rect x="779" y="172" width="7" height="30" fill="#f2d5d7"/>
<rect x="786" y="172" width="7" height="30" fill="#f1c7c9"/>
<rect x="793" y="172" width="7" height="30" fill="#d8e4fa"/>
<rect x="800" y="172" width="7" height="30" fill="#cfddf9"/>
<rect x="807" y="172" width="7" height="30" fill="#f6eff1"/>
<rect x="814" y="172" width="7" height="30" fill="#b6cbf7"/>
<rect x="821" y="172" width="7" height="30" fill="#d2e0f9"/>
<rect x="828" y="172" width="7" height="30" fill="#f4e0e2"/>
<rect x="835" y="172" width="7" height="30" fill="#f0c5c6"/>
<rect x="842" y="172" width="7" height="30" fill="#b8cdf7"/>
<rect x="849" y="172" width="7" height="30" fill="#eeb0b2"/>
<rect x="856" y="172" width="7" height="30" fill="#f3dbdc"/>
<rect x="863" y="172" width="7" height="30" fill="#d8e4fa"/>
<rect x="870" y="172" width="7" height="30" fill="#bfd2f7"/>
<rect x="877" y="172" width="7" height="30" fill="#d6e3f9"/>
<rect x="884" y="172" width="7" height="30" fill="#e0eafa"/>
<rect x="891" y="172" width="7" height="30" fill="#cbdaf8"/>
<rect x="898" y="172" width="7" height="30" fill="#f1cccd"/>
<rect x="905" y="172" width="7" height="30" fill="#f1c8ca"/>
<rect x="912" y="172" width="7" height="30" fill="#f3dee0"/>
<rect x="919" y="172" width="7" height="30" fill="#e8effb"/>
<rect x="926" y="172" width="7" height="30" fill="#d0def9"/>
<rect x="933" y="172" width="7" height="30" fill="#d4e1f9"/>
<rect x="940" y="172" width="7" height="30" fill="#f0c5c6"/>
<rect x="947" y="172" width="7" height="30" fill="#f4e1e2"/>
<rect x="954" y="172" width="7" height="30" fill="#cadaf8"/>
<rect x="961" y="172" width="7" height="30" fill="#cfddf9"/>
<rect x="968" y="172" width="7" height="30" fill="#f3dedf"/>
<text x="22" y="226" class="small">Nonsense</text>
<rect x="135" y="206" width="7" height="30" fill="#f5ecee"/>
<rect x="142" y="206" width="7" height="30" fill="#e2ebfa"/>
<rect x="149" y="206" width="7" height="30" fill="#f4e2e4"/>
<rect x="156" y="206" width="7" height="30" fill="#e6eefb"/>
<rect x="163" y="206" width="7" height="30" fill="#cedcf9"/>
<rect x="170" y="206" width="7" height="30" fill="#dfe9fa"/>
<rect x="177" y="206" width="7" height="30" fill="#eaf1fb"/>
<rect x="184" y="206" width="7" height="30" fill="#d5e2f9"/>
<rect x="191" y="206" width="7" height="30" fill="#d7e3f9"/>
<rect x="198" y="206" width="7" height="30" fill="#f3ddde"/>
<rect x="205" y="206" width="7" height="30" fill="#f2d1d3"/>
<rect x="212" y="206" width="7" height="30" fill="#e5edfb"/>
<rect x="219" y="206" width="7" height="30" fill="#f4e1e3"/>
<rect x="226" y="206" width="7" height="30" fill="#dce7fa"/>
<rect x="233" y="206" width="7" height="30" fill="#f3d7d9"/>
<rect x="240" y="206" width="7" height="30" fill="#f1ccce"/>
<rect x="247" y="206" width="7" height="30" fill="#e4edfa"/>
<rect x="254" y="206" width="7" height="30" fill="#f3dddf"/>
<rect x="261" y="206" width="7" height="30" fill="#c4d6f8"/>
<rect x="268" y="206" width="7" height="30" fill="#f4e5e6"/>
<rect x="275" y="206" width="7" height="30" fill="#d9e4fa"/>
<rect x="282" y="206" width="7" height="30" fill="#f1cacb"/>
<rect x="289" y="206" width="7" height="30" fill="#d5e1f9"/>
<rect x="296" y="206" width="7" height="30" fill="#d4e1f9"/>
<rect x="303" y="206" width="7" height="30" fill="#f2d6d8"/>
<rect x="310" y="206" width="7" height="30" fill="#f4e4e6"/>
<rect x="317" y="206" width="7" height="30" fill="#f2d6d7"/>
<rect x="324" y="206" width="7" height="30" fill="#eaf0fb"/>
<rect x="331" y="206" width="7" height="30" fill="#dde7fa"/>
<rect x="338" y="206" width="7" height="30" fill="#f2d4d5"/>
<rect x="345" y="206" width="7" height="30" fill="#f3dcde"/>
<rect x="352" y="206" width="7" height="30" fill="#f4e6e8"/>
<rect x="359" y="206" width="7" height="30" fill="#dee8fa"/>
<rect x="366" y="206" width="7" height="30" fill="#f4e0e2"/>
<rect x="373" y="206" width="7" height="30" fill="#f4e0e2"/>
<rect x="380" y="206" width="7" height="30" fill="#f2d4d6"/>
<rect x="387" y="206" width="7" height="30" fill="#f5e9eb"/>
<rect x="394" y="206" width="7" height="30" fill="#f4e2e4"/>
<rect x="401" y="206" width="7" height="30" fill="#ebf2fb"/>
<rect x="408" y="206" width="7" height="30" fill="#f0c6c7"/>
<rect x="415" y="206" width="7" height="30" fill="#f3dbdc"/>
<rect x="422" y="206" width="7" height="30" fill="#d2e0f9"/>
<rect x="429" y="206" width="7" height="30" fill="#f0f5fb"/>
<rect x="436" y="206" width="7" height="30" fill="#d7e3f9"/>
<rect x="443" y="206" width="7" height="30" fill="#f5e7e9"/>
<rect x="450" y="206" width="7" height="30" fill="#ebf2fb"/>
<rect x="457" y="206" width="7" height="30" fill="#f6f3f5"/>
<rect x="464" y="206" width="7" height="30" fill="#f5ecee"/>
<rect x="471" y="206" width="7" height="30" fill="#f6eff1"/>
<rect x="478" y="206" width="7" height="30" fill="#f3d7d9"/>
<rect x="485" y="206" width="7" height="30" fill="#cfddf9"/>
<rect x="492" y="206" width="7" height="30" fill="#f3dcde"/>
<rect x="499" y="206" width="7" height="30" fill="#e7eefb"/>
<rect x="506" y="206" width="7" height="30" fill="#e4ecfa"/>
<rect x="513" y="206" width="7" height="30" fill="#f5edef"/>
<rect x="520" y="206" width="7" height="30" fill="#dee8fa"/>
<rect x="527" y="206" width="7" height="30" fill="#e3ecfa"/>
<rect x="534" y="206" width="7" height="30" fill="#f5ecee"/>
<rect x="541" y="206" width="7" height="30" fill="#e2ebfa"/>
<rect x="548" y="206" width="7" height="30" fill="#f0c6c7"/>
<rect x="555" y="206" width="7" height="30" fill="#f4dfe1"/>
<rect x="562" y="206" width="7" height="30" fill="#f2d2d4"/>
<rect x="569" y="206" width="7" height="30" fill="#d6e3f9"/>
<rect x="576" y="206" width="7" height="30" fill="#eaf1fb"/>
<rect x="583" y="206" width="7" height="30" fill="#c3d4f8"/>
<rect x="590" y="206" width="7" height="30" fill="#f4e1e3"/>
<rect x="597" y="206" width="7" height="30" fill="#f4e0e1"/>
<rect x="604" y="206" width="7" height="30" fill="#f1cdcf"/>
<rect x="611" y="206" width="7" height="30" fill="#f2d1d2"/>
<rect x="618" y="206" width="7" height="30" fill="#f4e1e3"/>
<rect x="625" y="206" width="7" height="30" fill="#d9e4fa"/>
<rect x="632" y="206" width="7" height="30" fill="#d6e2f9"/>
<rect x="639" y="206" width="7" height="30" fill="#f5ebec"/>
<rect x="646" y="206" width="7" height="30" fill="#f2d6d8"/>
<rect x="653" y="206" width="7" height="30" fill="#f1cccd"/>
<rect x="660" y="206" width="7" height="30" fill="#f2d4d5"/>
<rect x="667" y="206" width="7" height="30" fill="#f1cccd"/>
<rect x="674" y="206" width="7" height="30" fill="#c6d7f8"/>
<rect x="681" y="206" width="7" height="30" fill="#cadaf8"/>
<rect x="688" y="206" width="7" height="30" fill="#f1ced0"/>
<rect x="695" y="206" width="7" height="30" fill="#f1c7c9"/>
<rect x="702" y="206" width="7" height="30" fill="#c1d3f8"/>
<rect x="709" y="206" width="7" height="30" fill="#e8effb"/>
<rect x="716" y="206" width="7" height="30" fill="#f5edef"/>
<rect x="723" y="206" width="7" height="30" fill="#f3d8d9"/>
<rect x="730" y="206" width="7" height="30" fill="#e9f0fb"/>
<rect x="737" y="206" width="7" height="30" fill="#cbdaf8"/>
<rect x="744" y="206" width="7" height="30" fill="#d2dff9"/>
<rect x="751" y="206" width="7" height="30" fill="#d7e3f9"/>
<rect x="758" y="206" width="7" height="30" fill="#f3dddf"/>
<rect x="765" y="206" width="7" height="30" fill="#f2d6d7"/>
<rect x="772" y="206" width="7" height="30" fill="#edf3fb"/>
<rect x="779" y="206" width="7" height="30" fill="#f1c9ca"/>
<rect x="786" y="206" width="7" height="30" fill="#d1dff9"/>
<rect x="793" y="206" width="7" height="30" fill="#d9e4fa"/>
<rect x="800" y="206" width="7" height="30" fill="#f4e5e7"/>
<rect x="807" y="206" width="7" height="30" fill="#d2dff9"/>
<rect x="814" y="206" width="7" height="30" fill="#d7e3f9"/>
<rect x="821" y="206" width="7" height="30" fill="#d4e1f9"/>
<rect x="828" y="206" width="7" height="30" fill="#f1cbcc"/>
<rect x="835" y="206" width="7" height="30" fill="#f2d5d6"/>
<rect x="842" y="206" width="7" height="30" fill="#f1cacc"/>
<rect x="849" y="206" width="7" height="30" fill="#f4e1e2"/>
<rect x="856" y="206" width="7" height="30" fill="#f2d0d2"/>
<rect x="863" y="206" width="7" height="30" fill="#f1ced0"/>
<rect x="870" y="206" width="7" height="30" fill="#f0c6c8"/>
<rect x="877" y="206" width="7" height="30" fill="#f1cccd"/>
<rect x="884" y="206" width="7" height="30" fill="#e2ebfa"/>
<rect x="891" y="206" width="7" height="30" fill="#f1ced0"/>
<rect x="898" y="206" width="7" height="30" fill="#f3f7fc"/>
<rect x="905" y="206" width="7" height="30" fill="#c6d7f8"/>
<rect x="912" y="206" width="7" height="30" fill="#dee8fa"/>
<rect x="919" y="206" width="7" height="30" fill="#d4e1f9"/>
<rect x="926" y="206" width="7" height="30" fill="#f3dcdd"/>
<rect x="933" y="206" width="7" height="30" fill="#f1ced0"/>
<rect x="940" y="206" width="7" height="30" fill="#d4e1f9"/>
<rect x="947" y="206" width="7" height="30" fill="#f2d6d8"/>
<rect x="954" y="206" width="7" height="30" fill="#f2cfd1"/>
<rect x="961" y="206" width="7" height="30" fill="#c9d9f8"/>
<rect x="968" y="206" width="7" height="30" fill="#f2d3d5"/>
<text x="22" y="260" class="small">Synonymous</text>
<rect x="135" y="240" width="7" height="30" fill="#dee8fa"/>
<rect x="142" y="240" width="7" height="30" fill="#f5eaec"/>
<rect x="149" y="240" width="7" height="30" fill="#f0c5c6"/>
<rect x="156" y="240" width="7" height="30" fill="#f4e5e7"/>
<rect x="163" y="240" width="7" height="30" fill="#f2d2d4"/>
<rect x="170" y="240" width="7" height="30" fill="#f1c8ca"/>
<rect x="177" y="240" width="7" height="30" fill="#f2d1d3"/>
<rect x="184" y="240" width="7" height="30" fill="#efbdbe"/>
<rect x="191" y="240" width="7" height="30" fill="#d3e0f9"/>
<rect x="198" y="240" width="7" height="30" fill="#eaf1fb"/>
<rect x="205" y="240" width="7" height="30" fill="#b2c9f6"/>
<rect x="212" y="240" width="7" height="30" fill="#cddcf9"/>
<rect x="219" y="240" width="7" height="30" fill="#d6e2f9"/>
<rect x="226" y="240" width="7" height="30" fill="#f4e2e4"/>
<rect x="233" y="240" width="7" height="30" fill="#f3f7fc"/>
<rect x="240" y="240" width="7" height="30" fill="#f0c1c3"/>
<rect x="247" y="240" width="7" height="30" fill="#e2ebfa"/>
<rect x="254" y="240" width="7" height="30" fill="#f3dddf"/>
<rect x="261" y="240" width="7" height="30" fill="#e7eefb"/>
<rect x="268" y="240" width="7" height="30" fill="#eeb6b8"/>
<rect x="275" y="240" width="7" height="30" fill="#f4dfe1"/>
<rect x="282" y="240" width="7" height="30" fill="#cddcf9"/>
<rect x="289" y="240" width="7" height="30" fill="#f0c2c3"/>
<rect x="296" y="240" width="7" height="30" fill="#f3d8da"/>
<rect x="303" y="240" width="7" height="30" fill="#f2d3d5"/>
<rect x="310" y="240" width="7" height="30" fill="#dae5fa"/>
<rect x="317" y="240" width="7" height="30" fill="#bfd2f7"/>
<rect x="324" y="240" width="7" height="30" fill="#f4e0e2"/>
<rect x="331" y="240" width="7" height="30" fill="#dde8fa"/>
<rect x="338" y="240" width="7" height="30" fill="#f0f5fb"/>
<rect x="345" y="240" width="7" height="30" fill="#f4e2e4"/>
<rect x="352" y="240" width="7" height="30" fill="#c6d7f8"/>
<rect x="359" y="240" width="7" height="30" fill="#c7d7f8"/>
<rect x="366" y="240" width="7" height="30" fill="#f5edef"/>
<rect x="373" y="240" width="7" height="30" fill="#e1eafa"/>
<rect x="380" y="240" width="7" height="30" fill="#f3d8d9"/>
<rect x="387" y="240" width="7" height="30" fill="#d7e3f9"/>
<rect x="394" y="240" width="7" height="30" fill="#f3d8d9"/>
<rect x="401" y="240" width="7" height="30" fill="#e2ebfa"/>
<rect x="408" y="240" width="7" height="30" fill="#d8e3f9"/>
<rect x="415" y="240" width="7" height="30" fill="#bbcff7"/>
<rect x="422" y="240" width="7" height="30" fill="#eeb6b8"/>
<rect x="429" y="240" width="7" height="30" fill="#f3dbdd"/>
<rect x="436" y="240" width="7" height="30" fill="#f1cbcd"/>
<rect x="443" y="240" width="7" height="30" fill="#f4e4e6"/>
<rect x="450" y="240" width="7" height="30" fill="#c5d6f8"/>
<rect x="457" y="240" width="7" height="30" fill="#cbdaf8"/>
<rect x="464" y="240" width="7" height="30" fill="#d7e3f9"/>
<rect x="471" y="240" width="7" height="30" fill="#dde8fa"/>
<rect x="478" y="240" width="7" height="30" fill="#cfddf9"/>
<rect x="485" y="240" width="7" height="30" fill="#b8ccf7"/>
<rect x="492" y="240" width="7" height="30" fill="#d1dff9"/>
<rect x="499" y="240" width="7" height="30" fill="#f1cfd0"/>
<rect x="506" y="240" width="7" height="30" fill="#f2d5d7"/>
<rect x="513" y="240" width="7" height="30" fill="#f5eaec"/>
<rect x="520" y="240" width="7" height="30" fill="#d5e1f9"/>
<rect x="527" y="240" width="7" height="30" fill="#f3dddf"/>
<rect x="534" y="240" width="7" height="30" fill="#c6d7f8"/>
<rect x="541" y="240" width="7" height="30" fill="#eeb3b4"/>
<rect x="548" y="240" width="7" height="30" fill="#b8cdf7"/>
<rect x="555" y="240" width="7" height="30" fill="#f3dee0"/>
<rect x="562" y="240" width="7" height="30" fill="#b6cbf7"/>
<rect x="569" y="240" width="7" height="30" fill="#dce7fa"/>
<rect x="576" y="240" width="7" height="30" fill="#cbdaf8"/>
<rect x="583" y="240" width="7" height="30" fill="#f0c1c3"/>
<rect x="590" y="240" width="7" height="30" fill="#c9d9f8"/>
<rect x="597" y="240" width="7" height="30" fill="#f4e4e6"/>
<rect x="604" y="240" width="7" height="30" fill="#bcd0f7"/>
<rect x="611" y="240" width="7" height="30" fill="#f4dfe1"/>
<rect x="618" y="240" width="7" height="30" fill="#f3dcde"/>
<rect x="625" y="240" width="7" height="30" fill="#d8e4f9"/>
<rect x="632" y="240" width="7" height="30" fill="#f0bfc1"/>
<rect x="639" y="240" width="7" height="30" fill="#f7f8fa"/>
<rect x="646" y="240" width="7" height="30" fill="#f3dddf"/>
<rect x="653" y="240" width="7" height="30" fill="#d0def9"/>
<rect x="660" y="240" width="7" height="30" fill="#f2d0d2"/>
<rect x="667" y="240" width="7" height="30" fill="#f4e5e7"/>
<rect x="674" y="240" width="7" height="30" fill="#dee8fa"/>
<rect x="681" y="240" width="7" height="30" fill="#f1cccd"/>
<rect x="688" y="240" width="7" height="30" fill="#e6eefb"/>
<rect x="695" y="240" width="7" height="30" fill="#d4e1f9"/>
<rect x="702" y="240" width="7" height="30" fill="#f0c3c5"/>
<rect x="709" y="240" width="7" height="30" fill="#f3dee0"/>
<rect x="716" y="240" width="7" height="30" fill="#f1c9ca"/>
<rect x="723" y="240" width="7" height="30" fill="#dee8fa"/>
<rect x="730" y="240" width="7" height="30" fill="#c7d8f8"/>
<rect x="737" y="240" width="7" height="30" fill="#d9e4fa"/>
<rect x="744" y="240" width="7" height="30" fill="#f0c4c6"/>
<rect x="751" y="240" width="7" height="30" fill="#eeb0b2"/>
<rect x="758" y="240" width="7" height="30" fill="#bcd0f7"/>
<rect x="765" y="240" width="7" height="30" fill="#f1cecf"/>
<rect x="772" y="240" width="7" height="30" fill="#f3dee0"/>
<rect x="779" y="240" width="7" height="30" fill="#bacef7"/>
<rect x="786" y="240" width="7" height="30" fill="#d6e2f9"/>
<rect x="793" y="240" width="7" height="30" fill="#f1cfd0"/>
<rect x="800" y="240" width="7" height="30" fill="#f3d8d9"/>
<rect x="807" y="240" width="7" height="30" fill="#f2d6d8"/>
<rect x="814" y="240" width="7" height="30" fill="#eeb1b3"/>
<rect x="821" y="240" width="7" height="30" fill="#f1c7c9"/>
<rect x="828" y="240" width="7" height="30" fill="#c2d4f8"/>
<rect x="835" y="240" width="7" height="30" fill="#b7ccf7"/>
<rect x="842" y="240" width="7" height="30" fill="#f2d0d2"/>
<rect x="849" y="240" width="7" height="30" fill="#aac2f6"/>
<rect x="856" y="240" width="7" height="30" fill="#c3d5f8"/>
<rect x="863" y="240" width="7" height="30" fill="#d9e4fa"/>
<rect x="870" y="240" width="7" height="30" fill="#f4e3e5"/>
<rect x="877" y="240" width="7" height="30" fill="#d6e3f9"/>
<rect x="884" y="240" width="7" height="30" fill="#f3dbdc"/>
<rect x="891" y="240" width="7" height="30" fill="#f6f1f3"/>
<rect x="898" y="240" width="7" height="30" fill="#cad9f8"/>
<rect x="905" y="240" width="7" height="30" fill="#edf3fb"/>
<rect x="912" y="240" width="7" height="30" fill="#ecf2fb"/>
<rect x="919" y="240" width="7" height="30" fill="#f2d3d5"/>
<rect x="926" y="240" width="7" height="30" fill="#f4e1e2"/>
<rect x="933" y="240" width="7" height="30" fill="#dde8fa"/>
<rect x="940" y="240" width="7" height="30" fill="#d0def9"/>
<rect x="947" y="240" width="7" height="30" fill="#ccdbf8"/>
<rect x="954" y="240" width="7" height="30" fill="#f5ecee"/>
<rect x="961" y="240" width="7" height="30" fill="#efbcbe"/>
<rect x="968" y="240" width="7" height="30" fill="#c8d8f8"/>
</svg>
