<svg xmlns="http://www.w3.org/2000/svg" width="1020" height="390" viewBox="0 0 1020 390">
<style>
text { font-family: Arial, Helvetica, sans-serif; fill: #172033; }
.small { font-size: 11px; }
.label { font-size: 12px; }
.title { font-size: 18px; font-weight: 700; }
.grid { stroke: #e2e8f0; stroke-width: 1; }
.axis { stroke: #9aa4b2; stroke-width: 1; }
.panel { fill: #f3f4f6; }
.tile { stroke: #ffffff; stroke-width: 1; }
.legend-title { font-size: 11px; font-weight: 700; }
</style>
<rect x="0" y="0" width="1020" height="390" fill="#ffffff"/>
<text x="28" y="34" class="title">Normalized VUS profile</text>
<rect x="70" y="62" width="850" height="250" fill="#f8fafc" stroke="#cbd5e1"/>
<line x1="70" y1="312.0" x2="920" y2="312.0" class="grid"/>
<text x="34" y="316.0" class="small">0%</text>
<line x1="70" y1="262.0" x2="920" y2="262.0" class="grid"/>
<text x="34" y="266.0" class="small">20%</text>
<line x1="70" y1="212.0" x2="920" y2="212.0" class="grid"/>
<text x="34" y="216.0" class="small">40%</text>
<line x1="70" y1="162.0" x2="920" y2="162.0" class="grid"/>
<text x="34" y="166.0" class="small">60%</text>
<line x1="70" y1="112.0" x2="920" y2="112.0" class="grid"/>
<text x="34" y="116.0" class="small">80%</text>
<line x1="70" y1="62.0" x2="920" y2="62.0" class="grid"/>
<text x="34" y="66.0" class="small">100%</text>
<polyline points="73.5,246.4 80.6,237.5 87.7,212.3 94.8,253.5 101.9,283.0 109.0,248.2 116.0,255.2 123.1,308.4 130.2,306.7 137.3,288.4 144.4,308.4 151.5,297.8 158.5,243.2 165.6,216.2 172.7,266.7 179.8,312.0 186.9,242.8 194.0,273.9 201.0,312.0 208.1,312.0 215.2,312.0 222.3,312.0 229.4,312.0 236.5,312.0 243.5,312.0 250.6,312.0 257.7,312.0 264.8,312.0 271.9,312.0 279.0,312.0 286.0,312.0 293.1,312.0 300.2,312.0 307.3,312.0 314.4,312.0 321.5,312.0 328.5,312.0 335.6,312.0 342.7,312.0 349.8,312.0 356.9,312.0 364.0,312.0 371.0,312.0 378.1,312.0 385.2,312.0 392.3,310.2 399.4,312.0 406.5,310.2 413.5,310.2 420.6,312.0 427.7,310.2 434.8,312.0 441.9,312.0 449.0,312.0 456.0,312.0 463.1,312.0 470.2,310.2 477.3,312.0 484.4,308.4 491.5,310.2 498.5,310.2 505.6,312.0 512.7,312.0 519.8,310.2 526.9,312.0 534.0,310.2 541.0,312.0 548.1,310.2 555.2,312.0 562.3,312.0 569.4,312.0 576.5,312.0 583.5,283.0 590.6,294.3 597.7,310.2 604.8,308.4 611.9,308.4 619.0,312.0 626.0,304.9 633.1,304.8 640.2,312.0 647.3,312.0 654.4,306.6 661.5,234.0 668.5,297.5 675.6,306.7 682.7,285.4 689.8,239.5 696.9,310.2 704.0,196.0 711.0,92.2 718.1,171.9 725.2,310.2 732.3,200.3 739.4,259.5 746.5,299.6 753.5,255.2 760.6,312.0 767.7,308.4 774.8,304.8 781.9,249.9 789.0,310.2 796.0,310.2 803.1,308.4 810.2,304.8 817.3,312.0 824.4,257.0 831.5,232.3 838.5,237.5 845.6,196.0 852.7,244.6 859.8,253.5 866.9,226.8 874.0,228.7 881.0,250.4 888.1,264.1 895.2,235.8 902.3,263.1 909.4,226.9 916.5,255.8" fill="none" stroke="#2563eb" stroke-width="2"/>
<polyline points="73.5,142.4 80.6,220.8 87.7,312.0 94.8,294.4 101.9,301.4 109.0,292.4 116.0,234.5 123.1,266.9 130.2,294.6 137.3,307.1 144.4,309.1 151.5,310.1 158.5,312.0 165.6,312.0 172.7,311.0 179.8,312.0 186.9,311.0 194.0,310.1 201.0,309.1 208.1,312.0 215.2,308.1 222.3,311.0 229.4,304.1 236.5,312.0 243.5,310.1 250.6,312.0 257.7,312.0 264.8,312.0 271.9,312.0 279.0,312.0 286.0,312.0 293.1,312.0 300.2,312.0 307.3,312.0 314.4,312.0 321.5,312.0 328.5,312.0 335.6,312.0 342.7,312.0 349.8,312.0 356.9,312.0 364.0,312.0 371.0,312.0 378.1,312.0 385.2,312.0 392.3,312.0 399.4,312.0 406.5,312.0 413.5,312.0 420.6,312.0 427.7,312.0 434.8,312.0 441.9,312.0 449.0,312.0 456.0,312.0 463.1,312.0 470.2,312.0 477.3,312.0 484.4,312.0 491.5,312.0 498.5,312.0 505.6,312.0 512.7,312.0 519.8,312.0 526.9,312.0 534.0,312.0 541.0,312.0 548.1,312.0 555.2,312.0 562.3,312.0 569.4,312.0 576.5,312.0 583.5,312.0 590.6,312.0 597.7,312.0 604.8,307.1 611.9,312.0 619.0,291.6 626.0,312.0 633.1,307.1 640.2,278.1 647.3,303.2 654.4,308.1 661.5,306.1 668.5,308.1 675.6,310.1 682.7,300.4 689.8,95.3 696.9,85.2 704.0,85.5 711.0,82.3 718.1,83.6 725.2,86.2 732.3,99.2 739.4,78.5 746.5,84.5 753.5,84.3 760.6,88.5 767.7,85.2 774.8,96.3 781.9,91.4 789.0,86.2 796.0,82.6 803.1,90.1 810.2,86.5 817.3,95.0 824.4,81.6 831.5,86.2 838.5,90.4 845.6,86.2 852.7,78.7 859.8,118.2 866.9,303.2 874.0,219.9 881.0,312.0 888.1,306.2 895.2,303.2 902.3,270.3 909.4,295.3 916.5,294.4" fill="none" stroke="#dc2626" stroke-width="2"/>
<line x1="70.0" y1="316" x2="70.0" y2="322" class="axis"/>
<text x="60.0" y="339" class="small">0%</text>
<line x1="282.5" y1="316" x2="282.5" y2="322" class="axis"/>
<text x="272.5" y="339" class="small">25%</text>
<line x1="495.0" y1="316" x2="495.0" y2="322" class="axis"/>
<text x="485.0" y="339" class="small">50%</text>
<line x1="707.5" y1="316" x2="707.5" y2="322" class="axis"/>
<text x="697.5" y="339" class="small">75%</text>
<line x1="920.0" y1="316" x2="920.0" y2="322" class="axis"/>
<text x="910.0" y="339" class="small">100%</text>
<line x1="785" y1="82" x2="807" y2="82" stroke="#2563eb" stroke-width="3"/>
<text x="815" y="86" class="small">BRCA1</text>
<line x1="785" y1="104" x2="807" y2="104" stroke="#dc2626" stroke-width="3"/>
<text x="815" y="108" class="small">BRCA2</text>
<text x="420" y="368" class="label">Relative CDS position</text>
</svg>
