<svg xmlns="http://www.w3.org/2000/svg" width="1020" height="390" viewBox="0 0 1020 390">
<style>
text { font-family: Arial, Helvetica, sans-serif; fill: #172033; }
.small { font-size: 11px; }
.label { font-size: 12px; }
.title { font-size: 18px; font-weight: 700; }
.grid { stroke: #e2e8f0; stroke-width: 1; }
.axis { stroke: #9aa4b2; stroke-width: 1; }
.panel { fill: #f3f4f6; }
.tile { stroke: #ffffff; stroke-width: 1; }
.legend-title { font-size: 11px; font-weight: 700; }
</style>
<rect x="0" y="0" width="1020" height="390" fill="#ffffff"/>
<text x="28" y="34" class="title">Normalized high SpliceAI profile</text>
<rect x="70" y="62" width="850" height="250" fill="#f8fafc" stroke="#cbd5e1"/>
<line x1="70" y1="312.0" x2="920" y2="312.0" class="grid"/>
<text x="34" y="316.0" class="small">0%</text>
<line x1="70" y1="262.0" x2="920" y2="262.0" class="grid"/>
<text x="34" y="266.0" class="small">20%</text>
<line x1="70" y1="212.0" x2="920" y2="212.0" class="grid"/>
<text x="34" y="216.0" class="small">40%</text>
<line x1="70" y1="162.0" x2="920" y2="162.0" class="grid"/>
<text x="34" y="166.0" class="small">60%</text>
<line x1="70" y1="112.0" x2="920" y2="112.0" class="grid"/>
<text x="34" y="116.0" class="small">80%</text>
<line x1="70" y1="62.0" x2="920" y2="62.0" class="grid"/>
<text x="34" y="66.0" class="small">100%</text>
<polyline points="73.5,303.1 80.6,297.8 87.7,306.6 94.8,269.4 101.9,228.7 109.0,242.8 116.0,253.5 123.1,312.0 130.2,310.2 137.3,288.4 144.4,308.4 151.5,297.8 158.5,277.6 165.6,271.2 172.7,277.6 179.8,312.0 186.9,276.6 194.0,308.4 201.0,312.0 208.1,312.0 215.2,312.0 222.3,312.0 229.4,312.0 236.5,312.0 243.5,312.0 250.6,312.0 257.7,312.0 264.8,312.0 271.9,312.0 279.0,312.0 286.0,312.0 293.1,312.0 300.2,312.0 307.3,312.0 314.4,312.0 321.5,312.0 328.5,312.0 335.6,312.0 342.7,312.0 349.8,312.0 356.9,312.0 364.0,312.0 371.0,312.0 378.1,312.0 385.2,312.0 392.3,310.2 399.4,312.0 406.5,310.2 413.5,310.2 420.6,312.0 427.7,310.2 434.8,312.0 441.9,312.0 449.0,312.0 456.0,312.0 463.1,312.0 470.2,312.0 477.3,312.0 484.4,310.2 491.5,310.2 498.5,310.2 505.6,312.0 512.7,312.0 519.8,310.2 526.9,312.0 534.0,312.0 541.0,312.0 548.1,312.0 555.2,312.0 562.3,312.0 569.4,312.0 576.5,312.0 583.5,299.3 590.6,306.7 597.7,312.0 604.8,308.4 611.9,310.2 619.0,312.0 626.0,310.2 633.1,310.2 640.2,312.0 647.3,312.0 654.4,312.0 661.5,287.2 668.5,310.2 675.6,308.4 682.7,301.4 689.8,268.5 696.9,308.4 704.0,284.8 711.0,310.2 718.1,312.0 725.2,310.2 732.3,212.7 739.4,299.3 746.5,310.2 753.5,278.3 760.6,312.0 767.7,306.7 774.8,310.2 781.9,294.3 789.0,312.0 796.0,310.2 803.1,306.7 810.2,302.9 817.3,306.7 824.4,304.9 831.5,284.8 838.5,241.1 845.6,304.8 852.7,303.1 859.8,308.4 866.9,312.0 874.0,306.7 881.0,304.8 888.1,312.0 895.2,294.3 902.3,301.1 909.4,312.0 916.5,312.0" fill="none" stroke="#2563eb" stroke-width="2"/>
<polyline points="73.5,303.3 80.6,303.2 87.7,311.0 94.8,304.1 101.9,304.2 109.0,294.4 116.0,281.9 123.1,291.4 130.2,302.3 137.3,308.1 144.4,310.1 151.5,310.1 158.5,312.0 165.6,311.0 172.7,311.0 179.8,312.0 186.9,312.0 194.0,310.1 201.0,312.0 208.1,312.0 215.2,309.1 222.3,311.0 229.4,307.1 236.5,311.0 243.5,312.0 250.6,312.0 257.7,312.0 264.8,312.0 271.9,312.0 279.0,312.0 286.0,312.0 293.1,312.0 300.2,312.0 307.3,312.0 314.4,312.0 321.5,312.0 328.5,312.0 335.6,312.0 342.7,312.0 349.8,312.0 356.9,312.0 364.0,312.0 371.0,312.0 378.1,312.0 385.2,312.0 392.3,312.0 399.4,312.0 406.5,312.0 413.5,312.0 420.6,312.0 427.7,312.0 434.8,312.0 441.9,312.0 449.0,312.0 456.0,312.0 463.1,312.0 470.2,312.0 477.3,312.0 484.4,312.0 491.5,312.0 498.5,312.0 505.6,312.0 512.7,312.0 519.8,312.0 526.9,312.0 534.0,312.0 541.0,312.0 548.1,312.0 555.2,312.0 562.3,312.0 569.4,312.0 576.5,312.0 583.5,312.0 590.6,312.0 597.7,312.0 604.8,309.1 611.9,312.0 619.0,302.3 626.0,312.0 633.1,308.1 640.2,296.5 647.3,303.2 654.4,308.1 661.5,309.1 668.5,309.1 675.6,312.0 682.7,303.3 689.8,275.7 696.9,309.1 704.0,296.3 711.0,281.0 718.1,294.4 725.2,305.2 732.3,298.3 739.4,311.0 746.5,311.0 753.5,311.0 760.6,302.2 767.7,292.6 774.8,304.1 781.9,306.1 789.0,305.2 796.0,293.4 803.1,311.0 810.2,302.2 817.3,233.5 824.4,239.4 831.5,311.0 838.5,310.1 845.6,312.0 852.7,311.0 859.8,305.2 866.9,308.1 874.0,268.4 881.0,312.0 888.1,307.1 895.2,312.0 902.3,294.6 909.4,310.1 916.5,312.0" fill="none" stroke="#dc2626" stroke-width="2"/>
<line x1="70.0" y1="316" x2="70.0" y2="322" class="axis"/>
<text x="60.0" y="339" class="small">0%</text>
<line x1="282.5" y1="316" x2="282.5" y2="322" class="axis"/>
<text x="272.5" y="339" class="small">25%</text>
<line x1="495.0" y1="316" x2="495.0" y2="322" class="axis"/>
<text x="485.0" y="339" class="small">50%</text>
<line x1="707.5" y1="316" x2="707.5" y2="322" class="axis"/>
<text x="697.5" y="339" class="small">75%</text>
<line x1="920.0" y1="316" x2="920.0" y2="322" class="axis"/>
<text x="910.0" y="339" class="small">100%</text>
<line x1="785" y1="82" x2="807" y2="82" stroke="#2563eb" stroke-width="3"/>
<text x="815" y="86" class="small">BRCA1</text>
<line x1="785" y1="104" x2="807" y2="104" stroke="#dc2626" stroke-width="3"/>
<text x="815" y="108" class="small">BRCA2</text>
<text x="420" y="368" class="label">Relative CDS position</text>
</svg>
