<svg xmlns="http://www.w3.org/2000/svg" width="1020" height="390" viewBox="0 0 1020 390">
<style>
text { font-family: Arial, Helvetica, sans-serif; fill: #172033; }
.small { font-size: 11px; }
.label { font-size: 12px; }
.title { font-size: 18px; font-weight: 700; }
.grid { stroke: #e2e8f0; stroke-width: 1; }
.axis { stroke: #9aa4b2; stroke-width: 1; }
.panel { fill: #f3f4f6; }
.tile { stroke: #ffffff; stroke-width: 1; }
.legend-title { font-size: 11px; font-weight: 700; }
</style>
<rect x="0" y="0" width="1020" height="390" fill="#ffffff"/>
<text x="28" y="34" class="title">Normalized pathogenic profile</text>
<rect x="70" y="62" width="850" height="250" fill="#f8fafc" stroke="#cbd5e1"/>
<line x1="70" y1="312.0" x2="920" y2="312.0" class="grid"/>
<text x="34" y="316.0" class="small">0%</text>
<line x1="70" y1="262.0" x2="920" y2="262.0" class="grid"/>
<text x="34" y="266.0" class="small">20%</text>
<line x1="70" y1="212.0" x2="920" y2="212.0" class="grid"/>
<text x="34" y="216.0" class="small">40%</text>
<line x1="70" y1="162.0" x2="920" y2="162.0" class="grid"/>
<text x="34" y="166.0" class="small">60%</text>
<line x1="70" y1="112.0" x2="920" y2="112.0" class="grid"/>
<text x="34" y="116.0" class="small">80%</text>
<line x1="70" y1="62.0" x2="920" y2="62.0" class="grid"/>
<text x="34" y="66.0" class="small">100%</text>
<polyline points="73.5,299.6 80.6,287.2 87.7,293.9 94.8,290.7 101.9,273.9 109.0,290.7 116.0,296.1 123.1,302.9 130.2,299.6 137.3,301.1 144.4,304.9 151.5,297.8 158.5,312.0 165.6,312.0 172.7,306.6 179.8,306.7 186.9,297.8 194.0,302.9 201.0,290.7 208.1,299.3 215.2,296.1 222.3,304.9 229.4,293.9 236.5,297.8 243.5,301.1 250.6,299.6 257.7,303.1 264.8,295.7 271.9,294.3 279.0,301.1 286.0,303.1 293.1,303.1 300.2,297.5 307.3,301.4 314.4,299.3 321.5,306.7 328.5,299.6 335.6,302.9 342.7,299.6 349.8,306.6 356.9,306.7 364.0,296.1 371.0,301.1 378.1,299.6 385.2,302.9 392.3,299.6 399.4,299.6 406.5,301.1 413.5,296.1 420.6,304.8 427.7,296.1 434.8,301.4 441.9,301.1 449.0,299.6 456.0,301.1 463.1,292.5 470.2,299.6 477.3,301.1 484.4,292.5 491.5,308.4 498.5,299.6 505.6,299.6 512.7,299.3 519.8,299.6 526.9,295.7 534.0,303.1 541.0,301.4 548.1,308.4 555.2,304.9 562.3,299.3 569.4,296.1 576.5,292.5 583.5,299.3 590.6,303.1 597.7,302.9 604.8,304.9 611.9,304.9 619.0,288.4 626.0,296.1 633.1,302.9 640.2,303.1 647.3,290.7 654.4,299.3 661.5,296.1 668.5,306.6 675.6,301.4 682.7,292.5 689.8,293.9 696.9,299.6 704.0,301.1 711.0,301.4 718.1,297.8 725.2,308.4 732.3,290.7 739.4,301.1 746.5,303.1 753.5,294.3 760.6,295.7 767.7,297.8 774.8,299.3 781.9,297.8 789.0,306.7 796.0,301.1 803.1,301.4 810.2,302.9 817.3,297.8 824.4,303.1 831.5,293.9 838.5,262.4 845.6,293.9 852.7,281.9 859.8,294.3 866.9,295.7 874.0,294.3 881.0,297.5 888.1,299.6 895.2,303.1 902.3,301.1 909.4,287.2 916.5,306.6" fill="none" stroke="#2563eb" stroke-width="2"/>
<polyline points="73.5,301.4 80.6,296.3 87.7,300.4 94.8,297.3 101.9,305.2 109.0,302.2 116.0,300.4 123.1,308.1 130.2,304.2 137.3,297.3 144.4,297.5 151.5,299.2 158.5,296.5 165.6,299.2 172.7,297.5 179.8,297.3 186.9,299.4 194.0,299.2 201.0,302.3 208.1,297.3 215.2,300.2 222.3,294.6 229.4,299.2 236.5,303.3 243.5,295.3 250.6,297.5 257.7,297.3 264.8,296.5 271.9,297.3 279.0,294.6 286.0,299.2 293.1,301.4 300.2,300.2 307.3,298.4 314.4,296.3 321.5,300.4 328.5,298.3 335.6,300.4 342.7,300.2 349.8,294.4 356.9,302.3 364.0,302.2 371.0,301.4 378.1,304.1 385.2,301.4 392.3,300.2 399.4,299.4 406.5,300.2 413.5,295.5 420.6,299.2 427.7,303.3 434.8,297.3 441.9,302.3 449.0,301.2 456.0,300.4 463.1,295.3 470.2,301.4 477.3,300.2 484.4,294.6 491.5,296.3 498.5,296.3 505.6,292.6 512.7,304.1 519.8,300.4 526.9,308.1 534.0,300.4 541.0,298.3 548.1,299.4 555.2,297.3 562.3,296.5 569.4,300.2 576.5,297.5 583.5,298.3 590.6,297.5 597.7,293.4 604.8,298.4 611.9,295.3 619.0,299.4 626.0,305.1 633.1,294.4 640.2,291.6 647.3,303.2 654.4,300.4 661.5,295.3 668.5,301.4 675.6,302.2 682.7,301.4 689.8,300.2 696.9,304.2 704.0,299.2 711.0,295.5 718.1,298.3 725.2,296.5 732.3,289.4 739.4,305.2 746.5,299.2 753.5,302.3 760.6,300.2 767.7,303.3 774.8,287.5 781.9,293.4 789.0,296.5 796.0,298.3 803.1,293.6 810.2,296.3 817.3,286.8 824.4,294.4 831.5,301.4 838.5,294.4 845.6,298.4 852.7,303.2 859.8,304.2 866.9,303.2 874.0,295.5 881.0,294.4 888.1,305.2 895.2,309.1 902.3,312.0 909.4,312.0 916.5,312.0" fill="none" stroke="#dc2626" stroke-width="2"/>
<line x1="70.0" y1="316" x2="70.0" y2="322" class="axis"/>
<text x="60.0" y="339" class="small">0%</text>
<line x1="282.5" y1="316" x2="282.5" y2="322" class="axis"/>
<text x="272.5" y="339" class="small">25%</text>
<line x1="495.0" y1="316" x2="495.0" y2="322" class="axis"/>
<text x="485.0" y="339" class="small">50%</text>
<line x1="707.5" y1="316" x2="707.5" y2="322" class="axis"/>
<text x="697.5" y="339" class="small">75%</text>
<line x1="920.0" y1="316" x2="920.0" y2="322" class="axis"/>
<text x="910.0" y="339" class="small">100%</text>
<line x1="785" y1="82" x2="807" y2="82" stroke="#2563eb" stroke-width="3"/>
<text x="815" y="86" class="small">BRCA1</text>
<line x1="785" y1="104" x2="807" y2="104" stroke="#dc2626" stroke-width="3"/>
<text x="815" y="108" class="small">BRCA2</text>
<text x="420" y="368" class="label">Relative CDS position</text>
</svg>
