<svg xmlns="http://www.w3.org/2000/svg" width="661" height="621" viewBox="0 0 661 621">
<style>
text { font-family: Arial, Helvetica, sans-serif; fill: #172033; }
.small { font-size: 11px; }
.label { font-size: 12px; }
.title { font-size: 18px; font-weight: 700; }
</style>
<rect x="0" y="0" width="661" height="621" fill="#ffffff"/>
<text x="28" y="34" class="title">Criteria co-occurrence heatmap all variants</text>
<text x="149" y="85" class="small" transform="rotate(-45 149 85)">BS1_Strong</text>
<text x="183" y="85" class="small" transform="rotate(-45 183 85)">BS1_Supporting</text>
<text x="217" y="85" class="small" transform="rotate(-45 217 85)">BS3</text>
<text x="251" y="85" class="small" transform="rotate(-45 251 85)">BP1</text>
<text x="285" y="85" class="small" transform="rotate(-45 285 85)">BP4</text>
<text x="319" y="85" class="small" transform="rotate(-45 319 85)">BP5</text>
<text x="353" y="85" class="small" transform="rotate(-45 353 85)">BP7</text>
<text x="387" y="85" class="small" transform="rotate(-45 387 85)">PM2_Supporting</text>
<text x="421" y="85" class="small" transform="rotate(-45 421 85)">PM5_PTC</text>
<text x="455" y="85" class="small" transform="rotate(-45 455 85)">PP3</text>
<text x="489" y="85" class="small" transform="rotate(-45 489 85)">PP4</text>
<text x="523" y="85" class="small" transform="rotate(-45 523 85)">PS1</text>
<text x="557" y="85" class="small" transform="rotate(-45 557 85)">PS3</text>
<text x="591" y="85" class="small" transform="rotate(-45 591 85)">PVS1</text>
<text x="20" y="116" class="small">BS1_Strong</text>
<rect x="145" y="95" width="32" height="32" fill="#e5e7eb"/>
<rect x="179" y="95" width="32" height="32" fill="#f7fafc"/>
<rect x="213" y="95" width="32" height="32" fill="#f1f6fc"/>
<text x="217" y="115" class="small">23</text>
<rect x="247" y="95" width="32" height="32" fill="#ecf2fb"/>
<text x="251" y="115" class="small">86</text>
<rect x="281" y="95" width="32" height="32" fill="#f5f9fc"/>
<text x="285" y="115" class="small">2</text>
<rect x="315" y="95" width="32" height="32" fill="#f0f5fb"/>
<text x="319" y="115" class="small">40</text>
<rect x="349" y="95" width="32" height="32" fill="#f5f9fc"/>
<text x="353" y="115" class="small">2</text>
<rect x="383" y="95" width="32" height="32" fill="#f7fafc"/>
<rect x="417" y="95" width="32" height="32" fill="#f7fafc"/>
<rect x="451" y="95" width="32" height="32" fill="#f7fafc"/>
<rect x="485" y="95" width="32" height="32" fill="#f7fafc"/>
<rect x="519" y="95" width="32" height="32" fill="#f7fafc"/>
<rect x="553" y="95" width="32" height="32" fill="#f7fafc"/>
<rect x="587" y="95" width="32" height="32" fill="#f7fafc"/>
<text x="20" y="150" class="small">BS1_Supporting</text>
<rect x="145" y="129" width="32" height="32" fill="#f7fafc"/>
<rect x="179" y="129" width="32" height="32" fill="#e5e7eb"/>
<rect x="213" y="129" width="32" height="32" fill="#f1f5fb"/>
<text x="217" y="149" class="small">30</text>
<rect x="247" y="129" width="32" height="32" fill="#ebf1fb"/>
<text x="251" y="149" class="small">104</text>
<rect x="281" y="129" width="32" height="32" fill="#f4f8fc"/>
<text x="285" y="149" class="small">6</text>
<rect x="315" y="129" width="32" height="32" fill="#f0f5fb"/>
<text x="319" y="149" class="small">31</text>
<rect x="349" y="129" width="32" height="32" fill="#f4f8fc"/>
<text x="353" y="149" class="small">6</text>
<rect x="383" y="129" width="32" height="32" fill="#f7fafc"/>
<rect x="417" y="129" width="32" height="32" fill="#f6f9fc"/>
<text x="421" y="149" class="small">1</text>
<rect x="451" y="129" width="32" height="32" fill="#f4f8fc"/>
<text x="455" y="149" class="small">5</text>
<rect x="485" y="129" width="32" height="32" fill="#f7fafc"/>
<rect x="519" y="129" width="32" height="32" fill="#f7fafc"/>
<rect x="553" y="129" width="32" height="32" fill="#f7fafc"/>
<rect x="587" y="129" width="32" height="32" fill="#f6f9fc"/>
<text x="591" y="149" class="small">1</text>
<text x="20" y="184" class="small">BS3</text>
<rect x="145" y="163" width="32" height="32" fill="#f1f6fc"/>
<text x="149" y="183" class="small">23</text>
<rect x="179" y="163" width="32" height="32" fill="#f1f5fb"/>
<text x="183" y="183" class="small">30</text>
<rect x="213" y="163" width="32" height="32" fill="#e5e7eb"/>
<rect x="247" y="163" width="32" height="32" fill="#dee8fa"/>
<text x="251" y="183" class="small">452</text>
<rect x="281" y="163" width="32" height="32" fill="#f7fafc"/>
<rect x="315" y="163" width="32" height="32" fill="#e9f0fb"/>
<text x="319" y="183" class="small">145</text>
<rect x="349" y="163" width="32" height="32" fill="#f7fafc"/>
<rect x="383" y="163" width="32" height="32" fill="#c1d3f8"/>
<text x="387" y="183" class="small">2114</text>
<rect x="417" y="163" width="32" height="32" fill="#f7fafc"/>
<rect x="451" y="163" width="32" height="32" fill="#eaf0fb"/>
<text x="455" y="183" class="small">128</text>
<rect x="485" y="163" width="32" height="32" fill="#f7fafc"/>
<rect x="519" y="163" width="32" height="32" fill="#f6f9fc"/>
<text x="523" y="183" class="small">1</text>
<rect x="553" y="163" width="32" height="32" fill="#f7fafc"/>
<rect x="587" y="163" width="32" height="32" fill="#f6f9fc"/>
<text x="591" y="183" class="small">1</text>
<text x="20" y="218" class="small">BP1</text>
<rect x="145" y="197" width="32" height="32" fill="#ecf2fb"/>
<text x="149" y="217" class="small">86</text>
<rect x="179" y="197" width="32" height="32" fill="#ebf1fb"/>
<text x="183" y="217" class="small">104</text>
<rect x="213" y="197" width="32" height="32" fill="#dee8fa"/>
<text x="217" y="217" class="small">452</text>
<rect x="247" y="197" width="32" height="32" fill="#e5e7eb"/>
<rect x="281" y="197" width="32" height="32" fill="#f7fafc"/>
<rect x="315" y="197" width="32" height="32" fill="#dfe9fa"/>
<text x="319" y="217" class="small">415</text>
<rect x="349" y="197" width="32" height="32" fill="#f7fafc"/>
<rect x="383" y="197" width="32" height="32" fill="#2563eb"/>
<text x="387" y="217" class="small">31463</text>
<rect x="417" y="197" width="32" height="32" fill="#f7fafc"/>
<rect x="451" y="197" width="32" height="32" fill="#f7fafc"/>
<rect x="485" y="197" width="32" height="32" fill="#f7fafc"/>
<rect x="519" y="197" width="32" height="32" fill="#f7fafc"/>
<rect x="553" y="197" width="32" height="32" fill="#f7fafc"/>
<rect x="587" y="197" width="32" height="32" fill="#f7fafc"/>
<text x="20" y="252" class="small">BP4</text>
<rect x="145" y="231" width="32" height="32" fill="#f5f9fc"/>
<text x="149" y="251" class="small">2</text>
<rect x="179" y="231" width="32" height="32" fill="#f4f8fc"/>
<text x="183" y="251" class="small">6</text>
<rect x="213" y="231" width="32" height="32" fill="#f7fafc"/>
<rect x="247" y="231" width="32" height="32" fill="#f7fafc"/>
<rect x="281" y="231" width="32" height="32" fill="#e5e7eb"/>
<rect x="315" y="231" width="32" height="32" fill="#f6f9fc"/>
<text x="319" y="251" class="small">1</text>
<rect x="349" y="231" width="32" height="32" fill="#cbdaf8"/>
<text x="353" y="251" class="small">1404</text>
<rect x="383" y="231" width="32" height="32" fill="#cddcf9"/>
<text x="387" y="251" class="small">1276</text>
<rect x="417" y="231" width="32" height="32" fill="#f7fafc"/>
<rect x="451" y="231" width="32" height="32" fill="#f7fafc"/>
<rect x="485" y="231" width="32" height="32" fill="#f7fafc"/>
<rect x="519" y="231" width="32" height="32" fill="#f7fafc"/>
<rect x="553" y="231" width="32" height="32" fill="#f7fafc"/>
<rect x="587" y="231" width="32" height="32" fill="#f7fafc"/>
<text x="20" y="286" class="small">BP5</text>
<rect x="145" y="265" width="32" height="32" fill="#f0f5fb"/>
<text x="149" y="285" class="small">40</text>
<rect x="179" y="265" width="32" height="32" fill="#f0f5fb"/>
<text x="183" y="285" class="small">31</text>
<rect x="213" y="265" width="32" height="32" fill="#e9f0fb"/>
<text x="217" y="285" class="small">145</text>
<rect x="247" y="265" width="32" height="32" fill="#dfe9fa"/>
<text x="251" y="285" class="small">415</text>
<rect x="281" y="265" width="32" height="32" fill="#f6f9fc"/>
<text x="285" y="285" class="small">1</text>
<rect x="315" y="265" width="32" height="32" fill="#e5e7eb"/>
<rect x="349" y="265" width="32" height="32" fill="#f6f9fc"/>
<text x="353" y="285" class="small">1</text>
<rect x="383" y="265" width="32" height="32" fill="#e9f0fb"/>
<text x="387" y="285" class="small">144</text>
<rect x="417" y="265" width="32" height="32" fill="#f7fafc"/>
<rect x="451" y="265" width="32" height="32" fill="#f4f8fc"/>
<text x="455" y="285" class="small">8</text>
<rect x="485" y="265" width="32" height="32" fill="#f7fafc"/>
<rect x="519" y="265" width="32" height="32" fill="#f7fafc"/>
<rect x="553" y="265" width="32" height="32" fill="#f5f9fc"/>
<text x="557" y="285" class="small">3</text>
<rect x="587" y="265" width="32" height="32" fill="#f7fafc"/>
<text x="20" y="320" class="small">BP7</text>
<rect x="145" y="299" width="32" height="32" fill="#f5f9fc"/>
<text x="149" y="319" class="small">2</text>
<rect x="179" y="299" width="32" height="32" fill="#f4f8fc"/>
<text x="183" y="319" class="small">6</text>
<rect x="213" y="299" width="32" height="32" fill="#f7fafc"/>
<rect x="247" y="299" width="32" height="32" fill="#f7fafc"/>
<rect x="281" y="299" width="32" height="32" fill="#cbdaf8"/>
<text x="285" y="319" class="small">1404</text>
<rect x="315" y="299" width="32" height="32" fill="#f6f9fc"/>
<text x="319" y="319" class="small">1</text>
<rect x="349" y="299" width="32" height="32" fill="#e5e7eb"/>
<rect x="383" y="299" width="32" height="32" fill="#cddcf9"/>
<text x="387" y="319" class="small">1276</text>
<rect x="417" y="299" width="32" height="32" fill="#f7fafc"/>
<rect x="451" y="299" width="32" height="32" fill="#f7fafc"/>
<rect x="485" y="299" width="32" height="32" fill="#f7fafc"/>
<rect x="519" y="299" width="32" height="32" fill="#f7fafc"/>
<rect x="553" y="299" width="32" height="32" fill="#f7fafc"/>
<rect x="587" y="299" width="32" height="32" fill="#f7fafc"/>
<text x="20" y="354" class="small">PM2_Supporting</text>
<rect x="145" y="333" width="32" height="32" fill="#f7fafc"/>
<rect x="179" y="333" width="32" height="32" fill="#f7fafc"/>
<rect x="213" y="333" width="32" height="32" fill="#c1d3f8"/>
<text x="217" y="353" class="small">2114</text>
<rect x="247" y="333" width="32" height="32" fill="#2563eb"/>
<text x="251" y="353" class="small">31463</text>
<rect x="281" y="333" width="32" height="32" fill="#cddcf9"/>
<text x="285" y="353" class="small">1276</text>
<rect x="315" y="333" width="32" height="32" fill="#e9f0fb"/>
<text x="319" y="353" class="small">144</text>
<rect x="349" y="333" width="32" height="32" fill="#cddcf9"/>
<text x="353" y="353" class="small">1276</text>
<rect x="383" y="333" width="32" height="32" fill="#e5e7eb"/>
<rect x="417" y="333" width="32" height="32" fill="#c0d3f8"/>
<text x="421" y="353" class="small">2129</text>
<rect x="451" y="333" width="32" height="32" fill="#d2dff9"/>
<text x="455" y="353" class="small">984</text>
<rect x="485" y="333" width="32" height="32" fill="#eff4fb"/>
<text x="489" y="353" class="small">45</text>
<rect x="519" y="333" width="32" height="32" fill="#f4f8fc"/>
<text x="523" y="353" class="small">7</text>
<rect x="553" y="333" width="32" height="32" fill="#d9e4fa"/>
<text x="557" y="353" class="small">645</text>
<rect x="587" y="333" width="32" height="32" fill="#bfd2f7"/>
<text x="591" y="353" class="small">2213</text>
<text x="20" y="388" class="small">PM5_PTC</text>
<rect x="145" y="367" width="32" height="32" fill="#f7fafc"/>
<rect x="179" y="367" width="32" height="32" fill="#f6f9fc"/>
<text x="183" y="387" class="small">1</text>
<rect x="213" y="367" width="32" height="32" fill="#f7fafc"/>
<rect x="247" y="367" width="32" height="32" fill="#f7fafc"/>
<rect x="281" y="367" width="32" height="32" fill="#f7fafc"/>
<rect x="315" y="367" width="32" height="32" fill="#f7fafc"/>
<rect x="349" y="367" width="32" height="32" fill="#f7fafc"/>
<rect x="383" y="367" width="32" height="32" fill="#c0d3f8"/>
<text x="387" y="387" class="small">2129</text>
<rect x="417" y="367" width="32" height="32" fill="#e5e7eb"/>
<rect x="451" y="367" width="32" height="32" fill="#f7fafc"/>
<rect x="485" y="367" width="32" height="32" fill="#f7fafc"/>
<rect x="519" y="367" width="32" height="32" fill="#f7fafc"/>
<rect x="553" y="367" width="32" height="32" fill="#eaf0fb"/>
<text x="557" y="387" class="small">130</text>
<rect x="587" y="367" width="32" height="32" fill="#bfd2f7"/>
<text x="591" y="387" class="small">2241</text>
<text x="20" y="422" class="small">PP3</text>
<rect x="145" y="401" width="32" height="32" fill="#f7fafc"/>
<rect x="179" y="401" width="32" height="32" fill="#f4f8fc"/>
<text x="183" y="421" class="small">5</text>
<rect x="213" y="401" width="32" height="32" fill="#eaf0fb"/>
<text x="217" y="421" class="small">128</text>
<rect x="247" y="401" width="32" height="32" fill="#f7fafc"/>
<rect x="281" y="401" width="32" height="32" fill="#f7fafc"/>
<rect x="315" y="401" width="32" height="32" fill="#f4f8fc"/>
<text x="319" y="421" class="small">8</text>
<rect x="349" y="401" width="32" height="32" fill="#f7fafc"/>
<rect x="383" y="401" width="32" height="32" fill="#d2dff9"/>
<text x="387" y="421" class="small">984</text>
<rect x="417" y="401" width="32" height="32" fill="#f7fafc"/>
<rect x="451" y="401" width="32" height="32" fill="#e5e7eb"/>
<rect x="485" y="401" width="32" height="32" fill="#f2f6fc"/>
<text x="489" y="421" class="small">17</text>
<rect x="519" y="401" width="32" height="32" fill="#f7fafc"/>
<rect x="553" y="401" width="32" height="32" fill="#edf3fb"/>
<text x="557" y="421" class="small">76</text>
<rect x="587" y="401" width="32" height="32" fill="#f7fafc"/>
<text x="20" y="456" class="small">PP4</text>
<rect x="145" y="435" width="32" height="32" fill="#f7fafc"/>
<rect x="179" y="435" width="32" height="32" fill="#f7fafc"/>
<rect x="213" y="435" width="32" height="32" fill="#f7fafc"/>
<rect x="247" y="435" width="32" height="32" fill="#f7fafc"/>
<rect x="281" y="435" width="32" height="32" fill="#f7fafc"/>
<rect x="315" y="435" width="32" height="32" fill="#f7fafc"/>
<rect x="349" y="435" width="32" height="32" fill="#f7fafc"/>
<rect x="383" y="435" width="32" height="32" fill="#eff4fb"/>
<text x="387" y="455" class="small">45</text>
<rect x="417" y="435" width="32" height="32" fill="#f7fafc"/>
<rect x="451" y="435" width="32" height="32" fill="#f2f6fc"/>
<text x="455" y="455" class="small">17</text>
<rect x="485" y="435" width="32" height="32" fill="#e5e7eb"/>
<rect x="519" y="435" width="32" height="32" fill="#f7fafc"/>
<rect x="553" y="435" width="32" height="32" fill="#eff4fb"/>
<text x="557" y="455" class="small">44</text>
<rect x="587" y="435" width="32" height="32" fill="#f7fafc"/>
<text x="20" y="490" class="small">PS1</text>
<rect x="145" y="469" width="32" height="32" fill="#f7fafc"/>
<rect x="179" y="469" width="32" height="32" fill="#f7fafc"/>
<rect x="213" y="469" width="32" height="32" fill="#f6f9fc"/>
<text x="217" y="489" class="small">1</text>
<rect x="247" y="469" width="32" height="32" fill="#f7fafc"/>
<rect x="281" y="469" width="32" height="32" fill="#f7fafc"/>
<rect x="315" y="469" width="32" height="32" fill="#f7fafc"/>
<rect x="349" y="469" width="32" height="32" fill="#f7fafc"/>
<rect x="383" y="469" width="32" height="32" fill="#f4f8fc"/>
<text x="387" y="489" class="small">7</text>
<rect x="417" y="469" width="32" height="32" fill="#f7fafc"/>
<rect x="451" y="469" width="32" height="32" fill="#f7fafc"/>
<rect x="485" y="469" width="32" height="32" fill="#f7fafc"/>
<rect x="519" y="469" width="32" height="32" fill="#e5e7eb"/>
<rect x="553" y="469" width="32" height="32" fill="#f4f8fc"/>
<text x="557" y="489" class="small">6</text>
<rect x="587" y="469" width="32" height="32" fill="#f7fafc"/>
<text x="20" y="524" class="small">PS3</text>
<rect x="145" y="503" width="32" height="32" fill="#f7fafc"/>
<rect x="179" y="503" width="32" height="32" fill="#f7fafc"/>
<rect x="213" y="503" width="32" height="32" fill="#f7fafc"/>
<rect x="247" y="503" width="32" height="32" fill="#f7fafc"/>
<rect x="281" y="503" width="32" height="32" fill="#f7fafc"/>
<rect x="315" y="503" width="32" height="32" fill="#f5f9fc"/>
<text x="319" y="523" class="small">3</text>
<rect x="349" y="503" width="32" height="32" fill="#f7fafc"/>
<rect x="383" y="503" width="32" height="32" fill="#d9e4fa"/>
<text x="387" y="523" class="small">645</text>
<rect x="417" y="503" width="32" height="32" fill="#eaf0fb"/>
<text x="421" y="523" class="small">130</text>
<rect x="451" y="503" width="32" height="32" fill="#edf3fb"/>
<text x="455" y="523" class="small">76</text>
<rect x="485" y="503" width="32" height="32" fill="#eff4fb"/>
<text x="489" y="523" class="small">44</text>
<rect x="519" y="503" width="32" height="32" fill="#f4f8fc"/>
<text x="523" y="523" class="small">6</text>
<rect x="553" y="503" width="32" height="32" fill="#e5e7eb"/>
<rect x="587" y="503" width="32" height="32" fill="#e9f0fb"/>
<text x="591" y="523" class="small">147</text>
<text x="20" y="558" class="small">PVS1</text>
<rect x="145" y="537" width="32" height="32" fill="#f7fafc"/>
<rect x="179" y="537" width="32" height="32" fill="#f6f9fc"/>
<text x="183" y="557" class="small">1</text>
<rect x="213" y="537" width="32" height="32" fill="#f6f9fc"/>
<text x="217" y="557" class="small">1</text>
<rect x="247" y="537" width="32" height="32" fill="#f7fafc"/>
<rect x="281" y="537" width="32" height="32" fill="#f7fafc"/>
<rect x="315" y="537" width="32" height="32" fill="#f7fafc"/>
<rect x="349" y="537" width="32" height="32" fill="#f7fafc"/>
<rect x="383" y="537" width="32" height="32" fill="#bfd2f7"/>
<text x="387" y="557" class="small">2213</text>
<rect x="417" y="537" width="32" height="32" fill="#bfd2f7"/>
<text x="421" y="557" class="small">2241</text>
<rect x="451" y="537" width="32" height="32" fill="#f7fafc"/>
<rect x="485" y="537" width="32" height="32" fill="#f7fafc"/>
<rect x="519" y="537" width="32" height="32" fill="#f7fafc"/>
<rect x="553" y="537" width="32" height="32" fill="#e9f0fb"/>
<text x="557" y="557" class="small">147</text>
<rect x="587" y="537" width="32" height="32" fill="#e5e7eb"/>
</svg>
