<svg xmlns="http://www.w3.org/2000/svg" width="1180" height="650" viewBox="0 0 1180 650">
<style>
text { font-family: Arial, Helvetica, sans-serif; fill: #172033; }
.small { font-size: 11px; }
.label { font-size: 12px; }
.title { font-size: 18px; font-weight: 700; }
</style>
<rect x="0" y="0" width="1180" height="650" fill="#ffffff"/>
<text x="28" y="34" class="title">Top pathogenic-dominant criterion combinations</text>
<text x="24" y="76" class="small">PM2_Supporting+PM5_PTC+PVS1</text>
<rect x="430" y="60" width="620.0" height="22" fill="#7c3aed"/>
<text x="1058.0" y="76" class="small">n=2010, VUS=0.00%, P=100.00%</text>
<text x="24" y="107" class="small">PM2_Supporting+PM5_PTC+PS3+PVS1</text>
<rect x="430" y="91" width="36.70646766169154" height="22" fill="#7c3aed"/>
<text x="474.70646766169153" y="107" class="small">n=119, VUS=0.00%, P=100.00%</text>
<text x="24" y="138" class="small">PM5_PTC+PVS1</text>
<rect x="430" y="122" width="30.845771144278608" height="22" fill="#7c3aed"/>
<text x="468.8457711442786" y="138" class="small">n=100, VUS=0.00%, P=100.00%</text>
<text x="24" y="169" class="small">PM2_Supporting+PVS1</text>
<rect x="430" y="153" width="20.975124378109452" height="22" fill="#7c3aed"/>
<text x="458.97512437810946" y="169" class="small">n=68, VUS=0.00%, P=100.00%</text>
<text x="24" y="200" class="small">PM2_Supporting+PP3+PS3</text>
<rect x="430" y="184" width="18.81592039800995" height="22" fill="#7c3aed"/>
<text x="456.81592039800995" y="200" class="small">n=61, VUS=0.00%, P=100.00%</text>
<text x="24" y="231" class="small">PM2_Supporting+PS3+PVS1</text>
<rect x="430" y="215" width="4.626865671641791" height="22" fill="#7c3aed"/>
<text x="442.6268656716418" y="231" class="small">n=15, VUS=0.00%, P=100.00%</text>
<text x="24" y="262" class="small">PM5_PTC+PS3+PVS1</text>
<rect x="430" y="246" width="3.3930348258706466" height="22" fill="#7c3aed"/>
<text x="441.39303482587064" y="262" class="small">n=11, VUS=0.00%, P=100.00%</text>
<text x="24" y="293" class="small">PM2_Supporting+PP3+PP4+PS3</text>
<rect x="430" y="277" width="1.5422885572139304" height="22" fill="#7c3aed"/>
<text x="439.5422885572139" y="293" class="small">n=5, VUS=0.00%, P=100.00%</text>
<text x="24" y="324" class="small">PM2_Supporting+PP4+PS3</text>
<rect x="430" y="308" width="9.253731343283581" height="22" fill="#7c3aed"/>
<text x="447.25373134328356" y="324" class="small">n=30, VUS=10.00%, P=90.00%</text>
<text x="24" y="355" class="small">PP4+PS3</text>
<rect x="430" y="339" width="1.5422885572139304" height="22" fill="#7c3aed"/>
<text x="439.5422885572139" y="355" class="small">n=5, VUS=20.00%, P=80.00%</text>
</svg>
