<svg xmlns="http://www.w3.org/2000/svg" width="1120" height="620" viewBox="0 0 1120 620">
<style>
text { font-family: Arial, Helvetica, sans-serif; fill: #172033; }
.small { font-size: 11px; }
.label { font-size: 12px; }
.title { font-size: 18px; font-weight: 700; }
.grid { stroke: #e2e8f0; stroke-width: 1; }
</style>
<rect x="0" y="0" width="1120" height="620" fill="#ffffff"/>
<text x="28" y="34" class="title">Boundary-distance SpliceAI rate heatmap</text>
<text x="214" y="60" class="small">0</text>
<text x="302" y="60" class="small">1-2</text>
<text x="390" y="60" class="small">3-5</text>
<text x="478" y="60" class="small">6-10</text>
<text x="566" y="60" class="small">11-20</text>
<text x="654" y="60" class="small">21-50</text>
<text x="742" y="60" class="small">51-100</text>
<text x="830" y="60" class="small">&gt;100</text>
<text x="20" y="88" class="small">BRCA1 acceptor_like benign</text>
<rect x="210" y="70" width="86" height="25" fill="#d5c5f8"/>
<text x="215" y="87" class="small">7.7</text>
<rect x="298" y="70" width="86" height="25" fill="#dacdf8"/>
<text x="303" y="87" class="small">5.5</text>
<rect x="386" y="70" width="86" height="25" fill="#e1d8f9"/>
<text x="391" y="87" class="small">3.1</text>
<rect x="474" y="70" width="86" height="25" fill="#efedfb"/>
<text x="479" y="87" class="small">0.5</text>
<rect x="562" y="70" width="86" height="25" fill="#e5defa"/>
<text x="567" y="87" class="small">2.1</text>
<rect x="650" y="70" width="86" height="25" fill="#e2d9f9"/>
<text x="655" y="87" class="small">3.0</text>
<rect x="738" y="70" width="86" height="25" fill="#f7fafc"/>
<rect x="826" y="70" width="86" height="25" fill="#f7fafc"/>
<text x="20" y="115" class="small">BRCA1 acceptor_like vus</text>
<rect x="210" y="97" width="86" height="25" fill="#a275f2"/>
<text x="215" y="114" class="small">48.3</text>
<rect x="298" y="97" width="86" height="25" fill="#9d6df1"/>
<text x="303" y="114" class="small">53.7</text>
<rect x="386" y="97" width="86" height="25" fill="#b898f4"/>
<text x="391" y="114" class="small">25.9</text>
<rect x="474" y="97" width="86" height="25" fill="#bc9ef5"/>
<text x="479" y="114" class="small">22.8</text>
<rect x="562" y="97" width="86" height="25" fill="#bda0f5"/>
<text x="567" y="114" class="small">21.9</text>
<rect x="650" y="97" width="86" height="25" fill="#d5c5f8"/>
<text x="655" y="114" class="small">7.7</text>
<rect x="738" y="97" width="86" height="25" fill="#e3dbfa"/>
<text x="743" y="114" class="small">2.6</text>
<rect x="826" y="97" width="86" height="25" fill="#b18df4"/>
<text x="831" y="114" class="small">31.9</text>
<text x="20" y="142" class="small">BRCA1 acceptor_like pathogenic</text>
<rect x="210" y="124" width="86" height="25" fill="#9662f0"/>
<text x="215" y="141" class="small">62.5</text>
<rect x="298" y="124" width="86" height="25" fill="#a87ef2"/>
<text x="303" y="141" class="small">41.7</text>
<rect x="386" y="124" width="86" height="25" fill="#935df0"/>
<text x="391" y="141" class="small">66.7</text>
<rect x="474" y="124" width="86" height="25" fill="#b08bf3"/>
<text x="479" y="141" class="small">33.3</text>
<rect x="562" y="124" width="86" height="25" fill="#bea1f5"/>
<text x="567" y="141" class="small">21.4</text>
<rect x="650" y="124" width="86" height="25" fill="#ba9bf5"/>
<text x="655" y="141" class="small">24.6</text>
<rect x="738" y="124" width="86" height="25" fill="#daccf8"/>
<text x="743" y="141" class="small">5.7</text>
<rect x="826" y="124" width="86" height="25" fill="#e9e5fa"/>
<text x="831" y="141" class="small">1.2</text>
<text x="20" y="169" class="small">BRCA1 donor_like benign</text>
<rect x="210" y="151" width="86" height="25" fill="#c3a9f6"/>
<text x="215" y="168" class="small">17.6</text>
<rect x="298" y="151" width="86" height="25" fill="#d9ccf8"/>
<text x="303" y="168" class="small">5.8</text>
<rect x="386" y="151" width="86" height="25" fill="#f7fafc"/>
<rect x="474" y="151" width="86" height="25" fill="#daccf8"/>
<text x="479" y="168" class="small">5.6</text>
<rect x="562" y="151" width="86" height="25" fill="#daccf8"/>
<text x="567" y="168" class="small">5.7</text>
<rect x="650" y="151" width="86" height="25" fill="#e2d9f9"/>
<text x="655" y="168" class="small">2.9</text>
<rect x="738" y="151" width="86" height="25" fill="#edebfb"/>
<text x="743" y="168" class="small">0.6</text>
<rect x="826" y="151" width="86" height="25" fill="#f7fafc"/>
<text x="20" y="196" class="small">BRCA1 donor_like vus</text>
<rect x="210" y="178" width="86" height="25" fill="#9059ef"/>
<text x="215" y="195" class="small">70.0</text>
<rect x="298" y="178" width="86" height="25" fill="#a87ff2"/>
<text x="303" y="195" class="small">41.0</text>
<rect x="386" y="178" width="86" height="25" fill="#bfa3f5"/>
<text x="391" y="195" class="small">20.4</text>
<rect x="474" y="178" width="86" height="25" fill="#dcd0f9"/>
<text x="479" y="195" class="small">4.8</text>
<rect x="562" y="178" width="86" height="25" fill="#c4aaf6"/>
<text x="567" y="195" class="small">17.3</text>
<rect x="650" y="178" width="86" height="25" fill="#cdb9f7"/>
<text x="655" y="195" class="small">11.6</text>
<rect x="738" y="178" width="86" height="25" fill="#bda0f5"/>
<text x="743" y="195" class="small">21.9</text>
<rect x="826" y="178" width="86" height="25" fill="#b08bf3"/>
<text x="831" y="195" class="small">33.6</text>
<text x="20" y="223" class="small">BRCA1 donor_like pathogenic</text>
<rect x="210" y="205" width="86" height="25" fill="#7c3aed"/>
<text x="215" y="222" class="small">100.0</text>
<rect x="298" y="205" width="86" height="25" fill="#9764f0"/>
<text x="303" y="222" class="small">61.1</text>
<rect x="386" y="205" width="86" height="25" fill="#c3a8f6"/>
<text x="391" y="222" class="small">18.2</text>
<rect x="474" y="205" width="86" height="25" fill="#c1a6f5"/>
<text x="479" y="222" class="small">19.1</text>
<rect x="562" y="205" width="86" height="25" fill="#af8af3"/>
<text x="567" y="222" class="small">34.2</text>
<rect x="650" y="205" width="86" height="25" fill="#aa82f3"/>
<text x="655" y="222" class="small">39.2</text>
<rect x="738" y="205" width="86" height="25" fill="#dacdf9"/>
<text x="743" y="222" class="small">5.4</text>
<rect x="826" y="205" width="86" height="25" fill="#e7e1fa"/>
<text x="831" y="222" class="small">1.7</text>
<text x="20" y="250" class="small">BRCA2 acceptor_like benign</text>
<rect x="210" y="232" width="86" height="25" fill="#e0d6f9"/>
<text x="215" y="249" class="small">3.6</text>
<rect x="298" y="232" width="86" height="25" fill="#f7fafc"/>
<rect x="386" y="232" width="86" height="25" fill="#f7fafc"/>
<rect x="474" y="232" width="86" height="25" fill="#f7fafc"/>
<rect x="562" y="232" width="86" height="25" fill="#eeebfb"/>
<text x="567" y="249" class="small">0.6</text>
<rect x="650" y="232" width="86" height="25" fill="#f7fafc"/>
<rect x="738" y="232" width="86" height="25" fill="#f7fafc"/>
<rect x="826" y="232" width="86" height="25" fill="#f7fafc"/>
<text x="20" y="277" class="small">BRCA2 acceptor_like vus</text>
<rect x="210" y="259" width="86" height="25" fill="#b491f4"/>
<text x="215" y="276" class="small">29.8</text>
<rect x="298" y="259" width="86" height="25" fill="#c4abf6"/>
<text x="303" y="276" class="small">17.1</text>
<rect x="386" y="259" width="86" height="25" fill="#c5acf6"/>
<text x="391" y="276" class="small">16.7</text>
<rect x="474" y="259" width="86" height="25" fill="#d6c6f8"/>
<text x="479" y="276" class="small">7.2</text>
<rect x="562" y="259" width="86" height="25" fill="#d0bdf7"/>
<text x="567" y="276" class="small">10.2</text>
<rect x="650" y="259" width="86" height="25" fill="#cfbcf7"/>
<text x="655" y="276" class="small">10.5</text>
<rect x="738" y="259" width="86" height="25" fill="#cfbcf7"/>
<text x="743" y="276" class="small">10.4</text>
<rect x="826" y="259" width="86" height="25" fill="#d2c1f8"/>
<text x="831" y="276" class="small">8.9</text>
<text x="20" y="304" class="small">BRCA2 acceptor_like pathogenic</text>
<rect x="210" y="286" width="86" height="25" fill="#f7fafc"/>
<rect x="298" y="286" width="86" height="25" fill="#a072f1"/>
<text x="303" y="303" class="small">50.0</text>
<rect x="386" y="286" width="86" height="25" fill="#ccb6f7"/>
<text x="391" y="303" class="small">12.5</text>
<rect x="474" y="286" width="86" height="25" fill="#ccb6f7"/>
<text x="479" y="303" class="small">12.5</text>
<rect x="562" y="286" width="86" height="25" fill="#bd9ff5"/>
<text x="567" y="303" class="small">22.5</text>
<rect x="650" y="286" width="86" height="25" fill="#c2a8f6"/>
<text x="655" y="303" class="small">18.3</text>
<rect x="738" y="286" width="86" height="25" fill="#cab4f6"/>
<text x="743" y="303" class="small">13.5</text>
<rect x="826" y="286" width="86" height="25" fill="#f1f1fb"/>
<text x="831" y="303" class="small">0.2</text>
<text x="20" y="331" class="small">BRCA2 donor_like benign</text>
<rect x="210" y="313" width="86" height="25" fill="#f7fafc"/>
<rect x="298" y="313" width="86" height="25" fill="#e5dffa"/>
<text x="303" y="330" class="small">2.0</text>
<rect x="386" y="313" width="86" height="25" fill="#f7fafc"/>
<rect x="474" y="313" width="86" height="25" fill="#f7fafc"/>
<rect x="562" y="313" width="86" height="25" fill="#f7fafc"/>
<rect x="650" y="313" width="86" height="25" fill="#f7fafc"/>
<rect x="738" y="313" width="86" height="25" fill="#f3f3fb"/>
<text x="743" y="330" class="small">0.1</text>
<rect x="826" y="313" width="86" height="25" fill="#f7fafc"/>
<text x="20" y="358" class="small">BRCA2 donor_like vus</text>
<rect x="210" y="340" width="86" height="25" fill="#8649ee"/>
<text x="215" y="357" class="small">85.0</text>
<rect x="298" y="340" width="86" height="25" fill="#a980f2"/>
<text x="303" y="357" class="small">40.3</text>
<rect x="386" y="340" width="86" height="25" fill="#d1bff7"/>
<text x="391" y="357" class="small">9.3</text>
<rect x="474" y="340" width="86" height="25" fill="#e7e1fa"/>
<text x="479" y="357" class="small">1.8</text>
<rect x="562" y="340" width="86" height="25" fill="#ddd2f9"/>
<text x="567" y="357" class="small">4.4</text>
<rect x="650" y="340" width="86" height="25" fill="#e1d7f9"/>
<text x="655" y="357" class="small">3.3</text>
<rect x="738" y="340" width="86" height="25" fill="#e2d9f9"/>
<text x="743" y="357" class="small">3.0</text>
<rect x="826" y="340" width="86" height="25" fill="#d7c8f8"/>
<text x="831" y="357" class="small">6.7</text>
<text x="20" y="385" class="small">BRCA2 donor_like pathogenic</text>
<rect x="210" y="367" width="86" height="25" fill="#8b51ef"/>
<text x="215" y="384" class="small">77.8</text>
<rect x="298" y="367" width="86" height="25" fill="#ba9af4"/>
<text x="303" y="384" class="small">25.0</text>
<rect x="386" y="367" width="86" height="25" fill="#f7fafc"/>
<rect x="474" y="367" width="86" height="25" fill="#dacdf8"/>
<text x="479" y="384" class="small">5.6</text>
<rect x="562" y="367" width="86" height="25" fill="#d5c5f8"/>
<text x="567" y="384" class="small">7.7</text>
<rect x="650" y="367" width="86" height="25" fill="#d5c5f8"/>
<text x="655" y="384" class="small">7.5</text>
<rect x="738" y="367" width="86" height="25" fill="#e4ddfa"/>
<text x="743" y="384" class="small">2.3</text>
<rect x="826" y="367" width="86" height="25" fill="#edebfb"/>
<text x="831" y="384" class="small">0.6</text>
</svg>
