<svg xmlns="http://www.w3.org/2000/svg" width="1180" height="520" viewBox="0 0 1180 520">
<style>
text { font-family: Arial, Helvetica, sans-serif; fill: #172033; }
.small { font-size: 11px; }
.label { font-size: 12px; }
.title { font-size: 18px; font-weight: 700; }
.grid { stroke: #e2e8f0; stroke-width: 1; }
</style>
<rect x="0" y="0" width="1180" height="520" fill="#ffffff"/>
<text x="28" y="34" class="title">SpliceAI >=0.20 rate by donor-like and acceptor-like boundary</text>
<text x="28" y="55" class="small">Rates are grouped by nearest internal CDS splice boundary and grouped class</text>
<text x="90" y="66" class="label">BRCA1</text>
<rect x="90" y="80" width="460" height="300" fill="#f8fafc" stroke="#cbd5e1"/>
<line x1="90" y1="380.0" x2="550" y2="380.0" class="grid"/>
<text x="42" y="384.0" class="small">0%</text>
<line x1="90" y1="320.0" x2="550" y2="320.0" class="grid"/>
<text x="42" y="324.0" class="small">20%</text>
<line x1="90" y1="260.0" x2="550" y2="260.0" class="grid"/>
<text x="42" y="264.0" class="small">40%</text>
<line x1="90" y1="200.0" x2="550" y2="200.0" class="grid"/>
<text x="42" y="204.0" class="small">60%</text>
<line x1="90" y1="140.0" x2="550" y2="140.0" class="grid"/>
<text x="42" y="144.0" class="small">80%</text>
<line x1="90" y1="80.0" x2="550" y2="80.0" class="grid"/>
<text x="42" y="84.0" class="small">100%</text>
<rect x="115.0" y="361.8181818181818" width="56.33333333333333" height="18.181818181818183" fill="#2b8cbe"/>
<text x="115.0" y="398" class="small">a-b</text>
<rect x="183.33333333333331" y="225.71428571428572" width="56.33333333333333" height="154.28571428571428" fill="#8a8f9c"/>
<text x="183.33333333333331" y="398" class="small">a-v</text>
<rect x="251.66666666666666" y="230.0" width="56.33333333333333" height="150.0" fill="#d7301f"/>
<text x="251.66666666666666" y="398" class="small">a-p</text>
<rect x="320.0" y="355.5813953488372" width="56.33333333333333" height="24.41860465116279" fill="#2b8cbe"/>
<text x="320.0" y="398" class="small">d-b</text>
<rect x="388.3333333333333" y="219.1304347826087" width="56.33333333333333" height="160.8695652173913" fill="#8a8f9c"/>
<text x="388.3333333333333" y="398" class="small">d-v</text>
<rect x="456.66666666666663" y="141.76470588235298" width="56.33333333333333" height="238.23529411764702" fill="#d7301f"/>
<text x="456.66666666666663" y="398" class="small">d-p</text>
<text x="630" y="66" class="label">BRCA2</text>
<rect x="630" y="80" width="460" height="300" fill="#f8fafc" stroke="#cbd5e1"/>
<line x1="630" y1="380.0" x2="1090" y2="380.0" class="grid"/>
<line x1="630" y1="320.0" x2="1090" y2="320.0" class="grid"/>
<line x1="630" y1="260.0" x2="1090" y2="260.0" class="grid"/>
<line x1="630" y1="200.0" x2="1090" y2="200.0" class="grid"/>
<line x1="630" y1="140.0" x2="1090" y2="140.0" class="grid"/>
<line x1="630" y1="80.0" x2="1090" y2="80.0" class="grid"/>
<rect x="655.0" y="376.51162790697674" width="56.33333333333333" height="3.4883720930232562" fill="#2b8cbe"/>
<text x="655.0" y="398" class="small">a-b</text>
<rect x="723.3333333333334" y="315.55555555555554" width="56.33333333333333" height="64.44444444444444" fill="#8a8f9c"/>
<text x="723.3333333333334" y="398" class="small">a-v</text>
<rect x="791.6666666666666" y="230.0" width="56.33333333333333" height="150.0" fill="#d7301f"/>
<text x="791.6666666666666" y="398" class="small">a-p</text>
<rect x="860.0" y="374.54545454545456" width="56.33333333333333" height="5.454545454545454" fill="#2b8cbe"/>
<text x="860.0" y="398" class="small">d-b</text>
<rect x="928.3333333333333" y="200.43795620437956" width="56.33333333333333" height="179.56204379562044" fill="#8a8f9c"/>
<text x="928.3333333333333" y="398" class="small">d-v</text>
<rect x="996.6666666666666" y="261.8181818181818" width="56.33333333333333" height="118.18181818181819" fill="#d7301f"/>
<text x="996.6666666666666" y="398" class="small">d-p</text>
<rect x="90" y="440" width="14" height="14" fill="#2b8cbe"/>
<text x="110" y="452" class="small">Benign/Likely Benign</text>
<rect x="320" y="440" width="14" height="14" fill="#8a8f9c"/>
<text x="340" y="452" class="small">VUS</text>
<rect x="550" y="440" width="14" height="14" fill="#d7301f"/>
<text x="570" y="452" class="small">Likely Pathogenic/Pathogenic</text>
<text x="90" y="484" class="small">x labels: a = acceptor-like, d = donor-like; b/v/p = benign/VUS/pathogenic</text>
</svg>
