<svg xmlns="http://www.w3.org/2000/svg" width="1120" height="500" viewBox="0 0 1120 500">
<style>
text { font-family: Arial, Helvetica, sans-serif; fill: #172033; }
.small { font-size: 11px; }
.label { font-size: 12px; }
.title { font-size: 18px; font-weight: 700; }
.grid { stroke: #e2e8f0; stroke-width: 1; }
</style>
<rect x="0" y="0" width="1120" height="500" fill="#ffffff"/>
<text x="28" y="34" class="title">Exact relative position around splice boundaries</text>
<text x="28" y="55" class="small">Position 0 is the nearest internal CDS splice boundary; rates use SpliceAI >=0.20</text>
<text x="82" y="58" class="label">BRCA1</text>
<rect x="82" y="70" width="455" height="290" fill="#f8fafc" stroke="#cbd5e1"/>
<line x1="82" y1="360.0" x2="537" y2="360.0" class="grid"/>
<text x="38" y="364.0" class="small">0%</text>
<line x1="82" y1="302.0" x2="537" y2="302.0" class="grid"/>
<text x="38" y="306.0" class="small">20%</text>
<line x1="82" y1="244.0" x2="537" y2="244.0" class="grid"/>
<text x="38" y="248.0" class="small">40%</text>
<line x1="82" y1="186.0" x2="537" y2="186.0" class="grid"/>
<text x="38" y="190.0" class="small">60%</text>
<line x1="82" y1="128.0" x2="537" y2="128.0" class="grid"/>
<text x="38" y="132.0" class="small">80%</text>
<line x1="82" y1="70.0" x2="537" y2="70.0" class="grid"/>
<text x="38" y="74.0" class="small">100%</text>
<polyline points="82.0,360.0 93.4,360.0 104.8,360.0 116.1,360.0 127.5,360.0 138.9,360.0 150.2,360.0 161.6,360.0 173.0,360.0 184.4,360.0 195.8,360.0 207.1,360.0 218.5,360.0 229.9,360.0 241.2,360.0 252.6,360.0 264.0,360.0 275.4,360.0 286.8,360.0 298.1,360.0 309.5,263.3 320.9,286.3 332.2,291.0 343.6,314.0 355.0,337.0 366.4,327.8 377.8,337.0 389.1,341.6 400.5,337.0 411.9,350.8 423.2,327.8 434.6,332.4 446.0,323.2 457.4,327.8 468.8,332.4 480.1,337.0 491.5,346.2 502.9,309.4 514.2,346.2 525.6,350.8 537.0,346.2" fill="none" stroke="#7c3aed" stroke-width="2"/>
<polyline points="82.0,321.3 93.4,337.0 104.8,327.8 116.1,327.8 127.5,323.2 138.9,332.4 150.2,323.2 161.6,346.2 173.0,346.2 184.4,318.6 195.8,346.2 207.1,337.0 218.5,332.4 229.9,341.6 241.2,350.8 252.6,346.2 264.0,341.6 275.4,337.0 286.8,309.4 298.1,267.9 309.5,175.9 320.9,360.0 332.2,360.0 343.6,360.0 355.0,360.0 366.4,360.0 377.8,360.0 389.1,360.0 400.5,360.0 411.9,360.0 423.2,360.0 434.6,360.0 446.0,360.0 457.4,360.0 468.8,360.0 480.1,360.0 491.5,360.0 502.9,360.0 514.2,360.0 525.6,360.0 537.0,360.0" fill="none" stroke="#0f766e" stroke-width="2"/>
<line x1="309.5" y1="70" x2="309.5" y2="360" stroke="#111827" stroke-width="1" opacity="0.4"/>
<text x="607" y="58" class="label">BRCA2</text>
<rect x="607" y="70" width="455" height="290" fill="#f8fafc" stroke="#cbd5e1"/>
<line x1="607" y1="360.0" x2="1062" y2="360.0" class="grid"/>
<line x1="607" y1="302.0" x2="1062" y2="302.0" class="grid"/>
<line x1="607" y1="244.0" x2="1062" y2="244.0" class="grid"/>
<line x1="607" y1="186.0" x2="1062" y2="186.0" class="grid"/>
<line x1="607" y1="128.0" x2="1062" y2="128.0" class="grid"/>
<line x1="607" y1="70.0" x2="1062" y2="70.0" class="grid"/>
<polyline points="607.0,360.0 618.4,360.0 629.8,360.0 641.1,360.0 652.5,360.0 663.9,360.0 675.2,360.0 686.6,360.0 698.0,360.0 709.4,360.0 720.8,360.0 732.1,360.0 743.5,360.0 754.9,360.0 766.2,360.0 777.6,360.0 789.0,360.0 800.4,360.0 811.8,360.0 823.1,360.0 834.5,302.0 845.9,321.3 857.2,332.9 868.6,305.9 880.0,344.5 891.4,344.5 902.8,344.5 914.1,352.3 925.5,344.5 936.9,348.4 948.2,348.4 959.6,344.5 971.0,336.8 982.4,336.8 993.8,344.5 1005.1,332.9 1016.5,352.3 1027.9,348.4 1039.2,329.1 1050.6,340.7 1062.0,348.4" fill="none" stroke="#7c3aed" stroke-width="2"/>
<polyline points="607.0,351.9 618.4,352.3 629.8,360.0 641.1,344.5 652.5,356.1 663.9,360.0 675.2,356.1 686.6,352.3 698.0,352.3 709.4,344.5 720.8,360.0 732.1,360.0 743.5,344.5 754.9,360.0 766.2,360.0 777.6,356.1 789.0,348.4 800.4,336.8 811.8,325.2 823.1,247.9 834.5,135.7 845.9,360.0 857.2,360.0 868.6,360.0 880.0,360.0 891.4,360.0 902.8,360.0 914.1,360.0 925.5,360.0 936.9,360.0 948.2,360.0 959.6,360.0 971.0,360.0 982.4,360.0 993.8,360.0 1005.1,360.0 1016.5,360.0 1027.9,360.0 1039.2,360.0 1050.6,360.0 1062.0,360.0" fill="none" stroke="#0f766e" stroke-width="2"/>
<line x1="834.5" y1="70" x2="834.5" y2="360" stroke="#111827" stroke-width="1" opacity="0.4"/>
<line x1="82" y1="422" x2="108" y2="422" stroke="#7c3aed" stroke-width="3"/>
<text x="116" y="426" class="small">acceptor_like</text>
<line x1="272" y1="422" x2="298" y2="422" stroke="#0f766e" stroke-width="3"/>
<text x="306" y="426" class="small">donor_like</text>
<text x="472" y="465" class="label">Relative coding bases from nearest boundary</text>
</svg>
