<svg xmlns="http://www.w3.org/2000/svg" width="1100" height="450" viewBox="0 0 1100 450">
<style>
text { font-family: Arial, Helvetica, sans-serif; fill: #172033; }
.small { font-size: 11px; }
.label { font-size: 12px; }
.title { font-size: 18px; font-weight: 700; }
.grid { stroke: #e2e8f0; stroke-width: 1; }
</style>
<rect x="0" y="0" width="1100" height="450" fill="#ffffff"/>
<text x="28" y="34" class="title">SpliceAI threshold sensitivity near boundaries</text>
<text x="28" y="55" class="small">Near boundary means distance 0 or 1-2 bp, all groups combined</text>
<text x="85" y="58" class="label">BRCA1</text>
<rect x="85" y="70" width="455" height="260" fill="#f8fafc" stroke="#cbd5e1"/>
<rect x="120.0" y="226.8253968253968" width="28" height="103.17460317460318" fill="#60a5fa"/>
<rect x="156.0" y="258.46560846560845" width="28" height="71.53439153439153" fill="#7c3aed"/>
<rect x="192.0" y="288.73015873015873" width="28" height="41.269841269841265" fill="#f59e0b"/>
<rect x="228.0" y="296.984126984127" width="28" height="33.01587301587301" fill="#dc2626"/>
<text x="125.0" y="350" class="small">acceptor_like</text>
<rect x="347.5" y="197.93650793650795" width="28" height="132.06349206349205" fill="#60a5fa"/>
<rect x="383.5" y="232.32804232804233" width="28" height="97.67195767195766" fill="#7c3aed"/>
<rect x="419.5" y="272.22222222222223" width="28" height="57.77777777777777" fill="#f59e0b"/>
<rect x="455.5" y="320.3703703703704" width="28" height="9.629629629629628" fill="#dc2626"/>
<text x="352.5" y="350" class="small">donor_like</text>
<line x1="85" y1="330.0" x2="540" y2="330.0" class="grid"/>
<text x="36" y="334.0" class="small">0%</text>
<line x1="85" y1="278.0" x2="540" y2="278.0" class="grid"/>
<text x="36" y="282.0" class="small">20%</text>
<line x1="85" y1="226.0" x2="540" y2="226.0" class="grid"/>
<text x="36" y="230.0" class="small">40%</text>
<line x1="85" y1="174.0" x2="540" y2="174.0" class="grid"/>
<text x="36" y="178.0" class="small">60%</text>
<line x1="85" y1="122.0" x2="540" y2="122.0" class="grid"/>
<text x="36" y="126.0" class="small">80%</text>
<line x1="85" y1="70.0" x2="540" y2="70.0" class="grid"/>
<text x="36" y="74.0" class="small">100%</text>
<text x="612" y="58" class="label">BRCA2</text>
<rect x="612" y="70" width="455" height="260" fill="#f8fafc" stroke="#cbd5e1"/>
<rect x="647.0" y="266.44444444444446" width="28" height="63.55555555555555" fill="#60a5fa"/>
<rect x="683.0" y="293.02222222222224" width="28" height="36.977777777777774" fill="#7c3aed"/>
<rect x="719.0" y="318.44444444444446" width="28" height="11.555555555555557" fill="#f59e0b"/>
<rect x="755.0" y="326.53333333333336" width="28" height="3.466666666666667" fill="#dc2626"/>
<text x="652.0" y="350" class="small">acceptor_like</text>
<rect x="874.5" y="186.7111111111111" width="28" height="143.2888888888889" fill="#60a5fa"/>
<rect x="910.5" y="219.06666666666666" width="28" height="110.93333333333334" fill="#7c3aed"/>
<rect x="946.5" y="261.8222222222222" width="28" height="68.17777777777778" fill="#f59e0b"/>
<rect x="982.5" y="281.46666666666664" width="28" height="48.53333333333334" fill="#dc2626"/>
<text x="879.5" y="350" class="small">donor_like</text>
<line x1="612" y1="330.0" x2="1067" y2="330.0" class="grid"/>
<line x1="612" y1="278.0" x2="1067" y2="278.0" class="grid"/>
<line x1="612" y1="226.0" x2="1067" y2="226.0" class="grid"/>
<line x1="612" y1="174.0" x2="1067" y2="174.0" class="grid"/>
<line x1="612" y1="122.0" x2="1067" y2="122.0" class="grid"/>
<line x1="612" y1="70.0" x2="1067" y2="70.0" class="grid"/>
<rect x="85" y="370" width="14" height="14" fill="#60a5fa"/>
<text x="105" y="382" class="small">>= 0.10</text>
<rect x="230" y="370" width="14" height="14" fill="#7c3aed"/>
<text x="250" y="382" class="small">>= 0.20</text>
<rect x="375" y="370" width="14" height="14" fill="#f59e0b"/>
<text x="395" y="382" class="small">>= 0.50</text>
<rect x="520" y="370" width="14" height="14" fill="#dc2626"/>
<text x="540" y="382" class="small">>= 0.80</text>
</svg>
