<svg xmlns="http://www.w3.org/2000/svg" width="1120" height="670" viewBox="0 0 1120 670">
<style>
text{font-family:Arial,sans-serif;font-size:13px;fill:#222}
.title{font-size:20px;font-weight:bold}
.small{font-size:11px;fill:#555}
.bar{fill:#2f7d62}
</style>
<text x="24" y="30" class="title">Benign Counterexamples By Active/Interface Annotation</text>
<text x="24" y="74">region_level:UniProt:Region:Interaction with RAD51 (1003-2082) [source_e</text>
<rect x="500" y="60" width="520" height="19" class="bar"/>
<text x="1028" y="75" class="small">5450</text>
<text x="24" y="105">region_level:UniProt:Region:Interaction with RAD51 (1003-2082) [source_e</text>
<rect x="500" y="91" width="360" height="19" class="bar"/>
<text x="868" y="106" class="small">3783</text>
<text x="24" y="136">region_level:UniProt:Region:Interaction with NPM1 (639-1000) [source_ext</text>
<rect x="500" y="122" width="293" height="19" class="bar"/>
<text x="801" y="137" class="small">3076</text>
<text x="24" y="167">not_curated_in_current_dataset</text>
<rect x="500" y="153" width="229" height="19" class="bar"/>
<text x="737" y="168" class="small">2402</text>
<text x="24" y="198">region_level:UniProt:Region:Interaction with FANCD2 (2350-2545) [source_</text>
<rect x="500" y="184" width="98" height="19" class="bar"/>
<text x="606" y="199" class="small">1037</text>
<text x="24" y="229">region_level:UniProt:Domain:BRCT 2 (1756-1855) [source_extracted_region]</text>
<rect x="500" y="215" width="56" height="19" class="bar"/>
<text x="564" y="230" class="small">595</text>
<text x="24" y="260">region_level:UniProt:Region:Interaction with HSF2BP (2270-2337) [source_</text>
<rect x="500" y="246" width="50" height="19" class="bar"/>
<text x="558" y="261" class="small">527</text>
<text x="24" y="291">region_level:UniProt:Domain:BRCT 1 (1642-1736) [source_extracted_region]</text>
<rect x="500" y="277" width="47" height="19" class="bar"/>
<text x="555" y="292" class="small">498</text>
<text x="24" y="322">region_level:UniProt:Zinc finger:RING-type (24-65) [source_extracted_reg</text>
<rect x="500" y="308" width="20" height="19" class="bar"/>
<text x="528" y="323" class="small">214</text>
<text x="24" y="353">region_level:UniProt:Region:Interaction with SEM1 (2481-2832) [source_ex</text>
<rect x="500" y="339" width="9" height="19" class="bar"/>
<text x="517" y="354" class="small">98</text>
<text x="24" y="384">region_level:UniProt:Region:Interaction with PALB2 (1-40) [source_extrac</text>
<rect x="500" y="370" width="7" height="19" class="bar"/>
<text x="515" y="385" class="small">76</text>
<text x="24" y="415">region_level:UniProt:Region:Interaction with FANCD2 (2350-2545) [source_</text>
<rect x="500" y="401" width="3" height="19" class="bar"/>
<text x="511" y="416" class="small">38</text>
<text x="24" y="446">UniProt:Mutagenesis:Abolished interaction with DMC1. [source_extracted];</text>
<rect x="500" y="432" width="2" height="19" class="bar"/>
<text x="510" y="447" class="small">27</text>
<text x="24" y="477">region_level:UniProt:Region:Interaction with PALB2 (1397-1424) [source_e</text>
<rect x="500" y="463" width="1" height="19" class="bar"/>
<text x="509" y="478" class="small">19</text>
<text x="24" y="508">UniProt:Mutagenesis:Does not affect interaction with DMC1. [source_extra</text>
<rect x="500" y="494" width="1" height="19" class="bar"/>
<text x="509" y="509" class="small">16</text>
<text x="24" y="539">UniProt:Mutagenesis:Decreased interaction with DMC1. [source_extracted];</text>
<rect x="500" y="525" width="1" height="19" class="bar"/>
<text x="509" y="540" class="small">15</text>
<text x="24" y="570">UniProt:Mutagenesis:Does not abolish ABRAXAS1 binding, but abolishes for</text>
<rect x="500" y="556" width="1" height="19" class="bar"/>
<text x="509" y="571" class="small">11</text>
<text x="24" y="601">UniProt:Mutagenesis:Impaired interaction with RAD51. [source_extracted]</text>
<rect x="500" y="587" width="0" height="19" class="bar"/>
<text x="508" y="602" class="small">9</text>
</svg>