<svg xmlns="http://www.w3.org/2000/svg" width="1120" height="329" viewBox="0 0 1120 329">
<style>
text{font-family:Arial,sans-serif;font-size:13px;fill:#222}
.title{font-size:20px;font-weight:bold}
.small{font-size:11px;fill:#555}
.bar{fill:#2f7d62}
</style>
<text x="24" y="30" class="title">Benign Counterexamples By Protein Feature</text>
<text x="24" y="74">BRC repeats / RAD51-binding region</text>
<rect x="500" y="60" width="520" height="19" class="bar"/>
<text x="1028" y="75" class="small">9242</text>
<text x="24" y="105">C-terminal RAD51-binding/nuclear localization context</text>
<rect x="500" y="91" width="103" height="19" class="bar"/>
<text x="611" y="106" class="small">1834</text>
<text x="24" y="136">BRCT phosphopeptide-binding region</text>
<rect x="500" y="122" width="66" height="19" class="bar"/>
<text x="574" y="137" class="small">1178</text>
<text x="24" y="167">RING zinc-binding/E3 ligase region</text>
<rect x="500" y="153" width="32" height="19" class="bar"/>
<text x="540" y="168" class="small">576</text>
<text x="24" y="198">DNA-binding domain / helical-OB-DSS1 region</text>
<rect x="500" y="184" width="14" height="19" class="bar"/>
<text x="522" y="199" class="small">256</text>
<text x="24" y="229">coiled-coil PALB2 interaction region</text>
<rect x="500" y="215" width="1" height="19" class="bar"/>
<text x="509" y="230" class="small">22</text>
<text x="24" y="260">PALB2 binding N-terminal region</text>
<rect x="500" y="246" width="0" height="19" class="bar"/>
<text x="508" y="261" class="small">8</text>
</svg>