<svg xmlns="http://www.w3.org/2000/svg" width="1825" height="392" viewBox="0 0 1825 392">
<style>
text { font-family: Arial, Helvetica, sans-serif; fill: #172033; }
.small { font-size: 11px; }
.label { font-size: 12px; }
.title { font-size: 18px; font-weight: 700; }
.axis { stroke: #9aa4b2; stroke-width: 1; }
.grid { stroke: #e2e8f0; stroke-width: 1; }
.panel { fill: #f3f4f6; }
.tile { stroke: #ffffff; stroke-width: 1; }
.legend-title { font-size: 11px; font-weight: 700; }
</style>
<rect x="0" y="0" width="1825" height="392" fill="#ffffff"/>
<text x="28" y="32" class="title">BRCA2: SpliceAI and boundary context</text>
<text x="28" y="54" class="small">Each tile is percent of variants within the generated class group. This replaces the dense scatter view.</text>
<text x="95" y="82" class="small">Boundary distance bin, bp</text>
<text x="95" y="94" class="label">Benign/Likely Benign (n=22678)</text>
<rect x="93" y="110" width="524" height="170" class="panel"/>
<text x="99" y="108" class="small">0</text>
<text x="157" y="108" class="small">1-2</text>
<text x="215" y="108" class="small">3-5</text>
<text x="273" y="108" class="small">6-10</text>
<text x="331" y="108" class="small">11-20</text>
<text x="389" y="108" class="small">21-50</text>
<text x="447" y="108" class="small">51-100</text>
<text x="505" y="108" class="small">101-250</text>
<text x="563" y="108" class="small">&gt;250</text>
<text x="18" y="130" class="small">0-0.049</text>
<rect x="95" y="112" width="58" height="28" fill="#eef3fb" class="tile"/>
<rect x="153" y="112" width="58" height="28" fill="#e6eefb" class="tile"/>
<rect x="211" y="112" width="58" height="28" fill="#dfe8fa" class="tile"/>
<text x="215" y="130" class="small">0.9</text>
<rect x="269" y="112" width="58" height="28" fill="#d7e3f9" class="tile"/>
<text x="273" y="130" class="small">1.5</text>
<rect x="327" y="112" width="58" height="28" fill="#cad9f8" class="tile"/>
<text x="331" y="130" class="small">3.0</text>
<rect x="385" y="112" width="58" height="28" fill="#b6cbf7" class="tile"/>
<text x="389" y="130" class="small">6.2</text>
<rect x="443" y="112" width="58" height="28" fill="#b2c9f6" class="tile"/>
<text x="447" y="130" class="small">6.9</text>
<rect x="501" y="112" width="58" height="28" fill="#96b4f4" class="tile"/>
<text x="505" y="130" class="small">13.7</text>
<rect x="559" y="112" width="58" height="28" fill="#2563eb" class="tile"/>
<text x="563" y="130" class="small">64.4</text>
<text x="18" y="158" class="small">0.05-0.099</text>
<rect x="95" y="140" width="58" height="28" fill="#f3f7fc" class="tile"/>
<rect x="153" y="140" width="58" height="28" fill="#f1f5fb" class="tile"/>
<rect x="211" y="140" width="58" height="28" fill="#f0f5fb" class="tile"/>
<rect x="269" y="140" width="58" height="28" fill="#ecf2fb" class="tile"/>
<rect x="327" y="140" width="58" height="28" fill="#e8effb" class="tile"/>
<rect x="385" y="140" width="58" height="28" fill="#e1eafa" class="tile"/>
<text x="389" y="158" class="small">0.7</text>
<rect x="443" y="140" width="58" height="28" fill="#e7effb" class="tile"/>
<rect x="501" y="140" width="58" height="28" fill="#e1eafa" class="tile"/>
<text x="505" y="158" class="small">0.7</text>
<rect x="559" y="140" width="58" height="28" fill="#eff5fb" class="tile"/>
<text x="18" y="186" class="small">0.10-0.199</text>
<rect x="95" y="168" width="58" height="28" fill="#f5f9fc" class="tile"/>
<rect x="153" y="168" width="58" height="28" fill="#f7fafc" class="tile"/>
<rect x="211" y="168" width="58" height="28" fill="#f4f8fc" class="tile"/>
<rect x="269" y="168" width="58" height="28" fill="#f4f8fc" class="tile"/>
<rect x="327" y="168" width="58" height="28" fill="#f2f6fc" class="tile"/>
<rect x="385" y="168" width="58" height="28" fill="#eff4fb" class="tile"/>
<rect x="443" y="168" width="58" height="28" fill="#f1f6fc" class="tile"/>
<rect x="501" y="168" width="58" height="28" fill="#f0f5fb" class="tile"/>
<rect x="559" y="168" width="58" height="28" fill="#f7fafc" class="tile"/>
<text x="18" y="214" class="small">0.20-0.499</text>
<rect x="95" y="196" width="58" height="28" fill="#f7fafc" class="tile"/>
<rect x="153" y="196" width="58" height="28" fill="#f5f9fc" class="tile"/>
<rect x="211" y="196" width="58" height="28" fill="#f7fafc" class="tile"/>
<rect x="269" y="196" width="58" height="28" fill="#f7fafc" class="tile"/>
<rect x="327" y="196" width="58" height="28" fill="#f5f9fc" class="tile"/>
<rect x="385" y="196" width="58" height="28" fill="#f7fafc" class="tile"/>
<rect x="443" y="196" width="58" height="28" fill="#f5f9fc" class="tile"/>
<rect x="501" y="196" width="58" height="28" fill="#f7fafc" class="tile"/>
<rect x="559" y="196" width="58" height="28" fill="#f7fafc" class="tile"/>
<text x="18" y="242" class="small">0.50-0.799</text>
<rect x="95" y="224" width="58" height="28" fill="#f7fafc" class="tile"/>
<rect x="153" y="224" width="58" height="28" fill="#f7fafc" class="tile"/>
<rect x="211" y="224" width="58" height="28" fill="#f7fafc" class="tile"/>
<rect x="269" y="224" width="58" height="28" fill="#f7fafc" class="tile"/>
<rect x="327" y="224" width="58" height="28" fill="#f5f9fc" class="tile"/>
<rect x="385" y="224" width="58" height="28" fill="#f7fafc" class="tile"/>
<rect x="443" y="224" width="58" height="28" fill="#f7fafc" class="tile"/>
<rect x="501" y="224" width="58" height="28" fill="#f7fafc" class="tile"/>
<rect x="559" y="224" width="58" height="28" fill="#f7fafc" class="tile"/>
<text x="18" y="270" class="small">0.80-1.00</text>
<rect x="95" y="252" width="58" height="28" fill="#f5f9fc" class="tile"/>
<rect x="153" y="252" width="58" height="28" fill="#f7fafc" class="tile"/>
<rect x="211" y="252" width="58" height="28" fill="#f7fafc" class="tile"/>
<rect x="269" y="252" width="58" height="28" fill="#f7fafc" class="tile"/>
<rect x="327" y="252" width="58" height="28" fill="#f7fafc" class="tile"/>
<rect x="385" y="252" width="58" height="28" fill="#f7fafc" class="tile"/>
<rect x="443" y="252" width="58" height="28" fill="#f7fafc" class="tile"/>
<rect x="501" y="252" width="58" height="28" fill="#f7fafc" class="tile"/>
<rect x="559" y="252" width="58" height="28" fill="#f7fafc" class="tile"/>
<text x="659" y="94" class="label">VUS (n=6529)</text>
<rect x="657" y="110" width="524" height="170" class="panel"/>
<text x="663" y="108" class="small">0</text>
<text x="721" y="108" class="small">1-2</text>
<text x="779" y="108" class="small">3-5</text>
<text x="837" y="108" class="small">6-10</text>
<text x="895" y="108" class="small">11-20</text>
<text x="953" y="108" class="small">21-50</text>
<text x="1011" y="108" class="small">51-100</text>
<text x="1069" y="108" class="small">101-250</text>
<text x="1127" y="108" class="small">&gt;250</text>
<rect x="659" y="112" width="58" height="28" fill="#e7effb" class="tile"/>
<rect x="717" y="112" width="58" height="28" fill="#dae5fa" class="tile"/>
<text x="721" y="130" class="small">1.3</text>
<rect x="775" y="112" width="58" height="28" fill="#cddcf9" class="tile"/>
<text x="779" y="130" class="small">2.6</text>
<rect x="833" y="112" width="58" height="28" fill="#bfd2f7" class="tile"/>
<text x="837" y="130" class="small">4.5</text>
<rect x="891" y="112" width="58" height="28" fill="#abc3f6" class="tile"/>
<text x="895" y="130" class="small">8.5</text>
<rect x="949" y="112" width="58" height="28" fill="#749cf1" class="tile"/>
<text x="953" y="130" class="small">25.2</text>
<rect x="1007" y="112" width="58" height="28" fill="#7ba1f2" class="tile"/>
<text x="1011" y="130" class="small">22.4</text>
<rect x="1065" y="112" width="58" height="28" fill="#acc4f6" class="tile"/>
<text x="1069" y="130" class="small">8.1</text>
<rect x="1123" y="112" width="58" height="28" fill="#edf3fb" class="tile"/>
<rect x="659" y="140" width="58" height="28" fill="#eef3fb" class="tile"/>
<rect x="717" y="140" width="58" height="28" fill="#edf3fb" class="tile"/>
<rect x="775" y="140" width="58" height="28" fill="#ecf2fb" class="tile"/>
<rect x="833" y="140" width="58" height="28" fill="#e7effb" class="tile"/>
<rect x="891" y="140" width="58" height="28" fill="#e2ebfa" class="tile"/>
<text x="895" y="158" class="small">0.7</text>
<rect x="949" y="140" width="58" height="28" fill="#cadaf8" class="tile"/>
<text x="953" y="158" class="small">2.9</text>
<rect x="1007" y="140" width="58" height="28" fill="#c0d2f8" class="tile"/>
<text x="1011" y="158" class="small">4.5</text>
<rect x="1065" y="140" width="58" height="28" fill="#ecf2fb" class="tile"/>
<rect x="1123" y="140" width="58" height="28" fill="#f7fafc" class="tile"/>
<rect x="659" y="168" width="58" height="28" fill="#ebf2fb" class="tile"/>
<rect x="717" y="168" width="58" height="28" fill="#e5edfb" class="tile"/>
<rect x="775" y="168" width="58" height="28" fill="#e9f0fb" class="tile"/>
<rect x="833" y="168" width="58" height="28" fill="#e5edfb" class="tile"/>
<rect x="891" y="168" width="58" height="28" fill="#dfe9fa" class="tile"/>
<text x="895" y="186" class="small">0.8</text>
<rect x="949" y="168" width="58" height="28" fill="#ccdbf9" class="tile"/>
<text x="953" y="186" class="small">2.7</text>
<rect x="1007" y="168" width="58" height="28" fill="#c6d7f8" class="tile"/>
<text x="1011" y="186" class="small">3.4</text>
<rect x="1065" y="168" width="58" height="28" fill="#e2ebfa" class="tile"/>
<text x="1069" y="186" class="small">0.7</text>
<rect x="1123" y="168" width="58" height="28" fill="#eef4fb" class="tile"/>
<rect x="659" y="196" width="58" height="28" fill="#e9f0fb" class="tile"/>
<rect x="717" y="196" width="58" height="28" fill="#e4edfa" class="tile"/>
<text x="721" y="214" class="small">0.5</text>
<rect x="775" y="196" width="58" height="28" fill="#e8effb" class="tile"/>
<rect x="833" y="196" width="58" height="28" fill="#eaf1fb" class="tile"/>
<rect x="891" y="196" width="58" height="28" fill="#e1eafa" class="tile"/>
<text x="895" y="214" class="small">0.7</text>
<rect x="949" y="196" width="58" height="28" fill="#d3e0f9" class="tile"/>
<text x="953" y="214" class="small">1.9</text>
<rect x="1007" y="196" width="58" height="28" fill="#d4e1f9" class="tile"/>
<text x="1011" y="214" class="small">1.8</text>
<rect x="1065" y="196" width="58" height="28" fill="#e3ecfa" class="tile"/>
<text x="1069" y="214" class="small">0.6</text>
<rect x="1123" y="196" width="58" height="28" fill="#f1f5fb" class="tile"/>
<rect x="659" y="224" width="58" height="28" fill="#ecf2fb" class="tile"/>
<rect x="717" y="224" width="58" height="28" fill="#edf3fb" class="tile"/>
<rect x="775" y="224" width="58" height="28" fill="#eff4fb" class="tile"/>
<rect x="833" y="224" width="58" height="28" fill="#f4f8fc" class="tile"/>
<rect x="891" y="224" width="58" height="28" fill="#f0f5fb" class="tile"/>
<rect x="949" y="224" width="58" height="28" fill="#e7eefb" class="tile"/>
<rect x="1007" y="224" width="58" height="28" fill="#e9f0fb" class="tile"/>
<rect x="1065" y="224" width="58" height="28" fill="#edf3fb" class="tile"/>
<rect x="1123" y="224" width="58" height="28" fill="#f2f7fc" class="tile"/>
<rect x="659" y="252" width="58" height="28" fill="#e4ecfa" class="tile"/>
<text x="663" y="270" class="small">0.6</text>
<rect x="717" y="252" width="58" height="28" fill="#f1f5fb" class="tile"/>
<rect x="775" y="252" width="58" height="28" fill="#f2f7fc" class="tile"/>
<rect x="833" y="252" width="58" height="28" fill="#f4f8fc" class="tile"/>
<rect x="891" y="252" width="58" height="28" fill="#f2f7fc" class="tile"/>
<rect x="949" y="252" width="58" height="28" fill="#eef4fb" class="tile"/>
<rect x="1007" y="252" width="58" height="28" fill="#ecf2fb" class="tile"/>
<rect x="1065" y="252" width="58" height="28" fill="#f4f8fc" class="tile"/>
<rect x="1123" y="252" width="58" height="28" fill="#f7fafc" class="tile"/>
<text x="1223" y="94" class="label">Likely Pathogenic/Pathogenic (n=1564)</text>
<rect x="1221" y="110" width="524" height="170" class="panel"/>
<text x="1227" y="108" class="small">0</text>
<text x="1285" y="108" class="small">1-2</text>
<text x="1343" y="108" class="small">3-5</text>
<text x="1401" y="108" class="small">6-10</text>
<text x="1459" y="108" class="small">11-20</text>
<text x="1517" y="108" class="small">21-50</text>
<text x="1575" y="108" class="small">51-100</text>
<text x="1633" y="108" class="small">101-250</text>
<text x="1691" y="108" class="small">&gt;250</text>
<rect x="1223" y="112" width="58" height="28" fill="#f0f5fb" class="tile"/>
<rect x="1281" y="112" width="58" height="28" fill="#dee8fa" class="tile"/>
<text x="1285" y="130" class="small">0.9</text>
<rect x="1339" y="112" width="58" height="28" fill="#dbe6fa" class="tile"/>
<text x="1343" y="130" class="small">1.2</text>
<rect x="1397" y="112" width="58" height="28" fill="#d7e3f9" class="tile"/>
<text x="1401" y="130" class="small">1.5</text>
<rect x="1455" y="112" width="58" height="28" fill="#cbdaf8" class="tile"/>
<text x="1459" y="130" class="small">2.9</text>
<rect x="1513" y="112" width="58" height="28" fill="#acc4f6" class="tile"/>
<text x="1517" y="130" class="small">8.1</text>
<rect x="1571" y="112" width="58" height="28" fill="#afc6f6" class="tile"/>
<text x="1575" y="130" class="small">7.6</text>
<rect x="1629" y="112" width="58" height="28" fill="#9fbbf5" class="tile"/>
<text x="1633" y="130" class="small">11.3</text>
<rect x="1687" y="112" width="58" height="28" fill="#3c74ed" class="tile"/>
<text x="1691" y="130" class="small">50.9</text>
<rect x="1223" y="140" width="58" height="28" fill="#f7fafc" class="tile"/>
<rect x="1281" y="140" width="58" height="28" fill="#eef3fb" class="tile"/>
<rect x="1339" y="140" width="58" height="28" fill="#f0f5fb" class="tile"/>
<rect x="1397" y="140" width="58" height="28" fill="#e8effb" class="tile"/>
<rect x="1455" y="140" width="58" height="28" fill="#dfe9fa" class="tile"/>
<text x="1459" y="158" class="small">0.8</text>
<rect x="1513" y="140" width="58" height="28" fill="#d3e0f9" class="tile"/>
<text x="1517" y="158" class="small">1.9</text>
<rect x="1571" y="140" width="58" height="28" fill="#d1dff9" class="tile"/>
<text x="1575" y="158" class="small">2.1</text>
<rect x="1629" y="140" width="58" height="28" fill="#e3ecfa" class="tile"/>
<text x="1633" y="158" class="small">0.6</text>
<rect x="1687" y="140" width="58" height="28" fill="#f7fafc" class="tile"/>
<rect x="1223" y="168" width="58" height="28" fill="#f0f5fb" class="tile"/>
<rect x="1281" y="168" width="58" height="28" fill="#e8effb" class="tile"/>
<rect x="1339" y="168" width="58" height="28" fill="#eef3fb" class="tile"/>
<rect x="1397" y="168" width="58" height="28" fill="#eaf0fb" class="tile"/>
<rect x="1455" y="168" width="58" height="28" fill="#e1eafa" class="tile"/>
<text x="1459" y="186" class="small">0.7</text>
<rect x="1513" y="168" width="58" height="28" fill="#d5e1f9" class="tile"/>
<text x="1517" y="186" class="small">1.7</text>
<rect x="1571" y="168" width="58" height="28" fill="#d9e4fa" class="tile"/>
<text x="1575" y="186" class="small">1.3</text>
<rect x="1629" y="168" width="58" height="28" fill="#f0f5fb" class="tile"/>
<rect x="1687" y="168" width="58" height="28" fill="#f7fafc" class="tile"/>
<rect x="1223" y="196" width="58" height="28" fill="#eef3fb" class="tile"/>
<rect x="1281" y="196" width="58" height="28" fill="#e8effb" class="tile"/>
<rect x="1339" y="196" width="58" height="28" fill="#eef3fb" class="tile"/>
<rect x="1397" y="196" width="58" height="28" fill="#ecf2fb" class="tile"/>
<rect x="1455" y="196" width="58" height="28" fill="#e1eafa" class="tile"/>
<text x="1459" y="214" class="small">0.7</text>
<rect x="1513" y="196" width="58" height="28" fill="#dde7fa" class="tile"/>
<text x="1517" y="214" class="small">1.0</text>
<rect x="1571" y="196" width="58" height="28" fill="#e0eafa" class="tile"/>
<text x="1575" y="214" class="small">0.8</text>
<rect x="1629" y="196" width="58" height="28" fill="#eef3fb" class="tile"/>
<rect x="1687" y="196" width="58" height="28" fill="#f0f5fb" class="tile"/>
<rect x="1223" y="224" width="58" height="28" fill="#f0f5fb" class="tile"/>
<rect x="1281" y="224" width="58" height="28" fill="#ecf2fb" class="tile"/>
<rect x="1339" y="224" width="58" height="28" fill="#f7fafc" class="tile"/>
<rect x="1397" y="224" width="58" height="28" fill="#f7fafc" class="tile"/>
<rect x="1455" y="224" width="58" height="28" fill="#f0f5fb" class="tile"/>
<rect x="1513" y="224" width="58" height="28" fill="#e0eafa" class="tile"/>
<text x="1517" y="242" class="small">0.8</text>
<rect x="1571" y="224" width="58" height="28" fill="#ecf2fb" class="tile"/>
<rect x="1629" y="224" width="58" height="28" fill="#f7fafc" class="tile"/>
<rect x="1687" y="224" width="58" height="28" fill="#f7fafc" class="tile"/>
<rect x="1223" y="252" width="58" height="28" fill="#eaf0fb" class="tile"/>
<rect x="1281" y="252" width="58" height="28" fill="#f7fafc" class="tile"/>
<rect x="1339" y="252" width="58" height="28" fill="#f7fafc" class="tile"/>
<rect x="1397" y="252" width="58" height="28" fill="#f7fafc" class="tile"/>
<rect x="1455" y="252" width="58" height="28" fill="#f7fafc" class="tile"/>
<rect x="1513" y="252" width="58" height="28" fill="#f0f5fb" class="tile"/>
<rect x="1571" y="252" width="58" height="28" fill="#f0f5fb" class="tile"/>
<rect x="1629" y="252" width="58" height="28" fill="#f0f5fb" class="tile"/>
<rect x="1687" y="252" width="58" height="28" fill="#f7fafc" class="tile"/>
<text x="16" y="206" class="label" transform="rotate(-90 16 206)">SpliceAI score bin</text>
<text x="1763" y="102" class="legend-title">percent</text>
<rect x="1763" y="112" width="18" height="18" fill="#2563eb" class="tile"/>
<rect x="1763" y="130" width="18" height="18" fill="#3b73ed" class="tile"/>
<rect x="1763" y="148" width="18" height="18" fill="#5485ef" class="tile"/>
<rect x="1763" y="166" width="18" height="18" fill="#729af1" class="tile"/>
<rect x="1763" y="184" width="18" height="18" fill="#99b6f4" class="tile"/>
<rect x="1763" y="202" width="18" height="18" fill="#f7fafc" class="tile"/>
<text x="1787" y="124" class="small">64.4</text>
<text x="1787" y="214" class="small">0</text>
<text x="617" y="366" class="label">Distance to nearest CDS exon boundary, bp</text>
</svg>
