<svg xmlns="http://www.w3.org/2000/svg" width="1080" height="470" viewBox="0 0 1080 470">
<style>
text { font-family: Arial, Helvetica, sans-serif; fill: #172033; }
.small { font-size: 11px; }
.label { font-size: 12px; }
.title { font-size: 18px; font-weight: 700; }
.axis { stroke: #9aa4b2; stroke-width: 1; }
.grid { stroke: #e2e8f0; stroke-width: 1; }
.panel { fill: #f3f4f6; }
.tile { stroke: #ffffff; stroke-width: 1; }
.legend-title { font-size: 11px; font-weight: 700; }
</style>
<rect x="0" y="0" width="1080" height="470" fill="#ffffff"/>
<text x="28" y="34" class="title">BRCA2: Boundary-distance distribution</text>
<text x="28" y="54" class="small">Percent of all variants in each group that fall into each distance bin</text>
<rect x="90" y="70" width="870" height="300" fill="#f8fafc" stroke="#cbd5e1"/>
<line x1="90" y1="370.0" x2="960" y2="370.0" class="grid"/>
<text x="42" y="374.0" class="small">0%</text>
<line x1="90" y1="310.0" x2="960" y2="310.0" class="grid"/>
<text x="42" y="314.0" class="small">20%</text>
<line x1="90" y1="250.0" x2="960" y2="250.0" class="grid"/>
<text x="42" y="254.0" class="small">40%</text>
<line x1="90" y1="190.0" x2="960" y2="190.0" class="grid"/>
<text x="42" y="194.0" class="small">60%</text>
<line x1="90" y1="130.0" x2="960" y2="130.0" class="grid"/>
<text x="42" y="134.0" class="small">80%</text>
<line x1="90" y1="70.0" x2="960" y2="70.0" class="grid"/>
<text x="42" y="74.0" class="small">100%</text>
<text x="94.0" y="390" class="small">0</text>
<rect x="94.0" y="369.38040747976555" width="30.916666666666664" height="0.6195925202344404" fill="#2b8cbe" opacity="0.85"/>
<rect x="126.91666666666666" y="363.6018383299192" width="30.916666666666664" height="6.398161670080805" fill="#8a8f9c" opacity="0.85"/>
<rect x="159.83333333333331" y="367.81468043538933" width="30.916666666666664" height="2.1853195646106616" fill="#d7301f" opacity="0.85"/>
<text x="202.75" y="390" class="small">1-2</text>
<rect x="202.75" y="368.10773095171646" width="30.916666666666664" height="1.8922690482835614" fill="#2b8cbe" opacity="0.85"/>
<rect x="235.66666666666666" y="360.1119319644206" width="30.916666666666664" height="9.888068035579428" fill="#8a8f9c" opacity="0.85"/>
<rect x="268.5833333333333" y="362.95841473625455" width="30.916666666666664" height="7.041585263745464" fill="#d7301f" opacity="0.85"/>
<text x="311.5" y="390" class="small">3-5</text>
<rect x="311.5" y="366.3494278537538" width="30.916666666666664" height="3.650572146246162" fill="#2b8cbe" opacity="0.85"/>
<rect x="344.4166666666667" y="356.79652091719686" width="30.916666666666664" height="13.203479082803117" fill="#8a8f9c" opacity="0.85"/>
<rect x="377.3333333333333" y="364.41529444599496" width="30.916666666666664" height="5.584705554005024" fill="#d7301f" opacity="0.85"/>
<text x="420.25" y="390" class="small">6-10</text>
<rect x="420.25" y="363.6533631035445" width="30.916666666666664" height="6.346636896455484" fill="#2b8cbe" opacity="0.85"/>
<rect x="453.1666666666667" y="348.7115711704584" width="30.916666666666664" height="21.288428829541587" fill="#8a8f9c" opacity="0.85"/>
<rect x="486.0833333333333" y="361.5015350265141" width="30.916666666666664" height="8.498464973485905" fill="#d7301f" opacity="0.85"/>
<text x="529.0" y="390" class="small">11-20</text>
<rect x="529.0" y="357.1392687691878" width="30.916666666666664" height="12.860731230812169" fill="#2b8cbe" opacity="0.85"/>
<rect x="561.9166666666666" y="328.8191048871163" width="30.916666666666664" height="41.18089511288373" fill="#8a8f9c" opacity="0.85"/>
<rect x="594.8333333333334" y="350.33212391850407" width="30.916666666666664" height="19.667876081495958" fill="#d7301f" opacity="0.85"/>
<text x="637.75" y="390" class="small">21-50</text>
<rect x="637.75" y="343.3072843985487" width="30.916666666666664" height="26.692715601451297" fill="#2b8cbe" opacity="0.85"/>
<rect x="670.6666666666666" y="244.18887552377473" width="30.916666666666664" height="125.81112447622527" fill="#8a8f9c" opacity="0.85"/>
<rect x="703.5833333333334" y="318.5235835891711" width="30.916666666666664" height="51.47641641082891" fill="#d7301f" opacity="0.85"/>
<text x="746.5" y="390" class="small">51-100</text>
<rect x="746.5" y="342.3025397711415" width="30.916666666666664" height="27.6974602288585" fill="#2b8cbe" opacity="0.85"/>
<rect x="779.4166666666666" y="246.34098444916555" width="30.916666666666664" height="123.65901555083445" fill="#8a8f9c" opacity="0.85"/>
<rect x="812.3333333333334" y="324.10828914317614" width="30.916666666666664" height="45.891710856823885" fill="#d7301f" opacity="0.85"/>
<text x="855.25" y="390" class="small">&gt;100</text>
<rect x="855.25" y="70.0" width="30.916666666666664" height="300.0" fill="#2b8cbe" opacity="0.85"/>
<rect x="888.1666666666666" y="331.6691950856068" width="30.916666666666664" height="38.33080491439319" fill="#8a8f9c" opacity="0.85"/>
<rect x="921.0833333333334" y="130.58610103265417" width="30.916666666666664" height="239.41389896734583" fill="#d7301f" opacity="0.85"/>
<rect x="715" y="78" width="12" height="12" fill="#2b8cbe"/>
<text x="733" y="88" class="small">Benign/Likely Benign</text>
<rect x="715" y="98" width="12" height="12" fill="#8a8f9c"/>
<text x="733" y="108" class="small">VUS</text>
<rect x="715" y="118" width="12" height="12" fill="#d7301f"/>
<text x="733" y="128" class="small">Likely Pathogenic/Pathogenic</text>
<text x="405" y="448" class="label">Distance to nearest CDS exon boundary, bp</text>
</svg>
