<svg xmlns="http://www.w3.org/2000/svg" width="738" height="436" viewBox="0 0 738 436">
<style>
text { font-family: Arial, Helvetica, sans-serif; fill: #172033; }
.small { font-size: 11px; }
.label { font-size: 12px; }
.title { font-size: 18px; font-weight: 700; }
.axis { stroke: #9aa4b2; stroke-width: 1; }
.grid { stroke: #e2e8f0; stroke-width: 1; }
.panel { fill: #f3f4f6; }
.tile { stroke: #ffffff; stroke-width: 1; }
.legend-title { font-size: 11px; font-weight: 700; }
</style>
<rect x="0" y="0" width="738" height="436" fill="#ffffff"/>
<text x="30" y="32" class="title">BRCA2: Boundary distance by class</text>
<text x="150" y="58" class="small">Class</text>
<rect x="148" y="94" width="462" height="272" class="panel"/>
<text x="154" y="80" class="small">1</text>
<text x="246" y="80" class="small">2</text>
<text x="338" y="80" class="small">3</text>
<text x="430" y="80" class="small">4</text>
<text x="522" y="80" class="small">5</text>
<text x="20" y="116" class="small">0</text>
<rect x="150" y="96" width="92" height="30" fill="#f7fafc" class="tile"/>
<rect x="242" y="96" width="92" height="30" fill="#edf3fb" class="tile"/>
<text x="248" y="115" class="small">37</text>
<rect x="334" y="96" width="92" height="30" fill="#e6eefb" class="tile"/>
<text x="340" y="115" class="small">110</text>
<rect x="426" y="96" width="92" height="30" fill="#f5f8fc" class="tile"/>
<text x="432" y="115" class="small">2</text>
<rect x="518" y="96" width="92" height="30" fill="#f3f7fc" class="tile"/>
<text x="524" y="115" class="small">7</text>
<text x="20" y="146" class="small">1-2</text>
<rect x="150" y="126" width="92" height="30" fill="#f3f7fc" class="tile"/>
<text x="156" y="145" class="small">7</text>
<rect x="242" y="126" width="92" height="30" fill="#e7eefb" class="tile"/>
<text x="248" y="145" class="small">106</text>
<rect x="334" y="126" width="92" height="30" fill="#e2ebfa" class="tile"/>
<text x="340" y="145" class="small">170</text>
<rect x="426" y="126" width="92" height="30" fill="#f4f8fc" class="tile"/>
<text x="432" y="145" class="small">4</text>
<rect x="518" y="126" width="92" height="30" fill="#eff4fb" class="tile"/>
<text x="524" y="145" class="small">25</text>
<text x="20" y="176" class="small">3-5</text>
<rect x="150" y="156" width="92" height="30" fill="#f5f9fc" class="tile"/>
<text x="156" y="175" class="small">1</text>
<rect x="242" y="156" width="92" height="30" fill="#e0e9fa" class="tile"/>
<text x="248" y="175" class="small">217</text>
<rect x="334" y="156" width="92" height="30" fill="#dfe9fa" class="tile"/>
<text x="340" y="175" class="small">227</text>
<rect x="426" y="156" width="92" height="30" fill="#f7fafc" class="tile"/>
<rect x="518" y="156" width="92" height="30" fill="#eff5fb" class="tile"/>
<text x="524" y="175" class="small">23</text>
<text x="20" y="206" class="small">6-10</text>
<rect x="150" y="186" width="92" height="30" fill="#f4f8fc" class="tile"/>
<text x="156" y="205" class="small">4</text>
<rect x="242" y="186" width="92" height="30" fill="#d8e4fa" class="tile"/>
<text x="248" y="205" class="small">375</text>
<rect x="334" y="186" width="92" height="30" fill="#d9e4fa" class="tile"/>
<text x="340" y="205" class="small">366</text>
<rect x="426" y="186" width="92" height="30" fill="#f4f8fc" class="tile"/>
<text x="432" y="205" class="small">3</text>
<rect x="518" y="186" width="92" height="30" fill="#eef4fb" class="tile"/>
<text x="524" y="205" class="small">32</text>
<text x="20" y="236" class="small">11-20</text>
<rect x="150" y="216" width="92" height="30" fill="#f1f6fc" class="tile"/>
<text x="156" y="235" class="small">13</text>
<rect x="242" y="216" width="92" height="30" fill="#ccdbf8" class="tile"/>
<text x="248" y="235" class="small">755</text>
<rect x="334" y="216" width="92" height="30" fill="#cddcf9" class="tile"/>
<text x="340" y="235" class="small">708</text>
<rect x="426" y="216" width="92" height="30" fill="#f2f6fc" class="tile"/>
<text x="432" y="235" class="small">10</text>
<rect x="518" y="216" width="92" height="30" fill="#eaf0fb" class="tile"/>
<text x="524" y="235" class="small">71</text>
<text x="20" y="266" class="small">21-50</text>
<rect x="150" y="246" width="92" height="30" fill="#f0f5fb" class="tile"/>
<text x="156" y="265" class="small">19</text>
<rect x="242" y="246" width="92" height="30" fill="#b8cdf7" class="tile"/>
<text x="248" y="265" class="small">1575</text>
<rect x="334" y="246" width="92" height="30" fill="#aec5f6" class="tile"/>
<text x="340" y="265" class="small">2163</text>
<rect x="426" y="246" width="92" height="30" fill="#eff4fb" class="tile"/>
<text x="432" y="265" class="small">25</text>
<rect x="518" y="246" width="92" height="30" fill="#e1eafa" class="tile"/>
<text x="524" y="265" class="small">187</text>
<text x="20" y="296" class="small">51-100</text>
<rect x="150" y="276" width="92" height="30" fill="#eff4fb" class="tile"/>
<text x="156" y="295" class="small">27</text>
<rect x="242" y="276" width="92" height="30" fill="#b7ccf7" class="tile"/>
<text x="248" y="295" class="small">1627</text>
<rect x="334" y="276" width="92" height="30" fill="#aec6f6" class="tile"/>
<text x="340" y="295" class="small">2126</text>
<rect x="426" y="276" width="92" height="30" fill="#f3f7fc" class="tile"/>
<text x="432" y="295" class="small">8</text>
<rect x="518" y="276" width="92" height="30" fill="#e2ebfa" class="tile"/>
<text x="524" y="295" class="small">181</text>
<text x="20" y="326" class="small">&gt;100</text>
<rect x="150" y="306" width="92" height="30" fill="#e0e9fa" class="tile"/>
<text x="156" y="325" class="small">212</text>
<rect x="242" y="306" width="92" height="30" fill="#2563eb" class="tile"/>
<text x="248" y="325" class="small">17703</text>
<rect x="334" y="306" width="92" height="30" fill="#ceddf9" class="tile"/>
<text x="340" y="325" class="small">659</text>
<rect x="426" y="306" width="92" height="30" fill="#eff4fb" class="tile"/>
<text x="432" y="325" class="small">25</text>
<rect x="518" y="306" width="92" height="30" fill="#c6d7f8" class="tile"/>
<text x="524" y="325" class="small">961</text>
<text x="20" y="356" class="small">missing</text>
<rect x="150" y="336" width="92" height="30" fill="#f7fafc" class="tile"/>
<rect x="242" y="336" width="92" height="30" fill="#f7fafc" class="tile"/>
<rect x="334" y="336" width="92" height="30" fill="#f7fafc" class="tile"/>
<rect x="426" y="336" width="92" height="30" fill="#f7fafc" class="tile"/>
<rect x="518" y="336" width="92" height="30" fill="#f7fafc" class="tile"/>
<text x="642" y="90" class="legend-title">count</text>
<rect x="642" y="100" width="18" height="18" fill="#2563eb" class="tile"/>
<rect x="642" y="118" width="18" height="18" fill="#3b73ed" class="tile"/>
<rect x="642" y="136" width="18" height="18" fill="#5485ef" class="tile"/>
<rect x="642" y="154" width="18" height="18" fill="#729af1" class="tile"/>
<rect x="642" y="172" width="18" height="18" fill="#99b6f4" class="tile"/>
<rect x="642" y="190" width="18" height="18" fill="#f7fafc" class="tile"/>
<text x="668" y="112" class="small">17703</text>
<text x="668" y="202" class="small">0</text>
</svg>
