<svg xmlns="http://www.w3.org/2000/svg" width="992" height="460" viewBox="0 0 992 460">
<style>
text { font-family: Arial, Helvetica, sans-serif; fill: #172033; }
.small { font-size: 11px; }
.label { font-size: 12px; }
.title { font-size: 18px; font-weight: 700; }
.axis { stroke: #9aa4b2; stroke-width: 1; }
.grid { stroke: #e2e8f0; stroke-width: 1; }
.panel { fill: #f3f4f6; }
.tile { stroke: #ffffff; stroke-width: 1; }
.legend-title { font-size: 11px; font-weight: 700; }
</style>
<rect x="0" y="0" width="992" height="460" fill="#ffffff"/>
<text x="30" y="28" class="title">Boundary distribution by gene and group</text>
<text x="30" y="52" class="small">Cells show percent of each gene/group that falls into each boundary-distance bin.</text>
<text x="190" y="74" class="small">Gene and grouped class</text>
<rect x="188" y="108" width="674" height="274" class="panel"/>
<text x="196" y="94" class="small">BRCA1 benign</text>
<text x="308" y="94" class="small">BRCA1 vus</text>
<text x="420" y="94" class="small">BRCA1 pathogenic</text>
<text x="532" y="94" class="small">BRCA2 benign</text>
<text x="644" y="94" class="small">BRCA2 vus</text>
<text x="756" y="94" class="small">BRCA2 pathogenic</text>
<text x="20" y="132" class="small">0</text>
<rect x="190" y="110" width="112" height="34" fill="#eaf0fb" class="tile"/>
<text x="196" y="131" class="small">0.32%</text>
<rect x="302" y="110" width="112" height="34" fill="#c9d9f8" class="tile"/>
<text x="308" y="131" class="small">3.75%</text>
<rect x="414" y="110" width="112" height="34" fill="#cfddf9" class="tile"/>
<text x="420" y="131" class="small">2.85%</text>
<rect x="526" y="110" width="112" height="34" fill="#edf3fb" class="tile"/>
<text x="532" y="131" class="small">0.16%</text>
<rect x="638" y="110" width="112" height="34" fill="#d8e4fa" class="tile"/>
<text x="644" y="131" class="small">1.68%</text>
<rect x="750" y="110" width="112" height="34" fill="#e5edfb" class="tile"/>
<text x="756" y="131" class="small">0.58%</text>
<text x="20" y="166" class="small">1-2</text>
<rect x="190" y="144" width="112" height="34" fill="#dfe9fa" class="tile"/>
<text x="196" y="165" class="small">1.04%</text>
<rect x="302" y="144" width="112" height="34" fill="#c1d3f8" class="tile"/>
<text x="308" y="165" class="small">5.23%</text>
<rect x="414" y="144" width="112" height="34" fill="#cbdaf8" class="tile"/>
<text x="420" y="165" class="small">3.53%</text>
<rect x="526" y="144" width="112" height="34" fill="#e6eefb" class="tile"/>
<text x="532" y="165" class="small">0.50%</text>
<rect x="638" y="144" width="112" height="34" fill="#d1dff9" class="tile"/>
<text x="644" y="165" class="small">2.60%</text>
<rect x="750" y="144" width="112" height="34" fill="#d7e3f9" class="tile"/>
<text x="756" y="165" class="small">1.85%</text>
<text x="20" y="200" class="small">3-5</text>
<rect x="190" y="178" width="112" height="34" fill="#d7e3f9" class="tile"/>
<text x="196" y="199" class="small">1.88%</text>
<rect x="302" y="178" width="112" height="34" fill="#bacef7" class="tile"/>
<text x="308" y="199" class="small">6.77%</text>
<rect x="414" y="178" width="112" height="34" fill="#d6e2f9" class="tile"/>
<text x="420" y="199" class="small">1.94%</text>
<rect x="526" y="178" width="112" height="34" fill="#e0e9fa" class="tile"/>
<text x="532" y="199" class="small">0.96%</text>
<rect x="638" y="178" width="112" height="34" fill="#cbdaf8" class="tile"/>
<text x="644" y="199" class="small">3.48%</text>
<rect x="750" y="178" width="112" height="34" fill="#dae5fa" class="tile"/>
<text x="756" y="199" class="small">1.47%</text>
<text x="20" y="234" class="small">6-10</text>
<rect x="190" y="212" width="112" height="34" fill="#ccdbf8" class="tile"/>
<text x="196" y="233" class="small">3.38%</text>
<rect x="302" y="212" width="112" height="34" fill="#b1c8f6" class="tile"/>
<text x="308" y="233" class="small">8.80%</text>
<rect x="414" y="212" width="112" height="34" fill="#c8d8f8" class="tile"/>
<text x="420" y="233" class="small">3.99%</text>
<rect x="526" y="212" width="112" height="34" fill="#d8e4fa" class="tile"/>
<text x="532" y="233" class="small">1.67%</text>
<rect x="638" y="212" width="112" height="34" fill="#bfd2f7" class="tile"/>
<text x="644" y="233" class="small">5.61%</text>
<rect x="750" y="212" width="112" height="34" fill="#d4e1f9" class="tile"/>
<text x="756" y="233" class="small">2.24%</text>
<text x="20" y="268" class="small">11-20</text>
<rect x="190" y="246" width="112" height="34" fill="#bbcff7" class="tile"/>
<text x="196" y="267" class="small">6.43%</text>
<rect x="302" y="246" width="112" height="34" fill="#8eaff4" class="tile"/>
<text x="308" y="267" class="small">19.63%</text>
<rect x="414" y="246" width="112" height="34" fill="#b0c7f6" class="tile"/>
<text x="420" y="267" class="small">9.12%</text>
<rect x="526" y="246" width="112" height="34" fill="#ccdbf8" class="tile"/>
<text x="532" y="267" class="small">3.39%</text>
<rect x="638" y="246" width="112" height="34" fill="#a9c2f6" class="tile"/>
<text x="644" y="267" class="small">10.84%</text>
<rect x="750" y="246" width="112" height="34" fill="#c1d3f8" class="tile"/>
<text x="756" y="267" class="small">5.18%</text>
<text x="20" y="302" class="small">21-50</text>
<rect x="190" y="280" width="112" height="34" fill="#a0bcf5" class="tile"/>
<text x="196" y="301" class="small">13.47%</text>
<rect x="302" y="280" width="112" height="34" fill="#6893f0" class="tile"/>
<text x="308" y="301" class="small">36.43%</text>
<rect x="414" y="280" width="112" height="34" fill="#96b4f4" class="tile"/>
<text x="420" y="301" class="small">16.76%</text>
<rect x="526" y="280" width="112" height="34" fill="#b8cdf7" class="tile"/>
<text x="532" y="301" class="small">7.03%</text>
<rect x="638" y="280" width="112" height="34" fill="#6f98f1" class="tile"/>
<text x="644" y="301" class="small">33.13%</text>
<rect x="750" y="280" width="112" height="34" fill="#a0bbf5" class="tile"/>
<text x="756" y="301" class="small">13.55%</text>
<text x="20" y="336" class="small">51-100</text>
<rect x="190" y="314" width="112" height="34" fill="#b4caf7" class="tile"/>
<text x="196" y="335" class="small">7.98%</text>
<rect x="302" y="314" width="112" height="34" fill="#b0c7f6" class="tile"/>
<text x="308" y="335" class="small">9.05%</text>
<rect x="414" y="314" width="112" height="34" fill="#b9cdf7" class="tile"/>
<text x="420" y="335" class="small">6.96%</text>
<rect x="526" y="314" width="112" height="34" fill="#b7ccf7" class="tile"/>
<text x="532" y="335" class="small">7.29%</text>
<rect x="638" y="314" width="112" height="34" fill="#7099f1" class="tile"/>
<text x="644" y="335" class="small">32.56%</text>
<rect x="750" y="314" width="112" height="34" fill="#a5bff5" class="tile"/>
<text x="756" y="335" class="small">12.08%</text>
<text x="20" y="370" class="small">&gt;100</text>
<rect x="190" y="348" width="112" height="34" fill="#3870ed" class="tile"/>
<text x="196" y="369" class="small">65.50%</text>
<rect x="302" y="348" width="112" height="34" fill="#abc3f6" class="tile"/>
<text x="308" y="369" class="small">10.34%</text>
<rect x="414" y="348" width="112" height="34" fill="#487cee" class="tile"/>
<text x="420" y="369" class="small">54.85%</text>
<rect x="526" y="348" width="112" height="34" fill="#2563eb" class="tile"/>
<text x="532" y="369" class="small">79.00%</text>
<rect x="638" y="348" width="112" height="34" fill="#acc4f6" class="tile"/>
<text x="644" y="369" class="small">10.09%</text>
<rect x="750" y="348" width="112" height="34" fill="#3b73ed" class="tile"/>
<text x="756" y="369" class="small">63.04%</text>
<text x="896" y="104" class="legend-title">percent</text>
<rect x="896" y="114" width="18" height="18" fill="#2563eb" class="tile"/>
<rect x="896" y="132" width="18" height="18" fill="#3b73ed" class="tile"/>
<rect x="896" y="150" width="18" height="18" fill="#5485ef" class="tile"/>
<rect x="896" y="168" width="18" height="18" fill="#729af1" class="tile"/>
<rect x="896" y="186" width="18" height="18" fill="#99b6f4" class="tile"/>
<rect x="896" y="204" width="18" height="18" fill="#f7fafc" class="tile"/>
<text x="922" y="126" class="small">79.0%</text>
<text x="922" y="216" class="small">0</text>
</svg>
