<svg xmlns="http://www.w3.org/2000/svg" width="1200" height="599" viewBox="0 0 1200 599">
<style>
text{font-family:Arial,sans-serif;font-size:12px;fill:#222}
.title{font-size:20px;font-weight:bold}
.benign{fill:#2f7d62}
.pathogenic{fill:#b23a48}
.small{font-size:10px;fill:#555}
</style>
<text x="24" y="30" class="title">Benign vs Pathogenic Active/Interface Rates</text>
<text x="470" y="48" class="small">green: benign 1+2, red: pathogenic 4+5, percent within group</text>
<text x="24" y="77">not_curated_in_current_dataset</text>
<rect x="470" y="61" width="600.0" height="12" class="benign"/>
<rect x="470" y="75" width="553.9" height="12" class="pathogenic"/>
<text x="1078.0" y="78" class="small">B 57.910%, P 53.462%</text>
<text x="24" y="111">region_level:UniProt:Region:Interaction with RAD51 (1003-2082) [source_e</text>
<rect x="470" y="95" width="152.8" height="12" class="benign"/>
<rect x="470" y="109" width="116.3" height="12" class="pathogenic"/>
<text x="630.812985667415" y="112" class="small">B 14.749%, P 11.225%</text>
<text x="24" y="145">region_level:UniProt:Region:Interaction with RAD51 (1003-2082) [source_e</text>
<rect x="470" y="129" width="106.1" height="12" class="benign"/>
<rect x="470" y="143" width="90.4" height="12" class="pathogenic"/>
<text x="584.074943878432" y="146" class="small">B 10.238%, P 8.726%</text>
<text x="24" y="179">region_level:UniProt:Region:Interaction with NPM1 (639-1000) [source_ext</text>
<rect x="470" y="163" width="86.2" height="12" class="benign"/>
<rect x="470" y="177" width="76.4" height="12" class="pathogenic"/>
<text x="564.2441719910205" y="180" class="small">B 8.324%, P 7.374%</text>
<text x="24" y="213">region_level:UniProt:Region:Interaction with SEM1 (2481-2832) [source_ex</text>
<rect x="470" y="197" width="2.7" height="12" class="benign"/>
<rect x="470" y="211" width="53.9" height="12" class="pathogenic"/>
<text x="531.907787946814" y="214" class="small">B 0.265%, P 5.203%</text>
<text x="24" y="247">region_level:UniProt:Domain:BRCT 1 (1642-1736) [source_extracted_region]</text>
<rect x="470" y="231" width="14.0" height="12" class="benign"/>
<rect x="470" y="245" width="30.1" height="12" class="pathogenic"/>
<text x="508.13987221550684" y="248" class="small">B 1.348%, P 2.909%</text>
<text x="24" y="281">region_level:UniProt:Region:Interaction with FANCD2 (2350-2545) [source_</text>
<rect x="470" y="265" width="29.1" height="12" class="benign"/>
<rect x="470" y="279" width="22.9" height="12" class="pathogenic"/>
<text x="507.072699015714" y="282" class="small">B 2.806%, P 2.212%</text>
<text x="24" y="315">region_level:UniProt:Domain:BRCT 2 (1756-1855) [source_extracted_region]</text>
<rect x="470" y="299" width="16.7" height="12" class="benign"/>
<rect x="470" y="313" width="21.2" height="12" class="pathogenic"/>
<text x="499.21913313762735" y="316" class="small">B 1.610%, P 2.048%</text>
<text x="24" y="349">region_level:UniProt:Region:Interaction with HSF2BP (2270-2337) [source_</text>
<rect x="470" y="333" width="14.8" height="12" class="benign"/>
<rect x="470" y="347" width="16.1" height="12" class="pathogenic"/>
<text x="494.13192885512" y="350" class="small">B 1.426%, P 1.557%</text>
<text x="24" y="383">region_level:UniProt:Region:Interaction with FANCD2 (2350-2545) [source_</text>
<rect x="470" y="367" width="1.1" height="12" class="benign"/>
<rect x="470" y="381" width="10.2" height="12" class="pathogenic"/>
<text x="488.18476946986704" y="384" class="small">B 0.103%, P 0.983%</text>
<text x="24" y="417">region_level:UniProt:Zinc finger:RING-type (24-65) [source_extracted_reg</text>
<rect x="470" y="401" width="6.0" height="12" class="benign"/>
<rect x="470" y="415" width="6.8" height="12" class="pathogenic"/>
<text x="484.7863926782939" y="418" class="small">B 0.579%, P 0.655%</text>
<text x="24" y="451">region_level:UniProt:Region:Interaction with PALB2 (1-40) [source_extrac</text>
<rect x="470" y="435" width="2.1" height="12" class="benign"/>
<rect x="470" y="449" width="6.4" height="12" class="pathogenic"/>
<text x="484.37195648419964" y="452" class="small">B 0.206%, P 0.615%</text>
<text x="24" y="485">region_level:UniProt:Region:Interaction with PALB2 (1397-1424) [source_e</text>
<rect x="470" y="469" width="0.5" height="12" class="benign"/>
<rect x="470" y="483" width="5.1" height="12" class="pathogenic"/>
<text x="483.0975651873597" y="486" class="small">B 0.051%, P 0.492%</text>
<text x="24" y="519">UniProt:Mutagenesis:No effect on interaction with BAP1. [source_extracte</text>
<rect x="470" y="503" width="0.1" height="12" class="benign"/>
<rect x="470" y="517" width="3.0" height="12" class="pathogenic"/>
<text x="480.9735796926265" y="520" class="small">B 0.005%, P 0.287%</text>
</svg>