<svg xmlns="http://www.w3.org/2000/svg" width="1120" height="358" viewBox="0 0 1120 358">
<style>
text{font-family:Arial,sans-serif;font-size:13px;fill:#222}
.title{font-size:20px;font-weight:bold}
.small{font-size:11px;fill:#555}
.bar{fill:#2f7d62}
</style>
<text x="24" y="30" class="title">Benign/Likely Benign Variants By Protein Feature</text>
<text x="24" y="75">outside_mapped_structure_function_features</text>
<rect x="470" y="61" width="560" height="19" class="bar"/>
<text x="1038" y="76" class="small">23836</text>
<text x="24" y="106">BRC repeats / RAD51-binding region</text>
<rect x="470" y="92" width="217" height="19" class="bar"/>
<text x="695" y="107" class="small">9242</text>
<text x="24" y="137">C-terminal RAD51-binding/nuclear localization context</text>
<rect x="470" y="123" width="43" height="19" class="bar"/>
<text x="521" y="138" class="small">1834</text>
<text x="24" y="168">BRCT phosphopeptide-binding region</text>
<rect x="470" y="154" width="27" height="19" class="bar"/>
<text x="505" y="169" class="small">1178</text>
<text x="24" y="199">RING zinc-binding/E3 ligase region</text>
<rect x="470" y="185" width="13" height="19" class="bar"/>
<text x="491" y="200" class="small">576</text>
<text x="24" y="230">DNA-binding domain / helical-OB-DSS1 region</text>
<rect x="470" y="216" width="6" height="19" class="bar"/>
<text x="484" y="231" class="small">256</text>
<text x="24" y="261">coiled-coil PALB2 interaction region</text>
<rect x="470" y="247" width="0" height="19" class="bar"/>
<text x="478" y="262" class="small">22</text>
<text x="24" y="292">PALB2 binding N-terminal region</text>
<rect x="470" y="278" width="0" height="19" class="bar"/>
<text x="478" y="293" class="small">8</text>
</svg>