<svg xmlns="http://www.w3.org/2000/svg" width="980" height="430" viewBox="0 0 980 430">
<style>
text{font-family:Arial,sans-serif;font-size:13px;fill:#222}
.title{font-size:20px;font-weight:bold}
.small{font-size:11px;fill:#555}
.bar{fill:#4f6bed}
.grid{stroke:#ddd;stroke-width:1}
</style>
<text x="24" y="30" class="title">VUS Moved By Hypothetical Evidence</text>
<text x="24" y="73">benign_strong: 3 VUS -&gt; 2 Likely Benign</text>
<rect x="300" y="60" width="600" height="18" class="bar"/>
<text x="908" y="74" class="small">7198</text>
<text x="24" y="103">benign_supporting: 3 VUS -&gt; 2 Likely Benign</text>
<rect x="300" y="90" width="123" height="18" class="bar"/>
<text x="431" y="104" class="small">1477</text>
<text x="24" y="133">pathogenic_strong: 3 VUS -&gt; 4 Likely Pathogenic</text>
<rect x="300" y="120" width="66" height="18" class="bar"/>
<text x="374" y="134" class="small">794</text>
<text x="24" y="163">pathogenic_supporting: 3 VUS -&gt; 4 Likely Pathogenic</text>
<rect x="300" y="150" width="34" height="18" class="bar"/>
<text x="342" y="164" class="small">414</text>
<text x="24" y="193">benign_strong: 3 VUS -&gt; 1 Benign</text>
<rect x="300" y="180" width="14" height="18" class="bar"/>
<text x="322" y="194" class="small">175</text>
<text x="24" y="223">pathogenic_supporting: 3 VUS -&gt; 2 Likely Benign</text>
<rect x="300" y="210" width="14" height="18" class="bar"/>
<text x="322" y="224" class="small">172</text>
<text x="24" y="253">pathogenic_strong: 3 VUS -&gt; 5 Pathogenic</text>
<rect x="300" y="240" width="0" height="18" class="bar"/>
<text x="308" y="254" class="small">8</text>
<text x="24" y="283">benign_supporting: 3 VUS -&gt; 4 Likely Pathogenic</text>
<rect x="300" y="270" width="0" height="18" class="bar"/>
<text x="308" y="284" class="small">8</text>
<text x="24" y="313">pathogenic_supporting: 3 VUS -&gt; 5 Pathogenic</text>
<rect x="300" y="300" width="0" height="18" class="bar"/>
<text x="308" y="314" class="small">7</text>
<text x="24" y="343">pathogenic_supporting: 3 VUS -&gt; 1 Benign</text>
<rect x="300" y="330" width="0" height="18" class="bar"/>
<text x="308" y="344" class="small">3</text>
<text x="24" y="373">pathogenic_strong: 3 VUS -&gt; 2 Likely Benign</text>
<rect x="300" y="360" width="0" height="18" class="bar"/>
<text x="308" y="374" class="small">3</text>
</svg>