<svg xmlns="http://www.w3.org/2000/svg" width="1260" height="418" viewBox="0 0 1260 418">
<style>
text { font-family: Arial, Helvetica, sans-serif; fill: #172033; }
.small { font-size: 12px; }
.title { font-size: 18px; font-weight: 700; }
</style>
<rect x="0" y="0" width="1260" height="418" fill="#ffffff"/>
<text x="28" y="34" class="title">Deep bucket counts</text>
<text x="24" y="76" class="small">PM2_only_pathogenic_neighborhood</text>
<rect x="460" y="58" width="650.0" height="22" fill="#4f46e5"/>
<text x="1118.0" y="75" class="small">3692</text>
<text x="24" y="110" class="small">PM2_only_low_information_background</text>
<rect x="460" y="92" width="228.2" height="22" fill="#4f46e5"/>
<text x="696.2" y="109" class="small">1296</text>
<text x="24" y="144" class="small">BP4_BP7_PM2_near_pathogenic_density</text>
<rect x="460" y="126" width="163.7" height="22" fill="#4f46e5"/>
<text x="631.7" y="143" class="small">930</text>
<text x="24" y="178" class="small">PS3_PM2_needs_one_more_pathogenic_support</text>
<rect x="460" y="160" width="71.7" height="22" fill="#4f46e5"/>
<text x="539.7" y="177" class="small">407</text>
<text x="24" y="212" class="small">BP4_BP7_PM2_low_splice_benign_prediction</text>
<rect x="460" y="194" width="59.9" height="22" fill="#4f46e5"/>
<text x="527.9" y="211" class="small">340</text>
<text x="24" y="246" class="small">PM2_only_splice_or_boundary_context</text>
<rect x="460" y="228" width="10.2" height="22" fill="#4f46e5"/>
<text x="478.2" y="245" class="small">58</text>
<text x="24" y="280" class="small">PS3_only_needs_independent_support</text>
<rect x="460" y="262" width="4.8" height="22" fill="#4f46e5"/>
<text x="472.8" y="279" class="small">27</text>
<text x="24" y="314" class="small">complex_strong_pathogenic_combo_review</text>
<rect x="460" y="296" width="1.4" height="22" fill="#4f46e5"/>
<text x="469.4" y="313" class="small">8</text>
<text x="24" y="348" class="small">BP4_BP7_PM2_boundary_splice_benign</text>
<rect x="460" y="330" width="1.1" height="22" fill="#4f46e5"/>
<text x="469.1" y="347" class="small">6</text>
<text x="24" y="382" class="small">PS3_PP3_splice_or_functional_followup</text>
<rect x="460" y="364" width="0.7" height="22" fill="#4f46e5"/>
<text x="468.7" y="381" class="small">4</text>
</svg>
