<svg xmlns="http://www.w3.org/2000/svg" width="980" height="310" viewBox="0 0 980 310">
<style>
text { font-family: Arial, Helvetica, sans-serif; fill: #172033; }
.small { font-size: 11px; }
.label { font-size: 12px; }
.title { font-size: 18px; font-weight: 700; }
</style>
<rect x="0" y="0" width="980" height="310" fill="#ffffff"/>
<text x="28" y="30" class="title">Grouped class patterns per CDS position</text>
<text x="28" y="67" class="small">benign_only</text>
<rect x="250" y="50" width="600.0" height="22" fill="#16a34a" opacity="0.85"/>
<text x="858.0" y="67" class="small">10793</text>
<text x="28" y="101" class="small">vus_only</text>
<rect x="250" y="84" width="108.1" height="22" fill="#2563eb" opacity="0.85"/>
<text x="366.1" y="101" class="small">1945</text>
<text x="28" y="135" class="small">benign_and_pathogenic</text>
<rect x="250" y="118" width="86.3" height="22" fill="#b91c1c" opacity="0.85"/>
<text x="344.3" y="135" class="small">1553</text>
<text x="28" y="169" class="small">benign_and_vus</text>
<rect x="250" y="152" width="59.1" height="22" fill="#2563eb" opacity="0.85"/>
<text x="317.1" y="169" class="small">1064</text>
<text x="28" y="203" class="small">pathogenic_and_vus</text>
<rect x="250" y="186" width="21.5" height="22" fill="#b91c1c" opacity="0.85"/>
<text x="279.5" y="203" class="small">386</text>
<text x="28" y="237" class="small">all_three_groups</text>
<rect x="250" y="220" width="5.6" height="22" fill="#7c3aed" opacity="0.85"/>
<text x="263.6" y="237" class="small">101</text>
<text x="28" y="271" class="small">pathogenic_only</text>
<rect x="250" y="254" width="0.4" height="22" fill="#b91c1c" opacity="0.85"/>
<text x="258.4" y="271" class="small">7</text>
</svg>
