<svg xmlns="http://www.w3.org/2000/svg" width="738" height="616" viewBox="0 0 738 616">
<style>
text { font-family: Arial, Helvetica, sans-serif; fill: #172033; }
.small { font-size: 11px; }
.label { font-size: 12px; }
.title { font-size: 18px; font-weight: 700; }
.axis { stroke: #9aa4b2; stroke-width: 1; }
.grid { stroke: #e2e8f0; stroke-width: 1; }
.panel { fill: #f3f4f6; }
.tile { stroke: #ffffff; stroke-width: 1; }
.legend-title { font-size: 11px; font-weight: 700; }
</style>
<rect x="0" y="0" width="738" height="616" fill="#ffffff"/>
<text x="30" y="32" class="title">Criteria by predicted class</text>
<text x="150" y="58" class="small">Class</text>
<rect x="148" y="94" width="462" height="452" class="panel"/>
<text x="154" y="80" class="small">1</text>
<text x="246" y="80" class="small">2</text>
<text x="338" y="80" class="small">3</text>
<text x="430" y="80" class="small">4</text>
<text x="522" y="80" class="small">5</text>
<text x="20" y="116" class="small">BA1</text>
<rect x="150" y="96" width="92" height="30" fill="#eff4fb" class="tile"/>
<text x="156" y="115" class="small">48</text>
<rect x="242" y="96" width="92" height="30" fill="#f7fafc" class="tile"/>
<rect x="334" y="96" width="92" height="30" fill="#f7fafc" class="tile"/>
<rect x="426" y="96" width="92" height="30" fill="#f7fafc" class="tile"/>
<rect x="518" y="96" width="92" height="30" fill="#f7fafc" class="tile"/>
<text x="20" y="146" class="small">BS1_Strong</text>
<rect x="150" y="126" width="92" height="30" fill="#ecf2fb" class="tile"/>
<text x="156" y="145" class="small">97</text>
<rect x="242" y="126" width="92" height="30" fill="#f5f9fc" class="tile"/>
<text x="248" y="145" class="small">2</text>
<rect x="334" y="126" width="92" height="30" fill="#f5f9fc" class="tile"/>
<text x="340" y="145" class="small">2</text>
<rect x="426" y="126" width="92" height="30" fill="#f7fafc" class="tile"/>
<rect x="518" y="126" width="92" height="30" fill="#f7fafc" class="tile"/>
<text x="20" y="176" class="small">BS1_Supporting</text>
<rect x="150" y="156" width="92" height="30" fill="#f1f6fc" class="tile"/>
<text x="156" y="175" class="small">29</text>
<rect x="242" y="156" width="92" height="30" fill="#ecf2fb" class="tile"/>
<text x="248" y="175" class="small">100</text>
<rect x="334" y="156" width="92" height="30" fill="#f3f7fc" class="tile"/>
<text x="340" y="175" class="small">11</text>
<rect x="426" y="156" width="92" height="30" fill="#f7fafc" class="tile"/>
<rect x="518" y="156" width="92" height="30" fill="#f6f9fc" class="tile"/>
<text x="524" y="175" class="small">1</text>
<text x="20" y="206" class="small">BS3</text>
<rect x="150" y="186" width="92" height="30" fill="#dee8fa" class="tile"/>
<text x="156" y="205" class="small">495</text>
<rect x="242" y="186" width="92" height="30" fill="#c6d7f8" class="tile"/>
<text x="248" y="205" class="small">1861</text>
<rect x="334" y="186" width="92" height="30" fill="#e8effb" class="tile"/>
<text x="340" y="205" class="small">172</text>
<rect x="426" y="186" width="92" height="30" fill="#f7fafc" class="tile"/>
<rect x="518" y="186" width="92" height="30" fill="#f7fafc" class="tile"/>
<text x="20" y="236" class="small">BP1</text>
<rect x="150" y="216" width="92" height="30" fill="#d9e4fa" class="tile"/>
<text x="156" y="235" class="small">710</text>
<rect x="242" y="216" width="92" height="30" fill="#2563eb" class="tile"/>
<text x="248" y="235" class="small">34145</text>
<rect x="334" y="216" width="92" height="30" fill="#f7fafc" class="tile"/>
<rect x="426" y="216" width="92" height="30" fill="#f7fafc" class="tile"/>
<rect x="518" y="216" width="92" height="30" fill="#f7fafc" class="tile"/>
<text x="20" y="266" class="small">BP4</text>
<rect x="150" y="246" width="92" height="30" fill="#f7fafc" class="tile"/>
<rect x="242" y="246" width="92" height="30" fill="#eaf1fb" class="tile"/>
<text x="248" y="265" class="small">128</text>
<rect x="334" y="246" width="92" height="30" fill="#ceddf9" class="tile"/>
<text x="340" y="265" class="small">1276</text>
<rect x="426" y="246" width="92" height="30" fill="#f7fafc" class="tile"/>
<rect x="518" y="246" width="92" height="30" fill="#f7fafc" class="tile"/>
<text x="20" y="296" class="small">BP5</text>
<rect x="150" y="276" width="92" height="30" fill="#e2ebfa" class="tile"/>
<text x="156" y="295" class="small">337</text>
<rect x="242" y="276" width="92" height="30" fill="#e9f0fb" class="tile"/>
<text x="248" y="295" class="small">151</text>
<rect x="334" y="276" width="92" height="30" fill="#f1f6fc" class="tile"/>
<text x="340" y="295" class="small">26</text>
<rect x="426" y="276" width="92" height="30" fill="#f7fafc" class="tile"/>
<rect x="518" y="276" width="92" height="30" fill="#f7fafc" class="tile"/>
<text x="20" y="326" class="small">BP7</text>
<rect x="150" y="306" width="92" height="30" fill="#f7fafc" class="tile"/>
<rect x="242" y="306" width="92" height="30" fill="#eaf1fb" class="tile"/>
<text x="248" y="325" class="small">128</text>
<rect x="334" y="306" width="92" height="30" fill="#ceddf9" class="tile"/>
<text x="340" y="325" class="small">1276</text>
<rect x="426" y="306" width="92" height="30" fill="#f7fafc" class="tile"/>
<rect x="518" y="306" width="92" height="30" fill="#f7fafc" class="tile"/>
<text x="20" y="356" class="small">PM2_Supporting</text>
<rect x="150" y="336" width="92" height="30" fill="#e2ebfa" class="tile"/>
<text x="156" y="355" class="small">328</text>
<rect x="242" y="336" width="92" height="30" fill="#2966eb" class="tile"/>
<text x="248" y="355" class="small">32978</text>
<rect x="334" y="336" width="92" height="30" fill="#94b3f4" class="tile"/>
<text x="340" y="355" class="small">7545</text>
<rect x="426" y="336" width="92" height="30" fill="#eaf0fb" class="tile"/>
<text x="432" y="355" class="small">136</text>
<rect x="518" y="336" width="92" height="30" fill="#c2d4f8" class="tile"/>
<text x="524" y="355" class="small">2179</text>
<text x="20" y="386" class="small">PM5_PTC</text>
<rect x="150" y="366" width="92" height="30" fill="#f7fafc" class="tile"/>
<rect x="242" y="366" width="92" height="30" fill="#f7fafc" class="tile"/>
<rect x="334" y="366" width="92" height="30" fill="#f7fafc" class="tile"/>
<rect x="426" y="366" width="92" height="30" fill="#f6f9fc" class="tile"/>
<text x="432" y="385" class="small">1</text>
<rect x="518" y="366" width="92" height="30" fill="#c1d3f8" class="tile"/>
<text x="524" y="385" class="small">2240</text>
<text x="20" y="416" class="small">PP3</text>
<rect x="150" y="396" width="92" height="30" fill="#f5f9fc" class="tile"/>
<text x="156" y="415" class="small">2</text>
<rect x="242" y="396" width="92" height="30" fill="#eaf1fb" class="tile"/>
<text x="248" y="415" class="small">126</text>
<rect x="334" y="396" width="92" height="30" fill="#d6e2f9" class="tile"/>
<text x="340" y="415" class="small">854</text>
<rect x="426" y="396" width="92" height="30" fill="#eef3fb" class="tile"/>
<text x="432" y="415" class="small">66</text>
<rect x="518" y="396" width="92" height="30" fill="#f3f7fc" class="tile"/>
<text x="524" y="415" class="small">12</text>
<text x="20" y="446" class="small">PP4</text>
<rect x="150" y="426" width="92" height="30" fill="#f7fafc" class="tile"/>
<rect x="242" y="426" width="92" height="30" fill="#f7fafc" class="tile"/>
<rect x="334" y="426" width="92" height="30" fill="#f4f8fc" class="tile"/>
<text x="340" y="445" class="small">6</text>
<rect x="426" y="426" width="92" height="30" fill="#f4f8fc" class="tile"/>
<text x="432" y="445" class="small">9</text>
<rect x="518" y="426" width="92" height="30" fill="#f0f5fb" class="tile"/>
<text x="524" y="445" class="small">43</text>
<text x="20" y="476" class="small">PS1</text>
<rect x="150" y="456" width="92" height="30" fill="#f7fafc" class="tile"/>
<rect x="242" y="456" width="92" height="30" fill="#f7fafc" class="tile"/>
<rect x="334" y="456" width="92" height="30" fill="#f4f8fc" class="tile"/>
<text x="340" y="475" class="small">5</text>
<rect x="426" y="456" width="92" height="30" fill="#f5f9fc" class="tile"/>
<text x="432" y="475" class="small">2</text>
<rect x="518" y="456" width="92" height="30" fill="#f7fafc" class="tile"/>
<text x="20" y="506" class="small">PS3</text>
<rect x="150" y="486" width="92" height="30" fill="#f7fafc" class="tile"/>
<rect x="242" y="486" width="92" height="30" fill="#f6f9fc" class="tile"/>
<text x="248" y="505" class="small">1</text>
<rect x="334" y="486" width="92" height="30" fill="#dfe9fa" class="tile"/>
<text x="340" y="505" class="small">448</text>
<rect x="426" y="486" width="92" height="30" fill="#eef4fb" class="tile"/>
<text x="432" y="505" class="small">63</text>
<rect x="518" y="486" width="92" height="30" fill="#e7effb" class="tile"/>
<text x="524" y="505" class="small">187</text>
<text x="20" y="536" class="small">PVS1</text>
<rect x="150" y="516" width="92" height="30" fill="#f7fafc" class="tile"/>
<rect x="242" y="516" width="92" height="30" fill="#f7fafc" class="tile"/>
<rect x="334" y="516" width="92" height="30" fill="#f6f9fc" class="tile"/>
<text x="340" y="535" class="small">1</text>
<rect x="426" y="516" width="92" height="30" fill="#eef3fb" class="tile"/>
<text x="432" y="535" class="small">69</text>
<rect x="518" y="516" width="92" height="30" fill="#c1d3f8" class="tile"/>
<text x="524" y="535" class="small">2257</text>
<text x="642" y="90" class="legend-title">count</text>
<rect x="642" y="100" width="18" height="18" fill="#2563eb" class="tile"/>
<rect x="642" y="118" width="18" height="18" fill="#3b73ed" class="tile"/>
<rect x="642" y="136" width="18" height="18" fill="#5485ef" class="tile"/>
<rect x="642" y="154" width="18" height="18" fill="#729af1" class="tile"/>
<rect x="642" y="172" width="18" height="18" fill="#99b6f4" class="tile"/>
<rect x="642" y="190" width="18" height="18" fill="#f7fafc" class="tile"/>
<text x="668" y="112" class="small">34145</text>
<text x="668" y="202" class="small">0</text>
</svg>
