<svg xmlns="http://www.w3.org/2000/svg" width="544" height="426" viewBox="0 0 544 426">
<style>
text { font-family: Arial, Helvetica, sans-serif; fill: #172033; }
.small { font-size: 11px; }
.label { font-size: 12px; }
.title { font-size: 18px; font-weight: 700; }
.axis { stroke: #9aa4b2; stroke-width: 1; }
.grid { stroke: #e2e8f0; stroke-width: 1; }
.panel { fill: #f3f4f6; }
.tile { stroke: #ffffff; stroke-width: 1; }
.legend-title { font-size: 11px; font-weight: 700; }
</style>
<rect x="0" y="0" width="544" height="426" fill="#ffffff"/>
<text x="30" y="28" class="title">SpliceAI bins by gene</text>
<text x="30" y="52" class="small">Cells show percent of generated coding SNVs within each gene.</text>
<text x="190" y="74" class="small">Gene</text>
<rect x="188" y="108" width="226" height="240" class="panel"/>
<text x="196" y="94" class="small">BRCA1</text>
<text x="308" y="94" class="small">BRCA2</text>
<text x="20" y="132" class="small">0</text>
<rect x="190" y="110" width="112" height="34" fill="#2f6aec" class="tile"/>
<text x="196" y="131" class="small">66.08%</text>
<rect x="302" y="110" width="112" height="34" fill="#2563eb" class="tile"/>
<text x="308" y="131" class="small">73.00%</text>
<text x="20" y="166" class="small">0-0.099</text>
<rect x="190" y="144" width="112" height="34" fill="#799ff2" class="tile"/>
<text x="196" y="165" class="small">26.29%</text>
<rect x="302" y="144" width="112" height="34" fill="#82a6f3" class="tile"/>
<text x="308" y="165" class="small">22.50%</text>
<text x="20" y="200" class="small">0.10-0.199</text>
<rect x="190" y="178" width="112" height="34" fill="#c4d5f8" class="tile"/>
<text x="196" y="199" class="small">4.32%</text>
<rect x="302" y="178" width="112" height="34" fill="#d1dff9" class="tile"/>
<text x="308" y="199" class="small">2.40%</text>
<text x="20" y="234" class="small">0.20-0.499</text>
<rect x="190" y="212" width="112" height="34" fill="#d2dff9" class="tile"/>
<text x="196" y="233" class="small">2.31%</text>
<rect x="302" y="212" width="112" height="34" fill="#d9e4fa" class="tile"/>
<text x="308" y="233" class="small">1.53%</text>
<text x="20" y="268" class="small">0.50-0.799</text>
<rect x="190" y="246" width="112" height="34" fill="#e3ecfa" class="tile"/>
<text x="196" y="267" class="small">0.64%</text>
<rect x="302" y="246" width="112" height="34" fill="#e9f0fb" class="tile"/>
<text x="308" y="267" class="small">0.35%</text>
<text x="20" y="302" class="small">0.80-1.00</text>
<rect x="190" y="280" width="112" height="34" fill="#e8effb" class="tile"/>
<text x="196" y="301" class="small">0.36%</text>
<rect x="302" y="280" width="112" height="34" fill="#ebf1fb" class="tile"/>
<text x="308" y="301" class="small">0.23%</text>
<text x="20" y="336" class="small">missing</text>
<rect x="190" y="314" width="112" height="34" fill="#f7fafc" class="tile"/>
<rect x="302" y="314" width="112" height="34" fill="#f7fafc" class="tile"/>
<text x="448" y="104" class="legend-title">percent</text>
<rect x="448" y="114" width="18" height="18" fill="#2563eb" class="tile"/>
<rect x="448" y="132" width="18" height="18" fill="#3b73ed" class="tile"/>
<rect x="448" y="150" width="18" height="18" fill="#5485ef" class="tile"/>
<rect x="448" y="168" width="18" height="18" fill="#729af1" class="tile"/>
<rect x="448" y="186" width="18" height="18" fill="#99b6f4" class="tile"/>
<rect x="448" y="204" width="18" height="18" fill="#f7fafc" class="tile"/>
<text x="474" y="126" class="small">73.0%</text>
<text x="474" y="216" class="small">0</text>
</svg>
