<svg xmlns="http://www.w3.org/2000/svg" width="738" height="376" viewBox="0 0 738 376">
<style>
text { font-family: Arial, Helvetica, sans-serif; fill: #172033; }
.small { font-size: 11px; }
.label { font-size: 12px; }
.title { font-size: 18px; font-weight: 700; }
.axis { stroke: #9aa4b2; stroke-width: 1; }
.grid { stroke: #e2e8f0; stroke-width: 1; }
.panel { fill: #f3f4f6; }
.tile { stroke: #ffffff; stroke-width: 1; }
.legend-title { font-size: 11px; font-weight: 700; }
</style>
<rect x="0" y="0" width="738" height="376" fill="#ffffff"/>
<text x="30" y="32" class="title">SpliceAI score bins by predicted class</text>
<text x="150" y="58" class="small">Class</text>
<rect x="148" y="94" width="462" height="212" class="panel"/>
<text x="154" y="80" class="small">1</text>
<text x="246" y="80" class="small">2</text>
<text x="338" y="80" class="small">3</text>
<text x="430" y="80" class="small">4</text>
<text x="522" y="80" class="small">5</text>
<text x="20" y="116" class="small">0</text>
<rect x="150" y="96" width="92" height="30" fill="#d9e5fa" class="tile"/>
<text x="156" y="115" class="small">564</text>
<rect x="242" y="96" width="92" height="30" fill="#2563eb" class="tile"/>
<text x="248" y="115" class="small">28429</text>
<rect x="334" y="96" width="92" height="30" fill="#b2c8f6" class="tile"/>
<text x="340" y="115" class="small">3075</text>
<rect x="426" y="96" width="92" height="30" fill="#f2f6fc" class="tile"/>
<text x="432" y="115" class="small">18</text>
<rect x="518" y="96" width="92" height="30" fill="#c7d8f8" class="tile"/>
<text x="524" y="115" class="small">1461</text>
<text x="20" y="146" class="small">0-0.099</text>
<rect x="150" y="126" width="92" height="30" fill="#e4ecfa" class="tile"/>
<text x="156" y="145" class="small">229</text>
<rect x="242" y="126" width="92" height="30" fill="#8daef3" class="tile"/>
<text x="248" y="145" class="small">7288</text>
<rect x="334" y="126" width="92" height="30" fill="#b1c7f6" class="tile"/>
<text x="340" y="145" class="small">3196</text>
<rect x="426" y="126" width="92" height="30" fill="#eff4fb" class="tile"/>
<text x="432" y="145" class="small">40</text>
<rect x="518" y="126" width="92" height="30" fill="#d9e4fa" class="tile"/>
<text x="524" y="145" class="small">581</text>
<text x="20" y="176" class="small">0.10-0.199</text>
<rect x="150" y="156" width="92" height="30" fill="#f4f8fc" class="tile"/>
<text x="156" y="175" class="small">7</text>
<rect x="242" y="156" width="92" height="30" fill="#e1eafa" class="tile"/>
<text x="248" y="175" class="small">307</text>
<rect x="334" y="156" width="92" height="30" fill="#cfddf9" class="tile"/>
<text x="340" y="175" class="small">1017</text>
<rect x="426" y="156" width="92" height="30" fill="#f3f7fc" class="tile"/>
<text x="432" y="175" class="small">8</text>
<rect x="518" y="156" width="92" height="30" fill="#e9f0fb" class="tile"/>
<text x="524" y="175" class="small">122</text>
<text x="20" y="206" class="small">0.20-0.499</text>
<rect x="150" y="186" width="92" height="30" fill="#f5f9fc" class="tile"/>
<text x="156" y="205" class="small">2</text>
<rect x="242" y="186" width="92" height="30" fill="#eaf1fb" class="tile"/>
<text x="248" y="205" class="small">102</text>
<rect x="334" y="186" width="92" height="30" fill="#d8e4f9" class="tile"/>
<text x="340" y="205" class="small">616</text>
<rect x="426" y="186" width="92" height="30" fill="#eff4fb" class="tile"/>
<text x="432" y="205" class="small">38</text>
<rect x="518" y="186" width="92" height="30" fill="#ebf1fb" class="tile"/>
<text x="524" y="205" class="small">99</text>
<text x="20" y="236" class="small">0.50-0.799</text>
<rect x="150" y="216" width="92" height="30" fill="#f7fafc" class="tile"/>
<rect x="242" y="216" width="92" height="30" fill="#f2f7fc" class="tile"/>
<text x="248" y="235" class="small">14</text>
<rect x="334" y="216" width="92" height="30" fill="#e8effb" class="tile"/>
<text x="340" y="235" class="small">149</text>
<rect x="426" y="216" width="92" height="30" fill="#f1f5fb" class="tile"/>
<text x="432" y="235" class="small">27</text>
<rect x="518" y="216" width="92" height="30" fill="#f1f6fb" class="tile"/>
<text x="524" y="235" class="small">25</text>
<text x="20" y="266" class="small">0.80-1.00</text>
<rect x="150" y="246" width="92" height="30" fill="#f7fafc" class="tile"/>
<rect x="242" y="246" width="92" height="30" fill="#f3f7fc" class="tile"/>
<text x="248" y="265" class="small">10</text>
<rect x="334" y="246" width="92" height="30" fill="#eaf1fb" class="tile"/>
<text x="340" y="265" class="small">101</text>
<rect x="426" y="246" width="92" height="30" fill="#f3f7fc" class="tile"/>
<text x="432" y="265" class="small">10</text>
<rect x="518" y="246" width="92" height="30" fill="#f3f7fc" class="tile"/>
<text x="524" y="265" class="small">12</text>
<text x="20" y="296" class="small">missing</text>
<rect x="150" y="276" width="92" height="30" fill="#f7fafc" class="tile"/>
<rect x="242" y="276" width="92" height="30" fill="#f7fafc" class="tile"/>
<rect x="334" y="276" width="92" height="30" fill="#f7fafc" class="tile"/>
<rect x="426" y="276" width="92" height="30" fill="#f7fafc" class="tile"/>
<rect x="518" y="276" width="92" height="30" fill="#f7fafc" class="tile"/>
<text x="642" y="90" class="legend-title">count</text>
<rect x="642" y="100" width="18" height="18" fill="#2563eb" class="tile"/>
<rect x="642" y="118" width="18" height="18" fill="#3b73ed" class="tile"/>
<rect x="642" y="136" width="18" height="18" fill="#5485ef" class="tile"/>
<rect x="642" y="154" width="18" height="18" fill="#729af1" class="tile"/>
<rect x="642" y="172" width="18" height="18" fill="#99b6f4" class="tile"/>
<rect x="642" y="190" width="18" height="18" fill="#f7fafc" class="tile"/>
<text x="668" y="112" class="small">28429</text>
<text x="668" y="202" class="small">0</text>
</svg>
