<svg xmlns="http://www.w3.org/2000/svg" width="962" height="440" viewBox="0 0 962 440">
<style>
text { font-family: Arial, Helvetica, sans-serif; fill: #172033; }
.small { font-size: 11px; }
.label { font-size: 12px; }
.title { font-size: 18px; font-weight: 700; }
.grid { stroke: #e2e8f0; stroke-width: 1; }
.axis { stroke: #9aa4b2; stroke-width: 1; }
.panel { fill: #f3f4f6; }
.tile { stroke: #ffffff; stroke-width: 1; }
.legend-title { font-size: 11px; font-weight: 700; }
</style>
<rect x="0" y="0" width="962" height="440" fill="#ffffff"/>
<text x="28" y="34" class="title">BRCA1 exon-level Module 1 signals</text>
<text x="28" y="56" class="small">Cells show percent within exon for selected generated signals and criteria.</text>
<text x="126" y="84" class="small">CDS exon</text>
<rect x="124" y="110" width="706" height="242" class="panel"/>
<text x="130" y="98" class="small">E1</text>
<text x="162" y="98" class="small">E2</text>
<text x="194" y="98" class="small">E3</text>
<text x="226" y="98" class="small">E4</text>
<text x="258" y="98" class="small">E5</text>
<text x="290" y="98" class="small">E6</text>
<text x="322" y="98" class="small">E7</text>
<text x="354" y="98" class="small">E8</text>
<text x="386" y="98" class="small">E9</text>
<text x="418" y="98" class="small">E10</text>
<text x="450" y="98" class="small">E11</text>
<text x="482" y="98" class="small">E12</text>
<text x="514" y="98" class="small">E13</text>
<text x="546" y="98" class="small">E14</text>
<text x="578" y="98" class="small">E15</text>
<text x="610" y="98" class="small">E16</text>
<text x="642" y="98" class="small">E17</text>
<text x="674" y="98" class="small">E18</text>
<text x="706" y="98" class="small">E19</text>
<text x="738" y="98" class="small">E20</text>
<text x="770" y="98" class="small">E21</text>
<text x="802" y="98" class="small">E22</text>
<text x="18" y="132" class="small">VUS</text>
<rect x="126" y="112" width="32" height="30" fill="#80a5f2" class="tile"/>
<text x="130" y="131" class="small">30</text>
<rect x="158" y="112" width="32" height="30" fill="#759cf1" class="tile"/>
<text x="162" y="131" class="small">36</text>
<rect x="190" y="112" width="32" height="30" fill="#9ab7f4" class="tile"/>
<rect x="222" y="112" width="32" height="30" fill="#83a6f3" class="tile"/>
<text x="226" y="131" class="small">28</text>
<rect x="254" y="112" width="32" height="30" fill="#d2dff9" class="tile"/>
<rect x="286" y="112" width="32" height="30" fill="#c6d7f8" class="tile"/>
<rect x="318" y="112" width="32" height="30" fill="#a2bdf5" class="tile"/>
<rect x="350" y="112" width="32" height="30" fill="#6994f1" class="tile"/>
<text x="354" y="131" class="small">42</text>
<rect x="382" y="112" width="32" height="30" fill="#d7e3f9" class="tile"/>
<rect x="414" y="112" width="32" height="30" fill="#a1bcf5" class="tile"/>
<rect x="446" y="112" width="32" height="30" fill="#6591f0" class="tile"/>
<text x="450" y="131" class="small">45</text>
<rect x="478" y="112" width="32" height="30" fill="#86a9f3" class="tile"/>
<text x="482" y="131" class="small">27</text>
<rect x="510" y="112" width="32" height="30" fill="#adc5f6" class="tile"/>
<rect x="542" y="112" width="32" height="30" fill="#cadaf8" class="tile"/>
<rect x="574" y="112" width="32" height="30" fill="#7ea3f2" class="tile"/>
<text x="578" y="131" class="small">31</text>
<rect x="606" y="112" width="32" height="30" fill="#7199f1" class="tile"/>
<text x="610" y="131" class="small">38</text>
<rect x="638" y="112" width="32" height="30" fill="#9bb8f5" class="tile"/>
<rect x="670" y="112" width="32" height="30" fill="#7ca2f2" class="tile"/>
<text x="674" y="131" class="small">32</text>
<rect x="702" y="112" width="32" height="30" fill="#779ef2" class="tile"/>
<text x="706" y="131" class="small">35</text>
<rect x="734" y="112" width="32" height="30" fill="#93b2f4" class="tile"/>
<text x="738" y="131" class="small">21</text>
<rect x="766" y="112" width="32" height="30" fill="#8cadf3" class="tile"/>
<text x="770" y="131" class="small">24</text>
<rect x="798" y="112" width="32" height="30" fill="#84a7f3" class="tile"/>
<text x="802" y="131" class="small">28</text>
<text x="18" y="162" class="small">pathogenic 4/5</text>
<rect x="126" y="142" width="32" height="30" fill="#bdd0f7" class="tile"/>
<rect x="158" y="142" width="32" height="30" fill="#b9cef7" class="tile"/>
<rect x="190" y="142" width="32" height="30" fill="#a9c2f6" class="tile"/>
<rect x="222" y="142" width="32" height="30" fill="#bbcff7" class="tile"/>
<rect x="254" y="142" width="32" height="30" fill="#c7d8f8" class="tile"/>
<rect x="286" y="142" width="32" height="30" fill="#c8d8f8" class="tile"/>
<rect x="318" y="142" width="32" height="30" fill="#f7fafc" class="tile"/>
<rect x="350" y="142" width="32" height="30" fill="#f7fafc" class="tile"/>
<rect x="382" y="142" width="32" height="30" fill="#c7d8f8" class="tile"/>
<rect x="414" y="142" width="32" height="30" fill="#c7d7f8" class="tile"/>
<rect x="446" y="142" width="32" height="30" fill="#c9d9f8" class="tile"/>
<rect x="478" y="142" width="32" height="30" fill="#c6d7f8" class="tile"/>
<rect x="510" y="142" width="32" height="30" fill="#c1d3f8" class="tile"/>
<rect x="542" y="142" width="32" height="30" fill="#ccdbf8" class="tile"/>
<rect x="574" y="142" width="32" height="30" fill="#abc3f6" class="tile"/>
<rect x="606" y="142" width="32" height="30" fill="#aac3f6" class="tile"/>
<rect x="638" y="142" width="32" height="30" fill="#bfd2f8" class="tile"/>
<rect x="670" y="142" width="32" height="30" fill="#bdd0f7" class="tile"/>
<rect x="702" y="142" width="32" height="30" fill="#c1d3f8" class="tile"/>
<rect x="734" y="142" width="32" height="30" fill="#c2d4f8" class="tile"/>
<rect x="766" y="142" width="32" height="30" fill="#c9d9f8" class="tile"/>
<rect x="798" y="142" width="32" height="30" fill="#c5d6f8" class="tile"/>
<text x="18" y="192" class="small">SpAI &gt;=0.20</text>
<rect x="126" y="172" width="32" height="30" fill="#c8d8f8" class="tile"/>
<rect x="158" y="172" width="32" height="30" fill="#d9e5fa" class="tile"/>
<rect x="190" y="172" width="32" height="30" fill="#8aabf3" class="tile"/>
<text x="194" y="191" class="small">25</text>
<rect x="222" y="172" width="32" height="30" fill="#7da2f2" class="tile"/>
<text x="226" y="191" class="small">31</text>
<rect x="254" y="172" width="32" height="30" fill="#e2ebfa" class="tile"/>
<rect x="286" y="172" width="32" height="30" fill="#c2d4f8" class="tile"/>
<rect x="318" y="172" width="32" height="30" fill="#b9cef7" class="tile"/>
<rect x="350" y="172" width="32" height="30" fill="#91b0f4" class="tile"/>
<text x="354" y="191" class="small">22</text>
<rect x="382" y="172" width="32" height="30" fill="#e2ebfa" class="tile"/>
<rect x="414" y="172" width="32" height="30" fill="#cbdaf8" class="tile"/>
<rect x="446" y="172" width="32" height="30" fill="#d6e2f9" class="tile"/>
<rect x="478" y="172" width="32" height="30" fill="#9cb9f5" class="tile"/>
<rect x="510" y="172" width="32" height="30" fill="#c7d7f8" class="tile"/>
<rect x="542" y="172" width="32" height="30" fill="#dbe6fa" class="tile"/>
<rect x="574" y="172" width="32" height="30" fill="#99b6f4" class="tile"/>
<rect x="606" y="172" width="32" height="30" fill="#bcd0f7" class="tile"/>
<rect x="638" y="172" width="32" height="30" fill="#f7fafc" class="tile"/>
<rect x="670" y="172" width="32" height="30" fill="#d8e4fa" class="tile"/>
<rect x="702" y="172" width="32" height="30" fill="#dfe9fa" class="tile"/>
<rect x="734" y="172" width="32" height="30" fill="#e2ebfa" class="tile"/>
<rect x="766" y="172" width="32" height="30" fill="#bdd0f7" class="tile"/>
<rect x="798" y="172" width="32" height="30" fill="#e4ecfa" class="tile"/>
<text x="18" y="222" class="small">PVS1</text>
<rect x="126" y="202" width="32" height="30" fill="#c8d8f8" class="tile"/>
<rect x="158" y="202" width="32" height="30" fill="#c4d5f8" class="tile"/>
<rect x="190" y="202" width="32" height="30" fill="#c2d4f8" class="tile"/>
<rect x="222" y="202" width="32" height="30" fill="#c9d9f8" class="tile"/>
<rect x="254" y="202" width="32" height="30" fill="#c7d8f8" class="tile"/>
<rect x="286" y="202" width="32" height="30" fill="#c8d8f8" class="tile"/>
<rect x="318" y="202" width="32" height="30" fill="#f7fafc" class="tile"/>
<rect x="350" y="202" width="32" height="30" fill="#f7fafc" class="tile"/>
<rect x="382" y="202" width="32" height="30" fill="#c7d8f8" class="tile"/>
<rect x="414" y="202" width="32" height="30" fill="#c9d9f8" class="tile"/>
<rect x="446" y="202" width="32" height="30" fill="#c9d9f8" class="tile"/>
<rect x="478" y="202" width="32" height="30" fill="#c8d8f8" class="tile"/>
<rect x="510" y="202" width="32" height="30" fill="#c2d4f8" class="tile"/>
<rect x="542" y="202" width="32" height="30" fill="#cddcf9" class="tile"/>
<rect x="574" y="202" width="32" height="30" fill="#cddbf9" class="tile"/>
<rect x="606" y="202" width="32" height="30" fill="#c2d4f8" class="tile"/>
<rect x="638" y="202" width="32" height="30" fill="#bfd2f8" class="tile"/>
<rect x="670" y="202" width="32" height="30" fill="#c5d6f8" class="tile"/>
<rect x="702" y="202" width="32" height="30" fill="#d1dff9" class="tile"/>
<rect x="734" y="202" width="32" height="30" fill="#c4d6f8" class="tile"/>
<rect x="766" y="202" width="32" height="30" fill="#d7e3f9" class="tile"/>
<rect x="798" y="202" width="32" height="30" fill="#cadaf8" class="tile"/>
<text x="18" y="252" class="small">PP3</text>
<rect x="126" y="232" width="32" height="30" fill="#d5e1f9" class="tile"/>
<rect x="158" y="232" width="32" height="30" fill="#d9e5fa" class="tile"/>
<rect x="190" y="232" width="32" height="30" fill="#8faff4" class="tile"/>
<text x="194" y="251" class="small">23</text>
<rect x="222" y="232" width="32" height="30" fill="#83a7f3" class="tile"/>
<text x="226" y="251" class="small">28</text>
<rect x="254" y="232" width="32" height="30" fill="#e5edfb" class="tile"/>
<rect x="286" y="232" width="32" height="30" fill="#c6d7f8" class="tile"/>
<rect x="318" y="232" width="32" height="30" fill="#bcd0f7" class="tile"/>
<rect x="350" y="232" width="32" height="30" fill="#9ab7f4" class="tile"/>
<rect x="382" y="232" width="32" height="30" fill="#e4ecfa" class="tile"/>
<rect x="414" y="232" width="32" height="30" fill="#cfddf9" class="tile"/>
<rect x="446" y="232" width="32" height="30" fill="#d6e2f9" class="tile"/>
<rect x="478" y="232" width="32" height="30" fill="#a3bef5" class="tile"/>
<rect x="510" y="232" width="32" height="30" fill="#c9d9f8" class="tile"/>
<rect x="542" y="232" width="32" height="30" fill="#dfe9fa" class="tile"/>
<rect x="574" y="232" width="32" height="30" fill="#a0bbf5" class="tile"/>
<rect x="606" y="232" width="32" height="30" fill="#c0d2f8" class="tile"/>
<rect x="638" y="232" width="32" height="30" fill="#f7fafc" class="tile"/>
<rect x="670" y="232" width="32" height="30" fill="#d5e2f9" class="tile"/>
<rect x="702" y="232" width="32" height="30" fill="#dfe9fa" class="tile"/>
<rect x="734" y="232" width="32" height="30" fill="#e2ebfa" class="tile"/>
<rect x="766" y="232" width="32" height="30" fill="#c4d5f8" class="tile"/>
<rect x="798" y="232" width="32" height="30" fill="#e4ecfa" class="tile"/>
<text x="18" y="282" class="small">PS3</text>
<rect x="126" y="262" width="32" height="30" fill="#93b2f4" class="tile"/>
<text x="130" y="281" class="small">21</text>
<rect x="158" y="262" width="32" height="30" fill="#84a7f3" class="tile"/>
<text x="162" y="281" class="small">28</text>
<rect x="190" y="262" width="32" height="30" fill="#94b3f4" class="tile"/>
<text x="194" y="281" class="small">21</text>
<rect x="222" y="262" width="32" height="30" fill="#a1bcf5" class="tile"/>
<rect x="254" y="262" width="32" height="30" fill="#f7fafc" class="tile"/>
<rect x="286" y="262" width="32" height="30" fill="#f7fafc" class="tile"/>
<rect x="318" y="262" width="32" height="30" fill="#f7fafc" class="tile"/>
<rect x="350" y="262" width="32" height="30" fill="#f7fafc" class="tile"/>
<rect x="382" y="262" width="32" height="30" fill="#f7fafc" class="tile"/>
<rect x="414" y="262" width="32" height="30" fill="#f7fafc" class="tile"/>
<rect x="446" y="262" width="32" height="30" fill="#f7fafc" class="tile"/>
<rect x="478" y="262" width="32" height="30" fill="#f7fafc" class="tile"/>
<rect x="510" y="262" width="32" height="30" fill="#f7fafc" class="tile"/>
<rect x="542" y="262" width="32" height="30" fill="#d3e0f9" class="tile"/>
<rect x="574" y="262" width="32" height="30" fill="#93b2f4" class="tile"/>
<text x="578" y="281" class="small">21</text>
<rect x="606" y="262" width="32" height="30" fill="#7199f1" class="tile"/>
<text x="610" y="281" class="small">38</text>
<rect x="638" y="262" width="32" height="30" fill="#a8c1f6" class="tile"/>
<rect x="670" y="262" width="32" height="30" fill="#8eaef3" class="tile"/>
<text x="674" y="281" class="small">23</text>
<rect x="702" y="262" width="32" height="30" fill="#a0bcf5" class="tile"/>
<rect x="734" y="262" width="32" height="30" fill="#a6bff5" class="tile"/>
<rect x="766" y="262" width="32" height="30" fill="#a5bff5" class="tile"/>
<rect x="798" y="262" width="32" height="30" fill="#a5bff5" class="tile"/>
<text x="18" y="312" class="small">BS3</text>
<rect x="126" y="292" width="32" height="30" fill="#4379ed" class="tile"/>
<text x="130" y="311" class="small">68</text>
<rect x="158" y="292" width="32" height="30" fill="#4f81ee" class="tile"/>
<text x="162" y="311" class="small">59</text>
<rect x="190" y="292" width="32" height="30" fill="#3e75ed" class="tile"/>
<text x="194" y="311" class="small">72</text>
<rect x="222" y="292" width="32" height="30" fill="#467aee" class="tile"/>
<text x="226" y="311" class="small">66</text>
<rect x="254" y="292" width="32" height="30" fill="#d5e2f9" class="tile"/>
<rect x="286" y="292" width="32" height="30" fill="#d0def9" class="tile"/>
<rect x="318" y="292" width="32" height="30" fill="#d2dff9" class="tile"/>
<rect x="350" y="292" width="32" height="30" fill="#e9f0fb" class="tile"/>
<rect x="382" y="292" width="32" height="30" fill="#dfe9fa" class="tile"/>
<rect x="414" y="292" width="32" height="30" fill="#d6e2f9" class="tile"/>
<rect x="446" y="292" width="32" height="30" fill="#cbdaf8" class="tile"/>
<rect x="478" y="292" width="32" height="30" fill="#d6e2f9" class="tile"/>
<rect x="510" y="292" width="32" height="30" fill="#cddcf9" class="tile"/>
<rect x="542" y="292" width="32" height="30" fill="#82a6f3" class="tile"/>
<text x="546" y="311" class="small">29</text>
<rect x="574" y="292" width="32" height="30" fill="#4a7eee" class="tile"/>
<text x="578" y="311" class="small">63</text>
<rect x="606" y="292" width="32" height="30" fill="#5887ef" class="tile"/>
<text x="610" y="311" class="small">53</text>
<rect x="638" y="292" width="32" height="30" fill="#3770ec" class="tile"/>
<text x="642" y="311" class="small">77</text>
<rect x="670" y="292" width="32" height="30" fill="#487cee" class="tile"/>
<text x="674" y="311" class="small">64</text>
<rect x="702" y="292" width="32" height="30" fill="#477bee" class="tile"/>
<text x="706" y="311" class="small">65</text>
<rect x="734" y="292" width="32" height="30" fill="#356eec" class="tile"/>
<text x="738" y="311" class="small">79</text>
<rect x="766" y="292" width="32" height="30" fill="#3a72ed" class="tile"/>
<text x="770" y="311" class="small">75</text>
<rect x="798" y="292" width="32" height="30" fill="#5585ef" class="tile"/>
<text x="802" y="311" class="small">55</text>
<text x="18" y="342" class="small">BP1</text>
<rect x="126" y="322" width="32" height="30" fill="#f7fafc" class="tile"/>
<rect x="158" y="322" width="32" height="30" fill="#f7fafc" class="tile"/>
<rect x="190" y="322" width="32" height="30" fill="#f7fafc" class="tile"/>
<rect x="222" y="322" width="32" height="30" fill="#f7fafc" class="tile"/>
<rect x="254" y="322" width="32" height="30" fill="#2664eb" class="tile"/>
<text x="258" y="341" class="small">92</text>
<rect x="286" y="322" width="32" height="30" fill="#2865eb" class="tile"/>
<text x="290" y="341" class="small">90</text>
<rect x="318" y="322" width="32" height="30" fill="#2f6aec" class="tile"/>
<text x="322" y="341" class="small">84</text>
<rect x="350" y="322" width="32" height="30" fill="#5284ef" class="tile"/>
<text x="354" y="341" class="small">57</text>
<rect x="382" y="322" width="32" height="30" fill="#2563eb" class="tile"/>
<text x="386" y="341" class="small">93</text>
<rect x="414" y="322" width="32" height="30" fill="#366fec" class="tile"/>
<text x="418" y="341" class="small">78</text>
<rect x="446" y="322" width="32" height="30" fill="#628ff0" class="tile"/>
<text x="450" y="341" class="small">47</text>
<rect x="478" y="322" width="32" height="30" fill="#4479ed" class="tile"/>
<text x="482" y="341" class="small">68</text>
<rect x="510" y="322" width="32" height="30" fill="#326cec" class="tile"/>
<text x="514" y="341" class="small">82</text>
<rect x="542" y="322" width="32" height="30" fill="#326cec" class="tile"/>
<text x="546" y="341" class="small">82</text>
<rect x="574" y="322" width="32" height="30" fill="#f7fafc" class="tile"/>
<rect x="606" y="322" width="32" height="30" fill="#f7fafc" class="tile"/>
<rect x="638" y="322" width="32" height="30" fill="#f7fafc" class="tile"/>
<rect x="670" y="322" width="32" height="30" fill="#f7fafc" class="tile"/>
<rect x="702" y="322" width="32" height="30" fill="#f7fafc" class="tile"/>
<rect x="734" y="322" width="32" height="30" fill="#f7fafc" class="tile"/>
<rect x="766" y="322" width="32" height="30" fill="#f7fafc" class="tile"/>
<rect x="798" y="322" width="32" height="30" fill="#a0bbf5" class="tile"/>
<text x="864" y="102" class="legend-title">percent</text>
<rect x="864" y="112" width="18" height="18" fill="#2563eb" class="tile"/>
<rect x="864" y="130" width="18" height="18" fill="#3b73ed" class="tile"/>
<rect x="864" y="148" width="18" height="18" fill="#5485ef" class="tile"/>
<rect x="864" y="166" width="18" height="18" fill="#729af1" class="tile"/>
<rect x="864" y="184" width="18" height="18" fill="#99b6f4" class="tile"/>
<rect x="864" y="202" width="18" height="18" fill="#f7fafc" class="tile"/>
<text x="888" y="124" class="small">92.8</text>
<text x="888" y="214" class="small">0</text>
</svg>
