<svg xmlns="http://www.w3.org/2000/svg" width="980" height="348" viewBox="0 0 980 348">
<style>
text { font-family: Arial, Helvetica, sans-serif; fill: #172033; }
.small { font-size: 11px; }
.label { font-size: 12px; }
.title { font-size: 18px; font-weight: 700; }
.grid { stroke: #e2e8f0; stroke-width: 1; }
.axis { stroke: #9aa4b2; stroke-width: 1; }
.panel { fill: #f3f4f6; }
.tile { stroke: #ffffff; stroke-width: 1; }
.legend-title { font-size: 11px; font-weight: 700; }
</style>
<rect x="0" y="0" width="980" height="348" fill="#ffffff"/>
<text x="28" y="34" class="title">Conflict sanity-check patterns</text>
<text x="28" y="56" class="small">Counts of generated patterns that should be interpreted cautiously, not classification errors by default.</text>
<text x="24" y="103" class="small">benign_with_pathogenic_evidence</text>
<rect x="300" y="86" width="534.0" height="24" fill="#5578c2"/>
<rect x="834.0" y="86" width="26.0" height="24" fill="#c26a55"/>
<text x="868.0" y="103" class="small">129</text>
<text x="24" y="139" class="small">benign_with_high_spliceai</text>
<rect x="300" y="122" width="534.0" height="24" fill="#5578c2"/>
<rect x="834.0" y="122" width="21.7" height="24" fill="#c26a55"/>
<text x="863.7" y="139" class="small">128</text>
<text x="24" y="175" class="small">vus_high_spliceai_far_from_boundary</text>
<rect x="300" y="158" width="256.1" height="24" fill="#5578c2"/>
<rect x="556.1" y="158" width="234.4" height="24" fill="#c26a55"/>
<text x="798.5" y="175" class="small">113</text>
<text x="24" y="211" class="small">benign_high_spliceai_at_boundary</text>
<rect x="300" y="194" width="56.4" height="24" fill="#5578c2"/>
<rect x="356.4" y="194" width="8.7" height="24" fill="#c26a55"/>
<text x="373.1" y="211" class="small">15</text>
<text x="24" y="247" class="small">vus_with_pvs1</text>
<rect x="300" y="230" width="0.0" height="24" fill="#5578c2"/>
<rect x="300.0" y="230" width="4.3" height="24" fill="#c26a55"/>
<text x="312.3" y="247" class="small">1</text>
<rect x="300" y="306" width="14" height="14" fill="#5578c2"/>
<text x="320" y="318" class="small">BRCA1</text>
<rect x="390" y="306" width="14" height="14" fill="#c26a55"/>
<text x="410" y="318" class="small">BRCA2</text>
</svg>
