<svg xmlns="http://www.w3.org/2000/svg" width="1120" height="620" viewBox="0 0 1120 620">
<style>
text { font-family: Arial, Helvetica, sans-serif; fill: #172033; }
.small { font-size: 11px; }
.label { font-size: 12px; }
.title { font-size: 18px; font-weight: 700; }
.grid { stroke: #e2e8f0; stroke-width: 1; }
</style>
<rect x="0" y="0" width="1120" height="620" fill="#ffffff"/>
<text x="28" y="34" class="title">Boundary SpliceAI rate by variant type</text>
<text x="214" y="60" class="small">0</text>
<text x="302" y="60" class="small">1-2</text>
<text x="390" y="60" class="small">3-5</text>
<text x="478" y="60" class="small">6-10</text>
<text x="566" y="60" class="small">11-20</text>
<text x="654" y="60" class="small">21-50</text>
<text x="742" y="60" class="small">51-100</text>
<text x="830" y="60" class="small">&gt;100</text>
<text x="20" y="88" class="small">BRCA1 acceptor_like missense</text>
<rect x="210" y="70" width="86" height="25" fill="#69a8ba"/>
<text x="215" y="87" class="small">37.0</text>
<rect x="298" y="70" width="86" height="25" fill="#81b6c5"/>
<text x="303" y="87" class="small">25.6</text>
<rect x="386" y="70" width="86" height="25" fill="#b2d2dc"/>
<text x="391" y="87" class="small">8.9</text>
<rect x="474" y="70" width="86" height="25" fill="#bed9e2"/>
<text x="479" y="87" class="small">6.0</text>
<rect x="562" y="70" width="86" height="25" fill="#bad7e0"/>
<text x="567" y="87" class="small">6.8</text>
<rect x="650" y="70" width="86" height="25" fill="#c6dee5"/>
<text x="655" y="87" class="small">4.5</text>
<rect x="738" y="70" width="86" height="25" fill="#e4eff3"/>
<text x="743" y="87" class="small">0.7</text>
<rect x="826" y="70" width="86" height="25" fill="#e7f1f5"/>
<text x="831" y="87" class="small">0.5</text>
<text x="20" y="115" class="small">BRCA1 acceptor_like nonsense</text>
<rect x="210" y="97" width="86" height="25" fill="#82b7c6"/>
<text x="215" y="114" class="small">25.0</text>
<rect x="298" y="97" width="86" height="25" fill="#a5cbd6"/>
<text x="303" y="114" class="small">12.5</text>
<rect x="386" y="97" width="86" height="25" fill="#529bb0"/>
<text x="391" y="114" class="small">50.0</text>
<rect x="474" y="97" width="86" height="25" fill="#67a7b9"/>
<text x="479" y="114" class="small">38.5</text>
<rect x="562" y="97" width="86" height="25" fill="#81b6c5"/>
<text x="567" y="114" class="small">25.6</text>
<rect x="650" y="97" width="86" height="25" fill="#7cb3c3"/>
<text x="655" y="114" class="small">28.1</text>
<rect x="738" y="97" width="86" height="25" fill="#bfdae2"/>
<text x="743" y="114" class="small">5.9</text>
<rect x="826" y="97" width="86" height="25" fill="#ddebf0"/>
<text x="831" y="114" class="small">1.2</text>
<text x="20" y="142" class="small">BRCA1 acceptor_like synonymous</text>
<rect x="210" y="124" width="86" height="25" fill="#f7fafc"/>
<rect x="298" y="124" width="86" height="25" fill="#82b7c6"/>
<text x="303" y="141" class="small">25.0</text>
<rect x="386" y="124" width="86" height="25" fill="#9ac4d1"/>
<text x="391" y="141" class="small">16.0</text>
<rect x="474" y="124" width="86" height="25" fill="#bfdae2"/>
<text x="479" y="141" class="small">5.9</text>
<rect x="562" y="124" width="86" height="25" fill="#afd0da"/>
<text x="567" y="141" class="small">9.7</text>
<rect x="650" y="124" width="86" height="25" fill="#cfe3e9"/>
<text x="655" y="141" class="small">3.0</text>
<rect x="738" y="124" width="86" height="25" fill="#f7fafc"/>
<rect x="826" y="124" width="86" height="25" fill="#e7f1f5"/>
<text x="831" y="141" class="small">0.5</text>
<text x="20" y="169" class="small">BRCA1 acceptor_like initiation_codon</text>
<rect x="210" y="151" width="86" height="25" fill="#f7fafc"/>
<rect x="298" y="151" width="86" height="25" fill="#f7fafc"/>
<rect x="386" y="151" width="86" height="25" fill="#f7fafc"/>
<rect x="474" y="151" width="86" height="25" fill="#f7fafc"/>
<rect x="562" y="151" width="86" height="25" fill="#f7fafc"/>
<rect x="650" y="151" width="86" height="25" fill="#f7fafc"/>
<rect x="738" y="151" width="86" height="25" fill="#f7fafc"/>
<rect x="826" y="151" width="86" height="25" fill="#f7fafc"/>
<text x="20" y="196" class="small">BRCA1 donor_like missense</text>
<rect x="210" y="178" width="86" height="25" fill="#348aa2"/>
<text x="215" y="195" class="small">69.8</text>
<rect x="298" y="178" width="86" height="25" fill="#92c0cd"/>
<text x="303" y="195" class="small">18.7</text>
<rect x="386" y="178" width="86" height="25" fill="#bfdae2"/>
<text x="391" y="195" class="small">5.8</text>
<rect x="474" y="178" width="86" height="25" fill="#c3dce4"/>
<text x="479" y="195" class="small">4.9</text>
<rect x="562" y="178" width="86" height="25" fill="#accfd9"/>
<text x="567" y="195" class="small">10.4</text>
<rect x="650" y="178" width="86" height="25" fill="#bed9e2"/>
<text x="655" y="195" class="small">5.9</text>
<rect x="738" y="178" width="86" height="25" fill="#d7e8ed"/>
<text x="743" y="195" class="small">1.9</text>
<rect x="826" y="178" width="86" height="25" fill="#e3eef3"/>
<text x="831" y="195" class="small">0.8</text>
<text x="20" y="223" class="small">BRCA1 donor_like nonsense</text>
<rect x="210" y="205" width="86" height="25" fill="#0e7490"/>
<text x="215" y="222" class="small">100.0</text>
<rect x="298" y="205" width="86" height="25" fill="#8fbecc"/>
<text x="303" y="222" class="small">20.0</text>
<rect x="386" y="205" width="86" height="25" fill="#82b7c6"/>
<text x="391" y="222" class="small">25.0</text>
<rect x="474" y="205" width="86" height="25" fill="#a5cbd6"/>
<text x="479" y="222" class="small">12.5</text>
<rect x="562" y="205" width="86" height="25" fill="#9fc7d3"/>
<text x="567" y="222" class="small">14.3</text>
<rect x="650" y="205" width="86" height="25" fill="#79b1c2"/>
<text x="655" y="222" class="small">29.3</text>
<rect x="738" y="205" width="86" height="25" fill="#bfdae2"/>
<text x="743" y="222" class="small">5.7</text>
<rect x="826" y="205" width="86" height="25" fill="#ddebf0"/>
<text x="831" y="222" class="small">1.2</text>
<text x="20" y="250" class="small">BRCA1 donor_like synonymous</text>
<rect x="210" y="232" width="86" height="25" fill="#a5cbd6"/>
<text x="215" y="249" class="small">12.5</text>
<rect x="298" y="232" width="86" height="25" fill="#569db1"/>
<text x="303" y="249" class="small">48.0</text>
<rect x="386" y="232" width="86" height="25" fill="#d2e5eb"/>
<text x="391" y="249" class="small">2.6</text>
<rect x="474" y="232" width="86" height="25" fill="#b0d1db"/>
<text x="479" y="249" class="small">9.3</text>
<rect x="562" y="232" width="86" height="25" fill="#b3d3dd"/>
<text x="567" y="249" class="small">8.5</text>
<rect x="650" y="232" width="86" height="25" fill="#c6dee5"/>
<text x="655" y="249" class="small">4.4</text>
<rect x="738" y="232" width="86" height="25" fill="#dcebf0"/>
<text x="743" y="249" class="small">1.3</text>
<rect x="826" y="232" width="86" height="25" fill="#e1edf2"/>
<text x="831" y="249" class="small">0.9</text>
<text x="20" y="277" class="small">BRCA1 donor_like initiation_codon</text>
<rect x="210" y="259" width="86" height="25" fill="#f7fafc"/>
<rect x="298" y="259" width="86" height="25" fill="#f7fafc"/>
<rect x="386" y="259" width="86" height="25" fill="#f7fafc"/>
<rect x="474" y="259" width="86" height="25" fill="#f7fafc"/>
<rect x="562" y="259" width="86" height="25" fill="#f7fafc"/>
<rect x="650" y="259" width="86" height="25" fill="#f7fafc"/>
<rect x="738" y="259" width="86" height="25" fill="#a9cdd8"/>
<text x="743" y="276" class="small">11.1</text>
<rect x="826" y="259" width="86" height="25" fill="#f7fafc"/>
<text x="20" y="304" class="small">BRCA2 acceptor_like missense</text>
<rect x="210" y="286" width="86" height="25" fill="#8abbc9"/>
<text x="215" y="303" class="small">22.1</text>
<rect x="298" y="286" width="86" height="25" fill="#abcfd9"/>
<text x="303" y="303" class="small">10.5</text>
<rect x="386" y="286" width="86" height="25" fill="#abced9"/>
<text x="391" y="303" class="small">10.8</text>
<rect x="474" y="286" width="86" height="25" fill="#c4dde4"/>
<text x="479" y="303" class="small">4.8</text>
<rect x="562" y="286" width="86" height="25" fill="#bcd8e1"/>
<text x="567" y="303" class="small">6.4</text>
<rect x="650" y="286" width="86" height="25" fill="#bad7e0"/>
<text x="655" y="303" class="small">6.9</text>
<rect x="738" y="286" width="86" height="25" fill="#bbd7e0"/>
<text x="743" y="303" class="small">6.7</text>
<rect x="826" y="286" width="86" height="25" fill="#eaf3f6"/>
<text x="831" y="303" class="small">0.3</text>
<text x="20" y="331" class="small">BRCA2 acceptor_like nonsense</text>
<rect x="210" y="313" width="86" height="25" fill="#f7fafc"/>
<rect x="298" y="313" width="86" height="25" fill="#529bb0"/>
<text x="303" y="330" class="small">50.0</text>
<rect x="386" y="313" width="86" height="25" fill="#a5cbd6"/>
<text x="391" y="330" class="small">12.5</text>
<rect x="474" y="313" width="86" height="25" fill="#a5cbd6"/>
<text x="479" y="330" class="small">12.5</text>
<rect x="562" y="313" width="86" height="25" fill="#87bac8"/>
<text x="567" y="330" class="small">23.1</text>
<rect x="650" y="313" width="86" height="25" fill="#96c2cf"/>
<text x="655" y="330" class="small">17.4</text>
<rect x="738" y="313" width="86" height="25" fill="#a4cad5"/>
<text x="743" y="330" class="small">12.8</text>
<rect x="826" y="313" width="86" height="25" fill="#e9f2f5"/>
<text x="831" y="330" class="small">0.4</text>
<text x="20" y="358" class="small">BRCA2 acceptor_like synonymous</text>
<rect x="210" y="340" width="86" height="25" fill="#f7fafc"/>
<rect x="298" y="340" width="86" height="25" fill="#aed0da"/>
<text x="303" y="357" class="small">9.8</text>
<rect x="386" y="340" width="86" height="25" fill="#bfdae2"/>
<text x="391" y="357" class="small">5.9</text>
<rect x="474" y="340" width="86" height="25" fill="#deecf0"/>
<text x="479" y="357" class="small">1.2</text>
<rect x="562" y="340" width="86" height="25" fill="#d3e5eb"/>
<text x="567" y="357" class="small">2.4</text>
<rect x="650" y="340" width="86" height="25" fill="#bed9e2"/>
<text x="655" y="357" class="small">5.9</text>
<rect x="738" y="340" width="86" height="25" fill="#cae0e7"/>
<text x="743" y="357" class="small">3.8</text>
<rect x="826" y="340" width="86" height="25" fill="#e7f1f5"/>
<text x="831" y="357" class="small">0.5</text>
<text x="20" y="385" class="small">BRCA2 acceptor_like initiation_codon</text>
<rect x="210" y="367" width="86" height="25" fill="#f7fafc"/>
<rect x="298" y="367" width="86" height="25" fill="#f7fafc"/>
<rect x="386" y="367" width="86" height="25" fill="#f7fafc"/>
<rect x="474" y="367" width="86" height="25" fill="#f7fafc"/>
<rect x="562" y="367" width="86" height="25" fill="#f7fafc"/>
<rect x="650" y="367" width="86" height="25" fill="#f7fafc"/>
<rect x="738" y="367" width="86" height="25" fill="#f7fafc"/>
<rect x="826" y="367" width="86" height="25" fill="#f7fafc"/>
<text x="20" y="412" class="small">BRCA2 donor_like missense</text>
<rect x="210" y="394" width="86" height="25" fill="#207e98"/>
<text x="215" y="411" class="small">85.5</text>
<rect x="298" y="394" width="86" height="25" fill="#88bac9"/>
<text x="303" y="411" class="small">22.7</text>
<rect x="386" y="394" width="86" height="25" fill="#cbe1e8"/>
<text x="391" y="411" class="small">3.6</text>
<rect x="474" y="394" width="86" height="25" fill="#dfecf1"/>
<text x="479" y="411" class="small">1.1</text>
<rect x="562" y="394" width="86" height="25" fill="#d5e6ec"/>
<text x="567" y="411" class="small">2.2</text>
<rect x="650" y="394" width="86" height="25" fill="#d9e8ee"/>
<text x="655" y="411" class="small">1.7</text>
<rect x="738" y="394" width="86" height="25" fill="#d9e9ee"/>
<text x="743" y="411" class="small">1.7</text>
<rect x="826" y="394" width="86" height="25" fill="#edf4f7"/>
<text x="831" y="411" class="small">0.2</text>
<text x="20" y="439" class="small">BRCA2 donor_like nonsense</text>
<rect x="210" y="421" width="86" height="25" fill="#4392a8"/>
<text x="215" y="438" class="small">60.0</text>
<rect x="298" y="421" width="86" height="25" fill="#9fc7d3"/>
<text x="303" y="438" class="small">14.3</text>
<rect x="386" y="421" width="86" height="25" fill="#f7fafc"/>
<rect x="474" y="421" width="86" height="25" fill="#c0dae3"/>
<text x="479" y="438" class="small">5.6</text>
<rect x="562" y="421" width="86" height="25" fill="#b6d4de"/>
<text x="567" y="438" class="small">7.9</text>
<rect x="650" y="421" width="86" height="25" fill="#b7d5de"/>
<text x="655" y="438" class="small">7.5</text>
<rect x="738" y="421" width="86" height="25" fill="#d4e6ec"/>
<text x="743" y="438" class="small">2.3</text>
<rect x="826" y="421" width="86" height="25" fill="#e8f1f5"/>
<text x="831" y="438" class="small">0.4</text>
<text x="20" y="466" class="small">BRCA2 donor_like synonymous</text>
<rect x="210" y="448" width="86" height="25" fill="#4d98ad"/>
<text x="215" y="465" class="small">53.3</text>
<rect x="298" y="448" width="86" height="25" fill="#63a5b7"/>
<text x="303" y="465" class="small">40.6</text>
<rect x="386" y="448" width="86" height="25" fill="#b5d4dd"/>
<text x="391" y="465" class="small">8.0</text>
<rect x="474" y="448" width="86" height="25" fill="#f7fafc"/>
<rect x="562" y="448" width="86" height="25" fill="#d7e8ed"/>
<text x="567" y="465" class="small">1.9</text>
<rect x="650" y="448" width="86" height="25" fill="#d6e7ed"/>
<text x="655" y="465" class="small">2.0</text>
<rect x="738" y="448" width="86" height="25" fill="#d5e6ec"/>
<text x="743" y="465" class="small">2.1</text>
<rect x="826" y="448" width="86" height="25" fill="#e7f1f5"/>
<text x="831" y="465" class="small">0.5</text>
<text x="20" y="493" class="small">BRCA2 donor_like initiation_codon</text>
<rect x="210" y="475" width="86" height="25" fill="#f7fafc"/>
<rect x="298" y="475" width="86" height="25" fill="#f7fafc"/>
<rect x="386" y="475" width="86" height="25" fill="#f7fafc"/>
<rect x="474" y="475" width="86" height="25" fill="#f7fafc"/>
<rect x="562" y="475" width="86" height="25" fill="#f7fafc"/>
<rect x="650" y="475" width="86" height="25" fill="#f7fafc"/>
<rect x="738" y="475" width="86" height="25" fill="#f7fafc"/>
<rect x="826" y="475" width="86" height="25" fill="#f7fafc"/>
</svg>
