<svg xmlns="http://www.w3.org/2000/svg" width="990" height="325" viewBox="0 0 990 325">
<style>
text { font-family: Arial, Helvetica, sans-serif; fill: #172033; }
.small { font-size: 11px; }
.label { font-size: 12px; }
.title { font-size: 18px; font-weight: 700; }
.axis { stroke: #9aa4b2; stroke-width: 1; }
.grid { stroke: #e2e8f0; stroke-width: 1; }
.panel { fill: #f3f4f6; }
.tile { stroke: #ffffff; stroke-width: 1; }
.legend-title { font-size: 11px; font-weight: 700; }
</style>
<rect x="0" y="0" width="990" height="325" fill="#ffffff"/>
<text x="28" y="34" class="title">BRCA1 grouped CDS position overview</text>
<text x="110" y="58" class="small">Benign combines classes 1-2; pathogenic combines classes 4-5</text>
<text x="10" y="99" class="small">Benign/Likely Benign</text>
<rect x="110" y="80" width="7" height="26" fill="#4c9ec8"/>
<rect x="117" y="80" width="7" height="26" fill="#57a4cb"/>
<rect x="124" y="80" width="7" height="26" fill="#63aacf"/>
<rect x="131" y="80" width="7" height="26" fill="#4d9ec8"/>
<rect x="138" y="80" width="7" height="26" fill="#489cc7"/>
<rect x="145" y="80" width="7" height="26" fill="#50a0c9"/>
<rect x="152" y="80" width="7" height="26" fill="#499cc7"/>
<rect x="159" y="80" width="7" height="26" fill="#308fc0"/>
<rect x="166" y="80" width="7" height="26" fill="#308fc0"/>
<rect x="173" y="80" width="7" height="26" fill="#3a94c2"/>
<rect x="180" y="80" width="7" height="26" fill="#2d8dbf"/>
<rect x="187" y="80" width="7" height="26" fill="#3591c1"/>
<rect x="194" y="80" width="7" height="26" fill="#499cc7"/>
<rect x="201" y="80" width="7" height="26" fill="#55a3cb"/>
<rect x="208" y="80" width="7" height="26" fill="#4198c5"/>
<rect x="215" y="80" width="7" height="26" fill="#2b8cbe"/>
<rect x="222" y="80" width="7" height="26" fill="#4f9fc9"/>
<rect x="229" y="80" width="7" height="26" fill="#3f97c4"/>
<rect x="236" y="80" width="7" height="26" fill="#3290c0"/>
<rect x="243" y="80" width="7" height="26" fill="#308fc0"/>
<rect x="250" y="80" width="7" height="26" fill="#2f8ebf"/>
<rect x="257" y="80" width="7" height="26" fill="#2c8cbe"/>
<rect x="264" y="80" width="7" height="26" fill="#3390c0"/>
<rect x="271" y="80" width="7" height="26" fill="#2f8ebf"/>
<rect x="278" y="80" width="7" height="26" fill="#2f8ebf"/>
<rect x="285" y="80" width="7" height="26" fill="#2e8ebf"/>
<rect x="292" y="80" width="7" height="26" fill="#2c8dbe"/>
<rect x="299" y="80" width="7" height="26" fill="#3290c0"/>
<rect x="306" y="80" width="7" height="26" fill="#308fc0"/>
<rect x="313" y="80" width="7" height="26" fill="#2f8ebf"/>
<rect x="320" y="80" width="7" height="26" fill="#2c8dbe"/>
<rect x="327" y="80" width="7" height="26" fill="#2c8dbe"/>
<rect x="334" y="80" width="7" height="26" fill="#318fc0"/>
<rect x="341" y="80" width="7" height="26" fill="#2d8dbf"/>
<rect x="348" y="80" width="7" height="26" fill="#308fc0"/>
<rect x="355" y="80" width="7" height="26" fill="#2b8cbe"/>
<rect x="362" y="80" width="7" height="26" fill="#2e8ebf"/>
<rect x="369" y="80" width="7" height="26" fill="#2f8ebf"/>
<rect x="376" y="80" width="7" height="26" fill="#2e8ebf"/>
<rect x="383" y="80" width="7" height="26" fill="#2d8dbf"/>
<rect x="390" y="80" width="7" height="26" fill="#2b8cbe"/>
<rect x="397" y="80" width="7" height="26" fill="#2f8ebf"/>
<rect x="404" y="80" width="7" height="26" fill="#2f8ebf"/>
<rect x="411" y="80" width="7" height="26" fill="#2e8ebf"/>
<rect x="418" y="80" width="7" height="26" fill="#2f8ebf"/>
<rect x="425" y="80" width="7" height="26" fill="#2f8ebf"/>
<rect x="432" y="80" width="7" height="26" fill="#2e8ebf"/>
<rect x="439" y="80" width="7" height="26" fill="#308fc0"/>
<rect x="446" y="80" width="7" height="26" fill="#308fc0"/>
<rect x="453" y="80" width="7" height="26" fill="#2e8ebf"/>
<rect x="460" y="80" width="7" height="26" fill="#308fc0"/>
<rect x="467" y="80" width="7" height="26" fill="#2d8dbf"/>
<rect x="474" y="80" width="7" height="26" fill="#2f8ebf"/>
<rect x="481" y="80" width="7" height="26" fill="#2e8ebf"/>
<rect x="488" y="80" width="7" height="26" fill="#2f8ebf"/>
<rect x="495" y="80" width="7" height="26" fill="#318fc0"/>
<rect x="502" y="80" width="7" height="26" fill="#2f8ebf"/>
<rect x="509" y="80" width="7" height="26" fill="#2f8ebf"/>
<rect x="516" y="80" width="7" height="26" fill="#3390c0"/>
<rect x="523" y="80" width="7" height="26" fill="#2d8dbf"/>
<rect x="530" y="80" width="7" height="26" fill="#2f8ebf"/>
<rect x="537" y="80" width="7" height="26" fill="#2e8ebf"/>
<rect x="544" y="80" width="7" height="26" fill="#308fc0"/>
<rect x="551" y="80" width="7" height="26" fill="#2f8ebf"/>
<rect x="558" y="80" width="7" height="26" fill="#3290c0"/>
<rect x="565" y="80" width="7" height="26" fill="#2d8dbf"/>
<rect x="572" y="80" width="7" height="26" fill="#2d8dbf"/>
<rect x="579" y="80" width="7" height="26" fill="#2d8dbf"/>
<rect x="586" y="80" width="7" height="26" fill="#2c8cbe"/>
<rect x="593" y="80" width="7" height="26" fill="#308fc0"/>
<rect x="600" y="80" width="7" height="26" fill="#2f8ebf"/>
<rect x="607" y="80" width="7" height="26" fill="#318fc0"/>
<rect x="614" y="80" width="7" height="26" fill="#3d96c3"/>
<rect x="621" y="80" width="7" height="26" fill="#3491c1"/>
<rect x="628" y="80" width="7" height="26" fill="#2f8ebf"/>
<rect x="635" y="80" width="7" height="26" fill="#2d8dbf"/>
<rect x="642" y="80" width="7" height="26" fill="#2d8dbf"/>
<rect x="649" y="80" width="7" height="26" fill="#3591c1"/>
<rect x="656" y="80" width="7" height="26" fill="#3390c0"/>
<rect x="663" y="80" width="7" height="26" fill="#3290c0"/>
<rect x="670" y="80" width="7" height="26" fill="#2c8dbe"/>
<rect x="677" y="80" width="7" height="26" fill="#3290c0"/>
<rect x="684" y="80" width="7" height="26" fill="#3390c0"/>
<rect x="691" y="80" width="7" height="26" fill="#54a2ca"/>
<rect x="698" y="80" width="7" height="26" fill="#3390c1"/>
<rect x="705" y="80" width="7" height="26" fill="#2f8ebf"/>
<rect x="712" y="80" width="7" height="26" fill="#3d96c3"/>
<rect x="719" y="80" width="7" height="26" fill="#54a2ca"/>
<rect x="726" y="80" width="7" height="26" fill="#2f8ebf"/>
<rect x="733" y="80" width="7" height="26" fill="#68add0"/>
<rect x="740" y="80" width="7" height="26" fill="#bddbea"/>
<rect x="747" y="80" width="7" height="26" fill="#77b5d5"/>
<rect x="754" y="80" width="7" height="26" fill="#2d8dbf"/>
<rect x="761" y="80" width="7" height="26" fill="#6aaed1"/>
<rect x="768" y="80" width="7" height="26" fill="#479bc6"/>
<rect x="775" y="80" width="7" height="26" fill="#3290c0"/>
<rect x="782" y="80" width="7" height="26" fill="#4a9dc7"/>
<rect x="789" y="80" width="7" height="26" fill="#3290c0"/>
<rect x="796" y="80" width="7" height="26" fill="#308fc0"/>
<rect x="803" y="80" width="7" height="26" fill="#3390c1"/>
<rect x="810" y="80" width="7" height="26" fill="#4b9dc8"/>
<rect x="817" y="80" width="7" height="26" fill="#2c8cbe"/>
<rect x="824" y="80" width="7" height="26" fill="#308fc0"/>
<rect x="831" y="80" width="7" height="26" fill="#2f8ebf"/>
<rect x="838" y="80" width="7" height="26" fill="#3290c0"/>
<rect x="845" y="80" width="7" height="26" fill="#2f8ebf"/>
<rect x="852" y="80" width="7" height="26" fill="#459ac6"/>
<rect x="859" y="80" width="7" height="26" fill="#58a4cc"/>
<rect x="866" y="80" width="7" height="26" fill="#65abd0"/>
<rect x="873" y="80" width="7" height="26" fill="#6cafd2"/>
<rect x="880" y="80" width="7" height="26" fill="#56a3cb"/>
<rect x="887" y="80" width="7" height="26" fill="#4b9dc8"/>
<rect x="894" y="80" width="7" height="26" fill="#5aa5cc"/>
<rect x="901" y="80" width="7" height="26" fill="#58a4cc"/>
<rect x="908" y="80" width="7" height="26" fill="#4d9ec8"/>
<rect x="915" y="80" width="7" height="26" fill="#4399c5"/>
<rect x="922" y="80" width="7" height="26" fill="#50a0c9"/>
<rect x="929" y="80" width="7" height="26" fill="#459ac6"/>
<rect x="936" y="80" width="7" height="26" fill="#5da7cd"/>
<rect x="943" y="80" width="7" height="26" fill="#469bc6"/>
<text x="10" y="129" class="small">VUS</text>
<rect x="110" y="110" width="7" height="26" fill="#bbc0c8"/>
<rect x="117" y="110" width="7" height="26" fill="#b8bcc4"/>
<rect x="124" y="110" width="7" height="26" fill="#aeb3bc"/>
<rect x="131" y="110" width="7" height="26" fill="#bfc3ca"/>
<rect x="138" y="110" width="7" height="26" fill="#d0d4da"/>
<rect x="145" y="110" width="7" height="26" fill="#bcc0c8"/>
<rect x="152" y="110" width="7" height="26" fill="#c0c4cb"/>
<rect x="159" y="110" width="7" height="26" fill="#e9ecf0"/>
<rect x="166" y="110" width="7" height="26" fill="#e6e9ed"/>
<rect x="173" y="110" width="7" height="26" fill="#d4d7dd"/>
<rect x="180" y="110" width="7" height="26" fill="#e9ecf0"/>
<rect x="187" y="110" width="7" height="26" fill="#dbdfe4"/>
<rect x="194" y="110" width="7" height="26" fill="#bbbfc7"/>
<rect x="201" y="110" width="7" height="26" fill="#afb3bd"/>
<rect x="208" y="110" width="7" height="26" fill="#c6cad1"/>
<rect x="215" y="110" width="7" height="26" fill="#f7fafc"/>
<rect x="222" y="110" width="7" height="26" fill="#babec6"/>
<rect x="229" y="110" width="7" height="26" fill="#caced4"/>
<rect x="236" y="110" width="7" height="26" fill="#f7fafc"/>
<rect x="243" y="110" width="7" height="26" fill="#f7fafc"/>
<rect x="250" y="110" width="7" height="26" fill="#f7fafc"/>
<rect x="257" y="110" width="7" height="26" fill="#f7fafc"/>
<rect x="264" y="110" width="7" height="26" fill="#f7fafc"/>
<rect x="271" y="110" width="7" height="26" fill="#f7fafc"/>
<rect x="278" y="110" width="7" height="26" fill="#f7fafc"/>
<rect x="285" y="110" width="7" height="26" fill="#f7fafc"/>
<rect x="292" y="110" width="7" height="26" fill="#f7fafc"/>
<rect x="299" y="110" width="7" height="26" fill="#f7fafc"/>
<rect x="306" y="110" width="7" height="26" fill="#f7fafc"/>
<rect x="313" y="110" width="7" height="26" fill="#f7fafc"/>
<rect x="320" y="110" width="7" height="26" fill="#f7fafc"/>
<rect x="327" y="110" width="7" height="26" fill="#f7fafc"/>
<rect x="334" y="110" width="7" height="26" fill="#f7fafc"/>
<rect x="341" y="110" width="7" height="26" fill="#f7fafc"/>
<rect x="348" y="110" width="7" height="26" fill="#f7fafc"/>
<rect x="355" y="110" width="7" height="26" fill="#f7fafc"/>
<rect x="362" y="110" width="7" height="26" fill="#f7fafc"/>
<rect x="369" y="110" width="7" height="26" fill="#f7fafc"/>
<rect x="376" y="110" width="7" height="26" fill="#f7fafc"/>
<rect x="383" y="110" width="7" height="26" fill="#f7fafc"/>
<rect x="390" y="110" width="7" height="26" fill="#f7fafc"/>
<rect x="397" y="110" width="7" height="26" fill="#f7fafc"/>
<rect x="404" y="110" width="7" height="26" fill="#f7fafc"/>
<rect x="411" y="110" width="7" height="26" fill="#f7fafc"/>
<rect x="418" y="110" width="7" height="26" fill="#f7fafc"/>
<rect x="425" y="110" width="7" height="26" fill="#edf0f3"/>
<rect x="432" y="110" width="7" height="26" fill="#f7fafc"/>
<rect x="439" y="110" width="7" height="26" fill="#edf0f3"/>
<rect x="446" y="110" width="7" height="26" fill="#edf0f3"/>
<rect x="453" y="110" width="7" height="26" fill="#f7fafc"/>
<rect x="460" y="110" width="7" height="26" fill="#edf0f3"/>
<rect x="467" y="110" width="7" height="26" fill="#f7fafc"/>
<rect x="474" y="110" width="7" height="26" fill="#f7fafc"/>
<rect x="481" y="110" width="7" height="26" fill="#f7fafc"/>
<rect x="488" y="110" width="7" height="26" fill="#f7fafc"/>
<rect x="495" y="110" width="7" height="26" fill="#f7fafc"/>
<rect x="502" y="110" width="7" height="26" fill="#edf0f3"/>
<rect x="509" y="110" width="7" height="26" fill="#f7fafc"/>
<rect x="516" y="110" width="7" height="26" fill="#e9ecf0"/>
<rect x="523" y="110" width="7" height="26" fill="#edf0f3"/>
<rect x="530" y="110" width="7" height="26" fill="#edf0f3"/>
<rect x="537" y="110" width="7" height="26" fill="#f7fafc"/>
<rect x="544" y="110" width="7" height="26" fill="#f7fafc"/>
<rect x="551" y="110" width="7" height="26" fill="#edf0f3"/>
<rect x="558" y="110" width="7" height="26" fill="#f7fafc"/>
<rect x="565" y="110" width="7" height="26" fill="#edf0f3"/>
<rect x="572" y="110" width="7" height="26" fill="#f7fafc"/>
<rect x="579" y="110" width="7" height="26" fill="#edf0f3"/>
<rect x="586" y="110" width="7" height="26" fill="#f7fafc"/>
<rect x="593" y="110" width="7" height="26" fill="#f7fafc"/>
<rect x="600" y="110" width="7" height="26" fill="#f7fafc"/>
<rect x="607" y="110" width="7" height="26" fill="#f7fafc"/>
<rect x="614" y="110" width="7" height="26" fill="#d0d4da"/>
<rect x="621" y="110" width="7" height="26" fill="#d8dce1"/>
<rect x="628" y="110" width="7" height="26" fill="#edf0f3"/>
<rect x="635" y="110" width="7" height="26" fill="#e9ecf0"/>
<rect x="642" y="110" width="7" height="26" fill="#e9ecf0"/>
<rect x="649" y="110" width="7" height="26" fill="#f7fafc"/>
<rect x="656" y="110" width="7" height="26" fill="#e3e7eb"/>
<rect x="663" y="110" width="7" height="26" fill="#e3e7eb"/>
<rect x="670" y="110" width="7" height="26" fill="#f7fafc"/>
<rect x="677" y="110" width="7" height="26" fill="#f7fafc"/>
<rect x="684" y="110" width="7" height="26" fill="#e6e9ed"/>
<rect x="691" y="110" width="7" height="26" fill="#b6bac3"/>
<rect x="698" y="110" width="7" height="26" fill="#dbdfe4"/>
<rect x="705" y="110" width="7" height="26" fill="#e6e9ed"/>
<rect x="712" y="110" width="7" height="26" fill="#d1d5db"/>
<rect x="719" y="110" width="7" height="26" fill="#b9bdc5"/>
<rect x="726" y="110" width="7" height="26" fill="#edf0f3"/>
<rect x="733" y="110" width="7" height="26" fill="#a9adb7"/>
<rect x="740" y="110" width="7" height="26" fill="#8a8f9c"/>
<rect x="747" y="110" width="7" height="26" fill="#a0a5af"/>
<rect x="754" y="110" width="7" height="26" fill="#edf0f3"/>
<rect x="761" y="110" width="7" height="26" fill="#a9aeb8"/>
<rect x="768" y="110" width="7" height="26" fill="#c2c6ce"/>
<rect x="775" y="110" width="7" height="26" fill="#dde1e5"/>
<rect x="782" y="110" width="7" height="26" fill="#c0c4cb"/>
<rect x="789" y="110" width="7" height="26" fill="#f7fafc"/>
<rect x="796" y="110" width="7" height="26" fill="#e9ecf0"/>
<rect x="803" y="110" width="7" height="26" fill="#e3e7eb"/>
<rect x="810" y="110" width="7" height="26" fill="#bdc1c9"/>
<rect x="817" y="110" width="7" height="26" fill="#edf0f3"/>
<rect x="824" y="110" width="7" height="26" fill="#edf0f3"/>
<rect x="831" y="110" width="7" height="26" fill="#e9ecf0"/>
<rect x="838" y="110" width="7" height="26" fill="#e3e7eb"/>
<rect x="845" y="110" width="7" height="26" fill="#f7fafc"/>
<rect x="852" y="110" width="7" height="26" fill="#c0c4cc"/>
<rect x="859" y="110" width="7" height="26" fill="#b6bac3"/>
<rect x="866" y="110" width="7" height="26" fill="#b8bcc4"/>
<rect x="873" y="110" width="7" height="26" fill="#a9adb7"/>
<rect x="880" y="110" width="7" height="26" fill="#bbbfc7"/>
<rect x="887" y="110" width="7" height="26" fill="#bfc3ca"/>
<rect x="894" y="110" width="7" height="26" fill="#b4b8c1"/>
<rect x="901" y="110" width="7" height="26" fill="#b4b8c1"/>
<rect x="908" y="110" width="7" height="26" fill="#bec2ca"/>
<rect x="915" y="110" width="7" height="26" fill="#c4c8cf"/>
<rect x="922" y="110" width="7" height="26" fill="#b7bbc3"/>
<rect x="929" y="110" width="7" height="26" fill="#c4c8cf"/>
<rect x="936" y="110" width="7" height="26" fill="#b3b7c0"/>
<rect x="943" y="110" width="7" height="26" fill="#c0c4cc"/>
<text x="10" y="159" class="small">Likely Pathogenic/Pathogenic</text>
<rect x="110" y="140" width="7" height="26" fill="#e7958e"/>
<rect x="117" y="140" width="7" height="26" fill="#e06b60"/>
<rect x="124" y="140" width="7" height="26" fill="#e48178"/>
<rect x="131" y="140" width="7" height="26" fill="#e2766b"/>
<rect x="138" y="140" width="7" height="26" fill="#db4b3d"/>
<rect x="145" y="140" width="7" height="26" fill="#e2766b"/>
<rect x="152" y="140" width="7" height="26" fill="#e5877f"/>
<rect x="159" y="140" width="7" height="26" fill="#e9a59f"/>
<rect x="166" y="140" width="7" height="26" fill="#e7958e"/>
<rect x="173" y="140" width="7" height="26" fill="#e89c96"/>
<rect x="180" y="140" width="7" height="26" fill="#ebaea8"/>
<rect x="187" y="140" width="7" height="26" fill="#e68e86"/>
<rect x="194" y="140" width="7" height="26" fill="#f7fafc"/>
<rect x="201" y="140" width="7" height="26" fill="#f7fafc"/>
<rect x="208" y="140" width="7" height="26" fill="#edb8b4"/>
<rect x="215" y="140" width="7" height="26" fill="#edb8b4"/>
<rect x="222" y="140" width="7" height="26" fill="#e68e86"/>
<rect x="229" y="140" width="7" height="26" fill="#e9a59f"/>
<rect x="236" y="140" width="7" height="26" fill="#e2766b"/>
<rect x="243" y="140" width="7" height="26" fill="#e7958e"/>
<rect x="250" y="140" width="7" height="26" fill="#e5877f"/>
<rect x="257" y="140" width="7" height="26" fill="#ebaea8"/>
<rect x="264" y="140" width="7" height="26" fill="#e48178"/>
<rect x="271" y="140" width="7" height="26" fill="#e68e86"/>
<rect x="278" y="140" width="7" height="26" fill="#e89c96"/>
<rect x="285" y="140" width="7" height="26" fill="#e7958e"/>
<rect x="292" y="140" width="7" height="26" fill="#e9a59f"/>
<rect x="299" y="140" width="7" height="26" fill="#e5877f"/>
<rect x="306" y="140" width="7" height="26" fill="#e48178"/>
<rect x="313" y="140" width="7" height="26" fill="#e89c96"/>
<rect x="320" y="140" width="7" height="26" fill="#e9a59f"/>
<rect x="327" y="140" width="7" height="26" fill="#e9a59f"/>
<rect x="334" y="140" width="7" height="26" fill="#e68e86"/>
<rect x="341" y="140" width="7" height="26" fill="#e89c96"/>
<rect x="348" y="140" width="7" height="26" fill="#e7958e"/>
<rect x="355" y="140" width="7" height="26" fill="#edb8b4"/>
<rect x="362" y="140" width="7" height="26" fill="#e7958e"/>
<rect x="369" y="140" width="7" height="26" fill="#e9a59f"/>
<rect x="376" y="140" width="7" height="26" fill="#e7958e"/>
<rect x="383" y="140" width="7" height="26" fill="#edb8b4"/>
<rect x="390" y="140" width="7" height="26" fill="#edb8b4"/>
<rect x="397" y="140" width="7" height="26" fill="#e5877f"/>
<rect x="404" y="140" width="7" height="26" fill="#e89c96"/>
<rect x="411" y="140" width="7" height="26" fill="#e7958e"/>
<rect x="418" y="140" width="7" height="26" fill="#e9a59f"/>
<rect x="425" y="140" width="7" height="26" fill="#e7958e"/>
<rect x="432" y="140" width="7" height="26" fill="#e7958e"/>
<rect x="439" y="140" width="7" height="26" fill="#e89c96"/>
<rect x="446" y="140" width="7" height="26" fill="#e5877f"/>
<rect x="453" y="140" width="7" height="26" fill="#ebaea8"/>
<rect x="460" y="140" width="7" height="26" fill="#e5877f"/>
<rect x="467" y="140" width="7" height="26" fill="#e89c96"/>
<rect x="474" y="140" width="7" height="26" fill="#e89c96"/>
<rect x="481" y="140" width="7" height="26" fill="#e7958e"/>
<rect x="488" y="140" width="7" height="26" fill="#e89c96"/>
<rect x="495" y="140" width="7" height="26" fill="#e37b71"/>
<rect x="502" y="140" width="7" height="26" fill="#e7958e"/>
<rect x="509" y="140" width="7" height="26" fill="#e89c96"/>
<rect x="516" y="140" width="7" height="26" fill="#e37b71"/>
<rect x="523" y="140" width="7" height="26" fill="#eec4c1"/>
<rect x="530" y="140" width="7" height="26" fill="#e7958e"/>
<rect x="537" y="140" width="7" height="26" fill="#e7958e"/>
<rect x="544" y="140" width="7" height="26" fill="#e7958e"/>
<rect x="551" y="140" width="7" height="26" fill="#e7958e"/>
<rect x="558" y="140" width="7" height="26" fill="#e5877f"/>
<rect x="565" y="140" width="7" height="26" fill="#e9a59f"/>
<rect x="572" y="140" width="7" height="26" fill="#e89c96"/>
<rect x="579" y="140" width="7" height="26" fill="#eec4c1"/>
<rect x="586" y="140" width="7" height="26" fill="#ebaea8"/>
<rect x="593" y="140" width="7" height="26" fill="#e7958e"/>
<rect x="600" y="140" width="7" height="26" fill="#e5877f"/>
<rect x="607" y="140" width="7" height="26" fill="#e37b71"/>
<rect x="614" y="140" width="7" height="26" fill="#e7958e"/>
<rect x="621" y="140" width="7" height="26" fill="#e9a59f"/>
<rect x="628" y="140" width="7" height="26" fill="#e9a59f"/>
<rect x="635" y="140" width="7" height="26" fill="#ebaea8"/>
<rect x="642" y="140" width="7" height="26" fill="#ebaea8"/>
<rect x="649" y="140" width="7" height="26" fill="#e17065"/>
<rect x="656" y="140" width="7" height="26" fill="#e5877f"/>
<rect x="663" y="140" width="7" height="26" fill="#e9a59f"/>
<rect x="670" y="140" width="7" height="26" fill="#e9a59f"/>
<rect x="677" y="140" width="7" height="26" fill="#e2766b"/>
<rect x="684" y="140" width="7" height="26" fill="#e7958e"/>
<rect x="691" y="140" width="7" height="26" fill="#e5877f"/>
<rect x="698" y="140" width="7" height="26" fill="#edb8b4"/>
<rect x="705" y="140" width="7" height="26" fill="#e89c96"/>
<rect x="712" y="140" width="7" height="26" fill="#e37b71"/>
<rect x="719" y="140" width="7" height="26" fill="#e48178"/>
<rect x="726" y="140" width="7" height="26" fill="#e7958e"/>
<rect x="733" y="140" width="7" height="26" fill="#e89c96"/>
<rect x="740" y="140" width="7" height="26" fill="#e89c96"/>
<rect x="747" y="140" width="7" height="26" fill="#e68e86"/>
<rect x="754" y="140" width="7" height="26" fill="#eec4c1"/>
<rect x="761" y="140" width="7" height="26" fill="#e2766b"/>
<rect x="768" y="140" width="7" height="26" fill="#e89c96"/>
<rect x="775" y="140" width="7" height="26" fill="#e9a59f"/>
<rect x="782" y="140" width="7" height="26" fill="#e48178"/>
<rect x="789" y="140" width="7" height="26" fill="#e5877f"/>
<rect x="796" y="140" width="7" height="26" fill="#e68e86"/>
<rect x="803" y="140" width="7" height="26" fill="#e7958e"/>
<rect x="810" y="140" width="7" height="26" fill="#e68e86"/>
<rect x="817" y="140" width="7" height="26" fill="#edb8b4"/>
<rect x="824" y="140" width="7" height="26" fill="#e89c96"/>
<rect x="831" y="140" width="7" height="26" fill="#e89c96"/>
<rect x="838" y="140" width="7" height="26" fill="#e9a59f"/>
<rect x="845" y="140" width="7" height="26" fill="#e68e86"/>
<rect x="852" y="140" width="7" height="26" fill="#e9a59f"/>
<rect x="859" y="140" width="7" height="26" fill="#e48178"/>
<rect x="866" y="140" width="7" height="26" fill="#d7301f"/>
<rect x="873" y="140" width="7" height="26" fill="#e48178"/>
<rect x="880" y="140" width="7" height="26" fill="#de5d50"/>
<rect x="887" y="140" width="7" height="26" fill="#e48178"/>
<rect x="894" y="140" width="7" height="26" fill="#e5877f"/>
<rect x="901" y="140" width="7" height="26" fill="#e48178"/>
<rect x="908" y="140" width="7" height="26" fill="#e68e86"/>
<rect x="915" y="140" width="7" height="26" fill="#e7958e"/>
<rect x="922" y="140" width="7" height="26" fill="#e9a59f"/>
<rect x="929" y="140" width="7" height="26" fill="#e89c96"/>
<rect x="936" y="140" width="7" height="26" fill="#e06b60"/>
<rect x="943" y="140" width="7" height="26" fill="#edb8b4"/>
<text x="10" y="189" class="small">max SpliceAI</text>
<rect x="110" y="170" width="7" height="26" fill="#8b86b0"/>
<rect x="117" y="170" width="7" height="26" fill="#6b649a"/>
<rect x="124" y="170" width="7" height="26" fill="#5e5691"/>
<rect x="131" y="170" width="7" height="26" fill="#6e689d"/>
<rect x="138" y="170" width="7" height="26" fill="#625b94"/>
<rect x="145" y="170" width="7" height="26" fill="#6f699d"/>
<rect x="152" y="170" width="7" height="26" fill="#6d669b"/>
<rect x="159" y="170" width="7" height="26" fill="#bdbcd4"/>
<rect x="166" y="170" width="7" height="26" fill="#645c95"/>
<rect x="173" y="170" width="7" height="26" fill="#5e5691"/>
<rect x="180" y="170" width="7" height="26" fill="#8580ac"/>
<rect x="187" y="170" width="7" height="26" fill="#716b9f"/>
<rect x="194" y="170" width="7" height="26" fill="#6d669b"/>
<rect x="201" y="170" width="7" height="26" fill="#5b538f"/>
<rect x="208" y="170" width="7" height="26" fill="#655e96"/>
<rect x="215" y="170" width="7" height="26" fill="#c4c4d9"/>
<rect x="222" y="170" width="7" height="26" fill="#59518e"/>
<rect x="229" y="170" width="7" height="26" fill="#aeacc9"/>
<rect x="236" y="170" width="7" height="26" fill="#e0e2ec"/>
<rect x="243" y="170" width="7" height="26" fill="#f7fafc"/>
<rect x="250" y="170" width="7" height="26" fill="#cdcdde"/>
<rect x="257" y="170" width="7" height="26" fill="#e7e9f1"/>
<rect x="264" y="170" width="7" height="26" fill="#f7fafc"/>
<rect x="271" y="170" width="7" height="26" fill="#f7fafc"/>
<rect x="278" y="170" width="7" height="26" fill="#e7e9f1"/>
<rect x="285" y="170" width="7" height="26" fill="#f7fafc"/>
<rect x="292" y="170" width="7" height="26" fill="#e0e2ec"/>
<rect x="299" y="170" width="7" height="26" fill="#f7fafc"/>
<rect x="306" y="170" width="7" height="26" fill="#f7fafc"/>
<rect x="313" y="170" width="7" height="26" fill="#f7fafc"/>
<rect x="320" y="170" width="7" height="26" fill="#d3d4e3"/>
<rect x="327" y="170" width="7" height="26" fill="#e7e9f1"/>
<rect x="334" y="170" width="7" height="26" fill="#f7fafc"/>
<rect x="341" y="170" width="7" height="26" fill="#dbdce9"/>
<rect x="348" y="170" width="7" height="26" fill="#e0e2ec"/>
<rect x="355" y="170" width="7" height="26" fill="#e7e9f1"/>
<rect x="362" y="170" width="7" height="26" fill="#dbdce9"/>
<rect x="369" y="170" width="7" height="26" fill="#e7e9f1"/>
<rect x="376" y="170" width="7" height="26" fill="#f7fafc"/>
<rect x="383" y="170" width="7" height="26" fill="#e7e9f1"/>
<rect x="390" y="170" width="7" height="26" fill="#dbdce9"/>
<rect x="397" y="170" width="7" height="26" fill="#e7e9f1"/>
<rect x="404" y="170" width="7" height="26" fill="#e7e9f1"/>
<rect x="411" y="170" width="7" height="26" fill="#dbdce9"/>
<rect x="418" y="170" width="7" height="26" fill="#cdcdde"/>
<rect x="425" y="170" width="7" height="26" fill="#aeacc9"/>
<rect x="432" y="170" width="7" height="26" fill="#f7fafc"/>
<rect x="439" y="170" width="7" height="26" fill="#9e9bbe"/>
<rect x="446" y="170" width="7" height="26" fill="#7872a3"/>
<rect x="453" y="170" width="7" height="26" fill="#e7e9f1"/>
<rect x="460" y="170" width="7" height="26" fill="#a4a1c2"/>
<rect x="467" y="170" width="7" height="26" fill="#e0e2ec"/>
<rect x="474" y="170" width="7" height="26" fill="#e7e9f1"/>
<rect x="481" y="170" width="7" height="26" fill="#e0e2ec"/>
<rect x="488" y="170" width="7" height="26" fill="#d3d4e3"/>
<rect x="495" y="170" width="7" height="26" fill="#d7d8e6"/>
<rect x="502" y="170" width="7" height="26" fill="#b1b0cb"/>
<rect x="509" y="170" width="7" height="26" fill="#e7e9f1"/>
<rect x="516" y="170" width="7" height="26" fill="#635c95"/>
<rect x="523" y="170" width="7" height="26" fill="#8884af"/>
<rect x="530" y="170" width="7" height="26" fill="#706a9e"/>
<rect x="537" y="170" width="7" height="26" fill="#e0e2ec"/>
<rect x="544" y="170" width="7" height="26" fill="#e0e2ec"/>
<rect x="551" y="170" width="7" height="26" fill="#9f9cbf"/>
<rect x="558" y="170" width="7" height="26" fill="#b9b8d1"/>
<rect x="565" y="170" width="7" height="26" fill="#c2c1d7"/>
<rect x="572" y="170" width="7" height="26" fill="#f7fafc"/>
<rect x="579" y="170" width="7" height="26" fill="#bdbcd4"/>
<rect x="586" y="170" width="7" height="26" fill="#f7fafc"/>
<rect x="593" y="170" width="7" height="26" fill="#e7e9f1"/>
<rect x="600" y="170" width="7" height="26" fill="#e7e9f1"/>
<rect x="607" y="170" width="7" height="26" fill="#cdcdde"/>
<rect x="614" y="170" width="7" height="26" fill="#9692b8"/>
<rect x="621" y="170" width="7" height="26" fill="#a6a3c3"/>
<rect x="628" y="170" width="7" height="26" fill="#c0bfd5"/>
<rect x="635" y="170" width="7" height="26" fill="#58508d"/>
<rect x="642" y="170" width="7" height="26" fill="#837eab"/>
<rect x="649" y="170" width="7" height="26" fill="#dbdce9"/>
<rect x="656" y="170" width="7" height="26" fill="#8e8ab3"/>
<rect x="663" y="170" width="7" height="26" fill="#a7a5c4"/>
<rect x="670" y="170" width="7" height="26" fill="#dbdce9"/>
<rect x="677" y="170" width="7" height="26" fill="#c7c7db"/>
<rect x="684" y="170" width="7" height="26" fill="#b3b2cd"/>
<rect x="691" y="170" width="7" height="26" fill="#746ea1"/>
<rect x="698" y="170" width="7" height="26" fill="#8884af"/>
<rect x="705" y="170" width="7" height="26" fill="#7e79a8"/>
<rect x="712" y="170" width="7" height="26" fill="#9d99bd"/>
<rect x="719" y="170" width="7" height="26" fill="#5c5490"/>
<rect x="726" y="170" width="7" height="26" fill="#a2a0c1"/>
<rect x="733" y="170" width="7" height="26" fill="#5a538f"/>
<rect x="740" y="170" width="7" height="26" fill="#9793b9"/>
<rect x="747" y="170" width="7" height="26" fill="#cacadc"/>
<rect x="754" y="170" width="7" height="26" fill="#665f97"/>
<rect x="761" y="170" width="7" height="26" fill="#645c95"/>
<rect x="768" y="170" width="7" height="26" fill="#8f8bb4"/>
<rect x="775" y="170" width="7" height="26" fill="#b0aeca"/>
<rect x="782" y="170" width="7" height="26" fill="#615a93"/>
<rect x="789" y="170" width="7" height="26" fill="#c7c7db"/>
<rect x="796" y="170" width="7" height="26" fill="#7b76a6"/>
<rect x="803" y="170" width="7" height="26" fill="#756fa1"/>
<rect x="810" y="170" width="7" height="26" fill="#5d5590"/>
<rect x="817" y="170" width="7" height="26" fill="#bbbad2"/>
<rect x="824" y="170" width="7" height="26" fill="#9d99bd"/>
<rect x="831" y="170" width="7" height="26" fill="#59518e"/>
<rect x="838" y="170" width="7" height="26" fill="#5e5691"/>
<rect x="845" y="170" width="7" height="26" fill="#807ba9"/>
<rect x="852" y="170" width="7" height="26" fill="#8b86b0"/>
<rect x="859" y="170" width="7" height="26" fill="#8e8ab3"/>
<rect x="866" y="170" width="7" height="26" fill="#6e679c"/>
<rect x="873" y="170" width="7" height="26" fill="#928eb5"/>
<rect x="880" y="170" width="7" height="26" fill="#5b538f"/>
<rect x="887" y="170" width="7" height="26" fill="#58508d"/>
<rect x="894" y="170" width="7" height="26" fill="#c4c4d9"/>
<rect x="901" y="170" width="7" height="26" fill="#726c9f"/>
<rect x="908" y="170" width="7" height="26" fill="#7d78a7"/>
<rect x="915" y="170" width="7" height="26" fill="#bbbad2"/>
<rect x="922" y="170" width="7" height="26" fill="#9491b7"/>
<rect x="929" y="170" width="7" height="26" fill="#5d5590"/>
<rect x="936" y="170" width="7" height="26" fill="#cacadc"/>
<rect x="943" y="170" width="7" height="26" fill="#e0e2ec"/>
<text x="10" y="219" class="small">SpAI &gt;=0.20</text>
<rect x="110" y="200" width="7" height="26" fill="#bcd6e9"/>
<rect x="117" y="200" width="7" height="26" fill="#accde4"/>
<rect x="124" y="200" width="7" height="26" fill="#c9deed"/>
<rect x="131" y="200" width="7" height="26" fill="#75abd3"/>
<rect x="138" y="200" width="7" height="26" fill="#448dc3"/>
<rect x="145" y="200" width="7" height="26" fill="#5296c7"/>
<rect x="152" y="200" width="7" height="26" fill="#5f9ecc"/>
<rect x="159" y="200" width="7" height="26" fill="#f7fafc"/>
<rect x="166" y="200" width="7" height="26" fill="#ddeaf4"/>
<rect x="173" y="200" width="7" height="26" fill="#98c0de"/>
<rect x="180" y="200" width="7" height="26" fill="#d2e3f0"/>
<rect x="187" y="200" width="7" height="26" fill="#accde4"/>
<rect x="194" y="200" width="7" height="26" fill="#84b4d7"/>
<rect x="201" y="200" width="7" height="26" fill="#78add4"/>
<rect x="208" y="200" width="7" height="26" fill="#84b4d7"/>
<rect x="215" y="200" width="7" height="26" fill="#f7fafc"/>
<rect x="222" y="200" width="7" height="26" fill="#81b2d6"/>
<rect x="229" y="200" width="7" height="26" fill="#d2e3f0"/>
<rect x="236" y="200" width="7" height="26" fill="#f7fafc"/>
<rect x="243" y="200" width="7" height="26" fill="#f7fafc"/>
<rect x="250" y="200" width="7" height="26" fill="#f7fafc"/>
<rect x="257" y="200" width="7" height="26" fill="#f7fafc"/>
<rect x="264" y="200" width="7" height="26" fill="#f7fafc"/>
<rect x="271" y="200" width="7" height="26" fill="#f7fafc"/>
<rect x="278" y="200" width="7" height="26" fill="#f7fafc"/>
<rect x="285" y="200" width="7" height="26" fill="#f7fafc"/>
<rect x="292" y="200" width="7" height="26" fill="#f7fafc"/>
<rect x="299" y="200" width="7" height="26" fill="#f7fafc"/>
<rect x="306" y="200" width="7" height="26" fill="#f7fafc"/>
<rect x="313" y="200" width="7" height="26" fill="#f7fafc"/>
<rect x="320" y="200" width="7" height="26" fill="#f7fafc"/>
<rect x="327" y="200" width="7" height="26" fill="#f7fafc"/>
<rect x="334" y="200" width="7" height="26" fill="#f7fafc"/>
<rect x="341" y="200" width="7" height="26" fill="#f7fafc"/>
<rect x="348" y="200" width="7" height="26" fill="#f7fafc"/>
<rect x="355" y="200" width="7" height="26" fill="#f7fafc"/>
<rect x="362" y="200" width="7" height="26" fill="#f7fafc"/>
<rect x="369" y="200" width="7" height="26" fill="#f7fafc"/>
<rect x="376" y="200" width="7" height="26" fill="#f7fafc"/>
<rect x="383" y="200" width="7" height="26" fill="#f7fafc"/>
<rect x="390" y="200" width="7" height="26" fill="#f7fafc"/>
<rect x="397" y="200" width="7" height="26" fill="#f7fafc"/>
<rect x="404" y="200" width="7" height="26" fill="#f7fafc"/>
<rect x="411" y="200" width="7" height="26" fill="#f7fafc"/>
<rect x="418" y="200" width="7" height="26" fill="#f7fafc"/>
<rect x="425" y="200" width="7" height="26" fill="#ddeaf4"/>
<rect x="432" y="200" width="7" height="26" fill="#f7fafc"/>
<rect x="439" y="200" width="7" height="26" fill="#ddeaf4"/>
<rect x="446" y="200" width="7" height="26" fill="#ddeaf4"/>
<rect x="453" y="200" width="7" height="26" fill="#f7fafc"/>
<rect x="460" y="200" width="7" height="26" fill="#ddeaf4"/>
<rect x="467" y="200" width="7" height="26" fill="#f7fafc"/>
<rect x="474" y="200" width="7" height="26" fill="#f7fafc"/>
<rect x="481" y="200" width="7" height="26" fill="#f7fafc"/>
<rect x="488" y="200" width="7" height="26" fill="#f7fafc"/>
<rect x="495" y="200" width="7" height="26" fill="#f7fafc"/>
<rect x="502" y="200" width="7" height="26" fill="#f7fafc"/>
<rect x="509" y="200" width="7" height="26" fill="#f7fafc"/>
<rect x="516" y="200" width="7" height="26" fill="#ddeaf4"/>
<rect x="523" y="200" width="7" height="26" fill="#ddeaf4"/>
<rect x="530" y="200" width="7" height="26" fill="#ddeaf4"/>
<rect x="537" y="200" width="7" height="26" fill="#f7fafc"/>
<rect x="544" y="200" width="7" height="26" fill="#f7fafc"/>
<rect x="551" y="200" width="7" height="26" fill="#ddeaf4"/>
<rect x="558" y="200" width="7" height="26" fill="#f7fafc"/>
<rect x="565" y="200" width="7" height="26" fill="#f7fafc"/>
<rect x="572" y="200" width="7" height="26" fill="#f7fafc"/>
<rect x="579" y="200" width="7" height="26" fill="#f7fafc"/>
<rect x="586" y="200" width="7" height="26" fill="#f7fafc"/>
<rect x="593" y="200" width="7" height="26" fill="#f7fafc"/>
<rect x="600" y="200" width="7" height="26" fill="#f7fafc"/>
<rect x="607" y="200" width="7" height="26" fill="#f7fafc"/>
<rect x="614" y="200" width="7" height="26" fill="#b1d0e6"/>
<rect x="621" y="200" width="7" height="26" fill="#c9deed"/>
<rect x="628" y="200" width="7" height="26" fill="#f7fafc"/>
<rect x="635" y="200" width="7" height="26" fill="#d2e3f0"/>
<rect x="642" y="200" width="7" height="26" fill="#ddeaf4"/>
<rect x="649" y="200" width="7" height="26" fill="#f7fafc"/>
<rect x="656" y="200" width="7" height="26" fill="#ddeaf4"/>
<rect x="663" y="200" width="7" height="26" fill="#ddeaf4"/>
<rect x="670" y="200" width="7" height="26" fill="#f7fafc"/>
<rect x="677" y="200" width="7" height="26" fill="#f7fafc"/>
<rect x="684" y="200" width="7" height="26" fill="#f7fafc"/>
<rect x="691" y="200" width="7" height="26" fill="#94bedc"/>
<rect x="698" y="200" width="7" height="26" fill="#ddeaf4"/>
<rect x="705" y="200" width="7" height="26" fill="#d2e3f0"/>
<rect x="712" y="200" width="7" height="26" fill="#b6d3e7"/>
<rect x="719" y="200" width="7" height="26" fill="#75abd3"/>
<rect x="726" y="200" width="7" height="26" fill="#d2e3f0"/>
<rect x="733" y="200" width="7" height="26" fill="#91bcdb"/>
<rect x="740" y="200" width="7" height="26" fill="#ddeaf4"/>
<rect x="747" y="200" width="7" height="26" fill="#f7fafc"/>
<rect x="754" y="200" width="7" height="26" fill="#ddeaf4"/>
<rect x="761" y="200" width="7" height="26" fill="#3182bd"/>
<rect x="768" y="200" width="7" height="26" fill="#b1d0e6"/>
<rect x="775" y="200" width="7" height="26" fill="#ddeaf4"/>
<rect x="782" y="200" width="7" height="26" fill="#84b4d7"/>
<rect x="789" y="200" width="7" height="26" fill="#f7fafc"/>
<rect x="796" y="200" width="7" height="26" fill="#c9deed"/>
<rect x="803" y="200" width="7" height="26" fill="#ddeaf4"/>
<rect x="810" y="200" width="7" height="26" fill="#a3c7e1"/>
<rect x="817" y="200" width="7" height="26" fill="#f7fafc"/>
<rect x="824" y="200" width="7" height="26" fill="#ddeaf4"/>
<rect x="831" y="200" width="7" height="26" fill="#c9deed"/>
<rect x="838" y="200" width="7" height="26" fill="#bcd6e9"/>
<rect x="845" y="200" width="7" height="26" fill="#c9deed"/>
<rect x="852" y="200" width="7" height="26" fill="#c2daeb"/>
<rect x="859" y="200" width="7" height="26" fill="#91bcdb"/>
<rect x="866" y="200" width="7" height="26" fill="#5095c7"/>
<rect x="873" y="200" width="7" height="26" fill="#c2daeb"/>
<rect x="880" y="200" width="7" height="26" fill="#bcd6e9"/>
<rect x="887" y="200" width="7" height="26" fill="#d2e3f0"/>
<rect x="894" y="200" width="7" height="26" fill="#f7fafc"/>
<rect x="901" y="200" width="7" height="26" fill="#c9deed"/>
<rect x="908" y="200" width="7" height="26" fill="#c2daeb"/>
<rect x="915" y="200" width="7" height="26" fill="#f7fafc"/>
<rect x="922" y="200" width="7" height="26" fill="#a3c7e1"/>
<rect x="929" y="200" width="7" height="26" fill="#b6d3e7"/>
<rect x="936" y="200" width="7" height="26" fill="#f7fafc"/>
<rect x="943" y="200" width="7" height="26" fill="#f7fafc"/>
<line x1="110" y1="74" x2="110" y2="230" stroke="#1f2937" stroke-width="0.5" opacity="0.35"/>
<line x1="121" y1="74" x2="121" y2="230" stroke="#1f2937" stroke-width="0.5" opacity="0.35"/>
<line x1="122" y1="74" x2="122" y2="230" stroke="#1f2937" stroke-width="0.5" opacity="0.35"/>
<line x1="129" y1="74" x2="129" y2="230" stroke="#1f2937" stroke-width="0.5" opacity="0.35"/>
<line x1="130" y1="74" x2="130" y2="230" stroke="#1f2937" stroke-width="0.5" opacity="0.35"/>
<line x1="141" y1="74" x2="141" y2="230" stroke="#1f2937" stroke-width="0.5" opacity="0.35"/>
<line x1="141" y1="74" x2="141" y2="230" stroke="#1f2937" stroke-width="0.5" opacity="0.35"/>
<line x1="155" y1="74" x2="155" y2="230" stroke="#1f2937" stroke-width="0.5" opacity="0.35"/>
<line x1="155" y1="74" x2="155" y2="230" stroke="#1f2937" stroke-width="0.5" opacity="0.35"/>
<line x1="176" y1="74" x2="176" y2="230" stroke="#1f2937" stroke-width="0.5" opacity="0.35"/>
<line x1="176" y1="74" x2="176" y2="230" stroke="#1f2937" stroke-width="0.5" opacity="0.35"/>
<line x1="192" y1="74" x2="192" y2="230" stroke="#1f2937" stroke-width="0.5" opacity="0.35"/>
<line x1="192" y1="74" x2="192" y2="230" stroke="#1f2937" stroke-width="0.5" opacity="0.35"/>
<line x1="198" y1="74" x2="198" y2="230" stroke="#1f2937" stroke-width="0.5" opacity="0.35"/>
<line x1="199" y1="74" x2="199" y2="230" stroke="#1f2937" stroke-width="0.5" opacity="0.35"/>
<line x1="210" y1="74" x2="210" y2="230" stroke="#1f2937" stroke-width="0.5" opacity="0.35"/>
<line x1="210" y1="74" x2="210" y2="230" stroke="#1f2937" stroke-width="0.5" opacity="0.35"/>
<line x1="725" y1="74" x2="725" y2="230" stroke="#1f2937" stroke-width="0.5" opacity="0.35"/>
<line x1="725" y1="74" x2="725" y2="230" stroke="#1f2937" stroke-width="0.5" opacity="0.35"/>
<line x1="738" y1="74" x2="738" y2="230" stroke="#1f2937" stroke-width="0.5" opacity="0.35"/>
<line x1="738" y1="74" x2="738" y2="230" stroke="#1f2937" stroke-width="0.5" opacity="0.35"/>
<line x1="764" y1="74" x2="764" y2="230" stroke="#1f2937" stroke-width="0.5" opacity="0.35"/>
<line x1="764" y1="74" x2="764" y2="230" stroke="#1f2937" stroke-width="0.5" opacity="0.35"/>
<line x1="783" y1="74" x2="783" y2="230" stroke="#1f2937" stroke-width="0.5" opacity="0.35"/>
<line x1="783" y1="74" x2="783" y2="230" stroke="#1f2937" stroke-width="0.5" opacity="0.35"/>
<line x1="812" y1="74" x2="812" y2="230" stroke="#1f2937" stroke-width="0.5" opacity="0.35"/>
<line x1="812" y1="74" x2="812" y2="230" stroke="#1f2937" stroke-width="0.5" opacity="0.35"/>
<line x1="858" y1="74" x2="858" y2="230" stroke="#1f2937" stroke-width="0.5" opacity="0.35"/>
<line x1="858" y1="74" x2="858" y2="230" stroke="#1f2937" stroke-width="0.5" opacity="0.35"/>
<line x1="872" y1="74" x2="872" y2="230" stroke="#1f2937" stroke-width="0.5" opacity="0.35"/>
<line x1="872" y1="74" x2="872" y2="230" stroke="#1f2937" stroke-width="0.5" opacity="0.35"/>
<line x1="883" y1="74" x2="883" y2="230" stroke="#1f2937" stroke-width="0.5" opacity="0.35"/>
<line x1="883" y1="74" x2="883" y2="230" stroke="#1f2937" stroke-width="0.5" opacity="0.35"/>
<line x1="889" y1="74" x2="889" y2="230" stroke="#1f2937" stroke-width="0.5" opacity="0.35"/>
<line x1="890" y1="74" x2="890" y2="230" stroke="#1f2937" stroke-width="0.5" opacity="0.35"/>
<line x1="902" y1="74" x2="902" y2="230" stroke="#1f2937" stroke-width="0.5" opacity="0.35"/>
<line x1="902" y1="74" x2="902" y2="230" stroke="#1f2937" stroke-width="0.5" opacity="0.35"/>
<line x1="910" y1="74" x2="910" y2="230" stroke="#1f2937" stroke-width="0.5" opacity="0.35"/>
<line x1="910" y1="74" x2="910" y2="230" stroke="#1f2937" stroke-width="0.5" opacity="0.35"/>
<line x1="921" y1="74" x2="921" y2="230" stroke="#1f2937" stroke-width="0.5" opacity="0.35"/>
<line x1="922" y1="74" x2="922" y2="230" stroke="#1f2937" stroke-width="0.5" opacity="0.35"/>
<line x1="931" y1="74" x2="931" y2="230" stroke="#1f2937" stroke-width="0.5" opacity="0.35"/>
<line x1="931" y1="74" x2="931" y2="230" stroke="#1f2937" stroke-width="0.5" opacity="0.35"/>
<line x1="949" y1="74" x2="949" y2="230" stroke="#1f2937" stroke-width="0.5" opacity="0.35"/>
<line x1="110" y1="234" x2="110" y2="240" class="axis"/>
<text x="94" y="256" class="small">1</text>
<line x1="320.0" y1="234" x2="320.0" y2="240" class="axis"/>
<text x="304.0" y="256" class="small">1399</text>
<line x1="530.0" y1="234" x2="530.0" y2="240" class="axis"/>
<text x="514.0" y="256" class="small">2796</text>
<line x1="740.0" y1="234" x2="740.0" y2="240" class="axis"/>
<text x="724.0" y="256" class="small">4194</text>
<line x1="950.0" y1="234" x2="950.0" y2="240" class="axis"/>
<text x="934.0" y="256" class="small">5592</text>
</svg>
