<svg xmlns="http://www.w3.org/2000/svg" width="1192" height="477" viewBox="0 0 1192 477">
<style>
text { font-family: Arial, Helvetica, sans-serif; fill: #172033; }
.small { font-size: 11px; }
.label { font-size: 12px; }
.title { font-size: 18px; font-weight: 700; }
.grid { stroke: #e2e8f0; stroke-width: 1; }
.axis { stroke: #9aa4b2; stroke-width: 1; }
.panel { fill: #f3f4f6; }
.tile { stroke: #ffffff; stroke-width: 1; }
.legend-title { font-size: 11px; font-weight: 700; }
</style>
<rect x="0" y="0" width="1192" height="477" fill="#ffffff"/>
<text x="28" y="34" class="title">Domain and region context, Module 1 signals</text>
<text x="28" y="56" class="small">Rows are mapped BRCA1/2 domains or broad functional regions. Cells show percent within region.</text>
<rect x="253" y="110" width="794" height="272" class="panel"/>
<text x="259" y="98" class="small">benign 1/2</text>
<text x="347" y="98" class="small">VUS 3</text>
<text x="435" y="98" class="small">pathogenic 4/5</text>
<text x="523" y="98" class="small">SpAI &gt;=0.20</text>
<text x="611" y="98" class="small">PVS1</text>
<text x="699" y="98" class="small">PP3</text>
<text x="787" y="98" class="small">PS3</text>
<text x="875" y="98" class="small">BS3</text>
<text x="963" y="98" class="small">BP1</text>
<text x="20" y="132" class="small">BRCA1 RING zinc-binding/E3 ligase</text>
<rect x="255" y="112" width="88" height="30" fill="#4b7eee" class="tile"/>
<text x="260" y="131" class="small">64</text>
<rect x="343" y="112" width="88" height="30" fill="#87a9f3" class="tile"/>
<text x="348" y="131" class="small">27</text>
<rect x="431" y="112" width="88" height="30" fill="#b7ccf7" class="tile"/>
<rect x="519" y="112" width="88" height="30" fill="#9db9f5" class="tile"/>
<text x="524" y="131" class="small">17</text>
<rect x="607" y="112" width="88" height="30" fill="#c5d6f8" class="tile"/>
<rect x="695" y="112" width="88" height="30" fill="#a3bef5" class="tile"/>
<text x="700" y="131" class="small">15</text>
<rect x="783" y="112" width="88" height="30" fill="#97b5f4" class="tile"/>
<text x="788" y="131" class="small">20</text>
<rect x="871" y="112" width="88" height="30" fill="#467bee" class="tile"/>
<text x="876" y="131" class="small">67</text>
<rect x="959" y="112" width="88" height="30" fill="#f7fafc" class="tile"/>
<text x="20" y="162" class="small">BRCA1 coiled-coil PALB2 interaction</text>
<rect x="255" y="142" width="88" height="30" fill="#bdd0f7" class="tile"/>
<rect x="343" y="142" width="88" height="30" fill="#2e69ec" class="tile"/>
<text x="348" y="161" class="small">87</text>
<rect x="431" y="142" width="88" height="30" fill="#c4d5f8" class="tile"/>
<rect x="519" y="142" width="88" height="30" fill="#c6d7f8" class="tile"/>
<rect x="607" y="142" width="88" height="30" fill="#c6d7f8" class="tile"/>
<rect x="695" y="142" width="88" height="30" fill="#c7d8f8" class="tile"/>
<rect x="783" y="142" width="88" height="30" fill="#f7fafc" class="tile"/>
<rect x="871" y="142" width="88" height="30" fill="#c9d9f8" class="tile"/>
<rect x="959" y="142" width="88" height="30" fill="#f7fafc" class="tile"/>
<text x="20" y="192" class="small">BRCA1 BRCT phosphopeptide-binding</text>
<rect x="255" y="172" width="88" height="30" fill="#4c7fee" class="tile"/>
<text x="260" y="191" class="small">63</text>
<rect x="343" y="172" width="88" height="30" fill="#82a6f3" class="tile"/>
<text x="348" y="191" class="small">30</text>
<rect x="431" y="172" width="88" height="30" fill="#bcd0f7" class="tile"/>
<rect x="519" y="172" width="88" height="30" fill="#c7d8f8" class="tile"/>
<rect x="607" y="172" width="88" height="30" fill="#c9d9f8" class="tile"/>
<rect x="695" y="172" width="88" height="30" fill="#cadaf8" class="tile"/>
<rect x="783" y="172" width="88" height="30" fill="#97b5f4" class="tile"/>
<text x="788" y="191" class="small">20</text>
<rect x="871" y="172" width="88" height="30" fill="#467bee" class="tile"/>
<text x="876" y="191" class="small">67</text>
<rect x="959" y="172" width="88" height="30" fill="#f7fafc" class="tile"/>
<text x="20" y="222" class="small">BRCA1 outside mapped domains</text>
<rect x="255" y="202" width="88" height="30" fill="#2966eb" class="tile"/>
<text x="260" y="221" class="small">91</text>
<rect x="343" y="202" width="88" height="30" fill="#cbdbf8" class="tile"/>
<rect x="431" y="202" width="88" height="30" fill="#c8d9f8" class="tile"/>
<rect x="519" y="202" width="88" height="30" fill="#d8e3f9" class="tile"/>
<rect x="607" y="202" width="88" height="30" fill="#c9d9f8" class="tile"/>
<rect x="695" y="202" width="88" height="30" fill="#dae5fa" class="tile"/>
<rect x="783" y="202" width="88" height="30" fill="#eff4fb" class="tile"/>
<rect x="871" y="202" width="88" height="30" fill="#d3e0f9" class="tile"/>
<rect x="959" y="202" width="88" height="30" fill="#2966eb" class="tile"/>
<text x="964" y="221" class="small">91</text>
<text x="20" y="252" class="small">BRCA2 PALB2 binding N-terminal</text>
<rect x="255" y="232" width="88" height="30" fill="#d2e0f9" class="tile"/>
<rect x="343" y="232" width="88" height="30" fill="#2865eb" class="tile"/>
<text x="348" y="251" class="small">92</text>
<rect x="431" y="232" width="88" height="30" fill="#c7d7f8" class="tile"/>
<rect x="519" y="232" width="88" height="30" fill="#c0d3f8" class="tile"/>
<rect x="607" y="232" width="88" height="30" fill="#c7d7f8" class="tile"/>
<rect x="695" y="232" width="88" height="30" fill="#c5d6f8" class="tile"/>
<rect x="783" y="232" width="88" height="30" fill="#e1eafa" class="tile"/>
<rect x="871" y="232" width="88" height="30" fill="#dae5fa" class="tile"/>
<rect x="959" y="232" width="88" height="30" fill="#f7fafc" class="tile"/>
<text x="20" y="282" class="small">BRCA2 BRC repeats / RAD51-binding</text>
<rect x="255" y="262" width="88" height="30" fill="#2563eb" class="tile"/>
<text x="260" y="281" class="small">95</text>
<rect x="343" y="262" width="88" height="30" fill="#f7fafc" class="tile"/>
<rect x="431" y="262" width="88" height="30" fill="#c7d7f8" class="tile"/>
<rect x="519" y="262" width="88" height="30" fill="#f7fafc" class="tile"/>
<rect x="607" y="262" width="88" height="30" fill="#c7d7f8" class="tile"/>
<rect x="695" y="262" width="88" height="30" fill="#f7fafc" class="tile"/>
<rect x="783" y="262" width="88" height="30" fill="#f3f7fc" class="tile"/>
<rect x="871" y="262" width="88" height="30" fill="#ebf1fb" class="tile"/>
<rect x="959" y="262" width="88" height="30" fill="#2563eb" class="tile"/>
<text x="964" y="281" class="small">95</text>
<text x="20" y="312" class="small">BRCA2 DNA-binding domain / helical-OB-</text>
<rect x="255" y="292" width="88" height="30" fill="#ccdbf8" class="tile"/>
<rect x="343" y="292" width="88" height="30" fill="#2a67eb" class="tile"/>
<text x="348" y="311" class="small">90</text>
<rect x="431" y="292" width="88" height="30" fill="#c4d5f8" class="tile"/>
<rect x="519" y="292" width="88" height="30" fill="#c3d4f8" class="tile"/>
<rect x="607" y="292" width="88" height="30" fill="#c5d6f8" class="tile"/>
<rect x="695" y="292" width="88" height="30" fill="#c6d6f8" class="tile"/>
<rect x="783" y="292" width="88" height="30" fill="#dae5fa" class="tile"/>
<rect x="871" y="292" width="88" height="30" fill="#d4e0f9" class="tile"/>
<rect x="959" y="292" width="88" height="30" fill="#f7fafc" class="tile"/>
<text x="20" y="342" class="small">BRCA2 C-terminal RAD51/NLS context</text>
<rect x="255" y="322" width="88" height="30" fill="#2d69ec" class="tile"/>
<text x="260" y="341" class="small">88</text>
<rect x="343" y="322" width="88" height="30" fill="#b5caf7" class="tile"/>
<rect x="431" y="322" width="88" height="30" fill="#d3e0f9" class="tile"/>
<rect x="519" y="322" width="88" height="30" fill="#ceddf9" class="tile"/>
<rect x="607" y="322" width="88" height="30" fill="#d3e0f9" class="tile"/>
<rect x="695" y="322" width="88" height="30" fill="#d0def9" class="tile"/>
<rect x="783" y="322" width="88" height="30" fill="#f2f7fc" class="tile"/>
<rect x="871" y="322" width="88" height="30" fill="#e5edfb" class="tile"/>
<rect x="959" y="322" width="88" height="30" fill="#2d69ec" class="tile"/>
<text x="964" y="341" class="small">88</text>
<text x="20" y="372" class="small">BRCA2 outside mapped domains</text>
<rect x="255" y="352" width="88" height="30" fill="#2865eb" class="tile"/>
<text x="260" y="371" class="small">92</text>
<rect x="343" y="352" width="88" height="30" fill="#d3e0f9" class="tile"/>
<rect x="431" y="352" width="88" height="30" fill="#c6d7f8" class="tile"/>
<rect x="519" y="352" width="88" height="30" fill="#dde7fa" class="tile"/>
<rect x="607" y="352" width="88" height="30" fill="#c6d7f8" class="tile"/>
<rect x="695" y="352" width="88" height="30" fill="#dfe8fa" class="tile"/>
<rect x="783" y="352" width="88" height="30" fill="#f3f7fc" class="tile"/>
<rect x="871" y="352" width="88" height="30" fill="#e9f0fb" class="tile"/>
<rect x="959" y="352" width="88" height="30" fill="#2865eb" class="tile"/>
<text x="964" y="371" class="small">92</text>
<text x="1079" y="102" class="legend-title">percent</text>
<rect x="1079" y="112" width="18" height="18" fill="#2563eb" class="tile"/>
<rect x="1079" y="130" width="18" height="18" fill="#3b73ed" class="tile"/>
<rect x="1079" y="148" width="18" height="18" fill="#5485ef" class="tile"/>
<rect x="1079" y="166" width="18" height="18" fill="#729af1" class="tile"/>
<rect x="1079" y="184" width="18" height="18" fill="#99b6f4" class="tile"/>
<rect x="1079" y="202" width="18" height="18" fill="#f7fafc" class="tile"/>
<text x="1103" y="124" class="small">95</text>
<text x="1103" y="214" class="small">0</text>
</svg>
