<svg xmlns="http://www.w3.org/2000/svg" width="1040" height="762" viewBox="0 0 1040 762">
<rect width="100%" height="100%" fill="white"/>
<style>text{font-family:Arial,sans-serif;fill:#172033}.small{font-size:12px;fill:#43506a}.label{font-size:13px}</style>
<text x="30" y="30" font-size="20" font-weight="700">Priority queues by gene</text>
<text x="30" y="50" class="small">Rate per 1000 VUS in each gene.</text>
<text x="220" y="94" text-anchor="end" class="label">near threshold BRCA1</text>
<rect x="230" y="70" width="202.0" height="30" rx="4" fill="#5578c2"/>
<text x="440.0" y="91" class="label">288.00</text>
<text x="220" y="142" text-anchor="end" class="label">near threshold BRCA2</text>
<rect x="230" y="118" width="18.1" height="30" rx="4" fill="#c26a55"/>
<text x="256.1" y="139" class="label">25.88</text>
<text x="220" y="190" text-anchor="end" class="label">splice/RNA BRCA1</text>
<rect x="230" y="166" width="371.1" height="30" rx="4" fill="#5578c2"/>
<text x="609.1" y="187" class="label">529.23</text>
<text x="220" y="238" text-anchor="end" class="label">splice/RNA BRCA2</text>
<rect x="230" y="214" width="261.1" height="30" rx="4" fill="#c26a55"/>
<text x="499.1" y="235" class="label">372.34</text>
<text x="220" y="286" text-anchor="end" class="label">functional BRCA1</text>
<rect x="230" y="262" width="295.2" height="30" rx="4" fill="#5578c2"/>
<text x="533.2" y="283" class="label">420.92</text>
<text x="220" y="334" text-anchor="end" class="label">functional BRCA2</text>
<rect x="230" y="310" width="16.3" height="30" rx="4" fill="#c26a55"/>
<text x="254.3" y="331" class="label">23.28</text>
<text x="220" y="382" text-anchor="end" class="label">evidence conflict BRCA1</text>
<rect x="230" y="358" width="4.7" height="30" rx="4" fill="#5578c2"/>
<text x="242.7" y="379" class="label">6.77</text>
<text x="220" y="430" text-anchor="end" class="label">evidence conflict BRCA2</text>
<rect x="230" y="406" width="2.0" height="30" rx="4" fill="#c26a55"/>
<text x="240.0" y="427" class="label">2.91</text>
<text x="220" y="478" text-anchor="end" class="label">public assertion BRCA1</text>
<rect x="230" y="454" width="26.3" height="30" rx="4" fill="#5578c2"/>
<text x="264.3" y="475" class="label">37.54</text>
<text x="220" y="526" text-anchor="end" class="label">public assertion BRCA2</text>
<rect x="230" y="502" width="1.2" height="30" rx="4" fill="#c26a55"/>
<text x="239.2" y="523" class="label">1.68</text>
<text x="220" y="574" text-anchor="end" class="label">neighborhood context BRCA1</text>
<rect x="230" y="550" width="700.0" height="30" rx="4" fill="#5578c2"/>
<text x="938.0" y="571" class="label">998.15</text>
<text x="220" y="622" text-anchor="end" class="label">neighborhood context BRCA2</text>
<rect x="230" y="598" width="540.0" height="30" rx="4" fill="#c26a55"/>
<text x="778.0" y="619" class="label">769.95</text>
<text x="220" y="670" text-anchor="end" class="label">low information BRCA1</text>
<rect x="230" y="646" width="335.3" height="30" rx="4" fill="#5578c2"/>
<text x="573.3" y="667" class="label">478.15</text>
<text x="220" y="718" text-anchor="end" class="label">low information BRCA2</text>
<rect x="230" y="694" width="494.3" height="30" rx="4" fill="#c26a55"/>
<text x="732.3" y="715" class="label">704.86</text>
</svg>