<svg xmlns="http://www.w3.org/2000/svg" width="1120" height="331" viewBox="0 0 1120 331">
<style>
text{font-family:Arial,sans-serif;font-size:13px;fill:#222}
.title{font-size:20px;font-weight:bold}
.small{font-size:11px;fill:#555}
.bar{fill:#b45309}
</style>
<text x="24" y="30" class="title">BS3 benign variants by domain</text>
<text x="24" y="74">BRCT phosphopeptide-binding region</text>
<rect x="450" y="60" width="560" height="19" class="bar"/>
<text x="1018" y="75" class="small">1174</text>
<text x="24" y="105">RING zinc-binding/E3 ligase region</text>
<rect x="450" y="91" width="272" height="19" class="bar"/>
<text x="730" y="106" class="small">571</text>
<text x="24" y="136">DNA-binding domain / helical-OB-DSS1 region</text>
<rect x="450" y="122" width="60" height="19" class="bar"/>
<text x="518" y="137" class="small">127</text>
<text x="24" y="167">BRC repeats / RAD51-binding region</text>
<rect x="450" y="153" width="15" height="19" class="bar"/>
<text x="473" y="168" class="small">32</text>
<text x="24" y="198">C-terminal RAD51-binding/nuclear localization context</text>
<rect x="450" y="184" width="6" height="19" class="bar"/>
<text x="464" y="199" class="small">14</text>
<text x="24" y="229">coiled-coil PALB2 interaction region</text>
<rect x="450" y="215" width="6" height="19" class="bar"/>
<text x="464" y="230" class="small">14</text>
<text x="24" y="260">PALB2 binding N-terminal region</text>
<rect x="450" y="246" width="1" height="19" class="bar"/>
<text x="459" y="261" class="small">4</text>
</svg>