<svg xmlns="http://www.w3.org/2000/svg" width="980" height="342" viewBox="0 0 980 342">
<style>
text { font-family: Arial, Helvetica, sans-serif; fill: #172033; }
.small { font-size: 11px; }
.label { font-size: 12px; }
.title { font-size: 18px; font-weight: 700; }
</style>
<rect x="0" y="0" width="980" height="342" fill="#ffffff"/>
<text x="28" y="30" class="title">VUS pathogenic-region and proximity summary</text>
<text x="28" y="66" class="small">closer_to_group: closer_to_benign</text>
<rect x="360" y="48" width="252.40110859158477" height="22" fill="#64748b"/>
<text x="620.4011085915847" y="65" class="small">3853</text>
<text x="28" y="100" class="small">closer_to_group: closer_to_pathogenic</text>
<rect x="360" y="82" width="227.96674225245653" height="22" fill="#b91c1c"/>
<text x="595.9667422524565" y="99" class="small">3480</text>
<text x="28" y="134" class="small">closer_to_group: equal_distance</text>
<rect x="360" y="116" width="53.78180901990426" height="22" fill="#64748b"/>
<text x="421.78180901990424" y="133" class="small">821</text>
<text x="28" y="168" class="small">broad_pathogenic_context: broad_pathogenic_context</text>
<rect x="360" y="150" width="520.0" height="22" fill="#b91c1c"/>
<text x="888.0" y="167" class="small">7938</text>
<text x="28" y="202" class="small">broad_pathogenic_context: no_broad_pathogenic_context</text>
<rect x="360" y="184" width="14.149659863945578" height="22" fill="#b91c1c"/>
<text x="382.1496598639456" y="201" class="small">216</text>
<text x="28" y="236" class="small">strong_pathogenic_region: not_strong_pathogenic_region</text>
<rect x="360" y="218" width="383.41647770219197" height="22" fill="#b91c1c"/>
<text x="751.416477702192" y="235" class="small">5853</text>
<text x="28" y="270" class="small">strong_pathogenic_region: strong_pathogenic_region</text>
<rect x="360" y="252" width="150.7331821617536" height="22" fill="#b91c1c"/>
<text x="518.7331821617536" y="269" class="small">2301</text>
<text x="28" y="304" class="small">intersection: strong_pathogenic_region_and_closer_to_pathogenic</text>
<rect x="360" y="286" width="95.05165028974552" height="22" fill="#b91c1c"/>
<text x="463.0516502897455" y="303" class="small">1451</text>
</svg>
