<svg xmlns="http://www.w3.org/2000/svg" width="1200" height="240" viewBox="0 0 1200 240">
<style>
text{font-family:Arial,sans-serif;font-size:12px;fill:#222}
.title{font-size:20px;font-weight:bold}
.axis{stroke:#333;stroke-width:3}
.feature{fill:#e8e2f4;stroke:#8b76bd}
.v4{fill:#f0a03a;stroke:#222}
.v5{fill:#b23a48;stroke:#222}
.small{font-size:10px;fill:#555}
</style>
<text x="24" y="30" class="title">BRCA1 non-truncating no-splice class 4/5 variants</text>
<line x1="80" y1="120" x2="1160" y2="120" class="axis"/>
<rect x="81.15942028985508" y="92" width="57.971014492753625" height="18" class="feature"/>
<text x="81.15942028985508" y="85" class="small">RING zinc-binding</text>
<rect x="886.3768115942029" y="92" width="19.710144927536234" height="18" class="feature"/>
<text x="886.3768115942029" y="85" class="small">coiled-coil PALB2 interaction region</text>
<rect x="1036.521739130435" y="92" width="120.57971014492755" height="18" class="feature"/>
<text x="1036.521739130435" y="85" class="small">BRCT phosphopeptide-binding region</text>
<line x1="80.57971014492753" y1="120" x2="80.57971014492753" y2="70" stroke="#777"/>
<circle cx="80.57971014492753" cy="70" r="5" class="v5"/>
<line x1="80.57971014492753" y1="120" x2="80.57971014492753" y2="70" stroke="#777"/>
<circle cx="80.57971014492753" cy="70" r="5" class="v5"/>
<line x1="90.43478260869566" y1="120" x2="90.43478260869566" y2="70" stroke="#777"/>
<circle cx="90.43478260869566" cy="70" r="5" class="v5"/>
<line x1="103.76811594202898" y1="120" x2="103.76811594202898" y2="70" stroke="#777"/>
<circle cx="103.76811594202898" cy="70" r="5" class="v5"/>
<line x1="105.5072463768116" y1="120" x2="105.5072463768116" y2="70" stroke="#777"/>
<circle cx="105.5072463768116" cy="70" r="5" class="v5"/>
<line x1="105.5072463768116" y1="120" x2="105.5072463768116" y2="70" stroke="#777"/>
<circle cx="105.5072463768116" cy="70" r="5" class="v5"/>
<line x1="107.2463768115942" y1="120" x2="107.2463768115942" y2="70" stroke="#777"/>
<circle cx="107.2463768115942" cy="70" r="5" class="v5"/>
<line x1="115.36231884057972" y1="120" x2="115.36231884057972" y2="170" stroke="#777"/>
<circle cx="115.36231884057972" cy="170" r="5" class="v4"/>
<line x1="1056.8115942028985" y1="120" x2="1056.8115942028985" y2="70" stroke="#777"/>
<circle cx="1056.8115942028985" cy="70" r="5" class="v5"/>
<line x1="1056.8115942028985" y1="120" x2="1056.8115942028985" y2="70" stroke="#777"/>
<circle cx="1056.8115942028985" cy="70" r="5" class="v5"/>
<line x1="1063.768115942029" y1="120" x2="1063.768115942029" y2="70" stroke="#777"/>
<circle cx="1063.768115942029" cy="70" r="5" class="v5"/>
<line x1="1068.985507246377" y1="120" x2="1068.985507246377" y2="70" stroke="#777"/>
<circle cx="1068.985507246377" cy="70" r="5" class="v5"/>
<line x1="1074.2028985507245" y1="120" x2="1074.2028985507245" y2="70" stroke="#777"/>
<circle cx="1074.2028985507245" cy="70" r="5" class="v5"/>
<line x1="1074.2028985507245" y1="120" x2="1074.2028985507245" y2="70" stroke="#777"/>
<circle cx="1074.2028985507245" cy="70" r="5" class="v5"/>
<line x1="1086.376811594203" y1="120" x2="1086.376811594203" y2="170" stroke="#777"/>
<circle cx="1086.376811594203" cy="170" r="5" class="v4"/>
<line x1="1087.536231884058" y1="120" x2="1087.536231884058" y2="70" stroke="#777"/>
<circle cx="1087.536231884058" cy="70" r="5" class="v5"/>
<line x1="1087.536231884058" y1="120" x2="1087.536231884058" y2="70" stroke="#777"/>
<circle cx="1087.536231884058" cy="70" r="5" class="v5"/>
<line x1="1093.3333333333335" y1="120" x2="1093.3333333333335" y2="70" stroke="#777"/>
<circle cx="1093.3333333333335" cy="70" r="5" class="v5"/>
<line x1="1102.608695652174" y1="120" x2="1102.608695652174" y2="70" stroke="#777"/>
<circle cx="1102.608695652174" cy="70" r="5" class="v5"/>
<line x1="1103.768115942029" y1="120" x2="1103.768115942029" y2="70" stroke="#777"/>
<circle cx="1103.768115942029" cy="70" r="5" class="v5"/>
<line x1="1106.0869565217392" y1="120" x2="1106.0869565217392" y2="170" stroke="#777"/>
<circle cx="1106.0869565217392" cy="170" r="5" class="v4"/>
<line x1="1108.9855072463768" y1="120" x2="1108.9855072463768" y2="70" stroke="#777"/>
<circle cx="1108.9855072463768" cy="70" r="5" class="v5"/>
<line x1="1108.9855072463768" y1="120" x2="1108.9855072463768" y2="70" stroke="#777"/>
<circle cx="1108.9855072463768" cy="70" r="5" class="v5"/>
<line x1="1115.9420289855072" y1="120" x2="1115.9420289855072" y2="170" stroke="#777"/>
<circle cx="1115.9420289855072" cy="170" r="5" class="v4"/>
<line x1="1144.927536231884" y1="120" x2="1144.927536231884" y2="70" stroke="#777"/>
<circle cx="1144.927536231884" cy="70" r="5" class="v5"/>
<line x1="1145.5072463768117" y1="120" x2="1145.5072463768117" y2="70" stroke="#777"/>
<circle cx="1145.5072463768117" cy="70" r="5" class="v5"/>
<line x1="1146.0869565217392" y1="120" x2="1146.0869565217392" y2="70" stroke="#777"/>
<circle cx="1146.0869565217392" cy="70" r="5" class="v5"/>
<line x1="1154.2028985507247" y1="120" x2="1154.2028985507247" y2="70" stroke="#777"/>
<circle cx="1154.2028985507247" cy="70" r="5" class="v5"/>
<text x="80" y="162" class="small">0</text>
<text x="1125" y="162" class="small">1863 aa</text>
<text x="24" y="215" class="small">Upper dots: class 5. Lower dots: class 4. Purple boxes: broad structural/function features.</text>
</svg>