<svg xmlns="http://www.w3.org/2000/svg" width="1200" height="240" viewBox="0 0 1200 240">
<style>
text{font-family:Arial,sans-serif;font-size:12px;fill:#222}
.title{font-size:20px;font-weight:bold}
.axis{stroke:#333;stroke-width:3}
.feature{fill:#e8e2f4;stroke:#8b76bd}
.v4{fill:#f0a03a;stroke:#222}
.v5{fill:#b23a48;stroke:#222}
.small{font-size:10px;fill:#555}
</style>
<text x="24" y="30" class="title">BRCA2 non-truncating no-splice class 4/5 variants</text>
<line x1="80" y1="120" x2="1160" y2="120" class="axis"/>
<rect x="83.15974253949678" y="92" width="9.795201872440023" height="18" class="feature"/>
<text x="83.15974253949678" y="85" class="small">PALB2 binding N-terminal region</text>
<rect x="395.97425394967814" y="92" width="341.56816851960207" height="18" class="feature"/>
<text x="395.97425394967814" y="85" class="small">BRC repeats </text>
<rect x="863.9321240491515" y="92" width="223.07782328847279" height="18" class="feature"/>
<text x="863.9321240491515" y="85" class="small">DNA-binding domain </text>
<rect x="1087.0099473376242" y="92" width="73.30602691632534" height="18" class="feature"/>
<text x="1087.0099473376242" y="85" class="small">C-terminal RAD51-binding</text>
<line x1="80.31597425394968" y1="120" x2="80.31597425394968" y2="70" stroke="#777"/>
<circle cx="80.31597425394968" cy="70" r="5" class="v5"/>
<line x1="910.0643651258046" y1="120" x2="910.0643651258046" y2="70" stroke="#777"/>
<circle cx="910.0643651258046" cy="70" r="5" class="v5"/>
<line x1="918.2796957284961" y1="120" x2="918.2796957284961" y2="70" stroke="#777"/>
<circle cx="918.2796957284961" cy="70" r="5" class="v5"/>
<line x1="921.439438267993" y1="120" x2="921.439438267993" y2="170" stroke="#777"/>
<circle cx="921.439438267993" cy="170" r="5" class="v4"/>
<line x1="923.6512580456407" y1="120" x2="923.6512580456407" y2="70" stroke="#777"/>
<circle cx="923.6512580456407" cy="70" r="5" class="v5"/>
<line x1="940.0819192510239" y1="120" x2="940.0819192510239" y2="70" stroke="#777"/>
<circle cx="940.0819192510239" cy="70" r="5" class="v5"/>
<line x1="1057.9403159742537" y1="120" x2="1057.9403159742537" y2="170" stroke="#777"/>
<circle cx="1057.9403159742537" cy="170" r="5" class="v4"/>
<line x1="1057.9403159742537" y1="120" x2="1057.9403159742537" y2="70" stroke="#777"/>
<circle cx="1057.9403159742537" cy="70" r="5" class="v5"/>
<line x1="1067.1035693387944" y1="120" x2="1067.1035693387944" y2="70" stroke="#777"/>
<circle cx="1067.1035693387944" cy="70" r="5" class="v5"/>
<text x="80" y="162" class="small">0</text>
<text x="1125" y="162" class="small">3418 aa</text>
<text x="24" y="215" class="small">Upper dots: class 5. Lower dots: class 4. Purple boxes: broad structural/function features.</text>
</svg>