<svg xmlns="http://www.w3.org/2000/svg" width="1100" height="494" viewBox="0 0 1100 494">
<style>
text{font-family:Arial,sans-serif;font-size:13px;fill:#222}
.title{font-size:20px;font-weight:bold}
.small{font-size:11px;fill:#555}
.bar{fill:#6f58a8}
</style>
<text x="24" y="30" class="title">Curated Active Site Or Interface Status</text>
<text x="24" y="75">region_level:UniProt:Domain:BRCT 2 (1756-1855) [source_extracted_region]</text>
<rect x="440" y="61" width="560" height="19" class="bar"/>
<text x="1008" y="76" class="small">8</text>
<text x="24" y="107">not_curated_in_current_dataset</text>
<rect x="440" y="93" width="490" height="19" class="bar"/>
<text x="938" y="108" class="small">7</text>
<text x="24" y="139">region_level:UniProt:Domain:BRCT 1 (1642-1736) [source_extracted_region]</text>
<rect x="440" y="125" width="420" height="19" class="bar"/>
<text x="868" y="140" class="small">6</text>
<text x="24" y="171">region_level:UniProt:Region:Interaction with SEM1 (2481-2832) [source_extracted_region]</text>
<rect x="440" y="157" width="350" height="19" class="bar"/>
<text x="798" y="172" class="small">5</text>
<text x="24" y="203">zinc_coordination_core:BRCA1 RING C3HC4 zinc-coordinating residue Cys44 [seed_needs_source_line_review];region_level:UniProt:Zinc finger:RING-type (24-65) [source_extracted_region]</text>
<rect x="440" y="189" width="140" height="19" class="bar"/>
<text x="588" y="204" class="small">2</text>
<text x="24" y="235">UniProt:Mutagenesis:Abolishes interaction with BRIP1. [source_extracted]</text>
<rect x="440" y="221" width="140" height="19" class="bar"/>
<text x="588" y="236" class="small">2</text>
<text x="24" y="267">UniProt:Natural variant:in BC; pathogenic; strongly reduced transcription transactivation; abolishes interaction with BRIP1 and RBBP8; dbSNP:rs41293463 [source_extracted];UniProt:Natural variant:in BC; pathogenic; alters protein stability and abolishes ACACA and BRIP1 binding; dbSNP:rs41293463 [source_extracted];region_level:UniProt:Domain:BRCT 2 (1756-1855) [source_extracted_region]</text>
<rect x="440" y="253" width="140" height="19" class="bar"/>
<text x="588" y="268" class="small">2</text>
<text x="24" y="299">zinc_coordination_core:BRCA1 RING C3HC4 zinc-coordinating residue His41 [seed_needs_source_line_review];region_level:UniProt:Zinc finger:RING-type (24-65) [source_extracted_region]</text>
<rect x="440" y="285" width="70" height="19" class="bar"/>
<text x="518" y="300" class="small">1</text>
<text x="24" y="331">zinc_coordination_core:BRCA1 RING C3HC4 zinc-coordinating residue Cys47 [seed_needs_source_line_review];region_level:UniProt:Zinc finger:RING-type (24-65) [source_extracted_region]</text>
<rect x="440" y="317" width="70" height="19" class="bar"/>
<text x="518" y="332" class="small">1</text>
<text x="24" y="363">UniProt:Natural variant:in BC and OC; pathogenic; no interaction with BAP1; dbSNP:rs28897672 [source_extracted];zinc_coordination_core:BRCA1 RING C3HC4 zinc-coordinating residue Cys61 [seed_needs_source_line_review];region_level:UniProt:Zinc finger:RING-type (24-65) [source_extracted_region]</text>
<rect x="440" y="349" width="70" height="19" class="bar"/>
<text x="518" y="364" class="small">1</text>
<text x="24" y="395">UniProt:Natural variant:in BC and FANCS; pathogenic; decreased localization to DNA damage sites and reduced interaction with UIMC1/RAP80; dbSNP:rs45553935 [source_extracted];region_level:UniProt:Domain:BRCT 1 (1642-1736) [source_extracted_region]</text>
<rect x="440" y="381" width="70" height="19" class="bar"/>
<text x="518" y="396" class="small">1</text>
<text x="24" y="427">region_level:UniProt:Region:Interaction with PALB2 (1-40) [source_extracted_region]</text>
<rect x="440" y="413" width="70" height="19" class="bar"/>
<text x="518" y="428" class="small">1</text>
</svg>