<svg xmlns="http://www.w3.org/2000/svg" width="980" height="650" viewBox="0 0 980 650">
<style>
text { font-family: Arial, Helvetica, sans-serif; fill: #172033; }
.small { font-size: 11px; }
.label { font-size: 12px; }
.title { font-size: 18px; font-weight: 700; }
.grid { stroke: #e2e8f0; stroke-width: 1; }
</style>
<rect x="0" y="0" width="980" height="650" fill="#ffffff"/>
<text x="28" y="34" class="title">Exons enriched for high-priority VUS</text>
<text x="28" y="75" class="small">BRCA1 exon 12</text>
<rect x="270" y="60" width="407.4074074074074" height="21" fill="#dc2626"/>
<text x="685.4074074074074" y="75" class="small">high=55, all VUS=102</text>
<text x="28" y="104" class="small">BRCA1 exon 11</text>
<rect x="270" y="89" width="88.88888888888889" height="21" fill="#dc2626"/>
<text x="366.8888888888889" y="104" class="small">high=12, all VUS=233</text>
<text x="28" y="133" class="small">BRCA1 exon 6</text>
<rect x="270" y="118" width="118.51851851851852" height="21" fill="#dc2626"/>
<text x="396.51851851851853" y="133" class="small">high=16, all VUS=16</text>
<text x="28" y="162" class="small">BRCA1 exon 9</text>
<rect x="270" y="147" width="600.0" height="21" fill="#dc2626"/>
<text x="878.0" y="162" class="small">high=81, all VUS=222</text>
<text x="28" y="191" class="small">BRCA2 exon 13</text>
<rect x="270" y="176" width="140.74074074074073" height="21" fill="#dc2626"/>
<text x="418.74074074074076" y="191" class="small">high=19, all VUS=26</text>
<text x="28" y="220" class="small">BRCA2 exon 4</text>
<rect x="270" y="205" width="88.88888888888889" height="21" fill="#dc2626"/>
<text x="366.8888888888889" y="220" class="small">high=12, all VUS=15</text>
<text x="28" y="249" class="small">BRCA1 exon 10</text>
<rect x="270" y="234" width="59.25925925925926" height="21" fill="#dc2626"/>
<text x="337.25925925925924" y="249" class="small">high=8, all VUS=42</text>
<text x="28" y="278" class="small">BRCA1 exon 13</text>
<rect x="270" y="263" width="177.77777777777777" height="21" fill="#dc2626"/>
<text x="455.77777777777777" y="278" class="small">high=24, all VUS=66</text>
<text x="28" y="307" class="small">BRCA2 exon 11</text>
<rect x="270" y="292" width="88.88888888888889" height="21" fill="#dc2626"/>
<text x="366.8888888888889" y="307" class="small">high=12, all VUS=37</text>
<text x="28" y="336" class="small">BRCA2 exon 9</text>
<rect x="270" y="321" width="140.74074074074073" height="21" fill="#dc2626"/>
<text x="418.74074074074076" y="336" class="small">high=19, all VUS=28</text>
<text x="28" y="365" class="small">BRCA1 exon 15</text>
<rect x="270" y="350" width="88.88888888888889" height="21" fill="#dc2626"/>
<text x="366.8888888888889" y="365" class="small">high=12, all VUS=82</text>
<text x="28" y="394" class="small">BRCA2 exon 10</text>
<rect x="270" y="379" width="133.33333333333334" height="21" fill="#dc2626"/>
<text x="411.33333333333337" y="394" class="small">high=18, all VUS=36</text>
<text x="28" y="423" class="small">BRCA1 exon 4</text>
<rect x="270" y="408" width="125.92592592592592" height="21" fill="#dc2626"/>
<text x="403.9259259259259" y="423" class="small">high=17, all VUS=76</text>
<text x="28" y="452" class="small">BRCA2 exon 2</text>
<rect x="270" y="437" width="81.48148148148148" height="21" fill="#dc2626"/>
<text x="359.48148148148147" y="452" class="small">high=11, all VUS=151</text>
<text x="28" y="481" class="small">BRCA2 exon 3</text>
<rect x="270" y="466" width="74.07407407407408" height="21" fill="#dc2626"/>
<text x="352.0740740740741" y="481" class="small">high=10, all VUS=23</text>
<text x="28" y="510" class="small">BRCA1 exon 7</text>
<rect x="270" y="495" width="74.07407407407408" height="21" fill="#dc2626"/>
<text x="352.0740740740741" y="510" class="small">high=10, all VUS=21</text>
<text x="28" y="539" class="small">BRCA2 exon 5</text>
<rect x="270" y="524" width="66.66666666666667" height="21" fill="#dc2626"/>
<text x="344.6666666666667" y="539" class="small">high=9, all VUS=10</text>
<text x="28" y="568" class="small">BRCA1 exon 16</text>
<rect x="270" y="553" width="66.66666666666667" height="21" fill="#dc2626"/>
<text x="344.6666666666667" y="568" class="small">high=9, all VUS=89</text>
<text x="28" y="597" class="small">BRCA1 exon 19</text>
<rect x="270" y="582" width="37.03703703703704" height="21" fill="#dc2626"/>
<text x="315.03703703703707" y="597" class="small">high=5, all VUS=57</text>
<text x="28" y="626" class="small">BRCA1 exon 1</text>
<rect x="270" y="611" width="44.44444444444444" height="21" fill="#dc2626"/>
<text x="322.44444444444446" y="626" class="small">high=6, all VUS=71</text>
</svg>
