<svg xmlns="http://www.w3.org/2000/svg" width="1120" height="730" viewBox="0 0 1120 730">
<style>
text{font-family:Arial,sans-serif;font-size:13px;fill:#222}
.title{font-size:20px;font-weight:bold}
.small{font-size:11px;fill:#555}
.bar{fill:#2f7d62}
</style>
<text x="24" y="30" class="title">Benign/Likely Benign Active Site Or Interface Status</text>
<text x="24" y="75">not_curated_in_current_dataset</text>
<rect x="470" y="61" width="560" height="19" class="bar"/>
<text x="1038" y="76" class="small">21399</text>
<text x="24" y="106">region_level:UniProt:Region:Interaction with RAD51 (1003-2082) [source_extracted_region]</text>
<rect x="470" y="92" width="241" height="19" class="bar"/>
<text x="719" y="107" class="small">9233</text>
<text x="24" y="137">region_level:UniProt:Region:Interaction with POLH (1338-1781) [source_extracted_region]</text>
<rect x="470" y="123" width="98" height="19" class="bar"/>
<text x="576" y="138" class="small">3783</text>
<text x="24" y="168">region_level:UniProt:Region:Interaction with NPM1 (639-1000) [source_extracted_region]</text>
<rect x="470" y="154" width="80" height="19" class="bar"/>
<text x="558" y="169" class="small">3076</text>
<text x="24" y="199">region_level:UniProt:Region:Interaction with FANCD2 (2350-2545) [source_extracted_region]</text>
<rect x="470" y="185" width="29" height="19" class="bar"/>
<text x="507" y="200" class="small">1134</text>
<text x="24" y="230">region_level:UniProt:Domain:BRCT 2 (1756-1855) [source_extracted_region]</text>
<rect x="470" y="216" width="15" height="19" class="bar"/>
<text x="493" y="231" class="small">609</text>
<text x="24" y="261">region_level:UniProt:Domain:BRCT 1 (1642-1736) [source_extracted_region]</text>
<rect x="470" y="247" width="14" height="19" class="bar"/>
<text x="492" y="262" class="small">537</text>
<text x="24" y="292">region_level:UniProt:Region:Interaction with HSF2BP (2270-2337) [source_extracted_region]</text>
<rect x="470" y="278" width="13" height="19" class="bar"/>
<text x="491" y="293" class="small">527</text>
<text x="24" y="323">region_level:UniProt:Zinc finger:RING-type (24-65) [source_extracted_region]</text>
<rect x="470" y="309" width="5" height="19" class="bar"/>
<text x="483" y="324" class="small">222</text>
<text x="24" y="354">region_level:UniProt:Region:Interaction with SEM1 (2481-2832) [source_extracted_region]</text>
<rect x="470" y="340" width="3" height="19" class="bar"/>
<text x="481" y="355" class="small">142</text>
<text x="24" y="385">region_level:UniProt:Region:Interaction with PALB2 (1-40) [source_extracted_region]</text>
<rect x="470" y="371" width="1" height="19" class="bar"/>
<text x="479" y="386" class="small">76</text>
<text x="24" y="416">UniProt:Mutagenesis:Abolished interaction with DMC1. [source_extracted]</text>
<rect x="470" y="402" width="0" height="19" class="bar"/>
<text x="478" y="417" class="small">27</text>
<text x="24" y="447">region_level:UniProt:Region:Interaction with PALB2 (1397-1424) [source_extracted_region]</text>
<rect x="470" y="433" width="0" height="19" class="bar"/>
<text x="478" y="448" class="small">19</text>
<text x="24" y="478">UniProt:Mutagenesis:Does not affect interaction with DMC1. [source_extracted]</text>
<rect x="470" y="464" width="0" height="19" class="bar"/>
<text x="478" y="479" class="small">16</text>
<text x="24" y="509">UniProt:Mutagenesis:Decreased interaction with DMC1. [source_extracted]</text>
<rect x="470" y="495" width="0" height="19" class="bar"/>
<text x="478" y="510" class="small">15</text>
<text x="24" y="540">UniProt:Natural variant:in BC</text>
<rect x="470" y="526" width="0" height="19" class="bar"/>
<text x="478" y="541" class="small">13</text>
<text x="24" y="571"> pathogenic</text>
<rect x="470" y="557" width="0" height="19" class="bar"/>
<text x="478" y="572" class="small">12</text>
<text x="24" y="602">UniProt:Mutagenesis:Does not abolish ABRAXAS1 binding, but abolishes formation of a heterotetramer with ABRAXAS1. [source_extracted]</text>
<rect x="470" y="588" width="0" height="19" class="bar"/>
<text x="478" y="603" class="small">11</text>
<text x="24" y="633">UniProt:Mutagenesis:Impaired interaction with RAD51. [source_extracted]</text>
<rect x="470" y="619" width="0" height="19" class="bar"/>
<text x="478" y="634" class="small">9</text>
<text x="24" y="664">UniProt:Mutagenesis:Abolishes interaction with BRIP1. [source_extracted]</text>
<rect x="470" y="650" width="0" height="19" class="bar"/>
<text x="478" y="665" class="small">8</text>
</svg>