<svg xmlns="http://www.w3.org/2000/svg" width="1200" height="395" viewBox="0 0 1200 395">
<style>
text{font-family:Arial,sans-serif;font-size:12px;fill:#222}
.title{font-size:20px;font-weight:bold}
.benign{fill:#2f7d62}
.pathogenic{fill:#b23a48}
.small{font-size:10px;fill:#555}
</style>
<text x="24" y="30" class="title">Benign vs Pathogenic Feature Rates</text>
<text x="470" y="48" class="small">green: benign 1+2, red: pathogenic 4+5, percent within group</text>
<text x="24" y="77">outside_mapped_structure_function_features</text>
<rect x="470" y="61" width="600.0" height="12" class="benign"/>
<rect x="470" y="75" width="489.3" height="12" class="pathogenic"/>
<text x="1078.0" y="78" class="small">B 64.505%, P 52.601%</text>
<text x="24" y="111">BRC repeats / RAD51-binding region</text>
<rect x="470" y="95" width="232.6" height="12" class="benign"/>
<rect x="470" y="109" width="185.6" height="12" class="pathogenic"/>
<text x="710.6424308193164" y="112" class="small">B 25.011%, P 19.951%</text>
<text x="24" y="145">DNA-binding domain / helical-OB-DSS1 region</text>
<rect x="470" y="129" width="6.4" height="12" class="benign"/>
<rect x="470" y="143" width="137.9" height="12" class="pathogenic"/>
<text x="615.9427951321603" y="146" class="small">B 0.693%, P 14.830%</text>
<text x="24" y="179">BRCT phosphopeptide-binding region</text>
<rect x="470" y="163" width="29.7" height="12" class="benign"/>
<rect x="470" y="177" width="53.3" height="12" class="pathogenic"/>
<text x="531.3447019610883" y="180" class="small">B 3.188%, P 5.735%</text>
<text x="24" y="213">RING zinc-binding/E3 ligase region</text>
<rect x="470" y="197" width="14.5" height="12" class="benign"/>
<rect x="470" y="211" width="30.5" height="12" class="pathogenic"/>
<text x="508.4813580342609" y="214" class="small">B 1.559%, P 3.277%</text>
<text x="24" y="247">C-terminal RAD51-binding/nuclear localization context</text>
<rect x="470" y="231" width="46.2" height="12" class="benign"/>
<rect x="470" y="245" width="21.7" height="12" class="pathogenic"/>
<text x="524.1638632664135" y="248" class="small">B 4.963%, P 2.335%</text>
<text x="24" y="281">coiled-coil PALB2 interaction region</text>
<rect x="470" y="265" width="0.6" height="12" class="benign"/>
<rect x="470" y="279" width="6.5" height="12" class="pathogenic"/>
<text x="484.4739167506395" y="282" class="small">B 0.060%, P 0.696%</text>
<text x="24" y="315">PALB2 binding N-terminal region</text>
<rect x="470" y="299" width="0.2" height="12" class="benign"/>
<rect x="470" y="313" width="5.3" height="12" class="pathogenic"/>
<text x="483.3391209983722" y="316" class="small">B 0.022%, P 0.574%</text>
</svg>