<svg xmlns="http://www.w3.org/2000/svg" width="1198" height="436" viewBox="0 0 1198 436">
<style>
text { font-family: Arial, Helvetica, sans-serif; fill: #172033; }
.small { font-size: 11px; }
.label { font-size: 12px; }
.title { font-size: 18px; font-weight: 700; }
.axis { stroke: #9aa4b2; stroke-width: 1; }
.grid { stroke: #e2e8f0; stroke-width: 1; }
.panel { fill: #f3f4f6; }
.tile { stroke: #ffffff; stroke-width: 1; }
.legend-title { font-size: 11px; font-weight: 700; }
</style>
<rect x="0" y="0" width="1198" height="436" fill="#ffffff"/>
<text x="30" y="32" class="title">Cluster mean feature profile without SpliceAI features</text>
<text x="150" y="58" class="small">Gene and cluster</text>
<rect x="148" y="94" width="922" height="272" class="panel"/>
<text x="154" y="80" class="small">BRCA1 C1</text>
<text x="246" y="80" class="small">BRCA1 C2</text>
<text x="338" y="80" class="small">BRCA1 C3</text>
<text x="430" y="80" class="small">BRCA1 C4</text>
<text x="522" y="80" class="small">BRCA1 C5</text>
<text x="614" y="80" class="small">BRCA2 C1</text>
<text x="706" y="80" class="small">BRCA2 C2</text>
<text x="798" y="80" class="small">BRCA2 C3</text>
<text x="890" y="80" class="small">BRCA2 C4</text>
<text x="982" y="80" class="small">BRCA2 C5</text>
<text x="20" y="116" class="small">benign</text>
<rect x="150" y="96" width="92" height="30" fill="#4a7eee" class="tile"/>
<text x="156" y="115" class="small">0.639</text>
<rect x="242" y="96" width="92" height="30" fill="#2563eb" class="tile"/>
<text x="248" y="115" class="small">0.947</text>
<rect x="334" y="96" width="92" height="30" fill="#326dec" class="tile"/>
<text x="340" y="115" class="small">0.83</text>
<rect x="426" y="96" width="92" height="30" fill="#8faff4" class="tile"/>
<text x="432" y="115" class="small">0.231</text>
<rect x="518" y="96" width="92" height="30" fill="#4479ee" class="tile"/>
<text x="524" y="115" class="small">0.688</text>
<rect x="610" y="96" width="92" height="30" fill="#8eaff4" class="tile"/>
<text x="616" y="115" class="small">0.236</text>
<rect x="702" y="96" width="92" height="30" fill="#2663eb" class="tile"/>
<text x="708" y="115" class="small">0.942</text>
<rect x="794" y="96" width="92" height="30" fill="#2c68ec" class="tile"/>
<text x="800" y="115" class="small">0.888</text>
<rect x="886" y="96" width="92" height="30" fill="#cbdaf8" class="tile"/>
<text x="892" y="115" class="small">0.042</text>
<rect x="978" y="96" width="92" height="30" fill="#5182ef" class="tile"/>
<text x="984" y="115" class="small">0.594</text>
<text x="20" y="146" class="small">vus</text>
<rect x="150" y="126" width="92" height="30" fill="#85a8f3" class="tile"/>
<text x="156" y="145" class="small">0.28</text>
<rect x="242" y="126" width="92" height="30" fill="#e5edfb" class="tile"/>
<text x="248" y="145" class="small">0.007</text>
<rect x="334" y="126" width="92" height="30" fill="#adc5f6" class="tile"/>
<text x="340" y="145" class="small">0.117</text>
<rect x="426" y="126" width="92" height="30" fill="#4076ed" class="tile"/>
<text x="432" y="145" class="small">0.72</text>
<rect x="518" y="126" width="92" height="30" fill="#88aaf3" class="tile"/>
<text x="524" y="145" class="small">0.265</text>
<rect x="610" y="126" width="92" height="30" fill="#3f76ed" class="tile"/>
<text x="616" y="145" class="small">0.727</text>
<rect x="702" y="126" width="92" height="30" fill="#e3ebfa" class="tile"/>
<text x="708" y="145" class="small">0.009</text>
<rect x="794" y="126" width="92" height="30" fill="#bfd2f7" class="tile"/>
<text x="800" y="145" class="small">0.068</text>
<rect x="886" y="126" width="92" height="30" fill="#2a67eb" class="tile"/>
<text x="892" y="145" class="small">0.9</text>
<rect x="978" y="126" width="92" height="30" fill="#789ef2" class="tile"/>
<text x="984" y="145" class="small">0.348</text>
<text x="20" y="176" class="small">pathogenic</text>
<rect x="150" y="156" width="92" height="30" fill="#bacef7" class="tile"/>
<text x="156" y="175" class="small">0.081</text>
<rect x="242" y="156" width="92" height="30" fill="#c9d9f8" class="tile"/>
<text x="248" y="175" class="small">0.046</text>
<rect x="334" y="156" width="92" height="30" fill="#c5d6f8" class="tile"/>
<text x="340" y="175" class="small">0.053</text>
<rect x="426" y="156" width="92" height="30" fill="#c7d7f8" class="tile"/>
<text x="432" y="175" class="small">0.05</text>
<rect x="518" y="156" width="92" height="30" fill="#c8d8f8" class="tile"/>
<text x="524" y="175" class="small">0.047</text>
<rect x="610" y="156" width="92" height="30" fill="#cddcf9" class="tile"/>
<text x="616" y="175" class="small">0.037</text>
<rect x="702" y="156" width="92" height="30" fill="#c7d8f8" class="tile"/>
<text x="708" y="175" class="small">0.049</text>
<rect x="794" y="156" width="92" height="30" fill="#cad9f8" class="tile"/>
<text x="800" y="175" class="small">0.044</text>
<rect x="886" y="156" width="92" height="30" fill="#c3d5f8" class="tile"/>
<text x="892" y="175" class="small">0.058</text>
<rect x="978" y="156" width="92" height="30" fill="#c3d5f8" class="tile"/>
<text x="984" y="175" class="small">0.058</text>
<text x="20" y="206" class="small">SpAI &gt;=0.20</text>
<rect x="150" y="186" width="92" height="30" fill="#b9cef7" class="tile"/>
<text x="156" y="205" class="small">0.082</text>
<rect x="242" y="186" width="92" height="30" fill="#e9f0fb" class="tile"/>
<text x="248" y="205" class="small">0.004</text>
<rect x="334" y="186" width="92" height="30" fill="#ceddf9" class="tile"/>
<text x="340" y="205" class="small">0.036</text>
<rect x="426" y="186" width="92" height="30" fill="#e9f0fb" class="tile"/>
<text x="432" y="205" class="small">0.004</text>
<rect x="518" y="186" width="92" height="30" fill="#a7c0f5" class="tile"/>
<text x="524" y="205" class="small">0.139</text>
<rect x="610" y="186" width="92" height="30" fill="#d1dff9" class="tile"/>
<text x="616" y="205" class="small">0.031</text>
<rect x="702" y="186" width="92" height="30" fill="#e9f0fb" class="tile"/>
<text x="708" y="205" class="small">0.004</text>
<rect x="794" y="186" width="92" height="30" fill="#ccdbf9" class="tile"/>
<text x="800" y="205" class="small">0.04</text>
<rect x="886" y="186" width="92" height="30" fill="#c2d4f8" class="tile"/>
<text x="892" y="205" class="small">0.06</text>
<rect x="978" y="186" width="92" height="30" fill="#afc7f6" class="tile"/>
<text x="984" y="205" class="small">0.11</text>
<text x="20" y="236" class="small">near boundary</text>
<rect x="150" y="216" width="92" height="30" fill="#84a7f3" class="tile"/>
<text x="156" y="235" class="small">0.286</text>
<rect x="242" y="216" width="92" height="30" fill="#edf3fb" class="tile"/>
<text x="248" y="235" class="small">0.002</text>
<rect x="334" y="216" width="92" height="30" fill="#f7fafc" class="tile"/>
<rect x="426" y="216" width="92" height="30" fill="#d8e4f9" class="tile"/>
<text x="432" y="235" class="small">0.021</text>
<rect x="518" y="216" width="92" height="30" fill="#799ff2" class="tile"/>
<text x="524" y="235" class="small">0.341</text>
<rect x="610" y="216" width="92" height="30" fill="#7da2f2" class="tile"/>
<text x="616" y="235" class="small">0.32</text>
<rect x="702" y="216" width="92" height="30" fill="#e8effb" class="tile"/>
<text x="708" y="235" class="small">0.005</text>
<rect x="794" y="216" width="92" height="30" fill="#85a8f3" class="tile"/>
<text x="800" y="235" class="small">0.279</text>
<rect x="886" y="216" width="92" height="30" fill="#afc6f6" class="tile"/>
<text x="892" y="235" class="small">0.112</text>
<rect x="978" y="216" width="92" height="30" fill="#c5d6f8" class="tile"/>
<text x="984" y="235" class="small">0.054</text>
<text x="20" y="266" class="small">PVS1</text>
<rect x="150" y="246" width="92" height="30" fill="#c8d8f8" class="tile"/>
<text x="156" y="265" class="small">0.048</text>
<rect x="242" y="246" width="92" height="30" fill="#c9d9f8" class="tile"/>
<text x="248" y="265" class="small">0.046</text>
<rect x="334" y="246" width="92" height="30" fill="#c6d7f8" class="tile"/>
<text x="340" y="265" class="small">0.052</text>
<rect x="426" y="246" width="92" height="30" fill="#c7d7f8" class="tile"/>
<text x="432" y="265" class="small">0.05</text>
<rect x="518" y="246" width="92" height="30" fill="#cad9f8" class="tile"/>
<text x="524" y="265" class="small">0.044</text>
<rect x="610" y="246" width="92" height="30" fill="#cfddf9" class="tile"/>
<text x="616" y="265" class="small">0.035</text>
<rect x="702" y="246" width="92" height="30" fill="#c7d7f8" class="tile"/>
<text x="708" y="265" class="small">0.05</text>
<rect x="794" y="246" width="92" height="30" fill="#cad9f8" class="tile"/>
<text x="800" y="265" class="small">0.044</text>
<rect x="886" y="246" width="92" height="30" fill="#c4d6f8" class="tile"/>
<text x="892" y="265" class="small">0.055</text>
<rect x="978" y="246" width="92" height="30" fill="#c3d5f8" class="tile"/>
<text x="984" y="265" class="small">0.058</text>
<text x="20" y="296" class="small">PP3</text>
<rect x="150" y="276" width="92" height="30" fill="#bdd1f7" class="tile"/>
<text x="156" y="295" class="small">0.071</text>
<rect x="242" y="276" width="92" height="30" fill="#ebf2fb" class="tile"/>
<text x="248" y="295" class="small">0.003</text>
<rect x="334" y="276" width="92" height="30" fill="#d6e2f9" class="tile"/>
<text x="340" y="295" class="small">0.024</text>
<rect x="426" y="276" width="92" height="30" fill="#e9f0fb" class="tile"/>
<text x="432" y="295" class="small">0.004</text>
<rect x="518" y="276" width="92" height="30" fill="#abc4f6" class="tile"/>
<text x="524" y="295" class="small">0.123</text>
<rect x="610" y="276" width="92" height="30" fill="#d2e0f9" class="tile"/>
<text x="616" y="295" class="small">0.029</text>
<rect x="702" y="276" width="92" height="30" fill="#ebf2fb" class="tile"/>
<text x="708" y="295" class="small">0.003</text>
<rect x="794" y="276" width="92" height="30" fill="#ceddf9" class="tile"/>
<text x="800" y="295" class="small">0.036</text>
<rect x="886" y="276" width="92" height="30" fill="#c5d6f8" class="tile"/>
<text x="892" y="295" class="small">0.053</text>
<rect x="978" y="276" width="92" height="30" fill="#b5cbf7" class="tile"/>
<text x="984" y="295" class="small">0.093</text>
<text x="20" y="326" class="small">BS3</text>
<rect x="150" y="306" width="92" height="30" fill="#457aee" class="tile"/>
<text x="156" y="325" class="small">0.68</text>
<rect x="242" y="306" width="92" height="30" fill="#dce6fa" class="tile"/>
<text x="248" y="325" class="small">0.016</text>
<rect x="334" y="306" width="92" height="30" fill="#98b6f4" class="tile"/>
<text x="340" y="325" class="small">0.192</text>
<rect x="426" y="306" width="92" height="30" fill="#c5d6f8" class="tile"/>
<text x="432" y="325" class="small">0.053</text>
<rect x="518" y="306" width="92" height="30" fill="#c3d4f8" class="tile"/>
<text x="524" y="325" class="small">0.059</text>
<rect x="610" y="306" width="92" height="30" fill="#dae5fa" class="tile"/>
<text x="616" y="325" class="small">0.018</text>
<rect x="702" y="306" width="92" height="30" fill="#e9f0fb" class="tile"/>
<text x="708" y="325" class="small">0.004</text>
<rect x="794" y="306" width="92" height="30" fill="#e6eefb" class="tile"/>
<text x="800" y="325" class="small">0.006</text>
<rect x="886" y="306" width="92" height="30" fill="#d4e1f9" class="tile"/>
<text x="892" y="325" class="small">0.027</text>
<rect x="978" y="306" width="92" height="30" fill="#e4ecfa" class="tile"/>
<text x="984" y="325" class="small">0.008</text>
<text x="20" y="356" class="small">BP1</text>
<rect x="150" y="336" width="92" height="30" fill="#e5edfb" class="tile"/>
<text x="156" y="355" class="small">0.007</text>
<rect x="242" y="336" width="92" height="30" fill="#2563eb" class="tile"/>
<text x="248" y="355" class="small">0.945</text>
<rect x="334" y="336" width="92" height="30" fill="#346dec" class="tile"/>
<text x="340" y="355" class="small">0.82</text>
<rect x="426" y="336" width="92" height="30" fill="#a0bbf5" class="tile"/>
<text x="432" y="355" class="small">0.163</text>
<rect x="518" y="336" width="92" height="30" fill="#4a7dee" class="tile"/>
<text x="524" y="355" class="small">0.646</text>
<rect x="610" y="336" width="92" height="30" fill="#92b1f4" class="tile"/>
<text x="616" y="355" class="small">0.219</text>
<rect x="702" y="336" width="92" height="30" fill="#2663eb" class="tile"/>
<text x="708" y="355" class="small">0.941</text>
<rect x="794" y="336" width="92" height="30" fill="#2c68ec" class="tile"/>
<text x="800" y="355" class="small">0.886</text>
<rect x="886" y="336" width="92" height="30" fill="#f0f5fb" class="tile"/>
<text x="892" y="355" class="small">0.001</text>
<rect x="978" y="336" width="92" height="30" fill="#5283ef" class="tile"/>
<text x="984" y="355" class="small">0.586</text>
<text x="1102" y="90" class="legend-title">count</text>
<rect x="1102" y="100" width="18" height="18" fill="#2563eb" class="tile"/>
<rect x="1102" y="118" width="18" height="18" fill="#3b73ed" class="tile"/>
<rect x="1102" y="136" width="18" height="18" fill="#5485ef" class="tile"/>
<rect x="1102" y="154" width="18" height="18" fill="#729af1" class="tile"/>
<rect x="1102" y="172" width="18" height="18" fill="#99b6f4" class="tile"/>
<rect x="1102" y="190" width="18" height="18" fill="#f7fafc" class="tile"/>
<text x="1128" y="112" class="small">1</text>
<text x="1128" y="202" class="small">0</text>
</svg>
