<svg xmlns="http://www.w3.org/2000/svg" width="1160" height="361" viewBox="0 0 1160 361">
<style>
text{font-family:Arial,sans-serif;font-size:12px;fill:#222}
.title{font-size:20px;font-weight:bold}
.missense{fill:#b45309}
.syn{fill:#64748b}
.other{fill:#94a3b8}
.small{font-size:10px;fill:#555}
</style>
<text x="24" y="30" class="title">BS3 benign variants by domain and mechanism</text>
<text x="410" y="48" class="small">brown: missense, gray: synonymous, pale: other</text>
<text x="24" y="77">BRCT phosphopeptide-binding region</text>
<rect x="410" y="63" width="448.4" height="20" class="missense"/>
<rect x="858.3645655877342" y="63" width="171.6" height="20" class="syn"/>
<rect x="1030.0" y="63" width="0.0" height="20" class="other"/>
<text x="1038.0" y="78" class="small">1174</text>
<text x="24" y="111">RING zinc-binding/E3 ligase region</text>
<rect x="410" y="97" width="223.4" height="20" class="missense"/>
<rect x="633.3901192504259" y="97" width="78.2" height="20" class="syn"/>
<rect x="711.5502555366269" y="97" width="0.0" height="20" class="other"/>
<text x="719.5502555366269" y="112" class="small">571</text>
<text x="24" y="145">DNA-binding domain / helical-OB-DSS1 region</text>
<rect x="410" y="131" width="67.1" height="20" class="missense"/>
<rect x="477.06984667802385" y="131" width="0.0" height="20" class="syn"/>
<rect x="477.06984667802385" y="131" width="0.0" height="20" class="other"/>
<text x="485.06984667802385" y="146" class="small">127</text>
<text x="24" y="179">BRC repeats / RAD51-binding region</text>
<rect x="410" y="165" width="16.9" height="20" class="missense"/>
<rect x="426.8994889267462" y="165" width="0.0" height="20" class="syn"/>
<rect x="426.8994889267462" y="165" width="0.0" height="20" class="other"/>
<text x="434.8994889267462" y="180" class="small">32</text>
<text x="24" y="213">C-terminal RAD51-binding/nuclear localization context</text>
<rect x="410" y="199" width="7.4" height="20" class="missense"/>
<rect x="417.39352640545144" y="199" width="0.0" height="20" class="syn"/>
<rect x="417.39352640545144" y="199" width="0.0" height="20" class="other"/>
<text x="425.39352640545144" y="214" class="small">14</text>
<text x="24" y="247">coiled-coil PALB2 interaction region</text>
<rect x="410" y="233" width="7.4" height="20" class="missense"/>
<rect x="417.39352640545144" y="233" width="0.0" height="20" class="syn"/>
<rect x="417.39352640545144" y="233" width="0.0" height="20" class="other"/>
<text x="425.39352640545144" y="248" class="small">14</text>
<text x="24" y="281">PALB2 binding N-terminal region</text>
<rect x="410" y="267" width="2.1" height="20" class="missense"/>
<rect x="412.11243611584325" y="267" width="0.0" height="20" class="syn"/>
<rect x="412.11243611584325" y="267" width="0.0" height="20" class="other"/>
<text x="420.11243611584325" y="282" class="small">4</text>
</svg>