<svg xmlns="http://www.w3.org/2000/svg" width="1080" height="470" viewBox="0 0 1080 470">
<style>
text { font-family: Arial, Helvetica, sans-serif; fill: #172033; }
.small { font-size: 11px; }
.label { font-size: 12px; }
.title { font-size: 18px; font-weight: 700; }
.axis { stroke: #9aa4b2; stroke-width: 1; }
.grid { stroke: #e2e8f0; stroke-width: 1; }
.panel { fill: #f3f4f6; }
.tile { stroke: #ffffff; stroke-width: 1; }
.legend-title { font-size: 11px; font-weight: 700; }
</style>
<rect x="0" y="0" width="1080" height="470" fill="#ffffff"/>
<text x="28" y="34" class="title">Boundary-distance distribution</text>
<text x="28" y="54" class="small">Percent of all variants in each group that fall into each distance bin</text>
<rect x="90" y="70" width="870" height="300" fill="#f8fafc" stroke="#cbd5e1"/>
<line x1="90" y1="370.0" x2="960" y2="370.0" class="grid"/>
<text x="42" y="374.0" class="small">0%</text>
<line x1="90" y1="310.0" x2="960" y2="310.0" class="grid"/>
<text x="42" y="314.0" class="small">20%</text>
<line x1="90" y1="250.0" x2="960" y2="250.0" class="grid"/>
<text x="42" y="254.0" class="small">40%</text>
<line x1="90" y1="190.0" x2="960" y2="190.0" class="grid"/>
<text x="42" y="194.0" class="small">60%</text>
<line x1="90" y1="130.0" x2="960" y2="130.0" class="grid"/>
<text x="42" y="134.0" class="small">80%</text>
<line x1="90" y1="70.0" x2="960" y2="70.0" class="grid"/>
<text x="42" y="74.0" class="small">100%</text>
<text x="94.0" y="390" class="small">0</text>
<rect x="94.0" y="369.08674124335226" width="30.916666666666664" height="0.9132587566477168" fill="#2b8cbe" opacity="0.85"/>
<rect x="126.91666666666666" y="361.47333687149546" width="30.916666666666664" height="8.526663128504511" fill="#8a8f9c" opacity="0.85"/>
<rect x="159.83333333333331" y="364.3367616591463" width="30.916666666666664" height="5.663238340853683" fill="#d7301f" opacity="0.85"/>
<text x="202.75" y="390" class="small">1-2</text>
<rect x="202.75" y="367.1281863194572" width="30.916666666666664" height="2.8718136805428207" fill="#2b8cbe" opacity="0.85"/>
<rect x="235.66666666666666" y="357.28480059784414" width="30.916666666666664" height="12.715199402155848" fill="#8a8f9c" opacity="0.85"/>
<rect x="268.5833333333333" y="360.0060499867288" width="30.916666666666664" height="9.993950013271204" fill="#d7301f" opacity="0.85"/>
<text x="311.5" y="390" class="small">3-5</text>
<rect x="311.5" y="364.6414817531634" width="30.916666666666664" height="5.358518246836604" fill="#2b8cbe" opacity="0.85"/>
<rect x="344.4166666666667" y="353.1959913783274" width="30.916666666666664" height="16.804008621672633" fill="#8a8f9c" opacity="0.85"/>
<rect x="377.3333333333333" y="363.3373666578192" width="30.916666666666664" height="6.662633342180803" fill="#d7301f" opacity="0.85"/>
<text x="420.25" y="390" class="small">6-10</text>
<rect x="420.25" y="360.5263157894737" width="30.916666666666664" height="9.473684210526317" fill="#2b8cbe" opacity="0.85"/>
<rect x="453.1666666666667" y="344.6194647227556" width="30.916666666666664" height="25.380535277244423" fill="#8a8f9c" opacity="0.85"/>
<rect x="486.0833333333333" y="358.3403916511836" width="30.916666666666664" height="11.659608348816406" fill="#d7301f" opacity="0.85"/>
<text x="529.0" y="390" class="small">11-20</text>
<rect x="529.0" y="351.44874381074635" width="30.916666666666664" height="18.55125618925362" fill="#2b8cbe" opacity="0.85"/>
<rect x="561.9166666666666" y="318.7901577019056" width="30.916666666666664" height="51.209842298094344" fill="#8a8f9c" opacity="0.85"/>
<rect x="594.8333333333334" y="343.18290079772225" width="30.916666666666664" height="26.817099202277728" fill="#d7301f" opacity="0.85"/>
<text x="637.75" y="390" class="small">21-50</text>
<rect x="637.75" y="331.3130386942967" width="30.916666666666664" height="38.68696130570327" fill="#2b8cbe" opacity="0.85"/>
<rect x="670.6666666666666" y="232.62598292964955" width="30.916666666666664" height="137.37401707035045" fill="#8a8f9c" opacity="0.85"/>
<rect x="703.5833333333334" y="310.2028657539273" width="30.916666666666664" height="59.797134246072716" fill="#d7301f" opacity="0.85"/>
<text x="746.5" y="390" class="small">51-100</text>
<rect x="746.5" y="339.2682926829268" width="30.916666666666664" height="30.731707317073166" fill="#2b8cbe" opacity="0.85"/>
<rect x="779.4166666666666" y="256.66020297607747" width="30.916666666666664" height="113.33979702392253" fill="#8a8f9c" opacity="0.85"/>
<rect x="812.3333333333334" y="328.35854161136996" width="30.916666666666664" height="41.64145838863002" fill="#d7301f" opacity="0.85"/>
<text x="855.25" y="390" class="small">&gt;100</text>
<rect x="855.25" y="70.0" width="30.916666666666664" height="300.0" fill="#2b8cbe" opacity="0.85"/>
<rect x="888.1666666666666" y="328.76286311536126" width="30.916666666666664" height="41.23713688463877" fill="#8a8f9c" opacity="0.85"/>
<rect x="921.0833333333334" y="125.64792217551906" width="30.916666666666664" height="244.35207782448094" fill="#d7301f" opacity="0.85"/>
<rect x="715" y="78" width="12" height="12" fill="#2b8cbe"/>
<text x="733" y="88" class="small">Benign/Likely Benign</text>
<rect x="715" y="98" width="12" height="12" fill="#8a8f9c"/>
<text x="733" y="108" class="small">VUS</text>
<rect x="715" y="118" width="12" height="12" fill="#d7301f"/>
<text x="733" y="128" class="small">Likely Pathogenic/Pathogenic</text>
<text x="405" y="448" class="label">Distance to nearest CDS exon boundary, bp</text>
</svg>
