<svg xmlns="http://www.w3.org/2000/svg" width="554" height="436" viewBox="0 0 554 436">
<style>
text { font-family: Arial, Helvetica, sans-serif; fill: #172033; }
.small { font-size: 11px; }
.label { font-size: 12px; }
.title { font-size: 18px; font-weight: 700; }
.axis { stroke: #9aa4b2; stroke-width: 1; }
.grid { stroke: #e2e8f0; stroke-width: 1; }
.panel { fill: #f3f4f6; }
.tile { stroke: #ffffff; stroke-width: 1; }
.legend-title { font-size: 11px; font-weight: 700; }
</style>
<rect x="0" y="0" width="554" height="436" fill="#ffffff"/>
<text x="30" y="32" class="title">BRCA2: Boundary distance by group</text>
<text x="150" y="58" class="small">Grouped class</text>
<rect x="148" y="94" width="278" height="272" class="panel"/>
<text x="154" y="80" class="small">benign</text>
<text x="246" y="80" class="small">vus</text>
<text x="338" y="80" class="small">pathogenic</text>
<text x="20" y="116" class="small">0</text>
<rect x="150" y="96" width="92" height="30" fill="#edf3fb" class="tile"/>
<text x="156" y="115" class="small">37</text>
<rect x="242" y="96" width="92" height="30" fill="#e7eefb" class="tile"/>
<text x="248" y="115" class="small">110</text>
<rect x="334" y="96" width="92" height="30" fill="#f2f7fc" class="tile"/>
<text x="340" y="115" class="small">9</text>
<text x="20" y="146" class="small">1-2</text>
<rect x="150" y="126" width="92" height="30" fill="#e6eefb" class="tile"/>
<text x="156" y="145" class="small">113</text>
<rect x="242" y="126" width="92" height="30" fill="#e3ebfa" class="tile"/>
<text x="248" y="145" class="small">170</text>
<rect x="334" y="126" width="92" height="30" fill="#eff4fb" class="tile"/>
<text x="340" y="145" class="small">29</text>
<text x="20" y="176" class="small">3-5</text>
<rect x="150" y="156" width="92" height="30" fill="#e0e9fa" class="tile"/>
<text x="156" y="175" class="small">218</text>
<rect x="242" y="156" width="92" height="30" fill="#dfe9fa" class="tile"/>
<text x="248" y="175" class="small">227</text>
<rect x="334" y="156" width="92" height="30" fill="#eff5fb" class="tile"/>
<text x="340" y="175" class="small">23</text>
<text x="20" y="206" class="small">6-10</text>
<rect x="150" y="186" width="92" height="30" fill="#d8e4fa" class="tile"/>
<text x="156" y="205" class="small">379</text>
<rect x="242" y="186" width="92" height="30" fill="#d9e4fa" class="tile"/>
<text x="248" y="205" class="small">366</text>
<rect x="334" y="186" width="92" height="30" fill="#eef3fb" class="tile"/>
<text x="340" y="205" class="small">35</text>
<text x="20" y="236" class="small">11-20</text>
<rect x="150" y="216" width="92" height="30" fill="#ccdbf8" class="tile"/>
<text x="156" y="235" class="small">768</text>
<rect x="242" y="216" width="92" height="30" fill="#cddcf9" class="tile"/>
<text x="248" y="235" class="small">708</text>
<rect x="334" y="216" width="92" height="30" fill="#e9f0fb" class="tile"/>
<text x="340" y="235" class="small">81</text>
<text x="20" y="266" class="small">21-50</text>
<rect x="150" y="246" width="92" height="30" fill="#b8cdf7" class="tile"/>
<text x="156" y="265" class="small">1594</text>
<rect x="242" y="246" width="92" height="30" fill="#aec6f6" class="tile"/>
<text x="248" y="265" class="small">2163</text>
<rect x="334" y="246" width="92" height="30" fill="#e0eafa" class="tile"/>
<text x="340" y="265" class="small">212</text>
<text x="20" y="296" class="small">51-100</text>
<rect x="150" y="276" width="92" height="30" fill="#b7ccf7" class="tile"/>
<text x="156" y="295" class="small">1654</text>
<rect x="242" y="276" width="92" height="30" fill="#afc6f6" class="tile"/>
<text x="248" y="295" class="small">2126</text>
<rect x="334" y="276" width="92" height="30" fill="#e1eafa" class="tile"/>
<text x="340" y="295" class="small">189</text>
<text x="20" y="326" class="small">&gt;100</text>
<rect x="150" y="306" width="92" height="30" fill="#2563eb" class="tile"/>
<text x="156" y="325" class="small">17915</text>
<rect x="242" y="306" width="92" height="30" fill="#cfddf9" class="tile"/>
<text x="248" y="325" class="small">659</text>
<rect x="334" y="306" width="92" height="30" fill="#c6d7f8" class="tile"/>
<text x="340" y="325" class="small">986</text>
<text x="20" y="356" class="small">missing</text>
<rect x="150" y="336" width="92" height="30" fill="#f7fafc" class="tile"/>
<rect x="242" y="336" width="92" height="30" fill="#f7fafc" class="tile"/>
<rect x="334" y="336" width="92" height="30" fill="#f7fafc" class="tile"/>
<text x="458" y="90" class="legend-title">count</text>
<rect x="458" y="100" width="18" height="18" fill="#2563eb" class="tile"/>
<rect x="458" y="118" width="18" height="18" fill="#3b73ed" class="tile"/>
<rect x="458" y="136" width="18" height="18" fill="#5485ef" class="tile"/>
<rect x="458" y="154" width="18" height="18" fill="#729af1" class="tile"/>
<rect x="458" y="172" width="18" height="18" fill="#99b6f4" class="tile"/>
<rect x="458" y="190" width="18" height="18" fill="#f7fafc" class="tile"/>
<text x="484" y="112" class="small">17915</text>
<text x="484" y="202" class="small">0</text>
</svg>
