<svg xmlns="http://www.w3.org/2000/svg" width="1080" height="470" viewBox="0 0 1080 470">
<style>
text { font-family: Arial, Helvetica, sans-serif; fill: #172033; }
.small { font-size: 11px; }
.label { font-size: 12px; }
.title { font-size: 18px; font-weight: 700; }
.axis { stroke: #9aa4b2; stroke-width: 1; }
.grid { stroke: #e2e8f0; stroke-width: 1; }
.panel { fill: #f3f4f6; }
.tile { stroke: #ffffff; stroke-width: 1; }
.legend-title { font-size: 11px; font-weight: 700; }
</style>
<rect x="0" y="0" width="1080" height="470" fill="#ffffff"/>
<text x="28" y="34" class="title">BRCA2: SpliceAI >=0.20 rate by distance</text>
<text x="28" y="54" class="small">This is normalized within each distance bin and group, so it is more informative than the scatter</text>
<rect x="90" y="70" width="870" height="300" fill="#f8fafc" stroke="#cbd5e1"/>
<line x1="90" y1="370.0" x2="960" y2="370.0" class="grid"/>
<text x="42" y="374.0" class="small">0%</text>
<line x1="90" y1="310.0" x2="960" y2="310.0" class="grid"/>
<text x="42" y="314.0" class="small">20%</text>
<line x1="90" y1="250.0" x2="960" y2="250.0" class="grid"/>
<text x="42" y="254.0" class="small">40%</text>
<line x1="90" y1="190.0" x2="960" y2="190.0" class="grid"/>
<text x="42" y="194.0" class="small">60%</text>
<line x1="90" y1="130.0" x2="960" y2="130.0" class="grid"/>
<text x="42" y="134.0" class="small">80%</text>
<line x1="90" y1="70.0" x2="960" y2="70.0" class="grid"/>
<text x="42" y="74.0" class="small">100%</text>
<text x="94.0" y="390" class="small">0</text>
<rect x="94.0" y="359.5860118282335" width="30.916666666666664" height="10.41398817176652" fill="#2b8cbe" opacity="0.85"/>
<rect x="126.91666666666666" y="142.0879403445616" width="30.916666666666664" height="227.9120596554384" fill="#8a8f9c" opacity="0.85"/>
<rect x="159.83333333333331" y="70.0" width="30.916666666666664" height="300.0" fill="#d7301f" opacity="0.85"/>
<text x="202.75" y="390" class="small">1-2</text>
<rect x="202.75" y="366.6058112625354" width="30.916666666666664" height="3.394188737464644" fill="#2b8cbe" opacity="0.85"/>
<rect x="235.66666666666666" y="265.62869632296224" width="30.916666666666664" height="104.37130367703779" fill="#8a8f9c" opacity="0.85"/>
<rect x="268.5833333333333" y="263.584469015171" width="30.916666666666664" height="106.415530984829" fill="#d7301f" opacity="0.85"/>
<text x="311.5" y="390" class="small">3-5</text>
<rect x="311.5" y="370.0" width="30.916666666666664" height="0.0" fill="#2b8cbe" opacity="0.85"/>
<rect x="344.4166666666667" y="319.0100282849061" width="30.916666666666664" height="50.98997171509385" fill="#8a8f9c" opacity="0.85"/>
<rect x="377.3333333333333" y="336.4438158909745" width="30.916666666666664" height="33.55618410902545" fill="#d7301f" opacity="0.85"/>
<text x="420.25" y="390" class="small">6-10</text>
<rect x="420.25" y="370.0" width="30.916666666666664" height="0.0" fill="#2b8cbe" opacity="0.85"/>
<rect x="453.1666666666667" y="352.1033684751864" width="30.916666666666664" height="17.896631524813575" fill="#8a8f9c" opacity="0.85"/>
<rect x="486.0833333333333" y="336.9452301362818" width="30.916666666666664" height="33.05476986371818" fill="#d7301f" opacity="0.85"/>
<text x="529.0" y="390" class="small">11-20</text>
<rect x="529.0" y="368.99717150938545" width="30.916666666666664" height="1.002828490614554" fill="#2b8cbe" opacity="0.85"/>
<rect x="561.9166666666666" y="341.6893803034199" width="30.916666666666664" height="28.310619696580098" fill="#8a8f9c" opacity="0.85"/>
<rect x="594.8333333333334" y="312.87734636153255" width="30.916666666666664" height="57.122653638467476" fill="#d7301f" opacity="0.85"/>
<text x="637.75" y="390" class="small">21-50</text>
<rect x="637.75" y="370.0" width="30.916666666666664" height="0.0" fill="#2b8cbe" opacity="0.85"/>
<rect x="670.6666666666666" y="342.5379274877861" width="30.916666666666664" height="27.462072512213936" fill="#8a8f9c" opacity="0.85"/>
<rect x="703.5833333333334" y="317.23579326304963" width="30.916666666666664" height="52.76420673695037" fill="#d7301f" opacity="0.85"/>
<text x="746.5" y="390" class="small">51-100</text>
<rect x="746.5" y="369.7685780406274" width="30.916666666666664" height="0.23142195937258933" fill="#2b8cbe" opacity="0.85"/>
<rect x="779.4166666666666" y="343.695037284649" width="30.916666666666664" height="26.304962715350992" fill="#8a8f9c" opacity="0.85"/>
<rect x="812.3333333333334" y="337.3309334019028" width="30.916666666666664" height="32.6690665980972" fill="#d7301f" opacity="0.85"/>
<text x="855.25" y="390" class="small">&gt;100</text>
<rect x="855.25" y="370.0" width="30.916666666666664" height="0.0" fill="#2b8cbe" opacity="0.85"/>
<rect x="888.1666666666666" y="338.41090254564153" width="30.916666666666664" height="31.589097454358445" fill="#8a8f9c" opacity="0.85"/>
<rect x="921.0833333333334" y="368.41861661095396" width="30.916666666666664" height="1.5813833890460272" fill="#d7301f" opacity="0.85"/>
<rect x="715" y="78" width="12" height="12" fill="#2b8cbe"/>
<text x="733" y="88" class="small">Benign/Likely Benign</text>
<rect x="715" y="98" width="12" height="12" fill="#8a8f9c"/>
<text x="733" y="108" class="small">VUS</text>
<rect x="715" y="118" width="12" height="12" fill="#d7301f"/>
<text x="733" y="128" class="small">Likely Pathogenic/Pathogenic</text>
<text x="405" y="448" class="label">Distance to nearest CDS exon boundary, bp</text>
</svg>
