<svg xmlns="http://www.w3.org/2000/svg" width="1080" height="470" viewBox="0 0 1080 470">
<style>
text { font-family: Arial, Helvetica, sans-serif; fill: #172033; }
.small { font-size: 11px; }
.label { font-size: 12px; }
.title { font-size: 18px; font-weight: 700; }
.axis { stroke: #9aa4b2; stroke-width: 1; }
.grid { stroke: #e2e8f0; stroke-width: 1; }
.panel { fill: #f3f4f6; }
.tile { stroke: #ffffff; stroke-width: 1; }
.legend-title { font-size: 11px; font-weight: 700; }
</style>
<rect x="0" y="0" width="1080" height="470" fill="#ffffff"/>
<text x="28" y="34" class="title">SpliceAI >=0.20 rate by distance</text>
<text x="28" y="54" class="small">This is normalized within each distance bin and group, so it is more informative than the scatter</text>
<rect x="90" y="70" width="870" height="300" fill="#f8fafc" stroke="#cbd5e1"/>
<line x1="90" y1="370.0" x2="960" y2="370.0" class="grid"/>
<text x="42" y="374.0" class="small">0%</text>
<line x1="90" y1="310.0" x2="960" y2="310.0" class="grid"/>
<text x="42" y="314.0" class="small">20%</text>
<line x1="90" y1="250.0" x2="960" y2="250.0" class="grid"/>
<text x="42" y="254.0" class="small">40%</text>
<line x1="90" y1="190.0" x2="960" y2="190.0" class="grid"/>
<text x="42" y="194.0" class="small">60%</text>
<line x1="90" y1="130.0" x2="960" y2="130.0" class="grid"/>
<text x="42" y="134.0" class="small">80%</text>
<line x1="90" y1="70.0" x2="960" y2="70.0" class="grid"/>
<text x="42" y="74.0" class="small">100%</text>
<text x="94.0" y="390" class="small">0</text>
<rect x="94.0" y="343.6612021857924" width="30.916666666666664" height="26.338797814207652" fill="#2b8cbe" opacity="0.85"/>
<rect x="126.91666666666666" y="156.95810564663026" width="30.916666666666664" height="213.04189435336974" fill="#8a8f9c" opacity="0.85"/>
<rect x="159.83333333333331" y="70.0" width="30.916666666666664" height="300.0" fill="#d7301f" opacity="0.85"/>
<text x="202.75" y="390" class="small">1-2</text>
<rect x="202.75" y="357.43169398907105" width="30.916666666666664" height="12.568306010928962" fill="#2b8cbe" opacity="0.85"/>
<rect x="235.66666666666666" y="248.5792349726776" width="30.916666666666664" height="121.4207650273224" fill="#8a8f9c" opacity="0.85"/>
<rect x="268.5833333333333" y="224.28051001821493" width="30.916666666666664" height="145.71948998178507" fill="#d7301f" opacity="0.85"/>
<text x="311.5" y="390" class="small">3-5</text>
<rect x="311.5" y="367.0127504553734" width="30.916666666666664" height="2.9872495446265934" fill="#2b8cbe" opacity="0.85"/>
<rect x="344.4166666666667" y="311.6393442622951" width="30.916666666666664" height="58.36065573770492" fill="#8a8f9c" opacity="0.85"/>
<rect x="377.3333333333333" y="297.1402550091075" width="30.916666666666664" height="72.85974499089254" fill="#d7301f" opacity="0.85"/>
<text x="420.25" y="390" class="small">6-10</text>
<rect x="420.25" y="364.06193078324225" width="30.916666666666664" height="5.938069216757741" fill="#2b8cbe" opacity="0.85"/>
<rect x="453.1666666666667" y="342.78688524590166" width="30.916666666666664" height="27.21311475409836" fill="#8a8f9c" opacity="0.85"/>
<rect x="486.0833333333333" y="312.7686703096539" width="30.916666666666664" height="57.23132969034609" fill="#d7301f" opacity="0.85"/>
<text x="529.0" y="390" class="small">11-20</text>
<rect x="529.0" y="362.2040072859745" width="30.916666666666664" height="7.795992714025502" fill="#2b8cbe" opacity="0.85"/>
<rect x="561.9166666666666" y="329.56284153005464" width="30.916666666666664" height="40.43715846994536" fill="#8a8f9c" opacity="0.85"/>
<rect x="594.8333333333334" y="293.06010928961746" width="30.916666666666664" height="76.93989071038253" fill="#d7301f" opacity="0.85"/>
<text x="637.75" y="390" class="small">21-50</text>
<rect x="637.75" y="364.3169398907104" width="30.916666666666664" height="5.6830601092896185" fill="#2b8cbe" opacity="0.85"/>
<rect x="670.6666666666666" y="342.75045537340617" width="30.916666666666664" height="27.24954462659381" fill="#8a8f9c" opacity="0.85"/>
<rect x="703.5833333333334" y="291.85792349726773" width="30.916666666666664" height="78.14207650273225" fill="#d7301f" opacity="0.85"/>
<text x="746.5" y="390" class="small">51-100</text>
<rect x="746.5" y="369.4899817850638" width="30.916666666666664" height="0.5100182149362479" fill="#2b8cbe" opacity="0.85"/>
<rect x="779.4166666666666" y="345.0091074681239" width="30.916666666666664" height="24.99089253187614" fill="#8a8f9c" opacity="0.85"/>
<rect x="812.3333333333334" y="343.7704918032787" width="30.916666666666664" height="26.229508196721316" fill="#d7301f" opacity="0.85"/>
<text x="855.25" y="390" class="small">&gt;100</text>
<rect x="855.25" y="370.0" width="30.916666666666664" height="0.0" fill="#2b8cbe" opacity="0.85"/>
<rect x="888.1666666666666" y="320.23679417122037" width="30.916666666666664" height="49.763205828779604" fill="#8a8f9c" opacity="0.85"/>
<rect x="921.0833333333334" y="367.26775956284155" width="30.916666666666664" height="2.7322404371584703" fill="#d7301f" opacity="0.85"/>
<rect x="715" y="78" width="12" height="12" fill="#2b8cbe"/>
<text x="733" y="88" class="small">Benign/Likely Benign</text>
<rect x="715" y="98" width="12" height="12" fill="#8a8f9c"/>
<text x="733" y="108" class="small">VUS</text>
<rect x="715" y="118" width="12" height="12" fill="#d7301f"/>
<text x="733" y="128" class="small">Likely Pathogenic/Pathogenic</text>
<text x="405" y="448" class="label">Distance to nearest CDS exon boundary, bp</text>
</svg>
