<svg xmlns="http://www.w3.org/2000/svg" width="980" height="520" viewBox="0 0 980 520">
<style>
text { font-family: Arial, Helvetica, sans-serif; fill: #172033; }
.title { font-size: 18px; font-weight: 700; }
.label { font-size: 12px; }
.small { font-size: 11px; }
</style>
<rect x="0" y="0" width="980" height="520" fill="#ffffff"/>
<text x="28" y="34" class="title">VUS evidence action groups</text>
<text x="28" y="82" class="small">background_absence_only</text>
<rect x="310" y="60" width="560.0" height="34" rx="5" fill="#94a3b8" opacity="0.82"/>
<text x="880.0" y="82" class="small">5048</text>
<text x="28" y="128" class="small">conflicting_computational_splice_context</text>
<rect x="310" y="106" width="141.6" height="34" rx="5" fill="#f59e0b" opacity="0.82"/>
<text x="461.6" y="128" class="small">1276</text>
<text x="28" y="174" class="small">computational_signal_needs_noncomputational_support</text>
<rect x="310" y="152" width="93.4" height="34" rx="5" fill="#6366f1" opacity="0.82"/>
<text x="413.4" y="174" class="small">842</text>
<text x="28" y="220" class="small">near_pathogenic_threshold</text>
<rect x="310" y="198" width="49.5" height="34" rx="5" fill="#dc2626" opacity="0.82"/>
<text x="369.5" y="220" class="small">446</text>
<text x="28" y="266" class="small">module1_no_signal</text>
<rect x="310" y="244" width="36.7" height="34" rx="5" fill="#64748b" opacity="0.82"/>
<text x="356.7" y="266" class="small">331</text>
<text x="28" y="312" class="small">near_benign_threshold</text>
<rect x="310" y="290" width="21.2" height="34" rx="5" fill="#16a34a" opacity="0.82"/>
<text x="341.2" y="312" class="small">191</text>
<text x="28" y="358" class="small">manual_conflict_adjudication</text>
<rect x="310" y="336" width="2.2" height="34" rx="5" fill="#7c3aed" opacity="0.82"/>
<text x="322.2" y="358" class="small">20</text>
<text x="28" y="495" class="label">Counts are unresolved Module 1 VUS, grouped by the likely next evidence question.</text>
</svg>
