<svg xmlns="http://www.w3.org/2000/svg" width="967" height="238" viewBox="0 0 967 238">
<style>
text { font-family: Arial, Helvetica, sans-serif; fill: #172033; }
.small { font-size: 11px; }
.label { font-size: 12px; }
.title { font-size: 18px; font-weight: 700; }
.grid { stroke: #e2e8f0; stroke-width: 1; }
.axis { stroke: #9aa4b2; stroke-width: 1; }
</style>
<rect x="0" y="0" width="967" height="238" fill="#ffffff"/>
<text x="28" y="34" class="title">BP1 hotspot enrichment</text>
<text x="72" y="58" class="small">Each gene is split into 120 CDS bins; darker means stronger enrichment, capped at 16x</text>
<text x="24" y="99" class="label">BRCA1</text>
<rect x="72" y="78" width="7" height="29" fill="#f8fafc"/>
<rect x="79" y="78" width="7" height="29" fill="#f8fafc"/>
<rect x="86" y="78" width="7" height="29" fill="#f8fafc"/>
<rect x="93" y="78" width="7" height="29" fill="#f8fafc"/>
<rect x="100" y="78" width="7" height="29" fill="#f8fafc"/>
<rect x="107" y="78" width="7" height="29" fill="#f8fafc"/>
<rect x="114" y="78" width="7" height="29" fill="#58bd7e"/>
<rect x="121" y="78" width="7" height="29" fill="#1aa54d"/>
<rect x="128" y="78" width="7" height="29" fill="#1ca54f"/>
<rect x="135" y="78" width="7" height="29" fill="#24a955"/>
<rect x="142" y="78" width="7" height="29" fill="#19a44c"/>
<rect x="149" y="78" width="7" height="29" fill="#21a753"/>
<rect x="156" y="78" width="7" height="29" fill="#38b065"/>
<rect x="163" y="78" width="7" height="29" fill="#45b56f"/>
<rect x="170" y="78" width="7" height="29" fill="#2dac5c"/>
<rect x="177" y="78" width="7" height="29" fill="#17a34b"/>
<rect x="184" y="78" width="7" height="29" fill="#3eb26a"/>
<rect x="191" y="78" width="7" height="29" fill="#2bab5a"/>
<rect x="198" y="78" width="7" height="29" fill="#1ea650"/>
<rect x="205" y="78" width="7" height="29" fill="#1aa54d"/>
<rect x="212" y="78" width="7" height="29" fill="#1ca54e"/>
<rect x="219" y="78" width="7" height="29" fill="#18a44c"/>
<rect x="226" y="78" width="7" height="29" fill="#1da650"/>
<rect x="233" y="78" width="7" height="29" fill="#1ba54e"/>
<rect x="240" y="78" width="7" height="29" fill="#19a44d"/>
<rect x="247" y="78" width="7" height="29" fill="#1aa54d"/>
<rect x="254" y="78" width="7" height="29" fill="#18a44c"/>
<rect x="261" y="78" width="7" height="29" fill="#1ca54f"/>
<rect x="268" y="78" width="7" height="29" fill="#1ca54f"/>
<rect x="275" y="78" width="7" height="29" fill="#19a44d"/>
<rect x="282" y="78" width="7" height="29" fill="#18a44c"/>
<rect x="289" y="78" width="7" height="29" fill="#18a44c"/>
<rect x="296" y="78" width="7" height="29" fill="#1ba54e"/>
<rect x="303" y="78" width="7" height="29" fill="#19a44c"/>
<rect x="310" y="78" width="7" height="29" fill="#1aa54d"/>
<rect x="317" y="78" width="7" height="29" fill="#17a34b"/>
<rect x="324" y="78" width="7" height="29" fill="#1aa54d"/>
<rect x="331" y="78" width="7" height="29" fill="#18a44c"/>
<rect x="338" y="78" width="7" height="29" fill="#1aa54d"/>
<rect x="345" y="78" width="7" height="29" fill="#17a34b"/>
<rect x="352" y="78" width="7" height="29" fill="#17a34b"/>
<rect x="359" y="78" width="7" height="29" fill="#1ca54e"/>
<rect x="366" y="78" width="7" height="29" fill="#19a44d"/>
<rect x="373" y="78" width="7" height="29" fill="#1aa54d"/>
<rect x="380" y="78" width="7" height="29" fill="#1aa54d"/>
<rect x="387" y="78" width="7" height="29" fill="#1ba54e"/>
<rect x="394" y="78" width="7" height="29" fill="#1aa54d"/>
<rect x="401" y="78" width="7" height="29" fill="#1aa54d"/>
<rect x="408" y="78" width="7" height="29" fill="#1ca54f"/>
<rect x="415" y="78" width="7" height="29" fill="#18a44c"/>
<rect x="422" y="78" width="7" height="29" fill="#1ca54f"/>
<rect x="429" y="78" width="7" height="29" fill="#19a44c"/>
<rect x="436" y="78" width="7" height="29" fill="#1aa54d"/>
<rect x="443" y="78" width="7" height="29" fill="#1aa54d"/>
<rect x="450" y="78" width="7" height="29" fill="#19a44d"/>
<rect x="457" y="78" width="7" height="29" fill="#1da650"/>
<rect x="464" y="78" width="7" height="29" fill="#1ca54e"/>
<rect x="471" y="78" width="7" height="29" fill="#19a44d"/>
<rect x="478" y="78" width="7" height="29" fill="#20a752"/>
<rect x="485" y="78" width="7" height="29" fill="#17a34b"/>
<rect x="492" y="78" width="7" height="29" fill="#1ba54e"/>
<rect x="499" y="78" width="7" height="29" fill="#1aa54d"/>
<rect x="506" y="78" width="7" height="29" fill="#1aa54d"/>
<rect x="513" y="78" width="7" height="29" fill="#1ba54e"/>
<rect x="520" y="78" width="7" height="29" fill="#1da64f"/>
<rect x="527" y="78" width="7" height="29" fill="#19a44c"/>
<rect x="534" y="78" width="7" height="29" fill="#1ca54e"/>
<rect x="541" y="78" width="7" height="29" fill="#17a34b"/>
<rect x="548" y="78" width="7" height="29" fill="#17a44b"/>
<rect x="555" y="78" width="7" height="29" fill="#1aa54d"/>
<rect x="562" y="78" width="7" height="29" fill="#1ca54e"/>
<rect x="569" y="78" width="7" height="29" fill="#1da650"/>
<rect x="576" y="78" width="7" height="29" fill="#28aa58"/>
<rect x="583" y="78" width="7" height="29" fill="#21a753"/>
<rect x="590" y="78" width="7" height="29" fill="#19a44d"/>
<rect x="597" y="78" width="7" height="29" fill="#19a44c"/>
<rect x="604" y="78" width="7" height="29" fill="#1aa54d"/>
<rect x="611" y="78" width="7" height="29" fill="#1fa751"/>
<rect x="618" y="78" width="7" height="29" fill="#1fa651"/>
<rect x="625" y="78" width="7" height="29" fill="#1ca54f"/>
<rect x="632" y="78" width="7" height="29" fill="#18a44c"/>
<rect x="639" y="78" width="7" height="29" fill="#1ea650"/>
<rect x="646" y="78" width="7" height="29" fill="#1da64f"/>
<rect x="653" y="78" width="7" height="29" fill="#44b56e"/>
<rect x="660" y="78" width="7" height="29" fill="#1da650"/>
<rect x="667" y="78" width="7" height="29" fill="#1ca54e"/>
<rect x="674" y="78" width="7" height="29" fill="#2cab5b"/>
<rect x="681" y="78" width="7" height="29" fill="#42b46d"/>
<rect x="688" y="78" width="7" height="29" fill="#1ba54e"/>
<rect x="695" y="78" width="7" height="29" fill="#5bbe81"/>
<rect x="702" y="78" width="7" height="29" fill="#f8fafc"/>
<rect x="709" y="78" width="7" height="29" fill="#75c896"/>
<rect x="716" y="78" width="7" height="29" fill="#18a44b"/>
<rect x="723" y="78" width="7" height="29" fill="#5cbe81"/>
<rect x="730" y="78" width="7" height="29" fill="#35af63"/>
<rect x="737" y="78" width="7" height="29" fill="#1ea650"/>
<rect x="744" y="78" width="7" height="29" fill="#39b166"/>
<rect x="751" y="78" width="7" height="29" fill="#1da64f"/>
<rect x="758" y="78" width="7" height="29" fill="#1ca54f"/>
<rect x="765" y="78" width="7" height="29" fill="#1da650"/>
<rect x="772" y="78" width="7" height="29" fill="#3cb268"/>
<rect x="779" y="78" width="7" height="29" fill="#17a44b"/>
<rect x="786" y="78" width="7" height="29" fill="#1aa54d"/>
<rect x="793" y="78" width="7" height="29" fill="#1ca54e"/>
<rect x="800" y="78" width="7" height="29" fill="#1da64f"/>
<rect x="807" y="78" width="7" height="29" fill="#1da650"/>
<rect x="814" y="78" width="7" height="29" fill="#a6dbbc"/>
<rect x="821" y="78" width="7" height="29" fill="#f8fafc"/>
<rect x="828" y="78" width="7" height="29" fill="#f8fafc"/>
<rect x="835" y="78" width="7" height="29" fill="#f8fafc"/>
<rect x="842" y="78" width="7" height="29" fill="#f8fafc"/>
<rect x="849" y="78" width="7" height="29" fill="#f8fafc"/>
<rect x="856" y="78" width="7" height="29" fill="#f8fafc"/>
<rect x="863" y="78" width="7" height="29" fill="#f8fafc"/>
<rect x="870" y="78" width="7" height="29" fill="#f8fafc"/>
<rect x="877" y="78" width="7" height="29" fill="#f8fafc"/>
<rect x="884" y="78" width="7" height="29" fill="#f8fafc"/>
<rect x="891" y="78" width="7" height="29" fill="#f8fafc"/>
<rect x="898" y="78" width="7" height="29" fill="#f8fafc"/>
<rect x="905" y="78" width="7" height="29" fill="#61c086"/>
<text x="24" y="133" class="label">BRCA2</text>
<rect x="72" y="112" width="7" height="29" fill="#83cda0"/>
<rect x="79" y="112" width="7" height="29" fill="#4eb976"/>
<rect x="86" y="112" width="7" height="29" fill="#1aa44d"/>
<rect x="93" y="112" width="7" height="29" fill="#23a855"/>
<rect x="100" y="112" width="7" height="29" fill="#1ca54f"/>
<rect x="107" y="112" width="7" height="29" fill="#22a854"/>
<rect x="114" y="112" width="7" height="29" fill="#42b46d"/>
<rect x="121" y="112" width="7" height="29" fill="#2cab5b"/>
<rect x="128" y="112" width="7" height="29" fill="#20a752"/>
<rect x="135" y="112" width="7" height="29" fill="#1da650"/>
<rect x="142" y="112" width="7" height="29" fill="#1da64f"/>
<rect x="149" y="112" width="7" height="29" fill="#1ba54e"/>
<rect x="156" y="112" width="7" height="29" fill="#1ba54e"/>
<rect x="163" y="112" width="7" height="29" fill="#1ba54e"/>
<rect x="170" y="112" width="7" height="29" fill="#1ba54e"/>
<rect x="177" y="112" width="7" height="29" fill="#1ba54e"/>
<rect x="184" y="112" width="7" height="29" fill="#1aa54e"/>
<rect x="191" y="112" width="7" height="29" fill="#1ba54e"/>
<rect x="198" y="112" width="7" height="29" fill="#1aa54d"/>
<rect x="205" y="112" width="7" height="29" fill="#1ba54e"/>
<rect x="212" y="112" width="7" height="29" fill="#1ca54f"/>
<rect x="219" y="112" width="7" height="29" fill="#1da64f"/>
<rect x="226" y="112" width="7" height="29" fill="#1ea650"/>
<rect x="233" y="112" width="7" height="29" fill="#18a44c"/>
<rect x="240" y="112" width="7" height="29" fill="#1da64f"/>
<rect x="247" y="112" width="7" height="29" fill="#1ba54e"/>
<rect x="254" y="112" width="7" height="29" fill="#1ba54e"/>
<rect x="261" y="112" width="7" height="29" fill="#1ba54e"/>
<rect x="268" y="112" width="7" height="29" fill="#1ba54e"/>
<rect x="275" y="112" width="7" height="29" fill="#1ca54f"/>
<rect x="282" y="112" width="7" height="29" fill="#1aa54d"/>
<rect x="289" y="112" width="7" height="29" fill="#19a44c"/>
<rect x="296" y="112" width="7" height="29" fill="#1aa44d"/>
<rect x="303" y="112" width="7" height="29" fill="#1aa54e"/>
<rect x="310" y="112" width="7" height="29" fill="#1ca54f"/>
<rect x="317" y="112" width="7" height="29" fill="#1aa44d"/>
<rect x="324" y="112" width="7" height="29" fill="#1ba54e"/>
<rect x="331" y="112" width="7" height="29" fill="#1aa44d"/>
<rect x="338" y="112" width="7" height="29" fill="#1aa44d"/>
<rect x="345" y="112" width="7" height="29" fill="#1da64f"/>
<rect x="352" y="112" width="7" height="29" fill="#19a44c"/>
<rect x="359" y="112" width="7" height="29" fill="#19a44c"/>
<rect x="366" y="112" width="7" height="29" fill="#19a44c"/>
<rect x="373" y="112" width="7" height="29" fill="#18a44b"/>
<rect x="380" y="112" width="7" height="29" fill="#1aa44d"/>
<rect x="387" y="112" width="7" height="29" fill="#1aa44d"/>
<rect x="394" y="112" width="7" height="29" fill="#1aa54d"/>
<rect x="401" y="112" width="7" height="29" fill="#1aa54d"/>
<rect x="408" y="112" width="7" height="29" fill="#1ca54f"/>
<rect x="415" y="112" width="7" height="29" fill="#1ba54e"/>
<rect x="422" y="112" width="7" height="29" fill="#18a44c"/>
<rect x="429" y="112" width="7" height="29" fill="#1ba54e"/>
<rect x="436" y="112" width="7" height="29" fill="#19a44c"/>
<rect x="443" y="112" width="7" height="29" fill="#1aa44d"/>
<rect x="450" y="112" width="7" height="29" fill="#1aa44d"/>
<rect x="457" y="112" width="7" height="29" fill="#1ca54f"/>
<rect x="464" y="112" width="7" height="29" fill="#19a44c"/>
<rect x="471" y="112" width="7" height="29" fill="#1aa44d"/>
<rect x="478" y="112" width="7" height="29" fill="#1ca54f"/>
<rect x="485" y="112" width="7" height="29" fill="#1ba54e"/>
<rect x="492" y="112" width="7" height="29" fill="#1ca54f"/>
<rect x="499" y="112" width="7" height="29" fill="#1da650"/>
<rect x="506" y="112" width="7" height="29" fill="#18a44b"/>
<rect x="513" y="112" width="7" height="29" fill="#1aa44d"/>
<rect x="520" y="112" width="7" height="29" fill="#16a34a"/>
<rect x="527" y="112" width="7" height="29" fill="#1aa44d"/>
<rect x="534" y="112" width="7" height="29" fill="#1ba54e"/>
<rect x="541" y="112" width="7" height="29" fill="#1aa54e"/>
<rect x="548" y="112" width="7" height="29" fill="#1ba54e"/>
<rect x="555" y="112" width="7" height="29" fill="#1ba54e"/>
<rect x="562" y="112" width="7" height="29" fill="#1aa44d"/>
<rect x="569" y="112" width="7" height="29" fill="#1ba54e"/>
<rect x="576" y="112" width="7" height="29" fill="#1ba54e"/>
<rect x="583" y="112" width="7" height="29" fill="#1ba54e"/>
<rect x="590" y="112" width="7" height="29" fill="#1da650"/>
<rect x="597" y="112" width="7" height="29" fill="#1da64f"/>
<rect x="604" y="112" width="7" height="29" fill="#1ca54f"/>
<rect x="611" y="112" width="7" height="29" fill="#24a855"/>
<rect x="618" y="112" width="7" height="29" fill="#17a44b"/>
<rect x="625" y="112" width="7" height="29" fill="#1fa651"/>
<rect x="632" y="112" width="7" height="29" fill="#2fad5e"/>
<rect x="639" y="112" width="7" height="29" fill="#1da64f"/>
<rect x="646" y="112" width="7" height="29" fill="#1ba54e"/>
<rect x="653" y="112" width="7" height="29" fill="#1fa651"/>
<rect x="660" y="112" width="7" height="29" fill="#1ba54e"/>
<rect x="667" y="112" width="7" height="29" fill="#1aa54d"/>
<rect x="674" y="112" width="7" height="29" fill="#1fa651"/>
<rect x="681" y="112" width="7" height="29" fill="#d1ebde"/>
<rect x="688" y="112" width="7" height="29" fill="#f8fafc"/>
<rect x="695" y="112" width="7" height="29" fill="#f8fafc"/>
<rect x="702" y="112" width="7" height="29" fill="#f8fafc"/>
<rect x="709" y="112" width="7" height="29" fill="#f8fafc"/>
<rect x="716" y="112" width="7" height="29" fill="#f8fafc"/>
<rect x="723" y="112" width="7" height="29" fill="#f8fafc"/>
<rect x="730" y="112" width="7" height="29" fill="#f8fafc"/>
<rect x="737" y="112" width="7" height="29" fill="#f8fafc"/>
<rect x="744" y="112" width="7" height="29" fill="#f8fafc"/>
<rect x="751" y="112" width="7" height="29" fill="#f8fafc"/>
<rect x="758" y="112" width="7" height="29" fill="#f8fafc"/>
<rect x="765" y="112" width="7" height="29" fill="#f8fafc"/>
<rect x="772" y="112" width="7" height="29" fill="#f8fafc"/>
<rect x="779" y="112" width="7" height="29" fill="#f8fafc"/>
<rect x="786" y="112" width="7" height="29" fill="#f8fafc"/>
<rect x="793" y="112" width="7" height="29" fill="#f8fafc"/>
<rect x="800" y="112" width="7" height="29" fill="#f8fafc"/>
<rect x="807" y="112" width="7" height="29" fill="#f8fafc"/>
<rect x="814" y="112" width="7" height="29" fill="#f8fafc"/>
<rect x="821" y="112" width="7" height="29" fill="#f8fafc"/>
<rect x="828" y="112" width="7" height="29" fill="#f8fafc"/>
<rect x="835" y="112" width="7" height="29" fill="#f8fafc"/>
<rect x="842" y="112" width="7" height="29" fill="#f8fafc"/>
<rect x="849" y="112" width="7" height="29" fill="#98d5b1"/>
<rect x="856" y="112" width="7" height="29" fill="#1ca54f"/>
<rect x="863" y="112" width="7" height="29" fill="#4db875"/>
<rect x="870" y="112" width="7" height="29" fill="#1ca54f"/>
<rect x="877" y="112" width="7" height="29" fill="#1aa54d"/>
<rect x="884" y="112" width="7" height="29" fill="#1aa54d"/>
<rect x="891" y="112" width="7" height="29" fill="#28aa58"/>
<rect x="898" y="112" width="7" height="29" fill="#1ca54f"/>
<rect x="905" y="112" width="7" height="29" fill="#1da64f"/>
<line x1="72" y1="150" x2="72" y2="156" class="axis"/>
<text x="62" y="173" class="small">0%</text>
<line x1="282.0" y1="150" x2="282.0" y2="156" class="axis"/>
<text x="272.0" y="173" class="small">25%</text>
<line x1="492.0" y1="150" x2="492.0" y2="156" class="axis"/>
<text x="482.0" y="173" class="small">50%</text>
<line x1="702.0" y1="150" x2="702.0" y2="156" class="axis"/>
<text x="692.0" y="173" class="small">75%</text>
<line x1="912.0" y1="150" x2="912.0" y2="156" class="axis"/>
<text x="902.0" y="173" class="small">100%</text>
</svg>
