<svg xmlns="http://www.w3.org/2000/svg" width="967" height="238" viewBox="0 0 967 238">
<style>
text { font-family: Arial, Helvetica, sans-serif; fill: #172033; }
.small { font-size: 11px; }
.label { font-size: 12px; }
.title { font-size: 18px; font-weight: 700; }
.grid { stroke: #e2e8f0; stroke-width: 1; }
.axis { stroke: #9aa4b2; stroke-width: 1; }
</style>
<rect x="0" y="0" width="967" height="238" fill="#ffffff"/>
<text x="28" y="34" class="title">BS3 hotspot enrichment</text>
<text x="72" y="58" class="small">Each gene is split into 120 CDS bins; darker means stronger enrichment, capped at 16x</text>
<text x="24" y="99" class="label">BRCA1</text>
<rect x="72" y="78" width="7" height="29" fill="#3893c2"/>
<rect x="79" y="78" width="7" height="29" fill="#449ac6"/>
<rect x="86" y="78" width="7" height="29" fill="#55a3cb"/>
<rect x="93" y="78" width="7" height="29" fill="#3994c2"/>
<rect x="100" y="78" width="7" height="29" fill="#3b94c3"/>
<rect x="107" y="78" width="7" height="29" fill="#3e96c4"/>
<rect x="114" y="78" width="7" height="29" fill="#8cc0db"/>
<rect x="121" y="78" width="7" height="29" fill="#dcecf4"/>
<rect x="128" y="78" width="7" height="29" fill="#d7e9f2"/>
<rect x="135" y="78" width="7" height="29" fill="#cde3ef"/>
<rect x="142" y="78" width="7" height="29" fill="#c6dfed"/>
<rect x="149" y="78" width="7" height="29" fill="#e4f0f6"/>
<rect x="156" y="78" width="7" height="29" fill="#cde3ef"/>
<rect x="163" y="78" width="7" height="29" fill="#f8fafc"/>
<rect x="170" y="78" width="7" height="29" fill="#dcecf4"/>
<rect x="177" y="78" width="7" height="29" fill="#d7e9f2"/>
<rect x="184" y="78" width="7" height="29" fill="#e4f0f6"/>
<rect x="191" y="78" width="7" height="29" fill="#d1e6f1"/>
<rect x="198" y="78" width="7" height="29" fill="#f8fafc"/>
<rect x="205" y="78" width="7" height="29" fill="#f8fafc"/>
<rect x="212" y="78" width="7" height="29" fill="#ddecf4"/>
<rect x="219" y="78" width="7" height="29" fill="#ddecf4"/>
<rect x="226" y="78" width="7" height="29" fill="#f8fafc"/>
<rect x="233" y="78" width="7" height="29" fill="#e4f0f6"/>
<rect x="240" y="78" width="7" height="29" fill="#f8fafc"/>
<rect x="247" y="78" width="7" height="29" fill="#e4f0f6"/>
<rect x="254" y="78" width="7" height="29" fill="#c9e1ee"/>
<rect x="261" y="78" width="7" height="29" fill="#f8fafc"/>
<rect x="268" y="78" width="7" height="29" fill="#d7e9f2"/>
<rect x="275" y="78" width="7" height="29" fill="#e4f0f6"/>
<rect x="282" y="78" width="7" height="29" fill="#ddecf4"/>
<rect x="289" y="78" width="7" height="29" fill="#f8fafc"/>
<rect x="296" y="78" width="7" height="29" fill="#d1e6f1"/>
<rect x="303" y="78" width="7" height="29" fill="#e4f0f6"/>
<rect x="310" y="78" width="7" height="29" fill="#e4f0f6"/>
<rect x="317" y="78" width="7" height="29" fill="#f8fafc"/>
<rect x="324" y="78" width="7" height="29" fill="#e4f0f6"/>
<rect x="331" y="78" width="7" height="29" fill="#f8fafc"/>
<rect x="338" y="78" width="7" height="29" fill="#e4f0f6"/>
<rect x="345" y="78" width="7" height="29" fill="#f8fafc"/>
<rect x="352" y="78" width="7" height="29" fill="#d7e9f2"/>
<rect x="359" y="78" width="7" height="29" fill="#ddecf4"/>
<rect x="366" y="78" width="7" height="29" fill="#dcecf4"/>
<rect x="373" y="78" width="7" height="29" fill="#e4f0f6"/>
<rect x="380" y="78" width="7" height="29" fill="#e4f0f6"/>
<rect x="387" y="78" width="7" height="29" fill="#ddecf4"/>
<rect x="394" y="78" width="7" height="29" fill="#e4f0f6"/>
<rect x="401" y="78" width="7" height="29" fill="#e4f0f6"/>
<rect x="408" y="78" width="7" height="29" fill="#d7e9f2"/>
<rect x="415" y="78" width="7" height="29" fill="#f8fafc"/>
<rect x="422" y="78" width="7" height="29" fill="#ddecf4"/>
<rect x="429" y="78" width="7" height="29" fill="#e4f0f6"/>
<rect x="436" y="78" width="7" height="29" fill="#dcecf4"/>
<rect x="443" y="78" width="7" height="29" fill="#e4f0f6"/>
<rect x="450" y="78" width="7" height="29" fill="#cde3ef"/>
<rect x="457" y="78" width="7" height="29" fill="#ddecf4"/>
<rect x="464" y="78" width="7" height="29" fill="#ddecf4"/>
<rect x="471" y="78" width="7" height="29" fill="#d6e8f2"/>
<rect x="478" y="78" width="7" height="29" fill="#e4f0f6"/>
<rect x="485" y="78" width="7" height="29" fill="#dcecf4"/>
<rect x="492" y="78" width="7" height="29" fill="#ddecf4"/>
<rect x="499" y="78" width="7" height="29" fill="#f8fafc"/>
<rect x="506" y="78" width="7" height="29" fill="#e4f0f6"/>
<rect x="513" y="78" width="7" height="29" fill="#ddecf4"/>
<rect x="520" y="78" width="7" height="29" fill="#d6e8f2"/>
<rect x="527" y="78" width="7" height="29" fill="#e4f0f6"/>
<rect x="534" y="78" width="7" height="29" fill="#d7e9f2"/>
<rect x="541" y="78" width="7" height="29" fill="#f8fafc"/>
<rect x="548" y="78" width="7" height="29" fill="#ddecf4"/>
<rect x="555" y="78" width="7" height="29" fill="#e4f0f6"/>
<rect x="562" y="78" width="7" height="29" fill="#d7e9f2"/>
<rect x="569" y="78" width="7" height="29" fill="#f8fafc"/>
<rect x="576" y="78" width="7" height="29" fill="#f8fafc"/>
<rect x="583" y="78" width="7" height="29" fill="#ddecf4"/>
<rect x="590" y="78" width="7" height="29" fill="#d6e8f2"/>
<rect x="597" y="78" width="7" height="29" fill="#ddecf4"/>
<rect x="604" y="78" width="7" height="29" fill="#f8fafc"/>
<rect x="611" y="78" width="7" height="29" fill="#dcecf4"/>
<rect x="618" y="78" width="7" height="29" fill="#e4f0f6"/>
<rect x="625" y="78" width="7" height="29" fill="#d6e8f2"/>
<rect x="632" y="78" width="7" height="29" fill="#ddecf4"/>
<rect x="639" y="78" width="7" height="29" fill="#ddecf4"/>
<rect x="646" y="78" width="7" height="29" fill="#dcecf4"/>
<rect x="653" y="78" width="7" height="29" fill="#ddecf4"/>
<rect x="660" y="78" width="7" height="29" fill="#d1e6f1"/>
<rect x="667" y="78" width="7" height="29" fill="#e4f0f6"/>
<rect x="674" y="78" width="7" height="29" fill="#d7e9f2"/>
<rect x="681" y="78" width="7" height="29" fill="#e4f0f6"/>
<rect x="688" y="78" width="7" height="29" fill="#d2e6f1"/>
<rect x="695" y="78" width="7" height="29" fill="#dcecf4"/>
<rect x="702" y="78" width="7" height="29" fill="#bfdceb"/>
<rect x="709" y="78" width="7" height="29" fill="#c9e1ee"/>
<rect x="716" y="78" width="7" height="29" fill="#d6e8f2"/>
<rect x="723" y="78" width="7" height="29" fill="#d7e9f2"/>
<rect x="730" y="78" width="7" height="29" fill="#c9e1ee"/>
<rect x="737" y="78" width="7" height="29" fill="#ddecf4"/>
<rect x="744" y="78" width="7" height="29" fill="#d2e6f1"/>
<rect x="751" y="78" width="7" height="29" fill="#d1e6f1"/>
<rect x="758" y="78" width="7" height="29" fill="#d2e6f1"/>
<rect x="765" y="78" width="7" height="29" fill="#c2ddec"/>
<rect x="772" y="78" width="7" height="29" fill="#cde4ef"/>
<rect x="779" y="78" width="7" height="29" fill="#bcdaea"/>
<rect x="786" y="78" width="7" height="29" fill="#bfdceb"/>
<rect x="793" y="78" width="7" height="29" fill="#bfdceb"/>
<rect x="800" y="78" width="7" height="29" fill="#bbdaea"/>
<rect x="807" y="78" width="7" height="29" fill="#2b8cbe"/>
<rect x="814" y="78" width="7" height="29" fill="#3692c1"/>
<rect x="821" y="78" width="7" height="29" fill="#3f97c4"/>
<rect x="828" y="78" width="7" height="29" fill="#55a2cb"/>
<rect x="835" y="78" width="7" height="29" fill="#57a4cb"/>
<rect x="842" y="78" width="7" height="29" fill="#479bc7"/>
<rect x="849" y="78" width="7" height="29" fill="#3e96c4"/>
<rect x="856" y="78" width="7" height="29" fill="#489cc7"/>
<rect x="863" y="78" width="7" height="29" fill="#4399c5"/>
<rect x="870" y="78" width="7" height="29" fill="#3792c2"/>
<rect x="877" y="78" width="7" height="29" fill="#2e8dbf"/>
<rect x="884" y="78" width="7" height="29" fill="#3e96c4"/>
<rect x="891" y="78" width="7" height="29" fill="#318fc0"/>
<rect x="898" y="78" width="7" height="29" fill="#4b9dc8"/>
<rect x="905" y="78" width="7" height="29" fill="#72b2d4"/>
<text x="24" y="133" class="label">BRCA2</text>
<rect x="72" y="112" width="7" height="29" fill="#dbebf4"/>
<rect x="79" y="112" width="7" height="29" fill="#dbebf4"/>
<rect x="86" y="112" width="7" height="29" fill="#e9f3f8"/>
<rect x="93" y="112" width="7" height="29" fill="#e9f3f8"/>
<rect x="100" y="112" width="7" height="29" fill="#f8fafc"/>
<rect x="107" y="112" width="7" height="29" fill="#e3eff6"/>
<rect x="114" y="112" width="7" height="29" fill="#e4eff6"/>
<rect x="121" y="112" width="7" height="29" fill="#e9f3f8"/>
<rect x="128" y="112" width="7" height="29" fill="#e9f3f8"/>
<rect x="135" y="112" width="7" height="29" fill="#e3eff6"/>
<rect x="142" y="112" width="7" height="29" fill="#f8fafc"/>
<rect x="149" y="112" width="7" height="29" fill="#e3eff6"/>
<rect x="156" y="112" width="7" height="29" fill="#f8fafc"/>
<rect x="163" y="112" width="7" height="29" fill="#f8fafc"/>
<rect x="170" y="112" width="7" height="29" fill="#f8fafc"/>
<rect x="177" y="112" width="7" height="29" fill="#e3eff6"/>
<rect x="184" y="112" width="7" height="29" fill="#e9f3f8"/>
<rect x="191" y="112" width="7" height="29" fill="#f8fafc"/>
<rect x="198" y="112" width="7" height="29" fill="#f8fafc"/>
<rect x="205" y="112" width="7" height="29" fill="#f8fafc"/>
<rect x="212" y="112" width="7" height="29" fill="#d5e8f2"/>
<rect x="219" y="112" width="7" height="29" fill="#e4eff6"/>
<rect x="226" y="112" width="7" height="29" fill="#e9f3f8"/>
<rect x="233" y="112" width="7" height="29" fill="#f8fafc"/>
<rect x="240" y="112" width="7" height="29" fill="#f8fafc"/>
<rect x="247" y="112" width="7" height="29" fill="#f8fafc"/>
<rect x="254" y="112" width="7" height="29" fill="#e9f3f8"/>
<rect x="261" y="112" width="7" height="29" fill="#f8fafc"/>
<rect x="268" y="112" width="7" height="29" fill="#f8fafc"/>
<rect x="275" y="112" width="7" height="29" fill="#e9f3f8"/>
<rect x="282" y="112" width="7" height="29" fill="#e9f3f8"/>
<rect x="289" y="112" width="7" height="29" fill="#f8fafc"/>
<rect x="296" y="112" width="7" height="29" fill="#e9f3f8"/>
<rect x="303" y="112" width="7" height="29" fill="#f8fafc"/>
<rect x="310" y="112" width="7" height="29" fill="#e3eff6"/>
<rect x="317" y="112" width="7" height="29" fill="#e9f3f8"/>
<rect x="324" y="112" width="7" height="29" fill="#f8fafc"/>
<rect x="331" y="112" width="7" height="29" fill="#e9f3f8"/>
<rect x="338" y="112" width="7" height="29" fill="#f8fafc"/>
<rect x="345" y="112" width="7" height="29" fill="#e9f3f8"/>
<rect x="352" y="112" width="7" height="29" fill="#e9f3f8"/>
<rect x="359" y="112" width="7" height="29" fill="#e9f3f8"/>
<rect x="366" y="112" width="7" height="29" fill="#e9f3f8"/>
<rect x="373" y="112" width="7" height="29" fill="#f8fafc"/>
<rect x="380" y="112" width="7" height="29" fill="#f8fafc"/>
<rect x="387" y="112" width="7" height="29" fill="#f8fafc"/>
<rect x="394" y="112" width="7" height="29" fill="#e9f3f8"/>
<rect x="401" y="112" width="7" height="29" fill="#f8fafc"/>
<rect x="408" y="112" width="7" height="29" fill="#f8fafc"/>
<rect x="415" y="112" width="7" height="29" fill="#f8fafc"/>
<rect x="422" y="112" width="7" height="29" fill="#e9f3f8"/>
<rect x="429" y="112" width="7" height="29" fill="#e9f3f8"/>
<rect x="436" y="112" width="7" height="29" fill="#f8fafc"/>
<rect x="443" y="112" width="7" height="29" fill="#dfedf5"/>
<rect x="450" y="112" width="7" height="29" fill="#f8fafc"/>
<rect x="457" y="112" width="7" height="29" fill="#f8fafc"/>
<rect x="464" y="112" width="7" height="29" fill="#f8fafc"/>
<rect x="471" y="112" width="7" height="29" fill="#e9f3f8"/>
<rect x="478" y="112" width="7" height="29" fill="#f8fafc"/>
<rect x="485" y="112" width="7" height="29" fill="#e3eff6"/>
<rect x="492" y="112" width="7" height="29" fill="#e3eff6"/>
<rect x="499" y="112" width="7" height="29" fill="#f8fafc"/>
<rect x="506" y="112" width="7" height="29" fill="#e3eff6"/>
<rect x="513" y="112" width="7" height="29" fill="#f8fafc"/>
<rect x="520" y="112" width="7" height="29" fill="#f8fafc"/>
<rect x="527" y="112" width="7" height="29" fill="#e4eff6"/>
<rect x="534" y="112" width="7" height="29" fill="#e9f3f8"/>
<rect x="541" y="112" width="7" height="29" fill="#e9f3f8"/>
<rect x="548" y="112" width="7" height="29" fill="#e9f3f8"/>
<rect x="555" y="112" width="7" height="29" fill="#e4eff6"/>
<rect x="562" y="112" width="7" height="29" fill="#e9f3f8"/>
<rect x="569" y="112" width="7" height="29" fill="#e9f3f8"/>
<rect x="576" y="112" width="7" height="29" fill="#dbebf4"/>
<rect x="583" y="112" width="7" height="29" fill="#e4eff6"/>
<rect x="590" y="112" width="7" height="29" fill="#f8fafc"/>
<rect x="597" y="112" width="7" height="29" fill="#e4eff6"/>
<rect x="604" y="112" width="7" height="29" fill="#e9f3f8"/>
<rect x="611" y="112" width="7" height="29" fill="#f8fafc"/>
<rect x="618" y="112" width="7" height="29" fill="#f8fafc"/>
<rect x="625" y="112" width="7" height="29" fill="#f8fafc"/>
<rect x="632" y="112" width="7" height="29" fill="#dfedf5"/>
<rect x="639" y="112" width="7" height="29" fill="#dbebf4"/>
<rect x="646" y="112" width="7" height="29" fill="#e9f3f8"/>
<rect x="653" y="112" width="7" height="29" fill="#f8fafc"/>
<rect x="660" y="112" width="7" height="29" fill="#dfedf5"/>
<rect x="667" y="112" width="7" height="29" fill="#f8fafc"/>
<rect x="674" y="112" width="7" height="29" fill="#e9f3f8"/>
<rect x="681" y="112" width="7" height="29" fill="#c5dfed"/>
<rect x="688" y="112" width="7" height="29" fill="#c9e1ee"/>
<rect x="695" y="112" width="7" height="29" fill="#e3eff6"/>
<rect x="702" y="112" width="7" height="29" fill="#d0e5f0"/>
<rect x="709" y="112" width="7" height="29" fill="#d0e5f0"/>
<rect x="716" y="112" width="7" height="29" fill="#d3e6f1"/>
<rect x="723" y="112" width="7" height="29" fill="#c7e0ed"/>
<rect x="730" y="112" width="7" height="29" fill="#d0e5f0"/>
<rect x="737" y="112" width="7" height="29" fill="#d8e9f3"/>
<rect x="744" y="112" width="7" height="29" fill="#d3e6f1"/>
<rect x="751" y="112" width="7" height="29" fill="#c7e0ed"/>
<rect x="758" y="112" width="7" height="29" fill="#c9e1ee"/>
<rect x="765" y="112" width="7" height="29" fill="#d2e6f1"/>
<rect x="772" y="112" width="7" height="29" fill="#d5e8f2"/>
<rect x="779" y="112" width="7" height="29" fill="#d5e8f2"/>
<rect x="786" y="112" width="7" height="29" fill="#d8e9f3"/>
<rect x="793" y="112" width="7" height="29" fill="#e9f3f8"/>
<rect x="800" y="112" width="7" height="29" fill="#d0e5f0"/>
<rect x="807" y="112" width="7" height="29" fill="#dfedf5"/>
<rect x="814" y="112" width="7" height="29" fill="#dbebf4"/>
<rect x="821" y="112" width="7" height="29" fill="#d0e5f0"/>
<rect x="828" y="112" width="7" height="29" fill="#d2e6f1"/>
<rect x="835" y="112" width="7" height="29" fill="#d0e5f0"/>
<rect x="842" y="112" width="7" height="29" fill="#e9f3f8"/>
<rect x="849" y="112" width="7" height="29" fill="#d8e9f3"/>
<rect x="856" y="112" width="7" height="29" fill="#f8fafc"/>
<rect x="863" y="112" width="7" height="29" fill="#f8fafc"/>
<rect x="870" y="112" width="7" height="29" fill="#dfedf5"/>
<rect x="877" y="112" width="7" height="29" fill="#d5e8f2"/>
<rect x="884" y="112" width="7" height="29" fill="#e3eff6"/>
<rect x="891" y="112" width="7" height="29" fill="#e9f3f8"/>
<rect x="898" y="112" width="7" height="29" fill="#e3eff6"/>
<rect x="905" y="112" width="7" height="29" fill="#f8fafc"/>
<line x1="72" y1="150" x2="72" y2="156" class="axis"/>
<text x="62" y="173" class="small">0%</text>
<line x1="282.0" y1="150" x2="282.0" y2="156" class="axis"/>
<text x="272.0" y="173" class="small">25%</text>
<line x1="492.0" y1="150" x2="492.0" y2="156" class="axis"/>
<text x="482.0" y="173" class="small">50%</text>
<line x1="702.0" y1="150" x2="702.0" y2="156" class="axis"/>
<text x="692.0" y="173" class="small">75%</text>
<line x1="912.0" y1="150" x2="912.0" y2="156" class="axis"/>
<text x="902.0" y="173" class="small">100%</text>
</svg>
