<svg xmlns="http://www.w3.org/2000/svg" width="980" height="534" viewBox="0 0 980 534">
<style>
text { font-family: Arial, Helvetica, sans-serif; fill: #172033; }
.small { font-size: 11px; }
.label { font-size: 12px; }
.title { font-size: 18px; font-weight: 700; }
.grid { stroke: #e2e8f0; stroke-width: 1; }
.axis { stroke: #9aa4b2; stroke-width: 1; }
</style>
<rect x="0" y="0" width="980" height="534" fill="#ffffff"/>
<text x="28" y="34" class="title">Top PP3 hotspots</text>
<text x="26" y="83" class="small">BRCA1 bin 94 c.4334-4380</text>
<rect x="220" y="66" width="650" height="24" fill="#7c3aed"/>
<text x="878" y="83" class="small">15.91x, n=50, 35.5%</text>
<text x="26" y="117" class="small">BRCA1 bin 5 c.187-233</text>
<rect x="220" y="100" width="545" height="24" fill="#864aee"/>
<text x="773" y="117" class="small">13.33x, n=41, 29.7%</text>
<text x="26" y="151" class="small">BRCA2 bin 106 c.8975-9060</text>
<rect x="220" y="134" width="497" height="24" fill="#8b52ef"/>
<text x="725" y="151" class="small">12.17x, n=70, 27.1%</text>
<text x="26" y="185" class="small">BRCA2 bin 107 c.9061-9145</text>
<rect x="220" y="168" width="482" height="24" fill="#8d55ef"/>
<text x="710" y="185" class="small">11.79x, n=67, 26.3%</text>
<text x="26" y="219" class="small">BRCA1 bin 109 c.5033-5079</text>
<rect x="220" y="202" width="468" height="24" fill="#8f57ef"/>
<text x="696" y="219" class="small">11.45x, n=36, 25.5%</text>
<text x="26" y="253" class="small">BRCA1 bin 6 c.234-279</text>
<rect x="220" y="236" width="442" height="24" fill="#925cf0"/>
<text x="670" y="253" class="small">10.82x, n=34, 24.1%</text>
<text x="26" y="287" class="small">BRCA1 bin 7 c.280-326</text>
<rect x="220" y="270" width="390" height="24" fill="#9865f0"/>
<text x="618" y="287" class="small">9.54x, n=30, 21.3%</text>
<text x="26" y="321" class="small">BRCA2 bin 114 c.9659-9744</text>
<rect x="220" y="304" width="291" height="24" fill="#a579f2"/>
<text x="519" y="321" class="small">7.13x, n=41, 15.9%</text>
<text x="26" y="355" class="small">BRCA1 bin 4 c.140-186</text>
<rect x="220" y="338" width="273" height="24" fill="#a77ef2"/>
<text x="501" y="355" class="small">6.68x, n=21, 14.9%</text>
<text x="26" y="389" class="small">BRCA1 bin 17 c.746-792</text>
<rect x="220" y="372" width="260" height="24" fill="#a981f3"/>
<text x="488" y="389" class="small">6.36x, n=20, 14.2%</text>
<text x="26" y="423" class="small">BRCA1 bin 88 c.4055-4100</text>
<rect x="220" y="406" width="252" height="24" fill="#aa82f3"/>
<text x="480" y="423" class="small">6.18x, n=19, 13.8%</text>
<text x="26" y="457" class="small">BRCA1 bin 97 c.4474-4520</text>
<rect x="220" y="440" width="247" height="24" fill="#ab84f3"/>
<text x="475" y="457" class="small">6.04x, n=19, 13.5%</text>
</svg>
