<svg xmlns="http://www.w3.org/2000/svg" width="661" height="621" viewBox="0 0 661 621">
<style>
text { font-family: Arial, Helvetica, sans-serif; fill: #172033; }
.small { font-size: 11px; }
.label { font-size: 12px; }
.title { font-size: 18px; font-weight: 700; }
</style>
<rect x="0" y="0" width="661" height="621" fill="#ffffff"/>
<text x="28" y="34" class="title">Criteria co-occurrence heatmap Likely Pathogenic/Pathogenic</text>
<text x="149" y="85" class="small" transform="rotate(-45 149 85)">BS1_Strong</text>
<text x="183" y="85" class="small" transform="rotate(-45 183 85)">BS1_Supporting</text>
<text x="217" y="85" class="small" transform="rotate(-45 217 85)">BS3</text>
<text x="251" y="85" class="small" transform="rotate(-45 251 85)">BP1</text>
<text x="285" y="85" class="small" transform="rotate(-45 285 85)">BP4</text>
<text x="319" y="85" class="small" transform="rotate(-45 319 85)">BP5</text>
<text x="353" y="85" class="small" transform="rotate(-45 353 85)">BP7</text>
<text x="387" y="85" class="small" transform="rotate(-45 387 85)">PM2_Supporting</text>
<text x="421" y="85" class="small" transform="rotate(-45 421 85)">PM5_PTC</text>
<text x="455" y="85" class="small" transform="rotate(-45 455 85)">PP3</text>
<text x="489" y="85" class="small" transform="rotate(-45 489 85)">PP4</text>
<text x="523" y="85" class="small" transform="rotate(-45 523 85)">PS1</text>
<text x="557" y="85" class="small" transform="rotate(-45 557 85)">PS3</text>
<text x="591" y="85" class="small" transform="rotate(-45 591 85)">PVS1</text>
<text x="20" y="116" class="small">BS1_Strong</text>
<rect x="145" y="95" width="32" height="32" fill="#e5e7eb"/>
<rect x="179" y="95" width="32" height="32" fill="#f7fafc"/>
<rect x="213" y="95" width="32" height="32" fill="#f7fafc"/>
<rect x="247" y="95" width="32" height="32" fill="#f7fafc"/>
<rect x="281" y="95" width="32" height="32" fill="#f7fafc"/>
<rect x="315" y="95" width="32" height="32" fill="#f7fafc"/>
<rect x="349" y="95" width="32" height="32" fill="#f7fafc"/>
<rect x="383" y="95" width="32" height="32" fill="#f7fafc"/>
<rect x="417" y="95" width="32" height="32" fill="#f7fafc"/>
<rect x="451" y="95" width="32" height="32" fill="#f7fafc"/>
<rect x="485" y="95" width="32" height="32" fill="#f7fafc"/>
<rect x="519" y="95" width="32" height="32" fill="#f7fafc"/>
<rect x="553" y="95" width="32" height="32" fill="#f7fafc"/>
<rect x="587" y="95" width="32" height="32" fill="#f7fafc"/>
<text x="20" y="150" class="small">BS1_Supporting</text>
<rect x="145" y="129" width="32" height="32" fill="#f7fafc"/>
<rect x="179" y="129" width="32" height="32" fill="#e5e7eb"/>
<rect x="213" y="129" width="32" height="32" fill="#f7fafc"/>
<rect x="247" y="129" width="32" height="32" fill="#f7fafc"/>
<rect x="281" y="129" width="32" height="32" fill="#f7fafc"/>
<rect x="315" y="129" width="32" height="32" fill="#f7fafc"/>
<rect x="349" y="129" width="32" height="32" fill="#f7fafc"/>
<rect x="383" y="129" width="32" height="32" fill="#f7fafc"/>
<rect x="417" y="129" width="32" height="32" fill="#f3f7fc"/>
<text x="421" y="149" class="small">1</text>
<rect x="451" y="129" width="32" height="32" fill="#f7fafc"/>
<rect x="485" y="129" width="32" height="32" fill="#f7fafc"/>
<rect x="519" y="129" width="32" height="32" fill="#f7fafc"/>
<rect x="553" y="129" width="32" height="32" fill="#f7fafc"/>
<rect x="587" y="129" width="32" height="32" fill="#f3f7fc"/>
<text x="591" y="149" class="small">1</text>
<text x="20" y="184" class="small">BS3</text>
<rect x="145" y="163" width="32" height="32" fill="#f7fafc"/>
<rect x="179" y="163" width="32" height="32" fill="#f7fafc"/>
<rect x="213" y="163" width="32" height="32" fill="#e5e7eb"/>
<rect x="247" y="163" width="32" height="32" fill="#f7fafc"/>
<rect x="281" y="163" width="32" height="32" fill="#f7fafc"/>
<rect x="315" y="163" width="32" height="32" fill="#f7fafc"/>
<rect x="349" y="163" width="32" height="32" fill="#f7fafc"/>
<rect x="383" y="163" width="32" height="32" fill="#f7fafc"/>
<rect x="417" y="163" width="32" height="32" fill="#f7fafc"/>
<rect x="451" y="163" width="32" height="32" fill="#f7fafc"/>
<rect x="485" y="163" width="32" height="32" fill="#f7fafc"/>
<rect x="519" y="163" width="32" height="32" fill="#f7fafc"/>
<rect x="553" y="163" width="32" height="32" fill="#f7fafc"/>
<rect x="587" y="163" width="32" height="32" fill="#f7fafc"/>
<text x="20" y="218" class="small">BP1</text>
<rect x="145" y="197" width="32" height="32" fill="#f7fafc"/>
<rect x="179" y="197" width="32" height="32" fill="#f7fafc"/>
<rect x="213" y="197" width="32" height="32" fill="#f7fafc"/>
<rect x="247" y="197" width="32" height="32" fill="#e5e7eb"/>
<rect x="281" y="197" width="32" height="32" fill="#f7fafc"/>
<rect x="315" y="197" width="32" height="32" fill="#f7fafc"/>
<rect x="349" y="197" width="32" height="32" fill="#f7fafc"/>
<rect x="383" y="197" width="32" height="32" fill="#f7fafc"/>
<rect x="417" y="197" width="32" height="32" fill="#f7fafc"/>
<rect x="451" y="197" width="32" height="32" fill="#f7fafc"/>
<rect x="485" y="197" width="32" height="32" fill="#f7fafc"/>
<rect x="519" y="197" width="32" height="32" fill="#f7fafc"/>
<rect x="553" y="197" width="32" height="32" fill="#f7fafc"/>
<rect x="587" y="197" width="32" height="32" fill="#f7fafc"/>
<text x="20" y="252" class="small">BP4</text>
<rect x="145" y="231" width="32" height="32" fill="#f7fafc"/>
<rect x="179" y="231" width="32" height="32" fill="#f7fafc"/>
<rect x="213" y="231" width="32" height="32" fill="#f7fafc"/>
<rect x="247" y="231" width="32" height="32" fill="#f7fafc"/>
<rect x="281" y="231" width="32" height="32" fill="#e5e7eb"/>
<rect x="315" y="231" width="32" height="32" fill="#f7fafc"/>
<rect x="349" y="231" width="32" height="32" fill="#f7fafc"/>
<rect x="383" y="231" width="32" height="32" fill="#f7fafc"/>
<rect x="417" y="231" width="32" height="32" fill="#f7fafc"/>
<rect x="451" y="231" width="32" height="32" fill="#f7fafc"/>
<rect x="485" y="231" width="32" height="32" fill="#f7fafc"/>
<rect x="519" y="231" width="32" height="32" fill="#f7fafc"/>
<rect x="553" y="231" width="32" height="32" fill="#f7fafc"/>
<rect x="587" y="231" width="32" height="32" fill="#f7fafc"/>
<text x="20" y="286" class="small">BP5</text>
<rect x="145" y="265" width="32" height="32" fill="#f7fafc"/>
<rect x="179" y="265" width="32" height="32" fill="#f7fafc"/>
<rect x="213" y="265" width="32" height="32" fill="#f7fafc"/>
<rect x="247" y="265" width="32" height="32" fill="#f7fafc"/>
<rect x="281" y="265" width="32" height="32" fill="#f7fafc"/>
<rect x="315" y="265" width="32" height="32" fill="#e5e7eb"/>
<rect x="349" y="265" width="32" height="32" fill="#f7fafc"/>
<rect x="383" y="265" width="32" height="32" fill="#f7fafc"/>
<rect x="417" y="265" width="32" height="32" fill="#f7fafc"/>
<rect x="451" y="265" width="32" height="32" fill="#f7fafc"/>
<rect x="485" y="265" width="32" height="32" fill="#f7fafc"/>
<rect x="519" y="265" width="32" height="32" fill="#f7fafc"/>
<rect x="553" y="265" width="32" height="32" fill="#f7fafc"/>
<rect x="587" y="265" width="32" height="32" fill="#f7fafc"/>
<text x="20" y="320" class="small">BP7</text>
<rect x="145" y="299" width="32" height="32" fill="#f7fafc"/>
<rect x="179" y="299" width="32" height="32" fill="#f7fafc"/>
<rect x="213" y="299" width="32" height="32" fill="#f7fafc"/>
<rect x="247" y="299" width="32" height="32" fill="#f7fafc"/>
<rect x="281" y="299" width="32" height="32" fill="#f7fafc"/>
<rect x="315" y="299" width="32" height="32" fill="#f7fafc"/>
<rect x="349" y="299" width="32" height="32" fill="#e5e7eb"/>
<rect x="383" y="299" width="32" height="32" fill="#f7fafc"/>
<rect x="417" y="299" width="32" height="32" fill="#f7fafc"/>
<rect x="451" y="299" width="32" height="32" fill="#f7fafc"/>
<rect x="485" y="299" width="32" height="32" fill="#f7fafc"/>
<rect x="519" y="299" width="32" height="32" fill="#f7fafc"/>
<rect x="553" y="299" width="32" height="32" fill="#f7fafc"/>
<rect x="587" y="299" width="32" height="32" fill="#f7fafc"/>
<text x="20" y="354" class="small">PM2_Supporting</text>
<rect x="145" y="333" width="32" height="32" fill="#f7fafc"/>
<rect x="179" y="333" width="32" height="32" fill="#f7fafc"/>
<rect x="213" y="333" width="32" height="32" fill="#f7fafc"/>
<rect x="247" y="333" width="32" height="32" fill="#f7fafc"/>
<rect x="281" y="333" width="32" height="32" fill="#f7fafc"/>
<rect x="315" y="333" width="32" height="32" fill="#f7fafc"/>
<rect x="349" y="333" width="32" height="32" fill="#f7fafc"/>
<rect x="383" y="333" width="32" height="32" fill="#e5e7eb"/>
<rect x="417" y="333" width="32" height="32" fill="#2a67eb"/>
<text x="421" y="353" class="small">2129</text>
<rect x="451" y="333" width="32" height="32" fill="#d2dff9"/>
<text x="455" y="353" class="small">70</text>
<rect x="485" y="333" width="32" height="32" fill="#dbe6fa"/>
<text x="489" y="353" class="small">40</text>
<rect x="519" y="333" width="32" height="32" fill="#f1f5fb"/>
<text x="523" y="353" class="small">2</text>
<rect x="553" y="333" width="32" height="32" fill="#b4caf7"/>
<text x="557" y="353" class="small">229</text>
<rect x="587" y="333" width="32" height="32" fill="#2664eb"/>
<text x="591" y="353" class="small">2212</text>
<text x="20" y="388" class="small">PM5_PTC</text>
<rect x="145" y="367" width="32" height="32" fill="#f7fafc"/>
<rect x="179" y="367" width="32" height="32" fill="#f3f7fc"/>
<text x="183" y="387" class="small">1</text>
<rect x="213" y="367" width="32" height="32" fill="#f7fafc"/>
<rect x="247" y="367" width="32" height="32" fill="#f7fafc"/>
<rect x="281" y="367" width="32" height="32" fill="#f7fafc"/>
<rect x="315" y="367" width="32" height="32" fill="#f7fafc"/>
<rect x="349" y="367" width="32" height="32" fill="#f7fafc"/>
<rect x="383" y="367" width="32" height="32" fill="#2a67eb"/>
<text x="387" y="387" class="small">2129</text>
<rect x="417" y="367" width="32" height="32" fill="#e5e7eb"/>
<rect x="451" y="367" width="32" height="32" fill="#f7fafc"/>
<rect x="485" y="367" width="32" height="32" fill="#f7fafc"/>
<rect x="519" y="367" width="32" height="32" fill="#f7fafc"/>
<rect x="553" y="367" width="32" height="32" fill="#c4d6f8"/>
<text x="557" y="387" class="small">130</text>
<rect x="587" y="367" width="32" height="32" fill="#2563eb"/>
<text x="591" y="387" class="small">2241</text>
<text x="20" y="422" class="small">PP3</text>
<rect x="145" y="401" width="32" height="32" fill="#f7fafc"/>
<rect x="179" y="401" width="32" height="32" fill="#f7fafc"/>
<rect x="213" y="401" width="32" height="32" fill="#f7fafc"/>
<rect x="247" y="401" width="32" height="32" fill="#f7fafc"/>
<rect x="281" y="401" width="32" height="32" fill="#f7fafc"/>
<rect x="315" y="401" width="32" height="32" fill="#f7fafc"/>
<rect x="349" y="401" width="32" height="32" fill="#f7fafc"/>
<rect x="383" y="401" width="32" height="32" fill="#d2dff9"/>
<text x="387" y="421" class="small">70</text>
<rect x="417" y="401" width="32" height="32" fill="#f7fafc"/>
<rect x="451" y="401" width="32" height="32" fill="#e5e7eb"/>
<rect x="485" y="401" width="32" height="32" fill="#e5edfb"/>
<text x="489" y="421" class="small">17</text>
<rect x="519" y="401" width="32" height="32" fill="#f7fafc"/>
<rect x="553" y="401" width="32" height="32" fill="#d2dff9"/>
<text x="557" y="421" class="small">70</text>
<rect x="587" y="401" width="32" height="32" fill="#f7fafc"/>
<text x="20" y="456" class="small">PP4</text>
<rect x="145" y="435" width="32" height="32" fill="#f7fafc"/>
<rect x="179" y="435" width="32" height="32" fill="#f7fafc"/>
<rect x="213" y="435" width="32" height="32" fill="#f7fafc"/>
<rect x="247" y="435" width="32" height="32" fill="#f7fafc"/>
<rect x="281" y="435" width="32" height="32" fill="#f7fafc"/>
<rect x="315" y="435" width="32" height="32" fill="#f7fafc"/>
<rect x="349" y="435" width="32" height="32" fill="#f7fafc"/>
<rect x="383" y="435" width="32" height="32" fill="#dbe6fa"/>
<text x="387" y="455" class="small">40</text>
<rect x="417" y="435" width="32" height="32" fill="#f7fafc"/>
<rect x="451" y="435" width="32" height="32" fill="#e5edfb"/>
<text x="455" y="455" class="small">17</text>
<rect x="485" y="435" width="32" height="32" fill="#e5e7eb"/>
<rect x="519" y="435" width="32" height="32" fill="#f7fafc"/>
<rect x="553" y="435" width="32" height="32" fill="#dbe6fa"/>
<text x="557" y="455" class="small">40</text>
<rect x="587" y="435" width="32" height="32" fill="#f7fafc"/>
<text x="20" y="490" class="small">PS1</text>
<rect x="145" y="469" width="32" height="32" fill="#f7fafc"/>
<rect x="179" y="469" width="32" height="32" fill="#f7fafc"/>
<rect x="213" y="469" width="32" height="32" fill="#f7fafc"/>
<rect x="247" y="469" width="32" height="32" fill="#f7fafc"/>
<rect x="281" y="469" width="32" height="32" fill="#f7fafc"/>
<rect x="315" y="469" width="32" height="32" fill="#f7fafc"/>
<rect x="349" y="469" width="32" height="32" fill="#f7fafc"/>
<rect x="383" y="469" width="32" height="32" fill="#f1f5fb"/>
<text x="387" y="489" class="small">2</text>
<rect x="417" y="469" width="32" height="32" fill="#f7fafc"/>
<rect x="451" y="469" width="32" height="32" fill="#f7fafc"/>
<rect x="485" y="469" width="32" height="32" fill="#f7fafc"/>
<rect x="519" y="469" width="32" height="32" fill="#e5e7eb"/>
<rect x="553" y="469" width="32" height="32" fill="#f1f5fb"/>
<text x="557" y="489" class="small">2</text>
<rect x="587" y="469" width="32" height="32" fill="#f7fafc"/>
<text x="20" y="524" class="small">PS3</text>
<rect x="145" y="503" width="32" height="32" fill="#f7fafc"/>
<rect x="179" y="503" width="32" height="32" fill="#f7fafc"/>
<rect x="213" y="503" width="32" height="32" fill="#f7fafc"/>
<rect x="247" y="503" width="32" height="32" fill="#f7fafc"/>
<rect x="281" y="503" width="32" height="32" fill="#f7fafc"/>
<rect x="315" y="503" width="32" height="32" fill="#f7fafc"/>
<rect x="349" y="503" width="32" height="32" fill="#f7fafc"/>
<rect x="383" y="503" width="32" height="32" fill="#b4caf7"/>
<text x="387" y="523" class="small">229</text>
<rect x="417" y="503" width="32" height="32" fill="#c4d6f8"/>
<text x="421" y="523" class="small">130</text>
<rect x="451" y="503" width="32" height="32" fill="#d2dff9"/>
<text x="455" y="523" class="small">70</text>
<rect x="485" y="503" width="32" height="32" fill="#dbe6fa"/>
<text x="489" y="523" class="small">40</text>
<rect x="519" y="503" width="32" height="32" fill="#f1f5fb"/>
<text x="523" y="523" class="small">2</text>
<rect x="553" y="503" width="32" height="32" fill="#e5e7eb"/>
<rect x="587" y="503" width="32" height="32" fill="#c1d3f8"/>
<text x="591" y="523" class="small">147</text>
<text x="20" y="558" class="small">PVS1</text>
<rect x="145" y="537" width="32" height="32" fill="#f7fafc"/>
<rect x="179" y="537" width="32" height="32" fill="#f3f7fc"/>
<text x="183" y="557" class="small">1</text>
<rect x="213" y="537" width="32" height="32" fill="#f7fafc"/>
<rect x="247" y="537" width="32" height="32" fill="#f7fafc"/>
<rect x="281" y="537" width="32" height="32" fill="#f7fafc"/>
<rect x="315" y="537" width="32" height="32" fill="#f7fafc"/>
<rect x="349" y="537" width="32" height="32" fill="#f7fafc"/>
<rect x="383" y="537" width="32" height="32" fill="#2664eb"/>
<text x="387" y="557" class="small">2212</text>
<rect x="417" y="537" width="32" height="32" fill="#2563eb"/>
<text x="421" y="557" class="small">2241</text>
<rect x="451" y="537" width="32" height="32" fill="#f7fafc"/>
<rect x="485" y="537" width="32" height="32" fill="#f7fafc"/>
<rect x="519" y="537" width="32" height="32" fill="#f7fafc"/>
<rect x="553" y="537" width="32" height="32" fill="#c1d3f8"/>
<text x="557" y="557" class="small">147</text>
<rect x="587" y="537" width="32" height="32" fill="#e5e7eb"/>
</svg>
